<?xml version="1.0" standalone="no"?>
<!DOCTYPE svg PUBLIC "-//W3C//DTD SVG 20010904//EN"
 "http://www.w3.org/TR/2001/REC-SVG-20010904/DTD/svg10.dtd">
<svg version="1.0" xmlns="http://www.w3.org/2000/svg"
 width="1024.000000pt" height="1024.000000pt" viewBox="0 0 1024.000000 1024.000000"
 preserveAspectRatio="xMidYMid meet">
<metadata>
Created by potrace 1.14, written by Peter Selinger 2001-2017
</metadata>
<g transform="translate(0.000000,1024.000000) scale(0.100000,-0.100000)"
fill="#000000" stroke="none">
<path d="M3248 8775 c-2 -1 -41 -5 -88 -8 -47 -3 -92 -8 -100 -11 -8 -3 -33
-7 -55 -10 -176 -22 -409 -97 -610 -196 -497 -245 -884 -670 -1081 -1187 -45
-119 -99 -314 -110 -398 -3 -27 -8 -52 -9 -56 -11 -16 -20 -176 -20 -329 0
-205 8 -278 46 -465 53 -257 164 -517 320 -748 48 -73 105 -152 126 -177 85
-101 267 -275 368 -353 210 -160 465 -289 719 -362 93 -26 265 -62 328 -68 21
-2 40 -6 43 -9 3 -2 -40 -114 -94 -249 -160 -397 -483 -1199 -628 -1559 -74
-184 -140 -348 -147 -365 -44 -102 -65 -201 -61 -278 11 -185 132 -363 296
-434 115 -51 12 -48 1859 -48 949 0 1743 3 1765 7 99 17 202 73 276 150 60 63
81 100 143 253 26 66 54 135 62 152 8 18 65 158 125 310 61 153 117 292 124
308 8 17 77 190 155 385 78 195 145 364 150 375 4 11 15 36 23 55 8 19 56 139
107 265 50 127 98 243 106 259 8 16 14 33 14 38 0 5 9 28 19 51 10 23 91 222
180 442 88 220 170 425 182 455 12 30 28 69 35 85 7 17 82 203 167 415 85 212
217 538 292 725 76 187 155 385 176 440 22 55 44 109 49 120 5 11 123 301 261
645 138 344 257 639 264 655 60 134 56 303 -13 443 -30 61 -124 164 -187 204
-22 13 -71 36 -110 49 l-70 24 -1723 1 c-1030 1 -1745 -3 -1775 -8 -90 -17
-189 -70 -260 -140 -74 -73 -94 -104 -137 -213 -17 -44 -35 -84 -39 -88 -5 -4
-21 3 -37 16 -48 40 -199 136 -288 182 -130 68 -355 157 -456 180 -76 18 -171
37 -195 40 -32 4 -90 13 -140 22 -33 5 -342 13 -347 8z"/>
</g>
</svg>
