<svg width="16" height="16" viewBox="0 0 16 16" fill="none" xmlns="http://www.w3.org/2000/svg">
    <g clip-path="url(#clip0_780_6338)">
        <path fill-rule="evenodd" clip-rule="evenodd" d="M8 16C12.4183 16 16 12.4183 16 8C16 3.58172 12.4183 0 8 0C3.58172 0 0 3.58172 0 8C0 12.4183 3.58172 16 8 16ZM8.13687 12.6476C8.1197 12.733 8.05695 12.8 7.97378 12.8C7.94544 12.7829 7.91975 12.7622 7.89741 12.7386C7.87523 12.7079 7.8602 12.6732 7.85331 12.6368C7.83208 12.5385 7.81222 12.4399 7.79234 12.3412C7.78312 12.2954 7.77389 12.2496 7.76451 12.2038C7.73964 12.0772 7.71507 11.9506 7.69049 11.824C7.66593 11.6974 7.64137 11.5709 7.61652 11.4443C7.59375 11.3281 7.57053 11.212 7.54731 11.0959C7.52857 11.0022 7.50982 10.9084 7.49131 10.8147C7.47693 10.7417 7.46293 10.6687 7.44893 10.5958C7.42776 10.4855 7.40661 10.3753 7.38416 10.2652C7.36624 10.1773 7.34726 10.0895 7.32828 10.0018C7.29426 9.84449 7.26024 9.6872 7.23232 9.52899C7.1879 9.25832 7.04549 9.01008 6.82888 8.82571C6.63678 8.65916 6.39644 8.59663 6.15047 8.5413C5.93528 8.49343 5.72069 8.44363 5.5058 8.39356C5.2842 8.34173 5.0625 8.28926 4.84071 8.23614C4.82238 8.23166 4.80408 8.22724 4.78581 8.22283C4.69904 8.20189 4.61298 8.18113 4.52814 8.15507C4.43846 8.12768 4.39998 8.07263 4.39998 7.99793C4.40086 7.92959 4.45207 7.86955 4.53347 7.84189C4.54975 7.83635 4.56632 7.83165 4.5829 7.8275L4.91175 7.74921C5.01396 7.72469 5.11618 7.70009 5.21841 7.67549C5.38498 7.63541 5.5516 7.59531 5.71832 7.55554C5.79331 7.53766 5.86875 7.5211 5.9442 7.50454C6.10341 7.46958 6.26261 7.43463 6.41745 7.38733C6.88956 7.24346 7.14322 6.92032 7.23054 6.47267C7.2401 6.42379 7.24955 6.37488 7.259 6.32597C7.28056 6.21434 7.30212 6.10275 7.32496 5.99155C7.34677 5.88543 7.3693 5.77946 7.39183 5.67351C7.42099 5.5364 7.45015 5.39933 7.47769 5.26199C7.49784 5.16145 7.51636 5.06063 7.53488 4.95981C7.55255 4.86364 7.57021 4.76748 7.58928 4.67158C7.61658 4.53482 7.64498 4.39822 7.67339 4.26156C7.69798 4.14333 7.72257 4.02505 7.74646 3.90661C7.76445 3.81851 7.78154 3.73017 7.79864 3.64181C7.81699 3.54701 7.83533 3.45221 7.85479 3.3577C7.87462 3.26198 7.93115 3.20056 7.99657 3.2C8.06198 3.19945 8.12148 3.26889 8.14012 3.36351C8.1863 3.60108 8.23356 3.83836 8.2819 4.07537C8.30566 4.19179 8.32981 4.30817 8.35395 4.42455C8.38547 4.57645 8.41699 4.72837 8.44766 4.88047C8.47879 5.03768 8.50935 5.19521 8.53991 5.35273C8.55845 5.4483 8.57699 5.54387 8.59565 5.63936C8.60929 5.70958 8.62275 5.77984 8.6362 5.85012C8.66861 6.01934 8.70103 6.1886 8.73596 6.3573C8.73754 6.36499 8.73913 6.37269 8.74071 6.38038C8.77424 6.54325 8.80797 6.7071 8.89757 6.8553C9.05267 7.11177 9.26667 7.30377 9.57509 7.38677C9.79668 7.44612 10.0207 7.49869 10.2444 7.55121C10.2804 7.55965 10.3164 7.5681 10.3524 7.57657C10.4892 7.60881 10.6264 7.64027 10.7635 7.67173C10.9536 7.71532 11.1436 7.7589 11.3327 7.80454C11.4063 7.82092 11.4764 7.84899 11.5399 7.88754C11.5584 7.90029 11.5734 7.9169 11.5838 7.93603C11.5943 7.95517 11.5998 7.97631 11.6 7.99779C11.6001 8.01926 11.595 8.04048 11.5848 8.05976C11.5747 8.07904 11.5599 8.09586 11.5417 8.10887C11.5055 8.13631 11.4637 8.15647 11.4188 8.16807C11.1003 8.2472 10.781 8.32356 10.4619 8.39964C10.3575 8.42501 10.2526 8.44884 10.1478 8.47267C9.96119 8.51509 9.77465 8.5575 9.59078 8.60853C9.13702 8.73441 8.88425 9.03902 8.77621 9.45816C8.75817 9.52822 8.74586 9.59959 8.73354 9.67096C8.72626 9.71318 8.71897 9.7554 8.7105 9.79736C8.68627 9.91711 8.66151 10.0369 8.63675 10.1566C8.60889 10.2914 8.58103 10.4262 8.55392 10.561C8.53586 10.6511 8.51876 10.7413 8.50167 10.8315C8.48317 10.9291 8.46468 11.0266 8.44499 11.124C8.41621 11.2678 8.38649 11.4114 8.35679 11.5551C8.33335 11.6684 8.30991 11.7817 8.28694 11.895C8.26012 12.0272 8.23396 12.1594 8.20781 12.2915C8.18431 12.4102 8.16082 12.5289 8.13687 12.6476Z" fill="#FFD60A"/>
    </g>
    <defs>
        <clipPath id="clip0_780_6338">
            <rect width="16" height="16" fill="white"/>
        </clipPath>
    </defs>
</svg>
