<svg width="400" height="256" viewBox="0 0 400 256" fill="none" xmlns="http://www.w3.org/2000/svg">
  <path d="M388.749 -50.3646C389.223 -50.5393 389.223 -51.207 388.749 -51.3817L383.604 -53.2763C383.455 -53.3312 383.338 -53.4482 383.283 -53.5967L381.379 -58.7168C381.203 -59.1889 380.533 -59.1889 380.357 -58.7168L378.454 -53.5967C378.398 -53.4482 378.281 -53.3312 378.132 -53.2763L372.987 -51.3817C372.513 -51.207 372.513 -50.5393 372.987 -50.3646L378.132 -48.47C378.281 -48.4151 378.398 -48.298 378.454 -48.1496L380.357 -43.0295C380.533 -42.5574 381.203 -42.5574 381.379 -43.0295L383.283 -48.1496C383.338 -48.298 383.455 -48.4151 383.604 -48.47L388.749 -50.3646Z" fill="url(#paint0_linear_4001_1190)"/>
  <path d="M380.834 -22.2277C380.659 -22.6998 379.988 -22.6998 379.812 -22.2277L377.173 -15.1286C377.118 -14.9802 377 -14.8632 376.851 -14.8083L369.719 -12.1814C369.244 -12.0067 369.244 -11.339 369.719 -11.1643L376.851 -8.53743C377 -8.48251 377.118 -8.36549 377.173 -8.21707L379.812 -1.11801C379.988 -0.645934 380.659 -0.64594 380.834 -1.11802L383.473 -8.21707C383.529 -8.36549 383.646 -8.48251 383.795 -8.53743L390.928 -11.1643C391.402 -11.339 391.402 -12.0067 390.928 -12.1814L383.795 -14.8083C383.646 -14.8632 383.529 -14.9802 383.473 -15.1286L380.834 -22.2277Z" fill="url(#paint1_linear_4001_1190)"/>
  <path d="M380.834 8.96669C380.659 8.49461 379.988 8.49461 379.812 8.96669L374.819 22.3982C374.764 22.5467 374.646 22.6637 374.497 22.7186L361.002 27.6887C360.528 27.8634 360.528 28.5311 361.002 28.7058L374.497 33.6759C374.646 33.7308 374.764 33.8479 374.819 33.9963L379.812 47.4278C379.988 47.8999 380.659 47.8999 380.834 47.4278L385.828 33.9963C385.883 33.8479 386 33.7308 386.15 33.6759L399.644 28.7058C400.119 28.5311 400.119 27.8634 399.644 27.6887L386.15 22.7186C386 22.6637 385.883 22.5467 385.828 22.3982L380.834 8.96669Z" fill="url(#paint2_linear_4001_1190)"/>
  <path d="M379.684 87.4255C379.86 87.8975 380.53 87.8975 380.706 87.4255L385.699 73.9939C385.755 73.8455 385.872 73.7285 386.021 73.6735L399.516 68.7034C399.99 68.5287 399.99 67.861 399.516 67.6864L386.021 62.7162C385.872 62.6613 385.755 62.5443 385.699 62.3959L380.706 48.9643C380.53 48.4923 379.86 48.4923 379.684 48.9643L374.691 62.3959C374.635 62.5443 374.518 62.6613 374.369 62.7162L360.874 67.6864C360.4 67.861 360.4 68.5287 360.874 68.7034L374.369 73.6735C374.518 73.7285 374.635 73.8455 374.691 73.9939L379.684 87.4255Z" fill="url(#paint3_linear_4001_1190)"/>
  <path d="M381.379 99.5515C381.203 99.0794 380.533 99.0794 380.357 99.5515L378.454 104.672C378.398 104.82 378.281 104.937 378.132 104.992L372.987 106.887C372.513 107.061 372.513 107.729 372.987 107.904L378.132 109.798C378.281 109.853 378.398 109.97 378.454 110.119L380.357 115.239C380.533 115.711 381.203 115.711 381.379 115.239L383.283 110.119C383.338 109.97 383.455 109.853 383.604 109.798L388.749 107.904C389.223 107.729 389.223 107.061 388.749 106.887L383.604 104.992C383.455 104.937 383.338 104.82 383.283 104.672L381.379 99.5515Z" fill="url(#paint4_linear_4001_1190)"/>
  <path d="M381.379 139.422C381.203 138.949 380.533 138.949 380.357 139.422L378.454 144.542C378.398 144.69 378.281 144.807 378.132 144.862L372.987 146.757C372.513 146.931 372.513 147.599 372.987 147.774L378.132 149.668C378.281 149.723 378.398 149.84 378.454 149.989L380.357 155.109C380.533 155.581 381.203 155.581 381.379 155.109L383.283 149.989C383.338 149.84 383.455 149.723 383.604 149.668L388.749 147.774C389.223 147.599 389.223 146.931 388.749 146.757L383.604 144.862C383.455 144.807 383.338 144.69 383.283 144.542L381.379 139.422Z" fill="url(#paint5_linear_4001_1190)"/>
  <path d="M381.379 172.785C381.203 172.313 380.533 172.313 380.357 172.785L376.688 182.654C376.633 182.803 376.515 182.92 376.366 182.975L366.45 186.627C365.976 186.801 365.976 187.469 366.45 187.644L376.366 191.296C376.515 191.351 376.633 191.468 376.688 191.616L380.357 201.486C380.533 201.958 381.203 201.958 381.379 201.486L385.048 191.616C385.103 191.468 385.221 191.351 385.37 191.296L395.286 187.644C395.76 187.469 395.76 186.801 395.286 186.627L385.37 182.975C385.221 182.92 385.103 182.803 385.048 182.654L381.379 172.785Z" fill="url(#paint6_linear_4001_1190)"/>
  <path d="M399.644 228.184C400.119 228.009 400.119 227.341 399.644 227.167L386.15 222.197C386 222.142 385.883 222.025 385.828 221.876L380.834 208.445C380.659 207.973 379.988 207.973 379.812 208.445L374.819 221.876C374.764 222.025 374.646 222.142 374.497 222.197L361.002 227.167C360.528 227.341 360.528 228.009 361.002 228.184L374.497 233.154C374.646 233.209 374.764 233.326 374.819 233.474L379.812 246.906C379.988 247.378 380.659 247.378 380.834 246.906L385.828 233.474C385.883 233.326 386 233.209 386.15 233.154L399.644 228.184Z" fill="url(#paint7_linear_4001_1190)"/>
  <path d="M399.644 268.054C400.119 267.879 400.119 267.211 399.644 267.037L386.15 262.067C386 262.012 385.883 261.895 385.828 261.746L380.834 248.315C380.659 247.843 379.988 247.843 379.812 248.315L374.819 261.746C374.764 261.895 374.646 262.012 374.497 262.067L361.002 267.037C360.528 267.211 360.528 267.879 361.002 268.054L374.497 273.024C374.646 273.079 374.764 273.196 374.819 273.344L379.812 286.776C379.988 287.248 380.659 287.248 380.834 286.776L385.828 273.344C385.883 273.196 386 273.079 386.15 273.024L399.644 268.054Z" fill="url(#paint8_linear_4001_1190)"/>
  <path d="M399.644 307.924C400.119 307.749 400.119 307.082 399.644 306.907L386.15 301.937C386 301.882 385.883 301.765 385.828 301.616L380.834 288.185C380.659 287.713 379.988 287.713 379.812 288.185L374.819 301.616C374.764 301.765 374.646 301.882 374.497 301.937L361.002 306.907C360.528 307.082 360.528 307.749 361.002 307.924L374.497 312.894C374.646 312.949 374.764 313.066 374.819 313.214L379.812 326.646C379.988 327.118 380.659 327.118 380.834 326.646L385.828 313.214C385.883 313.066 386 312.949 386.15 312.894L399.644 307.924Z" fill="url(#paint9_linear_4001_1190)"/>
  <path d="M329.533 -52.0515C329.059 -51.8768 329.059 -51.2091 329.533 -51.0344L336.666 -48.4075C336.815 -48.3526 336.932 -48.2356 336.987 -48.0872L339.627 -40.9881C339.802 -40.516 340.473 -40.516 340.649 -40.9881L343.288 -48.0872C343.343 -48.2356 343.461 -48.3526 343.61 -48.4075L350.742 -51.0344C351.216 -51.2091 351.216 -51.8768 350.742 -52.0515L343.61 -54.6784C343.461 -54.7333 343.343 -54.8503 343.288 -54.9987L340.649 -62.0978C340.473 -62.5699 339.802 -62.5699 339.627 -62.0978L336.987 -54.9987C336.932 -54.8503 336.815 -54.7333 336.666 -54.6784L329.533 -52.0515Z" fill="url(#paint10_linear_4001_1190)"/>
  <path d="M359.587 -11.0367C360.061 -11.2114 360.061 -11.8791 359.587 -12.0538L346.092 -17.0239C345.943 -17.0789 345.825 -17.1959 345.77 -17.3443L340.777 -30.7758C340.601 -31.2479 339.93 -31.2479 339.755 -30.7758L334.761 -17.3443C334.706 -17.1959 334.588 -17.0789 334.439 -17.0239L320.945 -12.0538C320.47 -11.8791 320.47 -11.2114 320.945 -11.0367L334.439 -6.06662C334.588 -6.0117 334.706 -5.89469 334.761 -5.74627L339.755 7.68528C339.93 8.15736 340.601 8.15736 340.777 7.68528L345.77 -5.74627C345.825 -5.89469 345.943 -6.01171 346.092 -6.06663L359.587 -11.0367Z" fill="url(#paint11_linear_4001_1190)"/>
  <path d="M355.228 29.3756C355.703 29.2009 355.703 28.5332 355.228 28.3585L345.312 24.7065C345.163 24.6515 345.046 24.5345 344.991 24.3861L341.321 14.5166C341.146 14.0445 340.475 14.0445 340.299 14.5166L336.63 24.3861C336.575 24.5345 336.457 24.6515 336.308 24.7065L326.392 28.3585C325.918 28.5332 325.918 29.2009 326.392 29.3756L336.308 33.0276C336.457 33.0826 336.575 33.1996 336.63 33.348L340.299 43.2175C340.475 43.6896 341.146 43.6896 341.321 43.2175L344.991 33.348C345.046 33.1996 345.163 33.0826 345.312 33.0276L355.228 29.3756Z" fill="url(#paint12_linear_4001_1190)"/>
  <path d="M339.082 83.0876C339.257 83.5597 339.928 83.5597 340.104 83.0876L343.773 73.2181C343.828 73.0697 343.946 72.9526 344.095 72.8977L354.011 69.2457C354.485 69.071 354.485 68.4033 354.011 68.2286L344.095 64.5765C343.946 64.5216 343.828 64.4046 343.773 64.2562L340.104 54.3867C339.928 53.9146 339.257 53.9146 339.082 54.3867L335.413 64.2562C335.358 64.4046 335.24 64.5216 335.091 64.5765L325.175 68.2286C324.701 68.4033 324.701 69.071 325.175 69.2457L335.091 72.8977C335.24 72.9526 335.358 73.0697 335.413 73.2181L339.082 83.0876Z" fill="url(#paint13_linear_4001_1190)"/>
  <path d="M320.817 107.429C320.342 107.604 320.342 108.271 320.817 108.446L334.311 113.416C334.46 113.471 334.578 113.588 334.633 113.736L339.627 127.168C339.802 127.64 340.473 127.64 340.649 127.168L345.642 113.736C345.697 113.588 345.815 113.471 345.964 113.416L359.459 108.446C359.933 108.271 359.933 107.604 359.459 107.429L345.964 102.459C345.815 102.404 345.697 102.287 345.642 102.138L340.649 88.7068C340.473 88.2347 339.802 88.2347 339.627 88.7068L334.633 102.138C334.578 102.287 334.46 102.404 334.311 102.459L320.817 107.429Z" fill="url(#paint14_linear_4001_1190)"/>
  <path d="M341.321 139.422C341.146 138.949 340.475 138.949 340.299 139.422L338.396 144.542C338.341 144.69 338.223 144.807 338.074 144.862L332.93 146.757C332.456 146.931 332.456 147.599 332.93 147.774L338.074 149.668C338.223 149.723 338.341 149.84 338.396 149.989L340.299 155.109C340.475 155.581 341.146 155.581 341.321 155.109L343.225 149.989C343.28 149.84 343.398 149.723 343.547 149.668L348.691 147.774C349.165 147.599 349.165 146.931 348.691 146.757L343.547 144.862C343.398 144.807 343.28 144.69 343.225 144.542L341.321 139.422Z" fill="url(#paint15_linear_4001_1190)"/>
  <path d="M341.321 179.292C341.146 178.82 340.475 178.82 340.299 179.292L338.396 184.412C338.341 184.56 338.223 184.677 338.074 184.732L332.93 186.627C332.456 186.801 332.456 187.469 332.93 187.644L338.074 189.538C338.223 189.593 338.341 189.71 338.396 189.859L340.299 194.979C340.475 195.451 341.146 195.451 341.321 194.979L343.225 189.859C343.28 189.71 343.398 189.593 343.547 189.538L348.691 187.644C349.165 187.469 349.165 186.801 348.691 186.627L343.547 184.732C343.398 184.677 343.28 184.56 343.225 184.412L341.321 179.292Z" fill="url(#paint16_linear_4001_1190)"/>
  <path d="M340.777 216.993C340.601 216.521 339.93 216.521 339.755 216.993L337.115 224.092C337.06 224.24 336.943 224.357 336.794 224.412L329.661 227.039C329.187 227.214 329.187 227.881 329.661 228.056L336.794 230.683C336.943 230.738 337.06 230.855 337.115 231.003L339.755 238.102C339.93 238.575 340.601 238.575 340.777 238.102L343.416 231.003C343.471 230.855 343.588 230.738 343.738 230.683L350.87 228.056C351.344 227.881 351.344 227.214 350.87 227.039L343.738 224.412C343.588 224.357 343.471 224.24 343.416 224.092L340.777 216.993Z" fill="url(#paint17_linear_4001_1190)"/>
  <path d="M350.87 268.054C351.344 267.879 351.344 267.211 350.87 267.037L343.738 264.41C343.588 264.355 343.471 264.238 343.416 264.09L340.777 256.99C340.601 256.518 339.93 256.518 339.755 256.99L337.115 264.09C337.06 264.238 336.943 264.355 336.794 264.41L329.661 267.037C329.187 267.211 329.187 267.879 329.661 268.054L336.794 270.681C336.943 270.736 337.06 270.853 337.115 271.001L339.755 278.1C339.93 278.572 340.601 278.572 340.777 278.1L343.416 271.001C343.471 270.853 343.588 270.736 343.738 270.681L350.87 268.054Z" fill="url(#paint18_linear_4001_1190)"/>
  <path d="M341.321 298.902C341.146 298.43 340.475 298.43 340.299 298.902L338.396 304.022C338.341 304.17 338.223 304.287 338.074 304.342L332.93 306.237C332.456 306.412 332.456 307.079 332.93 307.254L338.074 309.149C338.223 309.204 338.341 309.321 338.396 309.469L340.299 314.589C340.475 315.061 341.146 315.061 341.321 314.589L343.225 309.469C343.28 309.321 343.398 309.204 343.547 309.149L348.691 307.254C349.165 307.079 349.165 306.412 348.691 306.237L343.547 304.342C343.398 304.287 343.28 304.17 343.225 304.022L341.321 298.902Z" fill="url(#paint19_linear_4001_1190)"/>
  <path d="M301.264 -66.4356C301.088 -66.9077 300.418 -66.9077 300.242 -66.4356L296.573 -56.5661C296.518 -56.4177 296.4 -56.3007 296.251 -56.2458L286.335 -52.5937C285.861 -52.419 285.861 -51.7513 286.335 -51.5766L296.251 -47.9246C296.4 -47.8697 296.518 -47.7527 296.573 -47.6042L300.242 -37.7347C300.418 -37.2626 301.088 -37.2626 301.264 -37.7347L304.933 -47.6042C304.988 -47.7527 305.106 -47.8697 305.255 -47.9246L315.171 -51.5766C315.645 -51.7513 315.645 -52.419 315.171 -52.5937L305.255 -56.2458C305.106 -56.3007 304.988 -56.4177 304.933 -56.5661L301.264 -66.4356Z" fill="url(#paint20_linear_4001_1190)"/>
  <path d="M301.264 -26.5656C301.088 -27.0376 300.418 -27.0376 300.242 -26.5656L296.573 -16.696C296.518 -16.5476 296.4 -16.4306 296.251 -16.3757L286.335 -12.7236C285.861 -12.5489 285.861 -11.8812 286.335 -11.7065L296.251 -8.0545C296.4 -7.99958 296.518 -7.88256 296.573 -7.73414L300.242 2.13538C300.418 2.60746 301.088 2.60746 301.264 2.13538L304.933 -7.73414C304.988 -7.88256 305.106 -7.99958 305.255 -8.0545L315.171 -11.7065C315.645 -11.8812 315.645 -12.5489 315.171 -12.7236L305.255 -16.3757C305.106 -16.4306 304.988 -16.5476 304.933 -16.696L301.264 -26.5656Z" fill="url(#paint21_linear_4001_1190)"/>
  <path d="M299.024 36.7107C299.2 37.1828 299.871 37.1828 300.046 36.7107L301.95 31.5906C302.005 31.4422 302.122 31.3251 302.271 31.2702L307.416 29.3756C307.89 29.2009 307.89 28.5332 307.416 28.3585L302.271 26.4639C302.122 26.409 302.005 26.2919 301.95 26.1435L300.046 21.0234C299.871 20.5513 299.2 20.5513 299.024 21.0234L297.121 26.1435C297.066 26.2919 296.948 26.409 296.799 26.4639L291.655 28.3585C291.18 28.5332 291.18 29.2009 291.655 29.3756L296.799 31.2702C296.948 31.3251 297.066 31.4422 297.121 31.5906L299.024 36.7107Z" fill="url(#paint22_linear_4001_1190)"/>
  <path d="M301.264 59.6814C301.088 59.2093 300.418 59.2093 300.242 59.6814L298.338 64.8015C298.283 64.9499 298.166 65.067 298.017 65.1219L292.872 67.0165C292.398 67.1912 292.398 67.8589 292.872 68.0336L298.017 69.9282C298.166 69.9831 298.283 70.1001 298.338 70.2486L300.242 75.3687C300.418 75.8408 301.088 75.8408 301.264 75.3687L303.167 70.2486C303.223 70.1001 303.34 69.9831 303.489 69.9282L308.634 68.0336C309.108 67.8589 309.108 67.1912 308.634 67.0165L303.489 65.1219C303.34 65.067 303.223 64.9499 303.167 64.8015L301.264 59.6814Z" fill="url(#paint23_linear_4001_1190)"/>
  <path d="M285.117 106.887C284.643 107.061 284.643 107.729 285.117 107.904L295.033 111.556C295.182 111.611 295.3 111.728 295.355 111.876L299.024 121.746C299.2 122.218 299.871 122.218 300.046 121.746L303.715 111.876C303.77 111.728 303.888 111.611 304.037 111.556L313.953 107.904C314.427 107.729 314.427 107.061 313.953 106.887L304.037 103.235C303.888 103.18 303.77 103.063 303.715 102.914L300.046 93.0447C299.871 92.5726 299.2 92.5726 299.024 93.0447L295.355 102.914C295.3 103.063 295.182 103.18 295.033 103.235L285.117 106.887Z" fill="url(#paint24_linear_4001_1190)"/>
  <path d="M299.569 167.166C299.745 167.638 300.415 167.638 300.591 167.166L305.584 153.734C305.64 153.586 305.757 153.469 305.906 153.414L319.401 148.444C319.875 148.269 319.875 147.601 319.401 147.426L305.906 142.456C305.757 142.401 305.64 142.284 305.584 142.136L300.591 128.704C300.415 128.232 299.745 128.232 299.569 128.704L294.576 142.136C294.52 142.284 294.403 142.401 294.254 142.456L280.759 147.426C280.285 147.601 280.285 148.269 280.759 148.444L294.254 153.414C294.403 153.469 294.52 153.586 294.576 153.734L299.569 167.166Z" fill="url(#paint25_linear_4001_1190)"/>
  <path d="M308.634 188.856C309.108 188.681 309.108 188.014 308.634 187.839L303.489 185.944C303.34 185.889 303.223 185.772 303.167 185.624L301.264 180.504C301.088 180.032 300.418 180.032 300.242 180.504L298.338 185.624C298.283 185.772 298.166 185.889 298.017 185.944L292.872 187.839C292.398 188.014 292.398 188.681 292.872 188.856L298.017 190.751C298.166 190.805 298.283 190.922 298.338 191.071L300.242 196.191C300.418 196.663 301.088 196.663 301.264 196.191L303.167 191.071C303.223 190.922 303.34 190.805 303.489 190.751L308.634 188.856Z" fill="url(#paint26_linear_4001_1190)"/>
  <path d="M300.719 208.317C300.544 207.845 299.873 207.845 299.697 208.317L294.704 221.749C294.649 221.897 294.531 222.014 294.382 222.069L280.887 227.039C280.413 227.214 280.413 227.881 280.887 228.056L294.382 233.026C294.531 233.081 294.649 233.198 294.704 233.347L299.697 246.778C299.873 247.25 300.544 247.25 300.719 246.778L305.713 233.347C305.768 233.198 305.885 233.081 306.034 233.026L319.529 228.056C320.003 227.881 320.003 227.214 319.529 227.039L306.034 222.069C305.885 222.014 305.768 221.897 305.713 221.749L300.719 208.317Z" fill="url(#paint27_linear_4001_1190)"/>
  <path d="M310.813 268.054C311.287 267.879 311.287 267.211 310.813 267.037L303.68 264.41C303.531 264.355 303.414 264.238 303.358 264.09L300.719 256.99C300.544 256.518 299.873 256.518 299.697 256.99L297.058 264.09C297.003 264.238 296.885 264.355 296.736 264.41L289.604 267.037C289.129 267.211 289.129 267.879 289.604 268.054L296.736 270.681C296.885 270.736 297.003 270.853 297.058 271.001L299.697 278.1C299.873 278.572 300.544 278.572 300.719 278.1L303.358 271.001C303.414 270.853 303.531 270.736 303.68 270.681L310.813 268.054Z" fill="url(#paint28_linear_4001_1190)"/>
  <path d="M299.024 315.801C299.2 316.273 299.871 316.273 300.046 315.801L301.95 310.681C302.005 310.533 302.122 310.416 302.271 310.361L307.416 308.466C307.89 308.291 307.89 307.624 307.416 307.449L302.271 305.554C302.122 305.499 302.005 305.382 301.95 305.234L300.046 300.114C299.871 299.642 299.2 299.642 299.024 300.114L297.121 305.234C297.066 305.383 296.948 305.499 296.799 305.554L291.655 307.449C291.18 307.624 291.18 308.291 291.655 308.466L296.799 310.361C296.948 310.416 297.066 310.533 297.121 310.681L299.024 315.801Z" fill="url(#paint29_linear_4001_1190)"/>
  <path d="M270.755 -50.9068C271.229 -51.0815 271.229 -51.7492 270.755 -51.9239L263.623 -54.5508C263.473 -54.6057 263.356 -54.7227 263.301 -54.8712L260.661 -61.9702C260.486 -62.4423 259.815 -62.4423 259.64 -61.9702L257 -54.8712C256.945 -54.7227 256.828 -54.6057 256.678 -54.5508L249.546 -51.9239C249.072 -51.7492 249.072 -51.0815 249.546 -50.9068L256.678 -48.28C256.828 -48.225 256.945 -48.108 257 -47.9596L259.64 -40.8605C259.815 -40.3885 260.486 -40.3885 260.661 -40.8605L263.301 -47.9596C263.356 -48.108 263.473 -48.225 263.623 -48.28L270.755 -50.9068Z" fill="url(#paint30_linear_4001_1190)"/>
  <path d="M258.967 3.34742C259.142 3.8195 259.813 3.8195 259.988 3.34742L263.658 -6.5221C263.713 -6.67052 263.83 -6.78754 263.98 -6.84246L273.895 -10.4945C274.37 -10.6692 274.37 -11.3369 273.895 -11.5116L263.98 -15.1636C263.83 -15.2186 263.713 -15.3356 263.658 -15.484L259.988 -25.3535C259.813 -25.8256 259.142 -25.8256 258.967 -25.3535L255.297 -15.484C255.242 -15.3356 255.125 -15.2186 254.975 -15.1636L245.06 -11.5116C244.585 -11.3369 244.585 -10.6692 245.06 -10.4945L254.975 -6.84246C255.125 -6.78754 255.242 -6.67052 255.297 -6.5221L258.967 3.34742Z" fill="url(#paint31_linear_4001_1190)"/>
  <path d="M261.206 13.3046C261.031 12.8325 260.36 12.8325 260.184 13.3046L256.515 23.1741C256.46 23.3225 256.342 23.4395 256.193 23.4944L246.277 27.1465C245.803 27.3212 245.803 27.9889 246.277 28.1635L256.193 31.8156C256.342 31.8705 256.46 31.9875 256.515 32.136L260.184 42.0055C260.36 42.4776 261.031 42.4776 261.206 42.0055L264.875 32.136C264.931 31.9875 265.048 31.8705 265.197 31.8156L275.113 28.1635C275.588 27.9889 275.588 27.3212 275.113 27.1465L265.197 23.4944C265.048 23.4395 264.931 23.3225 264.875 23.1741L261.206 13.3046Z" fill="url(#paint32_linear_4001_1190)"/>
  <path d="M249.418 67.5587C248.943 67.7334 248.943 68.4011 249.418 68.5758L256.55 71.2027C256.699 71.2576 256.817 71.3746 256.872 71.5231L259.511 78.6221C259.687 79.0942 260.358 79.0942 260.533 78.6221L263.172 71.5231C263.228 71.3746 263.345 71.2576 263.494 71.2027L270.627 68.5758C271.101 68.4011 271.101 67.7334 270.627 67.5587L263.494 64.9319C263.345 64.8769 263.228 64.7599 263.172 64.6115L260.533 57.5125C260.358 57.0404 259.687 57.0404 259.511 57.5125L256.872 64.6115C256.817 64.7599 256.699 64.8769 256.55 64.9319L249.418 67.5587Z" fill="url(#paint33_linear_4001_1190)"/>
  <path d="M258.967 116.451C259.142 116.923 259.813 116.923 259.988 116.451L261.892 111.331C261.947 111.182 262.065 111.065 262.214 111.01L267.358 109.116C267.832 108.941 267.832 108.273 267.358 108.099L262.214 106.204C262.065 106.149 261.947 106.032 261.892 105.884L259.988 100.763C259.813 100.291 259.142 100.291 258.967 100.763L257.063 105.884C257.008 106.032 256.89 106.149 256.741 106.204L251.597 108.099C251.123 108.273 251.123 108.941 251.597 109.116L256.741 111.01C256.89 111.065 257.008 111.182 257.063 111.331L258.967 116.451Z" fill="url(#paint34_linear_4001_1190)"/>
  <path d="M251.597 146.757C251.123 146.931 251.123 147.599 251.597 147.774L256.741 149.668C256.89 149.723 257.008 149.84 257.063 149.989L258.967 155.109C259.142 155.581 259.813 155.581 259.988 155.109L261.892 149.989C261.947 149.84 262.065 149.723 262.214 149.668L267.358 147.774C267.832 147.599 267.832 146.931 267.358 146.757L262.214 144.862C262.065 144.807 261.947 144.69 261.892 144.542L259.988 139.422C259.813 138.949 259.142 138.949 258.967 139.422L257.063 144.542C257.008 144.69 256.89 144.807 256.741 144.862L251.597 146.757Z" fill="url(#paint35_linear_4001_1190)"/>
  <path d="M270.755 188.314C271.229 188.139 271.229 187.471 270.755 187.297L263.623 184.67C263.473 184.615 263.356 184.498 263.301 184.349L260.661 177.25C260.486 176.778 259.815 176.778 259.64 177.25L257 184.349C256.945 184.498 256.828 184.615 256.678 184.67L249.546 187.297C249.072 187.471 249.072 188.139 249.546 188.314L256.678 190.941C256.828 190.995 256.945 191.113 257 191.261L259.64 198.36C259.815 198.832 260.486 198.832 260.661 198.36L263.301 191.261C263.356 191.113 263.473 190.995 263.623 190.941L270.755 188.314Z" fill="url(#paint36_linear_4001_1190)"/>
  <path d="M261.206 219.162C261.031 218.69 260.36 218.69 260.184 219.162L258.281 224.282C258.226 224.43 258.108 224.547 257.959 224.602L252.815 226.497C252.34 226.672 252.34 227.339 252.815 227.514L257.959 229.409C258.108 229.463 258.226 229.58 258.281 229.729L260.184 234.849C260.36 235.321 261.031 235.321 261.206 234.849L263.11 229.729C263.165 229.58 263.282 229.463 263.432 229.409L268.576 227.514C269.05 227.339 269.05 226.672 268.576 226.497L263.432 224.602C263.282 224.547 263.165 224.43 263.11 224.282L261.206 219.162Z" fill="url(#paint37_linear_4001_1190)"/>
  <path d="M261.206 259.032C261.031 258.56 260.36 258.56 260.184 259.032L258.281 264.152C258.226 264.3 258.108 264.417 257.959 264.472L252.815 266.367C252.34 266.542 252.34 267.209 252.815 267.384L257.959 269.279C258.108 269.334 258.226 269.451 258.281 269.599L260.184 274.719C260.36 275.191 261.031 275.191 261.206 274.719L263.11 269.599C263.165 269.451 263.282 269.334 263.432 269.279L268.576 267.384C269.05 267.209 269.05 266.542 268.576 266.367L263.432 264.472C263.282 264.417 263.165 264.3 263.11 264.152L261.206 259.032Z" fill="url(#paint38_linear_4001_1190)"/>
  <path d="M279.472 307.924C279.946 307.749 279.946 307.082 279.472 306.907L265.977 301.937C265.828 301.882 265.71 301.765 265.655 301.616L260.661 288.185C260.486 287.713 259.815 287.713 259.64 288.185L254.646 301.616C254.591 301.765 254.473 301.882 254.324 301.937L240.829 306.907C240.355 307.082 240.355 307.749 240.829 307.924L254.324 312.894C254.473 312.949 254.591 313.066 254.646 313.214L259.64 326.646C259.815 327.118 260.486 327.118 260.661 326.646L265.655 313.214C265.71 313.066 265.828 312.949 265.977 312.894L279.472 307.924Z" fill="url(#paint39_linear_4001_1190)"/>
  <path d="M221.149 -59.9288C220.973 -60.4009 220.302 -60.4009 220.127 -59.9288L218.223 -54.8087C218.168 -54.6603 218.05 -54.5433 217.901 -54.4883L212.757 -52.5937C212.283 -52.419 212.283 -51.7513 212.757 -51.5766L217.901 -49.682C218.05 -49.6271 218.168 -49.5101 218.223 -49.3617L220.127 -44.2415C220.302 -43.7694 220.973 -43.7694 221.149 -44.2415L223.052 -49.3617C223.107 -49.5101 223.225 -49.6271 223.374 -49.682L228.518 -51.5766C228.992 -51.7513 228.992 -52.419 228.518 -52.5937L223.374 -54.4883C223.225 -54.5433 223.107 -54.6603 223.052 -54.8087L221.149 -59.9288Z" fill="url(#paint40_linear_4001_1190)"/>
  <path d="M239.414 -11.0367C239.888 -11.2114 239.888 -11.8791 239.414 -12.0538L225.919 -17.0239C225.77 -17.0789 225.652 -17.1959 225.597 -17.3443L220.604 -30.7758C220.428 -31.2479 219.757 -31.2479 219.582 -30.7758L214.588 -17.3443C214.533 -17.1959 214.416 -17.0789 214.267 -17.0239L200.772 -12.0538C200.298 -11.8791 200.298 -11.2114 200.772 -11.0367L214.267 -6.06662C214.416 -6.0117 214.533 -5.89469 214.588 -5.74627L219.582 7.68528C219.757 8.15736 220.428 8.15736 220.604 7.68528L225.597 -5.74627C225.652 -5.89469 225.77 -6.01171 225.919 -6.06663L239.414 -11.0367Z" fill="url(#paint41_linear_4001_1190)"/>
  <path d="M211.539 27.1465C211.065 27.3212 211.065 27.9889 211.539 28.1635L216.683 30.0582C216.833 30.1131 216.95 30.2301 217.005 30.3785L218.909 35.4987C219.084 35.9708 219.755 35.9708 219.931 35.4987L221.834 30.3785C221.889 30.2301 222.007 30.1131 222.156 30.0582L227.3 28.1635C227.775 27.9889 227.775 27.3212 227.3 27.1465L222.156 25.2519C222.007 25.1969 221.889 25.0799 221.834 24.9315L219.931 19.8114C219.755 19.3393 219.084 19.3393 218.909 19.8114L217.005 24.9315C216.95 25.0799 216.833 25.1969 216.683 25.2519L211.539 27.1465Z" fill="url(#paint42_linear_4001_1190)"/>
  <path d="M211.539 67.0165C211.065 67.1912 211.065 67.8589 211.539 68.0336L216.683 69.9282C216.833 69.9831 216.95 70.1001 217.005 70.2486L218.909 75.3687C219.084 75.8408 219.755 75.8408 219.931 75.3687L221.834 70.2486C221.889 70.1001 222.007 69.9831 222.156 69.9282L227.3 68.0336C227.775 67.8589 227.775 67.1912 227.3 67.0165L222.156 65.1219C222.007 65.067 221.889 64.9499 221.834 64.8015L219.931 59.6814C219.755 59.2093 219.084 59.2093 218.909 59.6814L217.005 64.8015C216.95 64.9499 216.833 65.067 216.683 65.1219L211.539 67.0165Z" fill="url(#paint43_linear_4001_1190)"/>
  <path d="M221.149 99.5515C220.973 99.0794 220.302 99.0794 220.127 99.5515L218.223 104.672C218.168 104.82 218.05 104.937 217.901 104.992L212.757 106.887C212.283 107.061 212.283 107.729 212.757 107.904L217.901 109.798C218.05 109.853 218.168 109.97 218.223 110.119L220.127 115.239C220.302 115.711 220.973 115.711 221.149 115.239L223.052 110.119C223.107 109.97 223.225 109.853 223.374 109.798L228.518 107.904C228.992 107.729 228.992 107.061 228.518 106.887L223.374 104.992C223.225 104.937 223.107 104.82 223.052 104.672L221.149 99.5515Z" fill="url(#paint44_linear_4001_1190)"/>
  <path d="M235.056 148.986C235.53 148.811 235.53 148.143 235.056 147.969L225.14 144.317C224.991 144.262 224.873 144.145 224.818 143.996L221.149 134.127C220.973 133.655 220.302 133.655 220.127 134.127L216.457 143.996C216.402 144.145 216.285 144.262 216.136 144.317L206.22 147.969C205.745 148.143 205.745 148.811 206.22 148.986L216.136 152.638C216.285 152.693 216.402 152.81 216.457 152.958L220.127 162.828C220.302 163.3 220.973 163.3 221.149 162.828L224.818 152.958C224.873 152.81 224.991 152.693 225.14 152.638L235.056 148.986Z" fill="url(#paint45_linear_4001_1190)"/>
  <path d="M218.909 196.191C219.084 196.663 219.755 196.663 219.931 196.191L221.834 191.071C221.889 190.922 222.007 190.805 222.156 190.751L227.3 188.856C227.775 188.681 227.775 188.014 227.3 187.839L222.156 185.944C222.007 185.889 221.889 185.772 221.834 185.624L219.931 180.504C219.755 180.032 219.084 180.032 218.909 180.504L217.005 185.624C216.95 185.772 216.833 185.889 216.683 185.944L211.539 187.839C211.065 188.014 211.065 188.681 211.539 188.856L216.683 190.751C216.833 190.805 216.95 190.922 217.005 191.071L218.909 196.191Z" fill="url(#paint46_linear_4001_1190)"/>
  <path d="M221.149 212.655C220.973 212.183 220.302 212.183 220.127 212.655L216.457 222.524C216.402 222.673 216.285 222.79 216.136 222.845L206.22 226.497C205.745 226.672 205.745 227.339 206.22 227.514L216.136 231.166C216.285 231.221 216.402 231.338 216.457 231.486L220.127 241.356C220.302 241.828 220.973 241.828 221.149 241.356L224.818 231.486C224.873 231.338 224.991 231.221 225.14 231.166L235.056 227.514C235.53 227.339 235.53 226.672 235.056 226.497L225.14 222.845C224.991 222.79 224.873 222.673 224.818 222.524L221.149 212.655Z" fill="url(#paint47_linear_4001_1190)"/>
  <path d="M218.909 275.931C219.084 276.403 219.755 276.403 219.931 275.931L221.834 270.811C221.889 270.663 222.007 270.546 222.156 270.491L227.3 268.596C227.775 268.421 227.775 267.754 227.3 267.579L222.156 265.684C222.007 265.629 221.889 265.512 221.834 265.364L219.931 260.244C219.755 259.772 219.084 259.772 218.909 260.244L217.005 265.364C216.95 265.512 216.833 265.629 216.683 265.684L211.539 267.579C211.065 267.754 211.065 268.421 211.539 268.596L216.683 270.491C216.833 270.546 216.95 270.663 217.005 270.811L218.909 275.931Z" fill="url(#paint48_linear_4001_1190)"/>
  <path d="M205.002 306.237C204.528 306.412 204.528 307.079 205.002 307.254L214.918 310.906C215.067 310.961 215.184 311.078 215.24 311.226L218.909 321.096C219.084 321.568 219.755 321.568 219.931 321.096L223.6 311.226C223.655 311.078 223.773 310.961 223.922 310.906L233.838 307.254C234.312 307.079 234.312 306.412 233.838 306.237L223.922 302.585C223.773 302.53 223.655 302.413 223.6 302.265L219.931 292.395C219.755 291.923 219.084 291.923 218.909 292.395L215.24 302.265C215.184 302.413 215.067 302.53 214.918 302.585L205.002 306.237Z" fill="url(#paint49_linear_4001_1190)"/>
  <path d="M190.64 -50.9068C191.114 -51.0815 191.114 -51.7492 190.64 -51.9239L183.507 -54.5508C183.358 -54.6057 183.241 -54.7227 183.186 -54.8712L180.546 -61.9702C180.371 -62.4423 179.7 -62.4423 179.524 -61.9702L176.885 -54.8712C176.83 -54.7227 176.712 -54.6057 176.563 -54.5508L169.431 -51.9239C168.957 -51.7492 168.957 -51.0815 169.431 -50.9068L176.563 -48.28C176.712 -48.225 176.83 -48.108 176.885 -47.9596L179.524 -40.8605C179.7 -40.3885 180.371 -40.3885 180.546 -40.8605L183.186 -47.9596C183.241 -48.108 183.358 -48.225 183.507 -48.28L190.64 -50.9068Z" fill="url(#paint50_linear_4001_1190)"/>
  <path d="M179.396 -0.990446C179.572 -0.518368 180.243 -0.518368 180.418 -0.990446L183.057 -8.0895C183.113 -8.23792 183.23 -8.35494 183.379 -8.40986L190.512 -11.0367C190.986 -11.2114 190.986 -11.8791 190.512 -12.0538L183.379 -14.6807C183.23 -14.7356 183.113 -14.8526 183.057 -15.0011L180.418 -22.1001C180.243 -22.5722 179.572 -22.5722 179.396 -22.1001L176.757 -15.0011C176.702 -14.8526 176.584 -14.7356 176.435 -14.6807L169.303 -12.0538C168.828 -11.8791 168.828 -11.2114 169.303 -11.0367L176.435 -8.40986C176.584 -8.35494 176.702 -8.23792 176.757 -8.0895L179.396 -0.990446Z" fill="url(#paint51_linear_4001_1190)"/>
  <path d="M179.396 47.5554C179.572 48.0275 180.243 48.0275 180.418 47.5554L185.412 34.1238C185.467 33.9754 185.584 33.8584 185.733 33.8035L199.228 28.8333C199.702 28.6587 199.702 27.991 199.228 27.8163L185.733 22.8462C185.584 22.7912 185.467 22.6742 185.412 22.5258L180.418 9.09425C180.243 8.62217 179.572 8.62218 179.396 9.09426L174.403 22.5258C174.348 22.6742 174.23 22.7912 174.081 22.8462L160.586 27.8163C160.112 27.991 160.112 28.6587 160.586 28.8333L174.081 33.8035C174.23 33.8584 174.348 33.9754 174.403 34.1238L179.396 47.5554Z" fill="url(#paint52_linear_4001_1190)"/>
  <path d="M181.091 53.1746C180.916 52.7025 180.245 52.7025 180.069 53.1746L176.4 63.0441C176.345 63.1925 176.227 63.3095 176.078 63.3645L166.162 67.0165C165.688 67.1912 165.688 67.8589 166.162 68.0336L176.078 71.6856C176.227 71.7405 176.345 71.8576 176.4 72.006L180.069 81.8755C180.245 82.3476 180.916 82.3476 181.091 81.8755L184.76 72.006C184.816 71.8576 184.933 71.7405 185.082 71.6856L194.998 68.0336C195.472 67.8589 195.472 67.1912 194.998 67.0165L185.082 63.3645C184.933 63.3095 184.816 63.1925 184.76 63.0441L181.091 53.1746Z" fill="url(#paint53_linear_4001_1190)"/>
  <path d="M188.461 109.116C188.935 108.941 188.935 108.273 188.461 108.099L183.317 106.204C183.167 106.149 183.05 106.032 182.995 105.884L181.091 100.763C180.916 100.291 180.245 100.291 180.069 100.763L178.166 105.884C178.111 106.032 177.993 106.149 177.844 106.204L172.7 108.099C172.225 108.273 172.225 108.941 172.7 109.116L177.844 111.01C177.993 111.065 178.111 111.182 178.166 111.331L180.069 116.451C180.245 116.923 180.916 116.923 181.091 116.451L182.995 111.331C183.05 111.182 183.167 111.065 183.317 111.01L188.461 109.116Z" fill="url(#paint54_linear_4001_1190)"/>
  <path d="M180.546 137.253C180.371 136.781 179.7 136.781 179.524 137.253L176.885 144.352C176.83 144.5 176.712 144.617 176.563 144.672L169.431 147.299C168.957 147.474 168.957 148.141 169.431 148.316L176.563 150.943C176.712 150.998 176.83 151.115 176.885 151.263L179.524 158.362C179.7 158.834 180.371 158.834 180.546 158.362L183.186 151.263C183.241 151.115 183.358 150.998 183.507 150.943L190.64 148.316C191.114 148.141 191.114 147.474 190.64 147.299L183.507 144.672C183.358 144.617 183.241 144.5 183.186 144.352L180.546 137.253Z" fill="url(#paint55_linear_4001_1190)"/>
  <path d="M181.091 172.785C180.916 172.313 180.245 172.313 180.069 172.785L176.4 182.654C176.345 182.803 176.227 182.92 176.078 182.975L166.162 186.627C165.688 186.801 165.688 187.469 166.162 187.644L176.078 191.296C176.227 191.351 176.345 191.468 176.4 191.616L180.069 201.486C180.245 201.958 180.916 201.958 181.091 201.486L184.76 191.616C184.816 191.468 184.933 191.351 185.082 191.296L194.998 187.644C195.472 187.469 195.472 186.801 194.998 186.627L185.082 182.975C184.933 182.92 184.816 182.803 184.76 182.654L181.091 172.785Z" fill="url(#paint56_linear_4001_1190)"/>
  <path d="M179.396 246.906C179.572 247.378 180.243 247.378 180.418 246.906L185.412 233.474C185.467 233.326 185.584 233.209 185.733 233.154L199.228 228.184C199.702 228.009 199.702 227.341 199.228 227.167L185.733 222.197C185.584 222.142 185.467 222.025 185.412 221.876L180.418 208.445C180.243 207.973 179.572 207.973 179.396 208.445L174.403 221.876C174.348 222.025 174.23 222.142 174.081 222.197L160.586 227.167C160.112 227.341 160.112 228.009 160.586 228.184L174.081 233.154C174.23 233.209 174.348 233.326 174.403 233.474L179.396 246.906Z" fill="url(#paint57_linear_4001_1190)"/>
  <path d="M179.396 278.1C179.572 278.572 180.243 278.572 180.418 278.1L183.057 271.001C183.113 270.853 183.23 270.736 183.379 270.681L190.512 268.054C190.986 267.879 190.986 267.211 190.512 267.037L183.379 264.41C183.23 264.355 183.113 264.238 183.057 264.09L180.418 256.99C180.243 256.518 179.572 256.518 179.396 256.99L176.757 264.09C176.702 264.238 176.584 264.355 176.435 264.41L169.303 267.037C168.828 267.211 168.828 267.879 169.303 268.054L176.435 270.681C176.584 270.736 176.702 270.853 176.757 271.001L179.396 278.1Z" fill="url(#paint58_linear_4001_1190)"/>
  <path d="M188.461 308.466C188.935 308.291 188.935 307.624 188.461 307.449L183.317 305.554C183.167 305.499 183.05 305.382 182.995 305.234L181.091 300.114C180.916 299.642 180.245 299.642 180.069 300.114L178.166 305.234C178.111 305.383 177.993 305.499 177.844 305.554L172.7 307.449C172.225 307.624 172.225 308.291 172.7 308.466L177.844 310.361C177.993 310.416 178.111 310.533 178.166 310.681L180.069 315.801C180.245 316.273 180.916 316.273 181.091 315.801L182.995 310.681C183.05 310.533 183.167 310.416 183.317 310.361L188.461 308.466Z" fill="url(#paint59_linear_4001_1190)"/>
  <path d="M139.339 -40.8605C139.514 -40.3885 140.185 -40.3885 140.36 -40.8605L143 -47.9596C143.055 -48.108 143.172 -48.225 143.322 -48.28L150.454 -50.9068C150.928 -51.0815 150.928 -51.7492 150.454 -51.9239L143.322 -54.5508C143.172 -54.6057 143.055 -54.7227 143 -54.8712L140.36 -61.9702C140.185 -62.4423 139.514 -62.4423 139.339 -61.9702L136.699 -54.8712C136.644 -54.7227 136.527 -54.6057 136.377 -54.5508L129.245 -51.9239C128.771 -51.7492 128.771 -51.0815 129.245 -50.9068L136.377 -48.28C136.527 -48.225 136.644 -48.108 136.699 -47.9596L139.339 -40.8605Z" fill="url(#paint60_linear_4001_1190)"/>
  <path d="M140.489 -30.9034C140.313 -31.3755 139.642 -31.3755 139.467 -30.9034L134.473 -17.4719C134.418 -17.3234 134.301 -17.2064 134.151 -17.1515L120.657 -12.1814C120.182 -12.0067 120.182 -11.339 120.657 -11.1643L134.151 -6.19419C134.301 -6.13927 134.418 -6.02225 134.473 -5.87384L139.467 7.55772C139.642 8.02979 140.313 8.02979 140.489 7.55771L145.482 -5.87384C145.537 -6.02226 145.655 -6.13927 145.804 -6.19419L159.299 -11.1643C159.773 -11.339 159.773 -12.0067 159.299 -12.1814L145.804 -17.1515C145.655 -17.2064 145.537 -17.3234 145.482 -17.4719L140.489 -30.9034Z" fill="url(#paint61_linear_4001_1190)"/>
  <path d="M124.887 27.1465C124.412 27.3212 124.412 27.9889 124.887 28.1635L134.803 31.8156C134.952 31.8705 135.069 31.9875 135.125 32.136L138.794 42.0055C138.969 42.4776 139.64 42.4776 139.816 42.0055L143.485 32.136C143.54 31.9875 143.658 31.8705 143.807 31.8156L153.723 28.1635C154.197 27.9889 154.197 27.3212 153.723 27.1465L143.807 23.4944C143.658 23.4395 143.54 23.3225 143.485 23.1741L139.816 13.3046C139.64 12.8325 138.969 12.8325 138.794 13.3046L135.125 23.1741C135.069 23.3225 134.952 23.4395 134.803 23.4944L124.887 27.1465Z" fill="url(#paint62_linear_4001_1190)"/>
  <path d="M138.794 83.0876C138.969 83.5597 139.64 83.5597 139.816 83.0876L143.485 73.2181C143.54 73.0697 143.658 72.9526 143.807 72.8977L153.723 69.2457C154.197 69.071 154.197 68.4033 153.723 68.2286L143.807 64.5765C143.658 64.5216 143.54 64.4046 143.485 64.2562L139.816 54.3867C139.64 53.9146 138.969 53.9146 138.794 54.3867L135.125 64.2562C135.069 64.4046 134.952 64.5216 134.803 64.5765L124.887 68.2286C124.412 68.4033 124.412 69.071 124.887 69.2457L134.803 72.8977C134.952 72.9526 135.069 73.0697 135.125 73.2181L138.794 83.0876Z" fill="url(#paint63_linear_4001_1190)"/>
  <path d="M139.339 127.295C139.514 127.768 140.185 127.768 140.36 127.295L145.354 113.864C145.409 113.716 145.527 113.598 145.676 113.544L159.171 108.573C159.645 108.399 159.645 107.731 159.171 107.556L145.676 102.586C145.527 102.531 145.409 102.414 145.354 102.266L140.36 88.8344C140.185 88.3623 139.514 88.3623 139.339 88.8344L134.345 102.266C134.29 102.414 134.172 102.531 134.023 102.586L120.528 107.556C120.054 107.731 120.054 108.399 120.528 108.573L134.023 113.544C134.172 113.598 134.29 113.716 134.345 113.864L139.339 127.295Z" fill="url(#paint64_linear_4001_1190)"/>
  <path d="M138.794 162.828C138.969 163.3 139.64 163.3 139.816 162.828L143.485 152.958C143.54 152.81 143.658 152.693 143.807 152.638L153.723 148.986C154.197 148.811 154.197 148.143 153.723 147.969L143.807 144.317C143.658 144.262 143.54 144.145 143.485 143.996L139.816 134.127C139.64 133.655 138.969 133.655 138.794 134.127L135.125 143.996C135.069 144.145 134.952 144.262 134.803 144.317L124.887 147.969C124.412 148.143 124.412 148.811 124.887 148.986L134.803 152.638C134.952 152.693 135.069 152.81 135.125 152.958L138.794 162.828Z" fill="url(#paint65_linear_4001_1190)"/>
  <path d="M129.245 187.169C128.771 187.344 128.771 188.011 129.245 188.186L136.377 190.813C136.527 190.868 136.644 190.985 136.699 191.133L139.339 198.232C139.514 198.704 140.185 198.704 140.36 198.232L143 191.133C143.055 190.985 143.172 190.868 143.322 190.813L150.454 188.186C150.928 188.011 150.928 187.344 150.454 187.169L143.322 184.542C143.172 184.487 143.055 184.37 143 184.222L140.36 177.123C140.185 176.651 139.514 176.651 139.339 177.123L136.699 184.222C136.644 184.37 136.527 184.487 136.377 184.542L129.245 187.169Z" fill="url(#paint66_linear_4001_1190)"/>
  <path d="M140.489 208.317C140.313 207.845 139.642 207.845 139.467 208.317L134.473 221.749C134.418 221.897 134.301 222.014 134.151 222.069L120.657 227.039C120.182 227.214 120.182 227.881 120.657 228.056L134.151 233.026C134.301 233.081 134.418 233.198 134.473 233.347L139.467 246.778C139.642 247.25 140.313 247.25 140.489 246.778L145.482 233.347C145.537 233.198 145.655 233.081 145.804 233.026L159.299 228.056C159.773 227.881 159.773 227.214 159.299 227.039L145.804 222.069C145.655 222.014 145.537 221.897 145.482 221.749L140.489 208.317Z" fill="url(#paint67_linear_4001_1190)"/>
  <path d="M140.489 256.863C140.313 256.391 139.642 256.391 139.467 256.863L136.828 263.962C136.772 264.11 136.655 264.227 136.506 264.282L129.373 266.909C128.899 267.084 128.899 267.752 129.373 267.926L136.506 270.553C136.655 270.608 136.772 270.725 136.828 270.873L139.467 277.973C139.642 278.445 140.313 278.445 140.489 277.973L143.128 270.873C143.183 270.725 143.301 270.608 143.45 270.553L150.582 267.926C151.057 267.752 151.057 267.084 150.582 266.909L143.45 264.282C143.301 264.227 143.183 264.11 143.128 263.962L140.489 256.863Z" fill="url(#paint68_linear_4001_1190)"/>
  <path d="M159.299 307.924C159.773 307.749 159.773 307.082 159.299 306.907L145.804 301.937C145.655 301.882 145.537 301.765 145.482 301.616L140.489 288.185C140.313 287.713 139.642 287.713 139.467 288.185L134.473 301.616C134.418 301.765 134.301 301.882 134.151 301.937L120.657 306.907C120.182 307.082 120.182 307.749 120.657 307.924L134.151 312.894C134.301 312.949 134.418 313.066 134.473 313.214L139.467 326.646C139.642 327.118 140.313 327.118 140.489 326.646L145.482 313.214C145.537 313.066 145.655 312.949 145.804 312.894L159.299 307.924Z" fill="url(#paint69_linear_4001_1190)"/>
  <path d="M108.345 -50.3646C108.82 -50.5393 108.82 -51.207 108.345 -51.3817L103.201 -53.2763C103.052 -53.3312 102.934 -53.4482 102.879 -53.5967L100.976 -58.7168C100.8 -59.1889 100.129 -59.1889 99.9539 -58.7168L98.0504 -53.5967C97.9952 -53.4482 97.8776 -53.3312 97.7285 -53.2763L92.5843 -51.3817C92.11 -51.207 92.11 -50.5393 92.5843 -50.3646L97.7285 -48.47C97.8776 -48.4151 97.9952 -48.298 98.0504 -48.1496L99.9539 -43.0295C100.129 -42.5574 100.8 -42.5574 100.976 -43.0295L102.879 -48.1496C102.934 -48.298 103.052 -48.4151 103.201 -48.47L108.345 -50.3646Z" fill="url(#paint70_linear_4001_1190)"/>
  <path d="M99.2809 -0.990446C99.4564 -0.518368 100.127 -0.518368 100.303 -0.990446L102.942 -8.0895C102.997 -8.23792 103.115 -8.35494 103.264 -8.40986L110.396 -11.0367C110.871 -11.2114 110.871 -11.8791 110.396 -12.0538L103.264 -14.6807C103.115 -14.7356 102.997 -14.8526 102.942 -15.0011L100.303 -22.1001C100.127 -22.5722 99.4564 -22.5722 99.2809 -22.1001L96.6417 -15.0011C96.5865 -14.8526 96.4689 -14.7356 96.3198 -14.6807L89.1874 -12.0538C88.7131 -11.8791 88.7131 -11.2114 89.1874 -11.0367L96.3198 -8.40986C96.4689 -8.35494 96.5865 -8.23792 96.6417 -8.0895L99.2809 -0.990446Z" fill="url(#paint71_linear_4001_1190)"/>
  <path d="M98.7361 43.2175C98.9116 43.6896 99.5825 43.6896 99.758 43.2175L103.427 33.348C103.482 33.1996 103.6 33.0826 103.749 33.0276L113.665 29.3756C114.139 29.2009 114.139 28.5332 113.665 28.3585L103.749 24.7065C103.6 24.6515 103.482 24.5345 103.427 24.3861L99.758 14.5166C99.5825 14.0445 98.9116 14.0445 98.7361 14.5166L95.0669 24.3861C95.0117 24.5345 94.8941 24.6515 94.745 24.7065L84.8291 28.3585C84.3548 28.5332 84.3548 29.2009 84.8291 29.3756L94.745 33.0276C94.8941 33.0826 95.0117 33.1996 95.0669 33.348L98.7361 43.2175Z" fill="url(#paint72_linear_4001_1190)"/>
  <path d="M119.241 68.7034C119.715 68.5287 119.715 67.861 119.241 67.6864L105.746 62.7162C105.597 62.6613 105.48 62.5443 105.424 62.3959L100.431 48.9643C100.255 48.4923 99.5846 48.4923 99.4091 48.9643L94.4156 62.3959C94.3604 62.5443 94.2429 62.6613 94.0937 62.7162L80.599 67.6864C80.1247 67.861 80.1247 68.5287 80.599 68.7034L94.0937 73.6735C94.2429 73.7285 94.3604 73.8455 94.4156 73.9939L99.4091 87.4255C99.5846 87.8975 100.255 87.8975 100.431 87.4255L105.424 73.9939C105.48 73.8455 105.597 73.7285 105.746 73.6735L119.241 68.7034Z" fill="url(#paint73_linear_4001_1190)"/>
  <path d="M98.7361 122.958C98.9116 123.43 99.5825 123.43 99.758 122.958L103.427 113.088C103.482 112.94 103.6 112.823 103.749 112.768L113.665 109.116C114.139 108.941 114.139 108.273 113.665 108.099L103.749 104.447C103.6 104.392 103.482 104.275 103.427 104.126L99.758 94.2567C99.5825 93.7846 98.9116 93.7846 98.7361 94.2567L95.0669 104.126C95.0117 104.275 94.8941 104.392 94.745 104.447L84.8291 108.099C84.3548 108.273 84.3548 108.941 84.8291 109.116L94.745 112.768C94.8941 112.823 95.0117 112.94 95.0669 113.088L98.7361 122.958Z" fill="url(#paint74_linear_4001_1190)"/>
  <path d="M84.8291 146.757C84.3548 146.931 84.3548 147.599 84.8291 147.774L94.745 151.426C94.8941 151.481 95.0117 151.598 95.0669 151.746L98.7361 161.616C98.9116 162.088 99.5825 162.088 99.758 161.616L103.427 151.746C103.482 151.598 103.6 151.481 103.749 151.426L113.665 147.774C114.139 147.599 114.139 146.931 113.665 146.757L103.749 143.105C103.6 143.05 103.482 142.933 103.427 142.784L99.758 132.915C99.5825 132.443 98.9116 132.443 98.7361 132.915L95.0669 142.784C95.0117 142.933 94.8941 143.05 94.745 143.105L84.8291 146.757Z" fill="url(#paint75_linear_4001_1190)"/>
  <path d="M119.241 188.314C119.715 188.139 119.715 187.471 119.241 187.297L105.746 182.326C105.597 182.272 105.48 182.155 105.424 182.006L100.431 168.575C100.255 168.102 99.5846 168.102 99.4091 168.575L94.4156 182.006C94.3604 182.155 94.2429 182.272 94.0937 182.326L80.599 187.297C80.1247 187.471 80.1247 188.139 80.599 188.314L94.0937 193.284C94.2429 193.339 94.3604 193.456 94.4156 193.604L99.4091 207.036C99.5846 207.508 100.255 207.508 100.431 207.036L105.424 193.604C105.48 193.456 105.597 193.339 105.746 193.284L119.241 188.314Z" fill="url(#paint76_linear_4001_1190)"/>
  <path d="M108.345 228.726C108.82 228.551 108.82 227.884 108.345 227.709L103.201 225.814C103.052 225.759 102.934 225.642 102.879 225.494L100.976 220.374C100.8 219.902 100.129 219.902 99.9539 220.374L98.0504 225.494C97.9952 225.642 97.8776 225.759 97.7285 225.814L92.5843 227.709C92.11 227.884 92.11 228.551 92.5843 228.726L97.7285 230.621C97.8776 230.675 97.9952 230.792 98.0504 230.941L99.9539 236.061C100.129 236.533 100.8 236.533 100.976 236.061L102.879 230.941C102.934 230.792 103.052 230.675 103.201 230.621L108.345 228.726Z" fill="url(#paint77_linear_4001_1190)"/>
  <path d="M99.2809 278.1C99.4564 278.572 100.127 278.572 100.303 278.1L102.942 271.001C102.997 270.853 103.115 270.736 103.264 270.681L110.396 268.054C110.871 267.879 110.871 267.211 110.396 267.037L103.264 264.41C103.115 264.355 102.997 264.238 102.942 264.09L100.303 256.99C100.127 256.518 99.4564 256.518 99.2809 256.99L96.6417 264.09C96.5865 264.238 96.4689 264.355 96.3198 264.41L89.1874 267.037C88.7131 267.211 88.7131 267.879 89.1874 268.054L96.3198 270.681C96.4689 270.736 96.5865 270.853 96.6417 271.001L99.2809 278.1Z" fill="url(#paint78_linear_4001_1190)"/>
  <path d="M114.883 308.466C115.357 308.291 115.357 307.624 114.883 307.449L104.967 303.797C104.818 303.742 104.7 303.625 104.645 303.477L100.976 293.607C100.8 293.135 100.129 293.135 99.9539 293.607L96.2847 303.477C96.2295 303.625 96.1119 303.742 95.9628 303.797L86.0469 307.449C85.5726 307.624 85.5726 308.291 86.0469 308.466L95.9628 312.118C96.1119 312.173 96.2295 312.29 96.2847 312.439L99.9539 322.308C100.129 322.78 100.8 322.78 100.976 322.308L104.645 312.439C104.7 312.29 104.818 312.173 104.967 312.118L114.883 308.466Z" fill="url(#paint79_linear_4001_1190)"/>
  <path d="M59.2235 -32.1848C59.399 -31.7127 60.0698 -31.7127 60.2453 -32.1848L65.2388 -45.6164C65.294 -45.7648 65.4116 -45.8818 65.5607 -45.9367L79.0554 -50.9068C79.5297 -51.0815 79.5297 -51.7492 79.0554 -51.9239L65.5607 -56.894C65.4116 -56.949 65.294 -57.066 65.2388 -57.2144L60.2453 -70.6459C60.0698 -71.118 59.399 -71.118 59.2235 -70.6459L54.23 -57.2144C54.1748 -57.066 54.0572 -56.949 53.9081 -56.894L40.4134 -51.9239C39.9391 -51.7492 39.9391 -51.0815 40.4134 -50.9068L53.9081 -45.9367C54.0572 -45.8818 54.1748 -45.7648 54.23 -45.6164L59.2235 -32.1848Z" fill="url(#paint80_linear_4001_1190)"/>
  <path d="M60.9181 -26.5656C60.7426 -27.0376 60.0717 -27.0376 59.8962 -26.5656L56.227 -16.696C56.1718 -16.5476 56.0543 -16.4306 55.9051 -16.3757L45.9892 -12.7236C45.5149 -12.5489 45.5149 -11.8812 45.9892 -11.7065L55.9051 -8.0545C56.0543 -7.99958 56.1718 -7.88256 56.227 -7.73414L59.8962 2.13538C60.0717 2.60746 60.7426 2.60746 60.9181 2.13538L64.5873 -7.73414C64.6425 -7.88256 64.7601 -7.99958 64.9092 -8.0545L74.8251 -11.7065C75.2994 -11.8812 75.2994 -12.5489 74.8251 -12.7236L64.9092 -16.3757C64.76 -16.4306 64.6425 -16.5476 64.5873 -16.696L60.9181 -26.5656Z" fill="url(#paint81_linear_4001_1190)"/>
  <path d="M40.4134 27.6887C39.9391 27.8634 39.9391 28.5311 40.4134 28.7058L53.9081 33.6759C54.0572 33.7308 54.1748 33.8479 54.23 33.9963L59.2235 47.4278C59.399 47.8999 60.0698 47.8999 60.2453 47.4278L65.2388 33.9963C65.294 33.8479 65.4116 33.7308 65.5607 33.6759L79.0554 28.7058C79.5297 28.5311 79.5297 27.8634 79.0554 27.6887L65.5607 22.7186C65.4116 22.6637 65.294 22.5467 65.2388 22.3982L60.2453 8.96669C60.0698 8.49461 59.399 8.49461 59.2235 8.96669L54.23 22.3982C54.1748 22.5467 54.0572 22.6637 53.9081 22.7186L40.4134 27.6887Z" fill="url(#paint82_linear_4001_1190)"/>
  <path d="M59.2235 87.4255C59.399 87.8975 60.0698 87.8975 60.2453 87.4255L65.2388 73.9939C65.294 73.8455 65.4116 73.7285 65.5607 73.6735L79.0554 68.7034C79.5297 68.5287 79.5297 67.861 79.0554 67.6864L65.5607 62.7162C65.4116 62.6613 65.294 62.5443 65.2388 62.3959L60.2453 48.9643C60.0698 48.4923 59.399 48.4923 59.2235 48.9643L54.23 62.3959C54.1748 62.5443 54.0572 62.6613 53.9081 62.7162L40.4134 67.6864C39.9391 67.861 39.9391 68.5287 40.4134 68.7034L53.9081 73.6735C54.0572 73.7285 54.1748 73.8455 54.23 73.9939L59.2235 87.4255Z" fill="url(#paint83_linear_4001_1190)"/>
  <path d="M59.2235 118.62C59.399 119.092 60.0698 119.092 60.2453 118.62L62.8845 111.521C62.9397 111.372 63.0573 111.255 63.2064 111.2L70.3389 108.573C70.8132 108.399 70.8132 107.731 70.3389 107.556L63.2064 104.93C63.0573 104.875 62.9397 104.758 62.8845 104.609L60.2453 97.5101C60.0698 97.038 59.399 97.038 59.2235 97.5101L56.5842 104.609C56.529 104.758 56.4115 104.875 56.2624 104.93L49.1299 107.556C48.6556 107.731 48.6556 108.399 49.1299 108.573L56.2624 111.2C56.4115 111.255 56.529 111.372 56.5842 111.521L59.2235 118.62Z" fill="url(#paint84_linear_4001_1190)"/>
  <path d="M60.3733 128.577C60.1978 128.105 59.5269 128.105 59.3514 128.577L54.3579 142.008C54.3028 142.157 54.1852 142.274 54.0361 142.329L40.5413 147.299C40.0671 147.474 40.0671 148.141 40.5414 148.316L54.0361 153.286C54.1852 153.341 54.3028 153.458 54.3579 153.606L59.3514 167.038C59.5269 167.51 60.1978 167.51 60.3733 167.038L65.3668 153.606C65.422 153.458 65.5395 153.341 65.6887 153.286L79.1834 148.316C79.6577 148.141 79.6577 147.474 79.1834 147.299L65.6887 142.329C65.5395 142.274 65.422 142.157 65.3668 142.008L60.3733 128.577Z" fill="url(#paint85_linear_4001_1190)"/>
  <path d="M59.2235 207.036C59.399 207.508 60.0698 207.508 60.2453 207.036L65.2388 193.604C65.294 193.456 65.4116 193.339 65.5607 193.284L79.0554 188.314C79.5297 188.139 79.5297 187.471 79.0554 187.297L65.5607 182.326C65.4116 182.272 65.294 182.155 65.2388 182.006L60.2453 168.575C60.0698 168.102 59.399 168.102 59.2235 168.575L54.23 182.006C54.1748 182.155 54.0572 182.272 53.9081 182.326L40.4134 187.297C39.9391 187.471 39.9391 188.139 40.4134 188.314L53.9081 193.284C54.0572 193.339 54.1748 193.456 54.23 193.604L59.2235 207.036Z" fill="url(#paint86_linear_4001_1190)"/>
  <path d="M68.2877 228.726C68.762 228.551 68.762 227.884 68.2877 227.709L63.1435 225.814C62.9944 225.759 62.8768 225.642 62.8216 225.494L60.9181 220.374C60.7426 219.902 60.0717 219.902 59.8962 220.374L57.9927 225.494C57.9375 225.642 57.82 225.759 57.6708 225.814L52.5266 227.709C52.0523 227.884 52.0523 228.551 52.5266 228.726L57.6708 230.621C57.82 230.675 57.9375 230.792 57.9927 230.941L59.8962 236.061C60.0717 236.533 60.7426 236.533 60.9181 236.061L62.8216 230.941C62.8768 230.792 62.9944 230.675 63.1435 230.621L68.2877 228.726Z" fill="url(#paint87_linear_4001_1190)"/>
  <path d="M70.4669 268.054C70.9412 267.879 70.9412 267.211 70.4669 267.037L63.3344 264.41C63.1853 264.355 63.0677 264.238 63.0125 264.09L60.3733 256.99C60.1978 256.518 59.5269 256.518 59.3514 256.99L56.7122 264.09C56.657 264.238 56.5395 264.355 56.3903 264.41L49.2579 267.037C48.7836 267.211 48.7836 267.879 49.2579 268.054L56.3903 270.681C56.5395 270.736 56.657 270.853 56.7122 271.001L59.3514 278.1C59.5269 278.572 60.1978 278.572 60.3733 278.1L63.0125 271.001C63.0677 270.853 63.1853 270.736 63.3344 270.681L70.4669 268.054Z" fill="url(#paint88_linear_4001_1190)"/>
  <path d="M60.9181 298.902C60.7426 298.43 60.0717 298.43 59.8962 298.902L57.9927 304.022C57.9375 304.17 57.82 304.287 57.6708 304.342L52.5266 306.237C52.0523 306.412 52.0523 307.079 52.5266 307.254L57.6708 309.149C57.82 309.204 57.9375 309.321 57.9927 309.469L59.8962 314.589C60.0717 315.061 60.7426 315.061 60.9181 314.589L62.8216 309.469C62.8768 309.321 62.9944 309.204 63.1435 309.149L68.2877 307.254C68.762 307.079 68.762 306.412 68.2877 306.237L63.1435 304.342C62.9944 304.287 62.8768 304.17 62.8216 304.022L60.9181 298.902Z" fill="url(#paint89_linear_4001_1190)"/>
  <path d="M19.1658 -40.8605C19.3413 -40.3885 20.0121 -40.3885 20.1877 -40.8605L22.8269 -47.9596C22.8821 -48.108 22.9996 -48.225 23.1487 -48.28L30.2812 -50.9068C30.7555 -51.0815 30.7555 -51.7492 30.2812 -51.9239L23.1487 -54.5508C22.9996 -54.6057 22.8821 -54.7227 22.8269 -54.8712L20.1877 -61.9702C20.0121 -62.4423 19.3413 -62.4423 19.1658 -61.9702L16.5266 -54.8712C16.4714 -54.7227 16.3538 -54.6057 16.2047 -54.5508L9.07227 -51.9239C8.59797 -51.7492 8.59797 -51.0815 9.07227 -50.9068L16.2047 -48.28C16.3538 -48.225 16.4714 -48.108 16.5266 -47.9596L19.1658 -40.8605Z" fill="url(#paint90_linear_4001_1190)"/>
  <path d="M20.3159 -22.2277C20.1404 -22.6998 19.4695 -22.6998 19.294 -22.2277L16.6548 -15.1286C16.5996 -14.9802 16.4821 -14.8632 16.3329 -14.8083L9.20048 -12.1814C8.72618 -12.0067 8.72618 -11.339 9.20048 -11.1643L16.3329 -8.53743C16.4821 -8.48251 16.5996 -8.36549 16.6548 -8.21707L19.294 -1.11801C19.4695 -0.645934 20.1404 -0.64594 20.3159 -1.11802L22.9551 -8.21707C23.0103 -8.36549 23.1279 -8.48251 23.277 -8.53743L30.4095 -11.1643C30.8838 -11.339 30.8838 -12.0067 30.4095 -12.1814L23.277 -14.8083C23.1279 -14.8632 23.0103 -14.9802 22.9551 -15.1286L20.3159 -22.2277Z" fill="url(#paint91_linear_4001_1190)"/>
  <path d="M39.126 28.8333C39.6003 28.6587 39.6003 27.991 39.126 27.8163L25.6313 22.8462C25.4821 22.7912 25.3646 22.6742 25.3094 22.5258L20.3159 9.09425C20.1404 8.62217 19.4695 8.62218 19.294 9.09426L14.3005 22.5258C14.2454 22.6742 14.1278 22.7912 13.9787 22.8462L0.483949 27.8163C0.0096538 27.991 0.00968289 28.6587 0.483983 28.8333L13.9787 33.8035C14.1278 33.8584 14.2454 33.9754 14.3005 34.1238L19.294 47.5554C19.4695 48.0275 20.1404 48.0275 20.3159 47.5554L25.3094 34.1238C25.3646 33.9754 25.4821 33.8584 25.6313 33.8035L39.126 28.8333Z" fill="url(#paint92_linear_4001_1190)"/>
  <path d="M20.8607 53.1746C20.6852 52.7025 20.0143 52.7025 19.8388 53.1746L16.1696 63.0441C16.1144 63.1925 15.9969 63.3095 15.8477 63.3645L5.93182 67.0165C5.45752 67.1912 5.45752 67.8589 5.93182 68.0336L15.8477 71.6856C15.9969 71.7405 16.1144 71.8576 16.1696 72.006L19.8388 81.8755C20.0143 82.3476 20.6852 82.3476 20.8607 81.8755L24.5299 72.006C24.5851 71.8576 24.7027 71.7405 24.8518 71.6856L34.7677 68.0336C35.242 67.8589 35.242 67.1912 34.7677 67.0165L24.8518 63.3645C24.7026 63.3095 24.5851 63.1925 24.5299 63.0441L20.8607 53.1746Z" fill="url(#paint93_linear_4001_1190)"/>
  <path d="M0.3557 107.429C-0.118598 107.604 -0.118565 108.271 0.355734 108.446L13.8504 113.416C13.9995 113.471 14.1171 113.588 14.1723 113.736L19.1658 127.168C19.3413 127.64 20.0121 127.64 20.1877 127.168L25.1811 113.736C25.2363 113.588 25.3539 113.471 25.503 113.416L38.9977 108.446C39.472 108.271 39.472 107.604 38.9977 107.429L25.503 102.459C25.3539 102.404 25.2363 102.287 25.1811 102.138L20.1877 88.7068C20.0121 88.2347 19.3413 88.2347 19.1658 88.7068L14.1723 102.138C14.1171 102.287 13.9995 102.404 13.8504 102.459L0.3557 107.429Z" fill="url(#paint94_linear_4001_1190)"/>
  <path d="M0.3557 147.299C-0.118598 147.474 -0.118565 148.141 0.355734 148.316L13.8504 153.286C13.9995 153.341 14.1171 153.458 14.1723 153.606L19.1658 167.038C19.3413 167.51 20.0121 167.51 20.1877 167.038L25.1811 153.606C25.2363 153.458 25.3539 153.341 25.503 153.286L38.9977 148.316C39.472 148.141 39.472 147.474 38.9977 147.299L25.503 142.329C25.3539 142.274 25.2363 142.157 25.1811 142.008L20.1877 128.577C20.0121 128.105 19.3413 128.105 19.1658 128.577L14.1723 142.008C14.1171 142.157 13.9995 142.274 13.8504 142.329L0.3557 147.299Z" fill="url(#paint95_linear_4001_1190)"/>
  <path d="M18.621 202.698C18.7965 203.17 19.4674 203.17 19.6429 202.698L23.3121 192.828C23.3673 192.68 23.4848 192.563 23.6339 192.508L33.5499 188.856C34.0242 188.681 34.0242 188.014 33.5499 187.839L23.6339 184.187C23.4848 184.132 23.3673 184.015 23.3121 183.866L19.6429 173.997C19.4674 173.525 18.7965 173.525 18.621 173.997L14.9518 183.866C14.8966 184.015 14.779 184.132 14.6299 184.187L4.71397 187.839C4.23967 188.014 4.2397 188.681 4.714 188.856L14.6299 192.508C14.779 192.563 14.8966 192.68 14.9518 192.828L18.621 202.698Z" fill="url(#paint96_linear_4001_1190)"/>
  <path d="M20.3159 216.993C20.1404 216.521 19.4695 216.521 19.294 216.993L16.6548 224.092C16.5996 224.24 16.4821 224.357 16.3329 224.412L9.20048 227.039C8.72618 227.214 8.72618 227.881 9.20048 228.056L16.3329 230.683C16.4821 230.738 16.5996 230.855 16.6548 231.003L19.294 238.102C19.4695 238.575 20.1404 238.575 20.3159 238.102L22.9551 231.003C23.0103 230.855 23.1279 230.738 23.277 230.683L30.4095 228.056C30.8838 227.881 30.8838 227.214 30.4095 227.039L23.277 224.412C23.1279 224.357 23.0103 224.24 22.9551 224.092L20.3159 216.993Z" fill="url(#paint97_linear_4001_1190)"/>
  <path d="M11.2514 266.367C10.7771 266.542 10.7771 267.209 11.2514 267.384L16.3956 269.279C16.5447 269.334 16.6623 269.451 16.7175 269.599L18.621 274.719C18.7965 275.191 19.4674 275.191 19.6429 274.719L21.5464 269.599C21.6016 269.451 21.7191 269.334 21.8683 269.279L27.0125 267.384C27.4868 267.209 27.4868 266.542 27.0125 266.367L21.8683 264.472C21.7191 264.417 21.6016 264.3 21.5464 264.152L19.6429 259.032C19.4674 258.56 18.7965 258.56 18.621 259.032L16.7175 264.152C16.6623 264.3 16.5447 264.417 16.3956 264.472L11.2514 266.367Z" fill="url(#paint98_linear_4001_1190)"/>
  <path d="M20.8607 298.902C20.6852 298.43 20.0143 298.43 19.8388 298.902L17.9353 304.022C17.8801 304.17 17.7626 304.287 17.6134 304.342L12.4692 306.237C11.9949 306.412 11.9949 307.079 12.4692 307.254L17.6134 309.149C17.7626 309.204 17.8801 309.321 17.9353 309.469L19.8388 314.589C20.0143 315.061 20.6852 315.061 20.8607 314.589L22.7642 309.469C22.8194 309.321 22.937 309.204 23.0861 309.149L28.2303 307.254C28.7046 307.079 28.7046 306.412 28.2303 306.237L23.0861 304.342C22.937 304.287 22.8194 304.17 22.7642 304.022L20.8607 298.902Z" fill="url(#paint99_linear_4001_1190)"/>
  <defs>
    <linearGradient id="paint0_linear_4001_1190" x1="228" y1="264.5" x2="92.5253" y2="-2.76624" gradientUnits="userSpaceOnUse">
      <stop stop-color="#F1F4FE" stop-opacity="0"/>
      <stop offset="1" stop-color="#C1A075" stop-opacity="0.24"/>
    </linearGradient>
    <linearGradient id="paint1_linear_4001_1190" x1="228" y1="264.5" x2="92.5253" y2="-2.76624" gradientUnits="userSpaceOnUse">
      <stop stop-color="#F1F4FE" stop-opacity="0"/>
      <stop offset="1" stop-color="#C1A075" stop-opacity="0.24"/>
    </linearGradient>
    <linearGradient id="paint2_linear_4001_1190" x1="228" y1="264.5" x2="92.5253" y2="-2.76624" gradientUnits="userSpaceOnUse">
      <stop stop-color="#F1F4FE" stop-opacity="0"/>
      <stop offset="1" stop-color="#C1A075" stop-opacity="0.24"/>
    </linearGradient>
    <linearGradient id="paint3_linear_4001_1190" x1="228" y1="264.5" x2="92.5253" y2="-2.76624" gradientUnits="userSpaceOnUse">
      <stop stop-color="#F1F4FE" stop-opacity="0"/>
      <stop offset="1" stop-color="#C1A075" stop-opacity="0.24"/>
    </linearGradient>
    <linearGradient id="paint4_linear_4001_1190" x1="228" y1="264.5" x2="92.5253" y2="-2.76624" gradientUnits="userSpaceOnUse">
      <stop stop-color="#F1F4FE" stop-opacity="0"/>
      <stop offset="1" stop-color="#C1A075" stop-opacity="0.24"/>
    </linearGradient>
    <linearGradient id="paint5_linear_4001_1190" x1="228" y1="264.5" x2="92.5253" y2="-2.76624" gradientUnits="userSpaceOnUse">
      <stop stop-color="#F1F4FE" stop-opacity="0"/>
      <stop offset="1" stop-color="#C1A075" stop-opacity="0.24"/>
    </linearGradient>
    <linearGradient id="paint6_linear_4001_1190" x1="228" y1="264.5" x2="92.5253" y2="-2.76624" gradientUnits="userSpaceOnUse">
      <stop stop-color="#F1F4FE" stop-opacity="0"/>
      <stop offset="1" stop-color="#C1A075" stop-opacity="0.24"/>
    </linearGradient>
    <linearGradient id="paint7_linear_4001_1190" x1="228" y1="264.5" x2="92.5253" y2="-2.76624" gradientUnits="userSpaceOnUse">
      <stop stop-color="#F1F4FE" stop-opacity="0"/>
      <stop offset="1" stop-color="#C1A075" stop-opacity="0.24"/>
    </linearGradient>
    <linearGradient id="paint8_linear_4001_1190" x1="228" y1="264.5" x2="92.5253" y2="-2.76624" gradientUnits="userSpaceOnUse">
      <stop stop-color="#F1F4FE" stop-opacity="0"/>
      <stop offset="1" stop-color="#C1A075" stop-opacity="0.24"/>
    </linearGradient>
    <linearGradient id="paint9_linear_4001_1190" x1="228" y1="264.5" x2="92.5253" y2="-2.76624" gradientUnits="userSpaceOnUse">
      <stop stop-color="#F1F4FE" stop-opacity="0"/>
      <stop offset="1" stop-color="#C1A075" stop-opacity="0.24"/>
    </linearGradient>
    <linearGradient id="paint10_linear_4001_1190" x1="228" y1="264.5" x2="92.5253" y2="-2.76624" gradientUnits="userSpaceOnUse">
      <stop stop-color="#F1F4FE" stop-opacity="0"/>
      <stop offset="1" stop-color="#C1A075" stop-opacity="0.24"/>
    </linearGradient>
    <linearGradient id="paint11_linear_4001_1190" x1="228" y1="264.5" x2="92.5253" y2="-2.76624" gradientUnits="userSpaceOnUse">
      <stop stop-color="#F1F4FE" stop-opacity="0"/>
      <stop offset="1" stop-color="#C1A075" stop-opacity="0.24"/>
    </linearGradient>
    <linearGradient id="paint12_linear_4001_1190" x1="228" y1="264.5" x2="92.5253" y2="-2.76624" gradientUnits="userSpaceOnUse">
      <stop stop-color="#F1F4FE" stop-opacity="0"/>
      <stop offset="1" stop-color="#C1A075" stop-opacity="0.24"/>
    </linearGradient>
    <linearGradient id="paint13_linear_4001_1190" x1="228" y1="264.5" x2="92.5253" y2="-2.76624" gradientUnits="userSpaceOnUse">
      <stop stop-color="#F1F4FE" stop-opacity="0"/>
      <stop offset="1" stop-color="#C1A075" stop-opacity="0.24"/>
    </linearGradient>
    <linearGradient id="paint14_linear_4001_1190" x1="228" y1="264.5" x2="92.5253" y2="-2.76624" gradientUnits="userSpaceOnUse">
      <stop stop-color="#F1F4FE" stop-opacity="0"/>
      <stop offset="1" stop-color="#C1A075" stop-opacity="0.24"/>
    </linearGradient>
    <linearGradient id="paint15_linear_4001_1190" x1="228" y1="264.5" x2="92.5253" y2="-2.76624" gradientUnits="userSpaceOnUse">
      <stop stop-color="#F1F4FE" stop-opacity="0"/>
      <stop offset="1" stop-color="#C1A075" stop-opacity="0.24"/>
    </linearGradient>
    <linearGradient id="paint16_linear_4001_1190" x1="228" y1="264.5" x2="92.5253" y2="-2.76624" gradientUnits="userSpaceOnUse">
      <stop stop-color="#F1F4FE" stop-opacity="0"/>
      <stop offset="1" stop-color="#C1A075" stop-opacity="0.24"/>
    </linearGradient>
    <linearGradient id="paint17_linear_4001_1190" x1="228" y1="264.5" x2="92.5253" y2="-2.76624" gradientUnits="userSpaceOnUse">
      <stop stop-color="#F1F4FE" stop-opacity="0"/>
      <stop offset="1" stop-color="#C1A075" stop-opacity="0.24"/>
    </linearGradient>
    <linearGradient id="paint18_linear_4001_1190" x1="228" y1="264.5" x2="92.5253" y2="-2.76624" gradientUnits="userSpaceOnUse">
      <stop stop-color="#F1F4FE" stop-opacity="0"/>
      <stop offset="1" stop-color="#C1A075" stop-opacity="0.24"/>
    </linearGradient>
    <linearGradient id="paint19_linear_4001_1190" x1="228" y1="264.5" x2="92.5253" y2="-2.76624" gradientUnits="userSpaceOnUse">
      <stop stop-color="#F1F4FE" stop-opacity="0"/>
      <stop offset="1" stop-color="#C1A075" stop-opacity="0.24"/>
    </linearGradient>
    <linearGradient id="paint20_linear_4001_1190" x1="228" y1="264.5" x2="92.5253" y2="-2.76624" gradientUnits="userSpaceOnUse">
      <stop stop-color="#F1F4FE" stop-opacity="0"/>
      <stop offset="1" stop-color="#C1A075" stop-opacity="0.24"/>
    </linearGradient>
    <linearGradient id="paint21_linear_4001_1190" x1="228" y1="264.5" x2="92.5253" y2="-2.76624" gradientUnits="userSpaceOnUse">
      <stop stop-color="#F1F4FE" stop-opacity="0"/>
      <stop offset="1" stop-color="#C1A075" stop-opacity="0.24"/>
    </linearGradient>
    <linearGradient id="paint22_linear_4001_1190" x1="228" y1="264.5" x2="92.5253" y2="-2.76624" gradientUnits="userSpaceOnUse">
      <stop stop-color="#F1F4FE" stop-opacity="0"/>
      <stop offset="1" stop-color="#C1A075" stop-opacity="0.24"/>
    </linearGradient>
    <linearGradient id="paint23_linear_4001_1190" x1="228" y1="264.5" x2="92.5253" y2="-2.76624" gradientUnits="userSpaceOnUse">
      <stop stop-color="#F1F4FE" stop-opacity="0"/>
      <stop offset="1" stop-color="#C1A075" stop-opacity="0.24"/>
    </linearGradient>
    <linearGradient id="paint24_linear_4001_1190" x1="228" y1="264.5" x2="92.5253" y2="-2.76624" gradientUnits="userSpaceOnUse">
      <stop stop-color="#F1F4FE" stop-opacity="0"/>
      <stop offset="1" stop-color="#C1A075" stop-opacity="0.24"/>
    </linearGradient>
    <linearGradient id="paint25_linear_4001_1190" x1="228" y1="264.5" x2="92.5253" y2="-2.76624" gradientUnits="userSpaceOnUse">
      <stop stop-color="#F1F4FE" stop-opacity="0"/>
      <stop offset="1" stop-color="#C1A075" stop-opacity="0.24"/>
    </linearGradient>
    <linearGradient id="paint26_linear_4001_1190" x1="228" y1="264.5" x2="92.5253" y2="-2.76624" gradientUnits="userSpaceOnUse">
      <stop stop-color="#F1F4FE" stop-opacity="0"/>
      <stop offset="1" stop-color="#C1A075" stop-opacity="0.24"/>
    </linearGradient>
    <linearGradient id="paint27_linear_4001_1190" x1="228" y1="264.5" x2="92.5253" y2="-2.76624" gradientUnits="userSpaceOnUse">
      <stop stop-color="#F1F4FE" stop-opacity="0"/>
      <stop offset="1" stop-color="#C1A075" stop-opacity="0.24"/>
    </linearGradient>
    <linearGradient id="paint28_linear_4001_1190" x1="228" y1="264.5" x2="92.5253" y2="-2.76624" gradientUnits="userSpaceOnUse">
      <stop stop-color="#F1F4FE" stop-opacity="0"/>
      <stop offset="1" stop-color="#C1A075" stop-opacity="0.24"/>
    </linearGradient>
    <linearGradient id="paint29_linear_4001_1190" x1="228" y1="264.5" x2="92.5253" y2="-2.76624" gradientUnits="userSpaceOnUse">
      <stop stop-color="#F1F4FE" stop-opacity="0"/>
      <stop offset="1" stop-color="#C1A075" stop-opacity="0.24"/>
    </linearGradient>
    <linearGradient id="paint30_linear_4001_1190" x1="228" y1="264.5" x2="92.5253" y2="-2.76624" gradientUnits="userSpaceOnUse">
      <stop stop-color="#F1F4FE" stop-opacity="0"/>
      <stop offset="1" stop-color="#C1A075" stop-opacity="0.24"/>
    </linearGradient>
    <linearGradient id="paint31_linear_4001_1190" x1="228" y1="264.5" x2="92.5253" y2="-2.76624" gradientUnits="userSpaceOnUse">
      <stop stop-color="#F1F4FE" stop-opacity="0"/>
      <stop offset="1" stop-color="#C1A075" stop-opacity="0.24"/>
    </linearGradient>
    <linearGradient id="paint32_linear_4001_1190" x1="228" y1="264.5" x2="92.5253" y2="-2.76624" gradientUnits="userSpaceOnUse">
      <stop stop-color="#F1F4FE" stop-opacity="0"/>
      <stop offset="1" stop-color="#C1A075" stop-opacity="0.24"/>
    </linearGradient>
    <linearGradient id="paint33_linear_4001_1190" x1="228" y1="264.5" x2="92.5253" y2="-2.76624" gradientUnits="userSpaceOnUse">
      <stop stop-color="#F1F4FE" stop-opacity="0"/>
      <stop offset="1" stop-color="#C1A075" stop-opacity="0.24"/>
    </linearGradient>
    <linearGradient id="paint34_linear_4001_1190" x1="228" y1="264.5" x2="92.5253" y2="-2.76624" gradientUnits="userSpaceOnUse">
      <stop stop-color="#F1F4FE" stop-opacity="0"/>
      <stop offset="1" stop-color="#C1A075" stop-opacity="0.24"/>
    </linearGradient>
    <linearGradient id="paint35_linear_4001_1190" x1="228" y1="264.5" x2="92.5253" y2="-2.76624" gradientUnits="userSpaceOnUse">
      <stop stop-color="#F1F4FE" stop-opacity="0"/>
      <stop offset="1" stop-color="#C1A075" stop-opacity="0.24"/>
    </linearGradient>
    <linearGradient id="paint36_linear_4001_1190" x1="228" y1="264.5" x2="92.5253" y2="-2.76624" gradientUnits="userSpaceOnUse">
      <stop stop-color="#F1F4FE" stop-opacity="0"/>
      <stop offset="1" stop-color="#C1A075" stop-opacity="0.24"/>
    </linearGradient>
    <linearGradient id="paint37_linear_4001_1190" x1="228" y1="264.5" x2="92.5253" y2="-2.76624" gradientUnits="userSpaceOnUse">
      <stop stop-color="#F1F4FE" stop-opacity="0"/>
      <stop offset="1" stop-color="#C1A075" stop-opacity="0.24"/>
    </linearGradient>
    <linearGradient id="paint38_linear_4001_1190" x1="228" y1="264.5" x2="92.5253" y2="-2.76624" gradientUnits="userSpaceOnUse">
      <stop stop-color="#F1F4FE" stop-opacity="0"/>
      <stop offset="1" stop-color="#C1A075" stop-opacity="0.24"/>
    </linearGradient>
    <linearGradient id="paint39_linear_4001_1190" x1="228" y1="264.5" x2="92.5253" y2="-2.76624" gradientUnits="userSpaceOnUse">
      <stop stop-color="#F1F4FE" stop-opacity="0"/>
      <stop offset="1" stop-color="#C1A075" stop-opacity="0.24"/>
    </linearGradient>
    <linearGradient id="paint40_linear_4001_1190" x1="228" y1="264.5" x2="92.5253" y2="-2.76624" gradientUnits="userSpaceOnUse">
      <stop stop-color="#F1F4FE" stop-opacity="0"/>
      <stop offset="1" stop-color="#C1A075" stop-opacity="0.24"/>
    </linearGradient>
    <linearGradient id="paint41_linear_4001_1190" x1="228" y1="264.5" x2="92.5253" y2="-2.76624" gradientUnits="userSpaceOnUse">
      <stop stop-color="#F1F4FE" stop-opacity="0"/>
      <stop offset="1" stop-color="#C1A075" stop-opacity="0.24"/>
    </linearGradient>
    <linearGradient id="paint42_linear_4001_1190" x1="228" y1="264.5" x2="92.5253" y2="-2.76624" gradientUnits="userSpaceOnUse">
      <stop stop-color="#F1F4FE" stop-opacity="0"/>
      <stop offset="1" stop-color="#C1A075" stop-opacity="0.24"/>
    </linearGradient>
    <linearGradient id="paint43_linear_4001_1190" x1="228" y1="264.5" x2="92.5253" y2="-2.76624" gradientUnits="userSpaceOnUse">
      <stop stop-color="#F1F4FE" stop-opacity="0"/>
      <stop offset="1" stop-color="#C1A075" stop-opacity="0.24"/>
    </linearGradient>
    <linearGradient id="paint44_linear_4001_1190" x1="228" y1="264.5" x2="92.5253" y2="-2.76624" gradientUnits="userSpaceOnUse">
      <stop stop-color="#F1F4FE" stop-opacity="0"/>
      <stop offset="1" stop-color="#C1A075" stop-opacity="0.24"/>
    </linearGradient>
    <linearGradient id="paint45_linear_4001_1190" x1="228" y1="264.5" x2="92.5253" y2="-2.76624" gradientUnits="userSpaceOnUse">
      <stop stop-color="#F1F4FE" stop-opacity="0"/>
      <stop offset="1" stop-color="#C1A075" stop-opacity="0.24"/>
    </linearGradient>
    <linearGradient id="paint46_linear_4001_1190" x1="228" y1="264.5" x2="92.5253" y2="-2.76624" gradientUnits="userSpaceOnUse">
      <stop stop-color="#F1F4FE" stop-opacity="0"/>
      <stop offset="1" stop-color="#C1A075" stop-opacity="0.24"/>
    </linearGradient>
    <linearGradient id="paint47_linear_4001_1190" x1="228" y1="264.5" x2="92.5253" y2="-2.76624" gradientUnits="userSpaceOnUse">
      <stop stop-color="#F1F4FE" stop-opacity="0"/>
      <stop offset="1" stop-color="#C1A075" stop-opacity="0.24"/>
    </linearGradient>
    <linearGradient id="paint48_linear_4001_1190" x1="228" y1="264.5" x2="92.5253" y2="-2.76624" gradientUnits="userSpaceOnUse">
      <stop stop-color="#F1F4FE" stop-opacity="0"/>
      <stop offset="1" stop-color="#C1A075" stop-opacity="0.24"/>
    </linearGradient>
    <linearGradient id="paint49_linear_4001_1190" x1="228" y1="264.5" x2="92.5253" y2="-2.76624" gradientUnits="userSpaceOnUse">
      <stop stop-color="#F1F4FE" stop-opacity="0"/>
      <stop offset="1" stop-color="#C1A075" stop-opacity="0.24"/>
    </linearGradient>
    <linearGradient id="paint50_linear_4001_1190" x1="228" y1="264.5" x2="92.5253" y2="-2.76624" gradientUnits="userSpaceOnUse">
      <stop stop-color="#F1F4FE" stop-opacity="0"/>
      <stop offset="1" stop-color="#C1A075" stop-opacity="0.24"/>
    </linearGradient>
    <linearGradient id="paint51_linear_4001_1190" x1="228" y1="264.5" x2="92.5253" y2="-2.76624" gradientUnits="userSpaceOnUse">
      <stop stop-color="#F1F4FE" stop-opacity="0"/>
      <stop offset="1" stop-color="#C1A075" stop-opacity="0.24"/>
    </linearGradient>
    <linearGradient id="paint52_linear_4001_1190" x1="228" y1="264.5" x2="92.5253" y2="-2.76624" gradientUnits="userSpaceOnUse">
      <stop stop-color="#F1F4FE" stop-opacity="0"/>
      <stop offset="1" stop-color="#C1A075" stop-opacity="0.24"/>
    </linearGradient>
    <linearGradient id="paint53_linear_4001_1190" x1="228" y1="264.5" x2="92.5253" y2="-2.76624" gradientUnits="userSpaceOnUse">
      <stop stop-color="#F1F4FE" stop-opacity="0"/>
      <stop offset="1" stop-color="#C1A075" stop-opacity="0.24"/>
    </linearGradient>
    <linearGradient id="paint54_linear_4001_1190" x1="228" y1="264.5" x2="92.5253" y2="-2.76624" gradientUnits="userSpaceOnUse">
      <stop stop-color="#F1F4FE" stop-opacity="0"/>
      <stop offset="1" stop-color="#C1A075" stop-opacity="0.24"/>
    </linearGradient>
    <linearGradient id="paint55_linear_4001_1190" x1="228" y1="264.5" x2="92.5253" y2="-2.76624" gradientUnits="userSpaceOnUse">
      <stop stop-color="#F1F4FE" stop-opacity="0"/>
      <stop offset="1" stop-color="#C1A075" stop-opacity="0.24"/>
    </linearGradient>
    <linearGradient id="paint56_linear_4001_1190" x1="228" y1="264.5" x2="92.5253" y2="-2.76624" gradientUnits="userSpaceOnUse">
      <stop stop-color="#F1F4FE" stop-opacity="0"/>
      <stop offset="1" stop-color="#C1A075" stop-opacity="0.24"/>
    </linearGradient>
    <linearGradient id="paint57_linear_4001_1190" x1="228" y1="264.5" x2="92.5253" y2="-2.76624" gradientUnits="userSpaceOnUse">
      <stop stop-color="#F1F4FE" stop-opacity="0"/>
      <stop offset="1" stop-color="#C1A075" stop-opacity="0.24"/>
    </linearGradient>
    <linearGradient id="paint58_linear_4001_1190" x1="228" y1="264.5" x2="92.5253" y2="-2.76624" gradientUnits="userSpaceOnUse">
      <stop stop-color="#F1F4FE" stop-opacity="0"/>
      <stop offset="1" stop-color="#C1A075" stop-opacity="0.24"/>
    </linearGradient>
    <linearGradient id="paint59_linear_4001_1190" x1="228" y1="264.5" x2="92.5253" y2="-2.76624" gradientUnits="userSpaceOnUse">
      <stop stop-color="#F1F4FE" stop-opacity="0"/>
      <stop offset="1" stop-color="#C1A075" stop-opacity="0.24"/>
    </linearGradient>
    <linearGradient id="paint60_linear_4001_1190" x1="228" y1="264.5" x2="92.5253" y2="-2.76624" gradientUnits="userSpaceOnUse">
      <stop stop-color="#F1F4FE" stop-opacity="0"/>
      <stop offset="1" stop-color="#C1A075" stop-opacity="0.24"/>
    </linearGradient>
    <linearGradient id="paint61_linear_4001_1190" x1="228" y1="264.5" x2="92.5253" y2="-2.76624" gradientUnits="userSpaceOnUse">
      <stop stop-color="#F1F4FE" stop-opacity="0"/>
      <stop offset="1" stop-color="#C1A075" stop-opacity="0.24"/>
    </linearGradient>
    <linearGradient id="paint62_linear_4001_1190" x1="228" y1="264.5" x2="92.5253" y2="-2.76624" gradientUnits="userSpaceOnUse">
      <stop stop-color="#F1F4FE" stop-opacity="0"/>
      <stop offset="1" stop-color="#C1A075" stop-opacity="0.24"/>
    </linearGradient>
    <linearGradient id="paint63_linear_4001_1190" x1="228" y1="264.5" x2="92.5253" y2="-2.76624" gradientUnits="userSpaceOnUse">
      <stop stop-color="#F1F4FE" stop-opacity="0"/>
      <stop offset="1" stop-color="#C1A075" stop-opacity="0.24"/>
    </linearGradient>
    <linearGradient id="paint64_linear_4001_1190" x1="228" y1="264.5" x2="92.5253" y2="-2.76624" gradientUnits="userSpaceOnUse">
      <stop stop-color="#F1F4FE" stop-opacity="0"/>
      <stop offset="1" stop-color="#C1A075" stop-opacity="0.24"/>
    </linearGradient>
    <linearGradient id="paint65_linear_4001_1190" x1="228" y1="264.5" x2="92.5253" y2="-2.76624" gradientUnits="userSpaceOnUse">
      <stop stop-color="#F1F4FE" stop-opacity="0"/>
      <stop offset="1" stop-color="#C1A075" stop-opacity="0.24"/>
    </linearGradient>
    <linearGradient id="paint66_linear_4001_1190" x1="228" y1="264.5" x2="92.5253" y2="-2.76624" gradientUnits="userSpaceOnUse">
      <stop stop-color="#F1F4FE" stop-opacity="0"/>
      <stop offset="1" stop-color="#C1A075" stop-opacity="0.24"/>
    </linearGradient>
    <linearGradient id="paint67_linear_4001_1190" x1="228" y1="264.5" x2="92.5253" y2="-2.76624" gradientUnits="userSpaceOnUse">
      <stop stop-color="#F1F4FE" stop-opacity="0"/>
      <stop offset="1" stop-color="#C1A075" stop-opacity="0.24"/>
    </linearGradient>
    <linearGradient id="paint68_linear_4001_1190" x1="228" y1="264.5" x2="92.5253" y2="-2.76624" gradientUnits="userSpaceOnUse">
      <stop stop-color="#F1F4FE" stop-opacity="0"/>
      <stop offset="1" stop-color="#C1A075" stop-opacity="0.24"/>
    </linearGradient>
    <linearGradient id="paint69_linear_4001_1190" x1="228" y1="264.5" x2="92.5253" y2="-2.76624" gradientUnits="userSpaceOnUse">
      <stop stop-color="#F1F4FE" stop-opacity="0"/>
      <stop offset="1" stop-color="#C1A075" stop-opacity="0.24"/>
    </linearGradient>
    <linearGradient id="paint70_linear_4001_1190" x1="228" y1="264.5" x2="92.5253" y2="-2.76624" gradientUnits="userSpaceOnUse">
      <stop stop-color="#F1F4FE" stop-opacity="0"/>
      <stop offset="1" stop-color="#C1A075" stop-opacity="0.24"/>
    </linearGradient>
    <linearGradient id="paint71_linear_4001_1190" x1="228" y1="264.5" x2="92.5253" y2="-2.76624" gradientUnits="userSpaceOnUse">
      <stop stop-color="#F1F4FE" stop-opacity="0"/>
      <stop offset="1" stop-color="#C1A075" stop-opacity="0.24"/>
    </linearGradient>
    <linearGradient id="paint72_linear_4001_1190" x1="228" y1="264.5" x2="92.5253" y2="-2.76624" gradientUnits="userSpaceOnUse">
      <stop stop-color="#F1F4FE" stop-opacity="0"/>
      <stop offset="1" stop-color="#C1A075" stop-opacity="0.24"/>
    </linearGradient>
    <linearGradient id="paint73_linear_4001_1190" x1="228" y1="264.5" x2="92.5253" y2="-2.76624" gradientUnits="userSpaceOnUse">
      <stop stop-color="#F1F4FE" stop-opacity="0"/>
      <stop offset="1" stop-color="#C1A075" stop-opacity="0.24"/>
    </linearGradient>
    <linearGradient id="paint74_linear_4001_1190" x1="228" y1="264.5" x2="92.5253" y2="-2.76624" gradientUnits="userSpaceOnUse">
      <stop stop-color="#F1F4FE" stop-opacity="0"/>
      <stop offset="1" stop-color="#C1A075" stop-opacity="0.24"/>
    </linearGradient>
    <linearGradient id="paint75_linear_4001_1190" x1="228" y1="264.5" x2="92.5253" y2="-2.76624" gradientUnits="userSpaceOnUse">
      <stop stop-color="#F1F4FE" stop-opacity="0"/>
      <stop offset="1" stop-color="#C1A075" stop-opacity="0.24"/>
    </linearGradient>
    <linearGradient id="paint76_linear_4001_1190" x1="228" y1="264.5" x2="92.5253" y2="-2.76624" gradientUnits="userSpaceOnUse">
      <stop stop-color="#F1F4FE" stop-opacity="0"/>
      <stop offset="1" stop-color="#C1A075" stop-opacity="0.24"/>
    </linearGradient>
    <linearGradient id="paint77_linear_4001_1190" x1="228" y1="264.5" x2="92.5253" y2="-2.76624" gradientUnits="userSpaceOnUse">
      <stop stop-color="#F1F4FE" stop-opacity="0"/>
      <stop offset="1" stop-color="#C1A075" stop-opacity="0.24"/>
    </linearGradient>
    <linearGradient id="paint78_linear_4001_1190" x1="228" y1="264.5" x2="92.5253" y2="-2.76624" gradientUnits="userSpaceOnUse">
      <stop stop-color="#F1F4FE" stop-opacity="0"/>
      <stop offset="1" stop-color="#C1A075" stop-opacity="0.24"/>
    </linearGradient>
    <linearGradient id="paint79_linear_4001_1190" x1="228" y1="264.5" x2="92.5253" y2="-2.76624" gradientUnits="userSpaceOnUse">
      <stop stop-color="#F1F4FE" stop-opacity="0"/>
      <stop offset="1" stop-color="#C1A075" stop-opacity="0.24"/>
    </linearGradient>
    <linearGradient id="paint80_linear_4001_1190" x1="228" y1="264.5" x2="92.5253" y2="-2.76624" gradientUnits="userSpaceOnUse">
      <stop stop-color="#F1F4FE" stop-opacity="0"/>
      <stop offset="1" stop-color="#C1A075" stop-opacity="0.24"/>
    </linearGradient>
    <linearGradient id="paint81_linear_4001_1190" x1="228" y1="264.5" x2="92.5253" y2="-2.76624" gradientUnits="userSpaceOnUse">
      <stop stop-color="#F1F4FE" stop-opacity="0"/>
      <stop offset="1" stop-color="#C1A075" stop-opacity="0.24"/>
    </linearGradient>
    <linearGradient id="paint82_linear_4001_1190" x1="228" y1="264.5" x2="92.5253" y2="-2.76624" gradientUnits="userSpaceOnUse">
      <stop stop-color="#F1F4FE" stop-opacity="0"/>
      <stop offset="1" stop-color="#C1A075" stop-opacity="0.24"/>
    </linearGradient>
    <linearGradient id="paint83_linear_4001_1190" x1="228" y1="264.5" x2="92.5253" y2="-2.76624" gradientUnits="userSpaceOnUse">
      <stop stop-color="#F1F4FE" stop-opacity="0"/>
      <stop offset="1" stop-color="#C1A075" stop-opacity="0.24"/>
    </linearGradient>
    <linearGradient id="paint84_linear_4001_1190" x1="228" y1="264.5" x2="92.5253" y2="-2.76624" gradientUnits="userSpaceOnUse">
      <stop stop-color="#F1F4FE" stop-opacity="0"/>
      <stop offset="1" stop-color="#C1A075" stop-opacity="0.24"/>
    </linearGradient>
    <linearGradient id="paint85_linear_4001_1190" x1="228" y1="264.5" x2="92.5253" y2="-2.76624" gradientUnits="userSpaceOnUse">
      <stop stop-color="#F1F4FE" stop-opacity="0"/>
      <stop offset="1" stop-color="#C1A075" stop-opacity="0.24"/>
    </linearGradient>
    <linearGradient id="paint86_linear_4001_1190" x1="228" y1="264.5" x2="92.5253" y2="-2.76624" gradientUnits="userSpaceOnUse">
      <stop stop-color="#F1F4FE" stop-opacity="0"/>
      <stop offset="1" stop-color="#C1A075" stop-opacity="0.24"/>
    </linearGradient>
    <linearGradient id="paint87_linear_4001_1190" x1="228" y1="264.5" x2="92.5253" y2="-2.76624" gradientUnits="userSpaceOnUse">
      <stop stop-color="#F1F4FE" stop-opacity="0"/>
      <stop offset="1" stop-color="#C1A075" stop-opacity="0.24"/>
    </linearGradient>
    <linearGradient id="paint88_linear_4001_1190" x1="228" y1="264.5" x2="92.5253" y2="-2.76624" gradientUnits="userSpaceOnUse">
      <stop stop-color="#F1F4FE" stop-opacity="0"/>
      <stop offset="1" stop-color="#C1A075" stop-opacity="0.24"/>
    </linearGradient>
    <linearGradient id="paint89_linear_4001_1190" x1="228" y1="264.5" x2="92.5253" y2="-2.76624" gradientUnits="userSpaceOnUse">
      <stop stop-color="#F1F4FE" stop-opacity="0"/>
      <stop offset="1" stop-color="#C1A075" stop-opacity="0.24"/>
    </linearGradient>
    <linearGradient id="paint90_linear_4001_1190" x1="228" y1="264.5" x2="92.5253" y2="-2.76624" gradientUnits="userSpaceOnUse">
      <stop stop-color="#F1F4FE" stop-opacity="0"/>
      <stop offset="1" stop-color="#C1A075" stop-opacity="0.24"/>
    </linearGradient>
    <linearGradient id="paint91_linear_4001_1190" x1="228" y1="264.5" x2="92.5253" y2="-2.76624" gradientUnits="userSpaceOnUse">
      <stop stop-color="#F1F4FE" stop-opacity="0"/>
      <stop offset="1" stop-color="#C1A075" stop-opacity="0.24"/>
    </linearGradient>
    <linearGradient id="paint92_linear_4001_1190" x1="228" y1="264.5" x2="92.5253" y2="-2.76624" gradientUnits="userSpaceOnUse">
      <stop stop-color="#F1F4FE" stop-opacity="0"/>
      <stop offset="1" stop-color="#C1A075" stop-opacity="0.24"/>
    </linearGradient>
    <linearGradient id="paint93_linear_4001_1190" x1="228" y1="264.5" x2="92.5253" y2="-2.76624" gradientUnits="userSpaceOnUse">
      <stop stop-color="#F1F4FE" stop-opacity="0"/>
      <stop offset="1" stop-color="#C1A075" stop-opacity="0.24"/>
    </linearGradient>
    <linearGradient id="paint94_linear_4001_1190" x1="228" y1="264.5" x2="92.5253" y2="-2.76624" gradientUnits="userSpaceOnUse">
      <stop stop-color="#F1F4FE" stop-opacity="0"/>
      <stop offset="1" stop-color="#C1A075" stop-opacity="0.24"/>
    </linearGradient>
    <linearGradient id="paint95_linear_4001_1190" x1="228" y1="264.5" x2="92.5253" y2="-2.76624" gradientUnits="userSpaceOnUse">
      <stop stop-color="#F1F4FE" stop-opacity="0"/>
      <stop offset="1" stop-color="#C1A075" stop-opacity="0.24"/>
    </linearGradient>
    <linearGradient id="paint96_linear_4001_1190" x1="228" y1="264.5" x2="92.5253" y2="-2.76624" gradientUnits="userSpaceOnUse">
      <stop stop-color="#F1F4FE" stop-opacity="0"/>
      <stop offset="1" stop-color="#C1A075" stop-opacity="0.24"/>
    </linearGradient>
    <linearGradient id="paint97_linear_4001_1190" x1="228" y1="264.5" x2="92.5253" y2="-2.76624" gradientUnits="userSpaceOnUse">
      <stop stop-color="#F1F4FE" stop-opacity="0"/>
      <stop offset="1" stop-color="#C1A075" stop-opacity="0.24"/>
    </linearGradient>
    <linearGradient id="paint98_linear_4001_1190" x1="228" y1="264.5" x2="92.5253" y2="-2.76624" gradientUnits="userSpaceOnUse">
      <stop stop-color="#F1F4FE" stop-opacity="0"/>
      <stop offset="1" stop-color="#C1A075" stop-opacity="0.24"/>
    </linearGradient>
    <linearGradient id="paint99_linear_4001_1190" x1="228" y1="264.5" x2="92.5253" y2="-2.76624" gradientUnits="userSpaceOnUse">
      <stop stop-color="#F1F4FE" stop-opacity="0"/>
      <stop offset="1" stop-color="#C1A075" stop-opacity="0.24"/>
    </linearGradient>
  </defs>
</svg>
