<svg width="400" height="208" viewBox="0 0 400 208" fill="none" xmlns="http://www.w3.org/2000/svg">
  <path d="M388.749 -74.3646C389.223 -74.5393 389.223 -75.207 388.749 -75.3817L383.604 -77.2763C383.455 -77.3312 383.338 -77.4482 383.283 -77.5967L381.379 -82.7168C381.203 -83.1889 380.533 -83.1889 380.357 -82.7168L378.454 -77.5967C378.398 -77.4482 378.281 -77.3312 378.132 -77.2763L372.987 -75.3817C372.513 -75.207 372.513 -74.5393 372.987 -74.3646L378.132 -72.47C378.281 -72.4151 378.398 -72.298 378.454 -72.1496L380.357 -67.0295C380.533 -66.5574 381.203 -66.5574 381.379 -67.0295L383.283 -72.1496C383.338 -72.298 383.455 -72.4151 383.604 -72.47L388.749 -74.3646Z" fill="url(#paint0_linear_1513_6800)"/>
  <path d="M380.834 -46.2277C380.659 -46.6998 379.988 -46.6998 379.812 -46.2277L377.173 -39.1286C377.118 -38.9802 377 -38.8632 376.851 -38.8083L369.719 -36.1814C369.244 -36.0067 369.244 -35.339 369.719 -35.1643L376.851 -32.5374C377 -32.4825 377.118 -32.3655 377.173 -32.2171L379.812 -25.118C379.988 -24.6459 380.659 -24.6459 380.834 -25.118L383.473 -32.2171C383.529 -32.3655 383.646 -32.4825 383.795 -32.5374L390.928 -35.1643C391.402 -35.339 391.402 -36.0067 390.928 -36.1814L383.795 -38.8083C383.646 -38.8632 383.529 -38.9802 383.473 -39.1286L380.834 -46.2277Z" fill="url(#paint1_linear_1513_6800)"/>
  <path d="M380.834 -15.0333C380.659 -15.5054 379.988 -15.5054 379.812 -15.0333L374.819 -1.60175C374.764 -1.45333 374.646 -1.33631 374.497 -1.28139L361.002 3.68873C360.528 3.86341 360.528 4.53111 361.002 4.7058L374.497 9.67593C374.646 9.73084 374.764 9.84786 374.819 9.99628L379.812 23.4278C379.988 23.8999 380.659 23.8999 380.834 23.4278L385.828 9.99628C385.883 9.84786 386 9.73084 386.15 9.67593L399.644 4.7058C400.119 4.53111 400.119 3.86341 399.644 3.68873L386.15 -1.28139C386 -1.33631 385.883 -1.45333 385.828 -1.60175L380.834 -15.0333Z" fill="url(#paint2_linear_1513_6800)"/>
  <path d="M379.684 63.4255C379.86 63.8976 380.53 63.8976 380.706 63.4255L385.699 49.9939C385.755 49.8455 385.872 49.7285 386.021 49.6736L399.516 44.7034C399.99 44.5288 399.99 43.8611 399.516 43.6864L386.021 38.7163C385.872 38.6613 385.755 38.5443 385.699 38.3959L380.706 24.9643C380.53 24.4923 379.86 24.4923 379.684 24.9644L374.691 38.3959C374.635 38.5443 374.518 38.6613 374.369 38.7163L360.874 43.6864C360.4 43.8611 360.4 44.5288 360.874 44.7034L374.369 49.6736C374.518 49.7285 374.635 49.8455 374.691 49.9939L379.684 63.4255Z" fill="url(#paint3_linear_1513_6800)"/>
  <path d="M381.379 75.5515C381.203 75.0794 380.533 75.0794 380.357 75.5515L378.454 80.6716C378.398 80.8201 378.281 80.9371 378.132 80.992L372.987 82.8866C372.513 83.0613 372.513 83.729 372.987 83.9037L378.132 85.7983C378.281 85.8532 378.398 85.9703 378.454 86.1187L380.357 91.2388C380.533 91.7109 381.203 91.7109 381.379 91.2388L383.283 86.1187C383.338 85.9703 383.455 85.8532 383.604 85.7983L388.749 83.9037C389.223 83.729 389.223 83.0613 388.749 82.8866L383.604 80.992C383.455 80.9371 383.338 80.8201 383.283 80.6716L381.379 75.5515Z" fill="url(#paint4_linear_1513_6800)"/>
  <path d="M381.379 115.422C381.203 114.95 380.533 114.95 380.357 115.422L378.454 120.542C378.398 120.69 378.281 120.807 378.132 120.862L372.987 122.757C372.513 122.931 372.513 123.599 372.987 123.774L378.132 125.668C378.281 125.723 378.398 125.84 378.454 125.989L380.357 131.109C380.533 131.581 381.203 131.581 381.379 131.109L383.283 125.989C383.338 125.84 383.455 125.723 383.604 125.668L388.749 123.774C389.223 123.599 389.223 122.931 388.749 122.757L383.604 120.862C383.455 120.807 383.338 120.69 383.283 120.542L381.379 115.422Z" fill="url(#paint5_linear_1513_6800)"/>
  <path d="M381.379 148.785C381.203 148.313 380.533 148.313 380.357 148.785L376.688 158.654C376.633 158.803 376.515 158.92 376.366 158.975L366.45 162.627C365.976 162.801 365.976 163.469 366.45 163.644L376.366 167.296C376.515 167.351 376.633 167.468 376.688 167.616L380.357 177.486C380.533 177.958 381.203 177.958 381.379 177.486L385.048 167.616C385.103 167.468 385.221 167.351 385.37 167.296L395.286 163.644C395.76 163.469 395.76 162.801 395.286 162.627L385.37 158.975C385.221 158.92 385.103 158.803 385.048 158.654L381.379 148.785Z" fill="url(#paint6_linear_1513_6800)"/>
  <path d="M399.644 204.184C400.119 204.009 400.119 203.341 399.644 203.167L386.15 198.197C386 198.142 385.883 198.025 385.828 197.876L380.834 184.445C380.659 183.973 379.988 183.973 379.812 184.445L374.819 197.876C374.764 198.025 374.646 198.142 374.497 198.197L361.002 203.167C360.528 203.341 360.528 204.009 361.002 204.184L374.497 209.154C374.646 209.209 374.764 209.326 374.819 209.474L379.812 222.906C379.988 223.378 380.659 223.378 380.834 222.906L385.828 209.474C385.883 209.326 386 209.209 386.15 209.154L399.644 204.184Z" fill="url(#paint7_linear_1513_6800)"/>
  <path d="M399.644 244.054C400.119 243.879 400.119 243.212 399.644 243.037L386.15 238.067C386 238.012 385.883 237.895 385.828 237.746L380.834 224.315C380.659 223.843 379.988 223.843 379.812 224.315L374.819 237.746C374.764 237.895 374.646 238.012 374.497 238.067L361.002 243.037C360.528 243.212 360.528 243.879 361.002 244.054L374.497 249.024C374.646 249.079 374.764 249.196 374.819 249.344L379.812 262.776C379.988 263.248 380.659 263.248 380.834 262.776L385.828 249.344C385.883 249.196 386 249.079 386.15 249.024L399.644 244.054Z" fill="url(#paint8_linear_1513_6800)"/>
  <path d="M399.644 283.924C400.119 283.749 400.119 283.082 399.644 282.907L386.15 277.937C386 277.882 385.883 277.765 385.828 277.616L380.834 264.185C380.659 263.713 379.988 263.713 379.812 264.185L374.819 277.616C374.764 277.765 374.646 277.882 374.497 277.937L361.002 282.907C360.528 283.082 360.528 283.749 361.002 283.924L374.497 288.894C374.646 288.949 374.764 289.066 374.819 289.214L379.812 302.646C379.988 303.118 380.659 303.118 380.834 302.646L385.828 289.214C385.883 289.066 386 288.949 386.15 288.894L399.644 283.924Z" fill="url(#paint9_linear_1513_6800)"/>
  <path d="M329.533 -76.0515C329.059 -75.8768 329.059 -75.2091 329.533 -75.0344L336.666 -72.4075C336.815 -72.3526 336.932 -72.2356 336.987 -72.0872L339.627 -64.9881C339.802 -64.516 340.473 -64.516 340.649 -64.9881L343.288 -72.0872C343.343 -72.2356 343.461 -72.3526 343.61 -72.4075L350.742 -75.0344C351.216 -75.2091 351.216 -75.8768 350.742 -76.0515L343.61 -78.6784C343.461 -78.7333 343.343 -78.8503 343.288 -78.9987L340.649 -86.0978C340.473 -86.5699 339.802 -86.5699 339.627 -86.0978L336.987 -78.9987C336.932 -78.8503 336.815 -78.7333 336.666 -78.6784L329.533 -76.0515Z" fill="url(#paint10_linear_1513_6800)"/>
  <path d="M359.587 -35.0367C360.061 -35.2114 360.061 -35.8791 359.587 -36.0538L346.092 -41.0239C345.943 -41.0788 345.825 -41.1959 345.77 -41.3443L340.777 -54.7758C340.601 -55.2479 339.93 -55.2479 339.755 -54.7758L334.761 -41.3443C334.706 -41.1959 334.588 -41.0788 334.439 -41.0239L320.945 -36.0538C320.47 -35.8791 320.47 -35.2114 320.945 -35.0367L334.439 -30.0666C334.588 -30.0117 334.706 -29.8947 334.761 -29.7463L339.755 -16.3147C339.93 -15.8426 340.601 -15.8426 340.777 -16.3147L345.77 -29.7463C345.825 -29.8947 345.943 -30.0117 346.092 -30.0666L359.587 -35.0367Z" fill="url(#paint11_linear_1513_6800)"/>
  <path d="M355.228 5.3756C355.703 5.2009 355.703 4.53321 355.228 4.35853L345.312 0.706474C345.163 0.651558 345.046 0.534531 344.991 0.386108L341.321 -9.48341C341.146 -9.95548 340.475 -9.95548 340.299 -9.48341L336.63 0.386108C336.575 0.534531 336.457 0.651558 336.308 0.706474L326.392 4.35853C325.918 4.53321 325.918 5.2009 326.392 5.3756L336.308 9.02765C336.457 9.08257 336.575 9.19959 336.63 9.34801L340.299 19.2175C340.475 19.6896 341.146 19.6896 341.321 19.2175L344.991 9.34801C345.046 9.19959 345.163 9.08257 345.312 9.02765L355.228 5.3756Z" fill="url(#paint12_linear_1513_6800)"/>
  <path d="M339.082 59.0876C339.257 59.5597 339.928 59.5597 340.104 59.0876L343.773 49.2181C343.828 49.0697 343.946 48.9526 344.095 48.8977L354.011 45.2457C354.485 45.071 354.485 44.4033 354.011 44.2286L344.095 40.5766C343.946 40.5217 343.828 40.4046 343.773 40.2562L340.104 30.3867C339.928 29.9146 339.257 29.9146 339.082 30.3867L335.413 40.2562C335.358 40.4046 335.24 40.5217 335.091 40.5766L325.175 44.2286C324.701 44.4033 324.701 45.071 325.175 45.2457L335.091 48.8977C335.24 48.9526 335.358 49.0697 335.413 49.2181L339.082 59.0876Z" fill="url(#paint13_linear_1513_6800)"/>
  <path d="M320.817 83.4288C320.342 83.6035 320.342 84.2712 320.817 84.4459L334.311 89.416C334.46 89.471 334.578 89.588 334.633 89.7364L339.627 103.168C339.802 103.64 340.473 103.64 340.649 103.168L345.642 89.7364C345.697 89.588 345.815 89.471 345.964 89.416L359.459 84.4459C359.933 84.2712 359.933 83.6035 359.459 83.4288L345.964 78.4587C345.815 78.4038 345.697 78.2868 345.642 78.1384L340.649 64.7068C340.473 64.2347 339.802 64.2347 339.627 64.7068L334.633 78.1384C334.578 78.2868 334.46 78.4038 334.311 78.4587L320.817 83.4288Z" fill="url(#paint14_linear_1513_6800)"/>
  <path d="M341.321 115.422C341.146 114.95 340.475 114.95 340.299 115.422L338.396 120.542C338.341 120.69 338.223 120.807 338.074 120.862L332.93 122.757C332.456 122.931 332.456 123.599 332.93 123.774L338.074 125.668C338.223 125.723 338.341 125.84 338.396 125.989L340.299 131.109C340.475 131.581 341.146 131.581 341.321 131.109L343.225 125.989C343.28 125.84 343.398 125.723 343.547 125.668L348.691 123.774C349.165 123.599 349.165 122.931 348.691 122.757L343.547 120.862C343.398 120.807 343.28 120.69 343.225 120.542L341.321 115.422Z" fill="url(#paint15_linear_1513_6800)"/>
  <path d="M341.321 155.292C341.146 154.82 340.475 154.82 340.299 155.292L338.396 160.412C338.341 160.56 338.223 160.677 338.074 160.732L332.93 162.627C332.456 162.801 332.456 163.469 332.93 163.644L338.074 165.538C338.223 165.593 338.341 165.71 338.396 165.859L340.299 170.979C340.475 171.451 341.146 171.451 341.321 170.979L343.225 165.859C343.28 165.71 343.398 165.593 343.547 165.538L348.691 163.644C349.165 163.469 349.165 162.801 348.691 162.627L343.547 160.732C343.398 160.677 343.28 160.56 343.225 160.412L341.321 155.292Z" fill="url(#paint16_linear_1513_6800)"/>
  <path d="M340.777 192.993C340.601 192.521 339.93 192.521 339.755 192.993L337.115 200.092C337.06 200.24 336.943 200.357 336.794 200.412L329.661 203.039C329.187 203.214 329.187 203.882 329.661 204.056L336.794 206.683C336.943 206.738 337.06 206.855 337.115 207.003L339.755 214.102C339.93 214.575 340.601 214.575 340.777 214.102L343.416 207.003C343.471 206.855 343.589 206.738 343.738 206.683L350.87 204.056C351.344 203.882 351.344 203.214 350.87 203.039L343.738 200.412C343.589 200.357 343.471 200.24 343.416 200.092L340.777 192.993Z" fill="url(#paint17_linear_1513_6800)"/>
  <path d="M350.87 244.054C351.344 243.879 351.344 243.212 350.87 243.037L343.738 240.41C343.589 240.355 343.471 240.238 343.416 240.09L340.777 232.991C340.601 232.518 339.93 232.518 339.755 232.991L337.115 240.09C337.06 240.238 336.943 240.355 336.794 240.41L329.661 243.037C329.187 243.212 329.187 243.879 329.661 244.054L336.794 246.681C336.943 246.736 337.06 246.853 337.115 247.001L339.755 254.1C339.93 254.572 340.601 254.572 340.777 254.1L343.416 247.001C343.471 246.853 343.589 246.736 343.738 246.681L350.87 244.054Z" fill="url(#paint18_linear_1513_6800)"/>
  <path d="M341.321 274.902C341.146 274.43 340.475 274.43 340.299 274.902L338.396 280.022C338.341 280.17 338.223 280.287 338.074 280.342L332.93 282.237C332.456 282.412 332.456 283.079 332.93 283.254L338.074 285.149C338.223 285.204 338.341 285.321 338.396 285.469L340.299 290.589C340.475 291.061 341.146 291.061 341.321 290.589L343.225 285.469C343.28 285.321 343.398 285.204 343.547 285.149L348.691 283.254C349.165 283.079 349.165 282.412 348.691 282.237L343.547 280.342C343.398 280.287 343.28 280.17 343.225 280.022L341.321 274.902Z" fill="url(#paint19_linear_1513_6800)"/>
  <path d="M301.264 -90.4356C301.088 -90.9077 300.418 -90.9077 300.242 -90.4356L296.573 -80.5661C296.518 -80.4177 296.4 -80.3007 296.251 -80.2458L286.335 -76.5937C285.861 -76.419 285.861 -75.7513 286.335 -75.5766L296.251 -71.9246C296.4 -71.8697 296.518 -71.7526 296.573 -71.6042L300.242 -61.7347C300.418 -61.2626 301.088 -61.2626 301.264 -61.7347L304.933 -71.6042C304.988 -71.7526 305.106 -71.8697 305.255 -71.9246L315.171 -75.5766C315.645 -75.7513 315.645 -76.419 315.171 -76.5937L305.255 -80.2458C305.106 -80.3007 304.988 -80.4177 304.933 -80.5661L301.264 -90.4356Z" fill="url(#paint20_linear_1513_6800)"/>
  <path d="M301.264 -50.5655C301.088 -51.0376 300.418 -51.0376 300.242 -50.5655L296.573 -40.696C296.518 -40.5476 296.4 -40.4306 296.251 -40.3757L286.335 -36.7236C285.861 -36.5489 285.861 -35.8812 286.335 -35.7065L296.251 -32.0545C296.4 -31.9996 296.518 -31.8825 296.573 -31.7341L300.242 -21.8646C300.418 -21.3925 301.088 -21.3925 301.264 -21.8646L304.933 -31.7341C304.988 -31.8825 305.106 -31.9996 305.255 -32.0545L315.171 -35.7065C315.645 -35.8812 315.645 -36.5489 315.171 -36.7236L305.255 -40.3757C305.106 -40.4306 304.988 -40.5476 304.933 -40.696L301.264 -50.5655Z" fill="url(#paint21_linear_1513_6800)"/>
  <path d="M299.024 12.7107C299.2 13.1828 299.871 13.1828 300.046 12.7107L301.95 7.59059C302.005 7.44217 302.122 7.32514 302.271 7.27023L307.416 5.3756C307.89 5.2009 307.89 4.53321 307.416 4.35853L302.271 2.46391C302.122 2.40898 302.005 2.29196 301.95 2.14355L300.046 -2.97661C299.871 -3.44868 299.2 -3.44868 299.024 -2.97661L297.121 2.14355C297.066 2.29196 296.948 2.40898 296.799 2.46391L291.655 4.35853C291.18 4.53321 291.18 5.2009 291.655 5.3756L296.799 7.27023C296.948 7.32514 297.066 7.44217 297.121 7.59059L299.024 12.7107Z" fill="url(#paint22_linear_1513_6800)"/>
  <path d="M301.264 35.6814C301.088 35.2093 300.418 35.2093 300.242 35.6814L298.338 40.8015C298.283 40.95 298.166 41.067 298.017 41.1219L292.872 43.0165C292.398 43.1912 292.398 43.8589 292.872 44.0336L298.017 45.9282C298.166 45.9831 298.283 46.1002 298.338 46.2486L300.242 51.3687C300.418 51.8408 301.088 51.8408 301.264 51.3687L303.167 46.2486C303.223 46.1002 303.34 45.9831 303.489 45.9282L308.634 44.0336C309.108 43.8589 309.108 43.1912 308.634 43.0165L303.489 41.1219C303.34 41.067 303.223 40.95 303.167 40.8015L301.264 35.6814Z" fill="url(#paint23_linear_1513_6800)"/>
  <path d="M285.117 82.8866C284.643 83.0613 284.643 83.729 285.117 83.9037L295.033 87.5557C295.182 87.6107 295.3 87.7277 295.355 87.8761L299.024 97.7456C299.2 98.2177 299.871 98.2177 300.046 97.7456L303.715 87.8761C303.77 87.7277 303.888 87.6107 304.037 87.5557L313.953 83.9037C314.427 83.729 314.427 83.0613 313.953 82.8866L304.037 79.2346C303.888 79.1796 303.77 79.0626 303.715 78.9142L300.046 69.0447C299.871 68.5726 299.2 68.5726 299.024 69.0447L295.355 78.9142C295.3 79.0626 295.182 79.1796 295.033 79.2346L285.117 82.8866Z" fill="url(#paint24_linear_1513_6800)"/>
  <path d="M299.569 143.166C299.745 143.638 300.415 143.638 300.591 143.166L305.584 129.734C305.64 129.586 305.757 129.469 305.906 129.414L319.401 124.444C319.875 124.269 319.875 123.601 319.401 123.427L305.906 118.456C305.757 118.401 305.64 118.284 305.584 118.136L300.591 104.704C300.415 104.232 299.745 104.232 299.569 104.704L294.576 118.136C294.52 118.284 294.403 118.401 294.254 118.456L280.759 123.427C280.285 123.601 280.285 124.269 280.759 124.444L294.254 129.414C294.403 129.469 294.52 129.586 294.576 129.734L299.569 143.166Z" fill="url(#paint25_linear_1513_6800)"/>
  <path d="M308.634 164.856C309.108 164.681 309.108 164.014 308.634 163.839L303.489 161.944C303.34 161.889 303.223 161.772 303.167 161.624L301.264 156.504C301.088 156.032 300.418 156.032 300.242 156.504L298.338 161.624C298.283 161.772 298.166 161.889 298.017 161.944L292.872 163.839C292.398 164.014 292.398 164.681 292.872 164.856L298.017 166.751C298.166 166.805 298.283 166.923 298.338 167.071L300.242 172.191C300.418 172.663 301.088 172.663 301.264 172.191L303.167 167.071C303.223 166.923 303.34 166.805 303.489 166.751L308.634 164.856Z" fill="url(#paint26_linear_1513_6800)"/>
  <path d="M300.719 184.317C300.544 183.845 299.873 183.845 299.697 184.317L294.704 197.749C294.649 197.897 294.531 198.014 294.382 198.069L280.887 203.039C280.413 203.214 280.413 203.882 280.887 204.056L294.382 209.026C294.531 209.081 294.649 209.198 294.704 209.347L299.697 222.778C299.873 223.25 300.544 223.25 300.719 222.778L305.713 209.347C305.768 209.198 305.885 209.081 306.034 209.026L319.529 204.056C320.003 203.882 320.003 203.214 319.529 203.039L306.034 198.069C305.885 198.014 305.768 197.897 305.713 197.749L300.719 184.317Z" fill="url(#paint27_linear_1513_6800)"/>
  <path d="M310.813 244.054C311.287 243.879 311.287 243.212 310.813 243.037L303.68 240.41C303.531 240.355 303.414 240.238 303.358 240.09L300.719 232.991C300.544 232.518 299.873 232.518 299.697 232.991L297.058 240.09C297.003 240.238 296.885 240.355 296.736 240.41L289.604 243.037C289.129 243.212 289.129 243.879 289.604 244.054L296.736 246.681C296.885 246.736 297.003 246.853 297.058 247.001L299.697 254.1C299.873 254.572 300.544 254.572 300.719 254.1L303.358 247.001C303.414 246.853 303.531 246.736 303.68 246.681L310.813 244.054Z" fill="url(#paint28_linear_1513_6800)"/>
  <path d="M299.024 291.801C299.2 292.273 299.871 292.273 300.046 291.801L301.95 286.681C302.005 286.533 302.122 286.416 302.271 286.361L307.416 284.466C307.89 284.291 307.89 283.624 307.416 283.449L302.271 281.554C302.122 281.5 302.005 281.383 301.95 281.234L300.046 276.114C299.871 275.642 299.2 275.642 299.024 276.114L297.121 281.234C297.066 281.383 296.948 281.5 296.799 281.554L291.655 283.449C291.18 283.624 291.18 284.291 291.655 284.466L296.799 286.361C296.948 286.416 297.066 286.533 297.121 286.681L299.024 291.801Z" fill="url(#paint29_linear_1513_6800)"/>
  <path d="M270.755 -74.9068C271.229 -75.0815 271.229 -75.7492 270.755 -75.9239L263.623 -78.5508C263.473 -78.6057 263.356 -78.7227 263.301 -78.8712L260.661 -85.9702C260.486 -86.4423 259.815 -86.4423 259.64 -85.9702L257 -78.8712C256.945 -78.7227 256.828 -78.6057 256.678 -78.5508L249.546 -75.9239C249.072 -75.7492 249.072 -75.0815 249.546 -74.9068L256.678 -72.28C256.828 -72.225 256.945 -72.108 257 -71.9596L259.64 -64.8605C259.815 -64.3885 260.486 -64.3885 260.661 -64.8605L263.301 -71.9596C263.356 -72.108 263.473 -72.225 263.623 -72.28L270.755 -74.9068Z" fill="url(#paint30_linear_1513_6800)"/>
  <path d="M258.967 -20.6526C259.142 -20.1805 259.813 -20.1805 259.988 -20.6526L263.658 -30.5221C263.713 -30.6705 263.83 -30.7875 263.98 -30.8425L273.895 -34.4945C274.37 -34.6692 274.37 -35.3369 273.895 -35.5116L263.98 -39.1636C263.83 -39.2185 263.713 -39.3356 263.658 -39.484L259.988 -49.3535C259.813 -49.8256 259.142 -49.8256 258.967 -49.3535L255.297 -39.484C255.242 -39.3356 255.125 -39.2185 254.975 -39.1636L245.06 -35.5116C244.585 -35.3369 244.585 -34.6692 245.06 -34.4945L254.975 -30.8425C255.125 -30.7875 255.242 -30.6705 255.297 -30.5221L258.967 -20.6526Z" fill="url(#paint31_linear_1513_6800)"/>
  <path d="M261.206 -10.6954C261.031 -11.1675 260.36 -11.1675 260.184 -10.6954L256.515 -0.82592C256.46 -0.677498 256.342 -0.560471 256.193 -0.505554L246.277 3.1465C245.803 3.32118 245.803 3.98888 246.277 4.16357L256.193 7.81562C256.342 7.87054 256.46 7.98755 256.515 8.13597L260.184 18.0055C260.36 18.4776 261.031 18.4776 261.206 18.0055L264.875 8.13597C264.931 7.98755 265.048 7.87054 265.197 7.81562L275.113 4.16357C275.588 3.98888 275.588 3.32118 275.113 3.1465L265.197 -0.505554C265.048 -0.560471 264.931 -0.677498 264.875 -0.82592L261.206 -10.6954Z" fill="url(#paint32_linear_1513_6800)"/>
  <path d="M249.418 43.5588C248.943 43.7334 248.943 44.4012 249.418 44.5758L256.55 47.2027C256.699 47.2576 256.817 47.3747 256.872 47.5231L259.511 54.6221C259.687 55.0942 260.358 55.0942 260.533 54.6221L263.172 47.5231C263.228 47.3747 263.345 47.2576 263.494 47.2027L270.627 44.5758C271.101 44.4012 271.101 43.7334 270.627 43.5588L263.494 40.9319C263.345 40.877 263.228 40.7599 263.172 40.6115L260.533 33.5125C260.358 33.0404 259.687 33.0404 259.511 33.5125L256.872 40.6115C256.817 40.7599 256.699 40.877 256.55 40.9319L249.418 43.5588Z" fill="url(#paint33_linear_1513_6800)"/>
  <path d="M258.967 92.4509C259.142 92.9229 259.813 92.9229 259.988 92.4509L261.892 87.3307C261.947 87.1823 262.065 87.0653 262.214 87.0103L267.358 85.1157C267.832 84.941 267.832 84.2733 267.358 84.0986L262.214 82.204C262.065 82.1491 261.947 82.0321 261.892 81.8837L259.988 76.7635C259.813 76.2914 259.142 76.2914 258.967 76.7635L257.063 81.8837C257.008 82.0321 256.89 82.1491 256.741 82.204L251.597 84.0986C251.123 84.2733 251.123 84.941 251.597 85.1157L256.741 87.0103C256.89 87.0653 257.008 87.1823 257.063 87.3307L258.967 92.4509Z" fill="url(#paint34_linear_1513_6800)"/>
  <path d="M251.597 122.757C251.123 122.931 251.123 123.599 251.597 123.774L256.741 125.668C256.89 125.723 257.008 125.84 257.063 125.989L258.967 131.109C259.142 131.581 259.813 131.581 259.988 131.109L261.892 125.989C261.947 125.84 262.065 125.723 262.214 125.668L267.358 123.774C267.832 123.599 267.832 122.931 267.358 122.757L262.214 120.862C262.065 120.807 261.947 120.69 261.892 120.542L259.988 115.422C259.813 114.95 259.142 114.95 258.967 115.422L257.063 120.542C257.008 120.69 256.89 120.807 256.741 120.862L251.597 122.757Z" fill="url(#paint35_linear_1513_6800)"/>
  <path d="M270.755 164.314C271.229 164.139 271.229 163.471 270.755 163.297L263.623 160.67C263.473 160.615 263.356 160.498 263.301 160.349L260.661 153.25C260.486 152.778 259.815 152.778 259.64 153.25L257 160.349C256.945 160.498 256.828 160.615 256.678 160.67L249.546 163.297C249.072 163.471 249.072 164.139 249.546 164.314L256.678 166.941C256.828 166.996 256.945 167.113 257 167.261L259.64 174.36C259.815 174.832 260.486 174.832 260.661 174.36L263.301 167.261C263.356 167.113 263.473 166.996 263.623 166.941L270.755 164.314Z" fill="url(#paint36_linear_1513_6800)"/>
  <path d="M261.206 195.162C261.031 194.69 260.36 194.69 260.184 195.162L258.281 200.282C258.226 200.43 258.108 200.547 257.959 200.602L252.815 202.497C252.34 202.672 252.34 203.339 252.815 203.514L257.959 205.409C258.108 205.464 258.226 205.581 258.281 205.729L260.184 210.849C260.36 211.321 261.031 211.321 261.206 210.849L263.11 205.729C263.165 205.581 263.282 205.464 263.432 205.409L268.576 203.514C269.05 203.339 269.05 202.672 268.576 202.497L263.432 200.602C263.282 200.547 263.165 200.43 263.11 200.282L261.206 195.162Z" fill="url(#paint37_linear_1513_6800)"/>
  <path d="M261.206 235.032C261.031 234.56 260.36 234.56 260.184 235.032L258.281 240.152C258.226 240.3 258.108 240.417 257.959 240.472L252.815 242.367C252.34 242.542 252.34 243.209 252.815 243.384L257.959 245.279C258.108 245.334 258.226 245.451 258.281 245.599L260.184 250.719C260.36 251.191 261.031 251.191 261.206 250.719L263.11 245.599C263.165 245.451 263.282 245.334 263.432 245.279L268.576 243.384C269.05 243.209 269.05 242.542 268.576 242.367L263.432 240.472C263.282 240.417 263.165 240.3 263.11 240.152L261.206 235.032Z" fill="url(#paint38_linear_1513_6800)"/>
  <path d="M279.472 283.924C279.946 283.749 279.946 283.082 279.472 282.907L265.977 277.937C265.828 277.882 265.71 277.765 265.655 277.616L260.661 264.185C260.486 263.713 259.815 263.713 259.64 264.185L254.646 277.616C254.591 277.765 254.473 277.882 254.324 277.937L240.829 282.907C240.355 283.082 240.355 283.749 240.829 283.924L254.324 288.894C254.473 288.949 254.591 289.066 254.646 289.214L259.64 302.646C259.815 303.118 260.486 303.118 260.661 302.646L265.655 289.214C265.71 289.066 265.828 288.949 265.977 288.894L279.472 283.924Z" fill="url(#paint39_linear_1513_6800)"/>
  <path d="M221.149 -83.9288C220.973 -84.4009 220.302 -84.4009 220.127 -83.9288L218.223 -78.8087C218.168 -78.6603 218.05 -78.5433 217.901 -78.4883L212.757 -76.5937C212.283 -76.419 212.283 -75.7513 212.757 -75.5766L217.901 -73.682C218.05 -73.6271 218.168 -73.5101 218.223 -73.3617L220.127 -68.2415C220.302 -67.7694 220.973 -67.7694 221.149 -68.2415L223.052 -73.3617C223.107 -73.5101 223.225 -73.6271 223.374 -73.682L228.518 -75.5766C228.992 -75.7513 228.992 -76.419 228.518 -76.5937L223.374 -78.4883C223.225 -78.5433 223.107 -78.6603 223.052 -78.8087L221.149 -83.9288Z" fill="url(#paint40_linear_1513_6800)"/>
  <path d="M239.414 -35.0367C239.888 -35.2114 239.888 -35.8791 239.414 -36.0538L225.919 -41.0239C225.77 -41.0788 225.652 -41.1959 225.597 -41.3443L220.604 -54.7758C220.428 -55.2479 219.757 -55.2479 219.582 -54.7758L214.588 -41.3443C214.533 -41.1959 214.416 -41.0788 214.267 -41.0239L200.772 -36.0538C200.298 -35.8791 200.298 -35.2114 200.772 -35.0367L214.267 -30.0666C214.416 -30.0117 214.533 -29.8947 214.588 -29.7463L219.582 -16.3147C219.757 -15.8426 220.428 -15.8426 220.604 -16.3147L225.597 -29.7463C225.652 -29.8947 225.77 -30.0117 225.919 -30.0666L239.414 -35.0367Z" fill="url(#paint41_linear_1513_6800)"/>
  <path d="M211.539 3.1465C211.065 3.32118 211.065 3.98888 211.539 4.16357L216.683 6.0582C216.833 6.11311 216.95 6.23013 217.005 6.37855L218.909 11.4987C219.084 11.9708 219.755 11.9708 219.931 11.4987L221.834 6.37856C221.889 6.23013 222.007 6.11311 222.156 6.0582L227.3 4.16357C227.775 3.98888 227.775 3.32118 227.3 3.1465L222.156 1.25188C222.007 1.19695 221.889 1.07993 221.834 0.931503L219.931 -4.18864C219.755 -4.66071 219.084 -4.66071 218.909 -4.18864L217.005 0.931503C216.95 1.07993 216.833 1.19695 216.683 1.25188L211.539 3.1465Z" fill="url(#paint42_linear_1513_6800)"/>
  <path d="M211.539 43.0165C211.065 43.1912 211.065 43.8589 211.539 44.0336L216.683 45.9282C216.833 45.9831 216.95 46.1002 217.005 46.2486L218.909 51.3687C219.084 51.8408 219.755 51.8408 219.931 51.3687L221.834 46.2486C221.889 46.1002 222.007 45.9831 222.156 45.9282L227.3 44.0336C227.775 43.8589 227.775 43.1912 227.3 43.0165L222.156 41.1219C222.007 41.067 221.889 40.95 221.834 40.8015L219.931 35.6814C219.755 35.2093 219.084 35.2093 218.909 35.6814L217.005 40.8015C216.95 40.95 216.833 41.067 216.683 41.1219L211.539 43.0165Z" fill="url(#paint43_linear_1513_6800)"/>
  <path d="M221.149 75.5515C220.973 75.0794 220.302 75.0794 220.127 75.5515L218.223 80.6716C218.168 80.8201 218.05 80.9371 217.901 80.992L212.757 82.8866C212.283 83.0613 212.283 83.729 212.757 83.9037L217.901 85.7983C218.05 85.8532 218.168 85.9703 218.223 86.1187L220.127 91.2388C220.302 91.7109 220.973 91.7109 221.149 91.2388L223.052 86.1187C223.107 85.9703 223.225 85.8532 223.374 85.7983L228.518 83.9037C228.992 83.729 228.992 83.0613 228.518 82.8866L223.374 80.992C223.225 80.9371 223.107 80.8201 223.052 80.6716L221.149 75.5515Z" fill="url(#paint44_linear_1513_6800)"/>
  <path d="M235.056 124.986C235.53 124.811 235.53 124.143 235.056 123.969L225.14 120.317C224.99 120.262 224.873 120.145 224.818 119.996L221.149 110.127C220.973 109.655 220.302 109.655 220.127 110.127L216.457 119.996C216.402 120.145 216.285 120.262 216.136 120.317L206.22 123.969C205.745 124.143 205.745 124.811 206.22 124.986L216.136 128.638C216.285 128.693 216.402 128.81 216.457 128.958L220.127 138.828C220.302 139.3 220.973 139.3 221.149 138.828L224.818 128.958C224.873 128.81 224.99 128.693 225.14 128.638L235.056 124.986Z" fill="url(#paint45_linear_1513_6800)"/>
  <path d="M218.909 172.191C219.084 172.663 219.755 172.663 219.931 172.191L221.834 167.071C221.889 166.923 222.007 166.805 222.156 166.751L227.3 164.856C227.775 164.681 227.775 164.014 227.3 163.839L222.156 161.944C222.007 161.889 221.889 161.772 221.834 161.624L219.931 156.504C219.755 156.032 219.084 156.032 218.909 156.504L217.005 161.624C216.95 161.772 216.833 161.889 216.683 161.944L211.539 163.839C211.065 164.014 211.065 164.681 211.539 164.856L216.683 166.751C216.833 166.805 216.95 166.923 217.005 167.071L218.909 172.191Z" fill="url(#paint46_linear_1513_6800)"/>
  <path d="M221.149 188.655C220.973 188.183 220.302 188.183 220.127 188.655L216.457 198.524C216.402 198.673 216.285 198.79 216.136 198.845L206.22 202.497C205.745 202.672 205.745 203.339 206.22 203.514L216.136 207.166C216.285 207.221 216.402 207.338 216.457 207.486L220.127 217.356C220.302 217.828 220.973 217.828 221.149 217.356L224.818 207.486C224.873 207.338 224.99 207.221 225.14 207.166L235.056 203.514C235.53 203.339 235.53 202.672 235.056 202.497L225.14 198.845C224.99 198.79 224.873 198.673 224.818 198.524L221.149 188.655Z" fill="url(#paint47_linear_1513_6800)"/>
  <path d="M218.909 251.931C219.084 252.403 219.755 252.403 219.931 251.931L221.834 246.811C221.889 246.663 222.007 246.546 222.156 246.491L227.3 244.596C227.775 244.421 227.775 243.754 227.3 243.579L222.156 241.684C222.007 241.63 221.889 241.513 221.834 241.364L219.931 236.244C219.755 235.772 219.084 235.772 218.909 236.244L217.005 241.364C216.95 241.513 216.833 241.63 216.683 241.684L211.539 243.579C211.065 243.754 211.065 244.421 211.539 244.596L216.683 246.491C216.833 246.546 216.95 246.663 217.005 246.811L218.909 251.931Z" fill="url(#paint48_linear_1513_6800)"/>
  <path d="M205.002 282.237C204.528 282.412 204.528 283.079 205.002 283.254L214.918 286.906C215.067 286.961 215.184 287.078 215.24 287.226L218.909 297.096C219.084 297.568 219.755 297.568 219.931 297.096L223.6 287.226C223.655 287.078 223.773 286.961 223.922 286.906L233.838 283.254C234.312 283.079 234.312 282.412 233.838 282.237L223.922 278.585C223.773 278.53 223.655 278.413 223.6 278.265L219.931 268.395C219.755 267.923 219.084 267.923 218.909 268.395L215.24 278.265C215.184 278.413 215.067 278.53 214.918 278.585L205.002 282.237Z" fill="url(#paint49_linear_1513_6800)"/>
  <path d="M190.64 -74.9068C191.114 -75.0815 191.114 -75.7492 190.64 -75.9239L183.507 -78.5508C183.358 -78.6057 183.241 -78.7227 183.186 -78.8712L180.546 -85.9702C180.371 -86.4423 179.7 -86.4423 179.524 -85.9702L176.885 -78.8712C176.83 -78.7227 176.712 -78.6057 176.563 -78.5508L169.431 -75.9239C168.957 -75.7492 168.957 -75.0815 169.431 -74.9068L176.563 -72.28C176.712 -72.225 176.83 -72.108 176.885 -71.9596L179.524 -64.8605C179.7 -64.3885 180.371 -64.3885 180.546 -64.8605L183.186 -71.9596C183.241 -72.108 183.358 -72.225 183.507 -72.28L190.64 -74.9068Z" fill="url(#paint50_linear_1513_6800)"/>
  <path d="M179.396 -24.9904C179.572 -24.5184 180.243 -24.5184 180.418 -24.9904L183.057 -32.0895C183.113 -32.2379 183.23 -32.3549 183.379 -32.4099L190.512 -35.0367C190.986 -35.2114 190.986 -35.8791 190.512 -36.0538L183.379 -38.6807C183.23 -38.7356 183.113 -38.8526 183.057 -39.0011L180.418 -46.1001C180.243 -46.5722 179.572 -46.5722 179.396 -46.1001L176.757 -39.0011C176.702 -38.8526 176.584 -38.7356 176.435 -38.6807L169.303 -36.0538C168.828 -35.8791 168.828 -35.2114 169.303 -35.0367L176.435 -32.4099C176.584 -32.3549 176.702 -32.2379 176.757 -32.0895L179.396 -24.9904Z" fill="url(#paint51_linear_1513_6800)"/>
  <path d="M179.396 23.5554C179.572 24.0275 180.243 24.0275 180.418 23.5554L185.412 10.1238C185.467 9.97542 185.584 9.85841 185.733 9.80349L199.228 4.83337C199.702 4.65868 199.702 3.99098 199.228 3.8163L185.733 -1.15383C185.584 -1.20875 185.467 -1.32577 185.412 -1.47419L180.418 -14.9057C180.243 -15.3778 179.572 -15.3778 179.396 -14.9057L174.403 -1.47419C174.348 -1.32577 174.23 -1.20875 174.081 -1.15383L160.586 3.8163C160.112 3.99098 160.112 4.65868 160.586 4.83337L174.081 9.80349C174.23 9.85841 174.348 9.97542 174.403 10.1238L179.396 23.5554Z" fill="url(#paint52_linear_1513_6800)"/>
  <path d="M181.091 29.1746C180.916 28.7025 180.245 28.7025 180.069 29.1746L176.4 39.0441C176.345 39.1925 176.227 39.3096 176.078 39.3645L166.162 43.0165C165.688 43.1912 165.688 43.8589 166.162 44.0336L176.078 47.6856C176.227 47.7406 176.345 47.8576 176.4 48.006L180.069 57.8755C180.245 58.3476 180.916 58.3476 181.091 57.8755L184.76 48.006C184.816 47.8576 184.933 47.7406 185.082 47.6856L194.998 44.0336C195.472 43.8589 195.472 43.1912 194.998 43.0165L185.082 39.3645C184.933 39.3096 184.816 39.1925 184.76 39.0441L181.091 29.1746Z" fill="url(#paint53_linear_1513_6800)"/>
  <path d="M188.461 85.1157C188.935 84.941 188.935 84.2733 188.461 84.0986L183.317 82.204C183.167 82.1491 183.05 82.0321 182.995 81.8837L181.091 76.7635C180.916 76.2914 180.245 76.2914 180.069 76.7635L178.166 81.8837C178.111 82.0321 177.993 82.1491 177.844 82.204L172.7 84.0986C172.225 84.2733 172.225 84.941 172.7 85.1157L177.844 87.0103C177.993 87.0653 178.111 87.1823 178.166 87.3307L180.069 92.4509C180.245 92.9229 180.916 92.9229 181.091 92.4509L182.995 87.3307C183.05 87.1823 183.167 87.0653 183.317 87.0103L188.461 85.1157Z" fill="url(#paint54_linear_1513_6800)"/>
  <path d="M180.546 113.253C180.371 112.781 179.7 112.781 179.524 113.253L176.885 120.352C176.83 120.5 176.712 120.617 176.563 120.672L169.431 123.299C168.957 123.474 168.957 124.141 169.431 124.316L176.563 126.943C176.712 126.998 176.83 127.115 176.885 127.263L179.524 134.362C179.7 134.834 180.371 134.834 180.546 134.362L183.186 127.263C183.241 127.115 183.358 126.998 183.507 126.943L190.64 124.316C191.114 124.141 191.114 123.474 190.64 123.299L183.507 120.672C183.358 120.617 183.241 120.5 183.186 120.352L180.546 113.253Z" fill="url(#paint55_linear_1513_6800)"/>
  <path d="M181.091 148.785C180.916 148.313 180.245 148.313 180.069 148.785L176.4 158.654C176.345 158.803 176.227 158.92 176.078 158.975L166.162 162.627C165.688 162.801 165.688 163.469 166.162 163.644L176.078 167.296C176.227 167.351 176.345 167.468 176.4 167.616L180.069 177.486C180.245 177.958 180.916 177.958 181.091 177.486L184.76 167.616C184.816 167.468 184.933 167.351 185.082 167.296L194.998 163.644C195.472 163.469 195.472 162.801 194.998 162.627L185.082 158.975C184.933 158.92 184.816 158.803 184.76 158.654L181.091 148.785Z" fill="url(#paint56_linear_1513_6800)"/>
  <path d="M179.396 222.906C179.572 223.378 180.243 223.378 180.418 222.906L185.412 209.474C185.467 209.326 185.584 209.209 185.733 209.154L199.228 204.184C199.702 204.009 199.702 203.341 199.228 203.167L185.733 198.197C185.584 198.142 185.467 198.025 185.412 197.876L180.418 184.445C180.243 183.973 179.572 183.973 179.396 184.445L174.403 197.876C174.348 198.025 174.23 198.142 174.081 198.197L160.586 203.167C160.112 203.341 160.112 204.009 160.586 204.184L174.081 209.154C174.23 209.209 174.348 209.326 174.403 209.474L179.396 222.906Z" fill="url(#paint57_linear_1513_6800)"/>
  <path d="M179.396 254.1C179.572 254.572 180.243 254.572 180.418 254.1L183.057 247.001C183.113 246.853 183.23 246.736 183.379 246.681L190.512 244.054C190.986 243.879 190.986 243.212 190.512 243.037L183.379 240.41C183.23 240.355 183.113 240.238 183.057 240.09L180.418 232.991C180.243 232.518 179.572 232.518 179.396 232.991L176.757 240.09C176.702 240.238 176.584 240.355 176.435 240.41L169.303 243.037C168.828 243.212 168.828 243.879 169.303 244.054L176.435 246.681C176.584 246.736 176.702 246.853 176.757 247.001L179.396 254.1Z" fill="url(#paint58_linear_1513_6800)"/>
  <path d="M188.461 284.466C188.935 284.291 188.935 283.624 188.461 283.449L183.317 281.554C183.167 281.5 183.05 281.383 182.995 281.234L181.091 276.114C180.916 275.642 180.245 275.642 180.069 276.114L178.166 281.234C178.111 281.383 177.993 281.5 177.844 281.554L172.7 283.449C172.225 283.624 172.225 284.291 172.7 284.466L177.844 286.361C177.993 286.416 178.111 286.533 178.166 286.681L180.069 291.801C180.245 292.273 180.916 292.273 181.091 291.801L182.995 286.681C183.05 286.533 183.167 286.416 183.317 286.361L188.461 284.466Z" fill="url(#paint59_linear_1513_6800)"/>
  <path d="M139.339 -64.8605C139.514 -64.3885 140.185 -64.3885 140.36 -64.8605L143 -71.9596C143.055 -72.108 143.172 -72.225 143.322 -72.28L150.454 -74.9068C150.928 -75.0815 150.928 -75.7492 150.454 -75.9239L143.322 -78.5508C143.172 -78.6057 143.055 -78.7227 143 -78.8712L140.36 -85.9702C140.185 -86.4423 139.514 -86.4423 139.339 -85.9702L136.699 -78.8712C136.644 -78.7227 136.527 -78.6057 136.377 -78.5508L129.245 -75.9239C128.771 -75.7492 128.771 -75.0815 129.245 -74.9068L136.377 -72.28C136.527 -72.225 136.644 -72.108 136.699 -71.9596L139.339 -64.8605Z" fill="url(#paint60_linear_1513_6800)"/>
  <path d="M140.489 -54.9034C140.313 -55.3755 139.642 -55.3755 139.467 -54.9034L134.473 -41.4719C134.418 -41.3234 134.301 -41.2064 134.151 -41.1515L120.657 -36.1814C120.182 -36.0067 120.182 -35.339 120.657 -35.1643L134.151 -30.1942C134.301 -30.1393 134.418 -30.0222 134.473 -29.8738L139.467 -16.4423C139.642 -15.9702 140.313 -15.9702 140.489 -16.4423L145.482 -29.8738C145.537 -30.0222 145.655 -30.1393 145.804 -30.1942L159.299 -35.1643C159.773 -35.339 159.773 -36.0067 159.299 -36.1814L145.804 -41.1515C145.655 -41.2064 145.537 -41.3234 145.482 -41.4719L140.489 -54.9034Z" fill="url(#paint61_linear_1513_6800)"/>
  <path d="M124.887 3.1465C124.412 3.32118 124.412 3.98888 124.887 4.16357L134.803 7.81562C134.952 7.87054 135.069 7.98755 135.125 8.13597L138.794 18.0055C138.969 18.4776 139.64 18.4776 139.816 18.0055L143.485 8.13597C143.54 7.98755 143.658 7.87054 143.807 7.81562L153.723 4.16357C154.197 3.98888 154.197 3.32118 153.723 3.1465L143.807 -0.505554C143.658 -0.560471 143.54 -0.677498 143.485 -0.82592L139.816 -10.6954C139.64 -11.1675 138.969 -11.1675 138.794 -10.6954L135.125 -0.82592C135.069 -0.677498 134.952 -0.560471 134.803 -0.505554L124.887 3.1465Z" fill="url(#paint62_linear_1513_6800)"/>
  <path d="M138.794 59.0876C138.969 59.5597 139.64 59.5597 139.816 59.0876L143.485 49.2181C143.54 49.0697 143.658 48.9526 143.807 48.8977L153.723 45.2457C154.197 45.071 154.197 44.4033 153.723 44.2286L143.807 40.5766C143.658 40.5217 143.54 40.4046 143.485 40.2562L139.816 30.3867C139.64 29.9146 138.969 29.9146 138.794 30.3867L135.125 40.2562C135.069 40.4046 134.952 40.5217 134.803 40.5766L124.887 44.2286C124.412 44.4033 124.412 45.071 124.887 45.2457L134.803 48.8977C134.952 48.9526 135.069 49.0697 135.125 49.2181L138.794 59.0876Z" fill="url(#paint63_linear_1513_6800)"/>
  <path d="M139.339 103.296C139.514 103.768 140.185 103.768 140.36 103.296L145.354 89.864C145.409 89.7155 145.527 89.5985 145.676 89.5436L159.171 84.5735C159.645 84.3988 159.645 83.7311 159.171 83.5564L145.676 78.5863C145.527 78.5314 145.409 78.4144 145.354 78.2659L140.36 64.8344C140.185 64.3623 139.514 64.3623 139.339 64.8344L134.345 78.2659C134.29 78.4144 134.172 78.5314 134.023 78.5863L120.528 83.5564C120.054 83.7311 120.054 84.3988 120.529 84.5735L134.023 89.5436C134.172 89.5985 134.29 89.7155 134.345 89.864L139.339 103.296Z" fill="url(#paint64_linear_1513_6800)"/>
  <path d="M138.794 138.828C138.969 139.3 139.64 139.3 139.816 138.828L143.485 128.958C143.54 128.81 143.658 128.693 143.807 128.638L153.723 124.986C154.197 124.811 154.197 124.143 153.723 123.969L143.807 120.317C143.658 120.262 143.54 120.145 143.485 119.996L139.816 110.127C139.64 109.655 138.969 109.655 138.794 110.127L135.125 119.996C135.069 120.145 134.952 120.262 134.803 120.317L124.887 123.969C124.412 124.143 124.412 124.811 124.887 124.986L134.803 128.638C134.952 128.693 135.069 128.81 135.125 128.958L138.794 138.828Z" fill="url(#paint65_linear_1513_6800)"/>
  <path d="M129.245 163.169C128.771 163.344 128.771 164.011 129.245 164.186L136.377 166.813C136.527 166.868 136.644 166.985 136.699 167.133L139.339 174.232C139.514 174.704 140.185 174.704 140.36 174.232L143 167.133C143.055 166.985 143.172 166.868 143.322 166.813L150.454 164.186C150.928 164.011 150.928 163.344 150.454 163.169L143.322 160.542C143.172 160.487 143.055 160.37 143 160.222L140.36 153.123C140.185 152.651 139.514 152.651 139.339 153.123L136.699 160.222C136.644 160.37 136.527 160.487 136.377 160.542L129.245 163.169Z" fill="url(#paint66_linear_1513_6800)"/>
  <path d="M140.489 184.317C140.313 183.845 139.642 183.845 139.467 184.317L134.473 197.749C134.418 197.897 134.301 198.014 134.151 198.069L120.657 203.039C120.182 203.214 120.182 203.882 120.657 204.056L134.151 209.026C134.301 209.081 134.418 209.198 134.473 209.347L139.467 222.778C139.642 223.25 140.313 223.25 140.489 222.778L145.482 209.347C145.537 209.198 145.655 209.081 145.804 209.026L159.299 204.056C159.773 203.882 159.773 203.214 159.299 203.039L145.804 198.069C145.655 198.014 145.537 197.897 145.482 197.749L140.489 184.317Z" fill="url(#paint67_linear_1513_6800)"/>
  <path d="M140.489 232.863C140.313 232.391 139.642 232.391 139.467 232.863L136.828 239.962C136.772 240.11 136.655 240.227 136.506 240.282L129.373 242.909C128.899 243.084 128.899 243.752 129.373 243.926L136.506 246.553C136.655 246.608 136.772 246.725 136.828 246.874L139.467 253.973C139.642 254.445 140.313 254.445 140.489 253.973L143.128 246.874C143.183 246.725 143.301 246.608 143.45 246.553L150.582 243.926C151.057 243.752 151.057 243.084 150.582 242.909L143.45 240.282C143.301 240.227 143.183 240.11 143.128 239.962L140.489 232.863Z" fill="url(#paint68_linear_1513_6800)"/>
  <path d="M159.299 283.924C159.773 283.749 159.773 283.082 159.299 282.907L145.804 277.937C145.655 277.882 145.537 277.765 145.482 277.616L140.489 264.185C140.313 263.713 139.642 263.713 139.467 264.185L134.473 277.616C134.418 277.765 134.301 277.882 134.151 277.937L120.657 282.907C120.182 283.082 120.182 283.749 120.657 283.924L134.151 288.894C134.301 288.949 134.418 289.066 134.473 289.214L139.467 302.646C139.642 303.118 140.313 303.118 140.489 302.646L145.482 289.214C145.537 289.066 145.655 288.949 145.804 288.894L159.299 283.924Z" fill="url(#paint69_linear_1513_6800)"/>
  <path d="M108.345 -74.3646C108.82 -74.5393 108.82 -75.207 108.345 -75.3817L103.201 -77.2763C103.052 -77.3312 102.934 -77.4482 102.879 -77.5967L100.976 -82.7168C100.8 -83.1889 100.129 -83.1889 99.9539 -82.7168L98.0504 -77.5967C97.9952 -77.4482 97.8776 -77.3312 97.7285 -77.2763L92.5843 -75.3817C92.11 -75.207 92.11 -74.5393 92.5843 -74.3646L97.7285 -72.47C97.8776 -72.4151 97.9952 -72.298 98.0504 -72.1496L99.9539 -67.0295C100.129 -66.5574 100.8 -66.5574 100.976 -67.0295L102.879 -72.1496C102.934 -72.298 103.052 -72.4151 103.201 -72.47L108.345 -74.3646Z" fill="url(#paint70_linear_1513_6800)"/>
  <path d="M99.2809 -24.9904C99.4564 -24.5184 100.127 -24.5184 100.303 -24.9904L102.942 -32.0895C102.997 -32.2379 103.115 -32.3549 103.264 -32.4099L110.396 -35.0367C110.871 -35.2114 110.871 -35.8791 110.396 -36.0538L103.264 -38.6807C103.115 -38.7356 102.997 -38.8526 102.942 -39.0011L100.303 -46.1001C100.127 -46.5722 99.4564 -46.5722 99.2809 -46.1001L96.6417 -39.0011C96.5865 -38.8526 96.4689 -38.7356 96.3198 -38.6807L89.1874 -36.0538C88.7131 -35.8791 88.7131 -35.2114 89.1874 -35.0367L96.3198 -32.4099C96.4689 -32.3549 96.5865 -32.2379 96.6417 -32.0895L99.2809 -24.9904Z" fill="url(#paint71_linear_1513_6800)"/>
  <path d="M98.7361 19.2175C98.9116 19.6896 99.5825 19.6896 99.758 19.2175L103.427 9.34801C103.482 9.19959 103.6 9.08257 103.749 9.02765L113.665 5.3756C114.139 5.2009 114.139 4.53321 113.665 4.35853L103.749 0.706474C103.6 0.651558 103.482 0.534531 103.427 0.386108L99.758 -9.48341C99.5825 -9.95548 98.9116 -9.95548 98.7361 -9.48341L95.0669 0.386108C95.0117 0.534531 94.8941 0.651558 94.745 0.706474L84.8291 4.35853C84.3548 4.53321 84.3548 5.2009 84.8291 5.3756L94.745 9.02765C94.8941 9.08257 95.0117 9.19959 95.0669 9.34801L98.7361 19.2175Z" fill="url(#paint72_linear_1513_6800)"/>
  <path d="M119.241 44.7034C119.715 44.5288 119.715 43.8611 119.241 43.6864L105.746 38.7163C105.597 38.6613 105.48 38.5443 105.424 38.3959L100.431 24.9643C100.255 24.4923 99.5846 24.4923 99.4091 24.9644L94.4156 38.3959C94.3604 38.5443 94.2429 38.6613 94.0938 38.7163L80.599 43.6864C80.1247 43.8611 80.1248 44.5288 80.5991 44.7034L94.0938 49.6736C94.2429 49.7285 94.3604 49.8455 94.4156 49.9939L99.4091 63.4255C99.5846 63.8976 100.255 63.8976 100.431 63.4255L105.424 49.9939C105.48 49.8455 105.597 49.7285 105.746 49.6736L119.241 44.7034Z" fill="url(#paint73_linear_1513_6800)"/>
  <path d="M98.7361 98.9577C98.9116 99.4297 99.5825 99.4297 99.758 98.9577L103.427 89.0881C103.482 88.9397 103.6 88.8227 103.749 88.7678L113.665 85.1157C114.139 84.941 114.139 84.2733 113.665 84.0986L103.749 80.4466C103.6 80.3917 103.482 80.2747 103.427 80.1262L99.758 70.2567C99.5825 69.7846 98.9116 69.7846 98.7361 70.2567L95.0669 80.1262C95.0117 80.2747 94.8941 80.3917 94.745 80.4466L84.8291 84.0986C84.3548 84.2733 84.3548 84.941 84.8291 85.1157L94.745 88.7678C94.8941 88.8227 95.0117 88.9397 95.0669 89.0881L98.7361 98.9577Z" fill="url(#paint74_linear_1513_6800)"/>
  <path d="M84.8291 122.757C84.3548 122.931 84.3548 123.599 84.8291 123.774L94.745 127.426C94.8941 127.481 95.0117 127.598 95.0669 127.746L98.7361 137.616C98.9116 138.088 99.5825 138.088 99.758 137.616L103.427 127.746C103.482 127.598 103.6 127.481 103.749 127.426L113.665 123.774C114.139 123.599 114.139 122.931 113.665 122.757L103.749 119.105C103.6 119.05 103.482 118.933 103.427 118.784L99.758 108.915C99.5825 108.443 98.9116 108.443 98.7361 108.915L95.0669 118.784C95.0117 118.933 94.8941 119.05 94.745 119.105L84.8291 122.757Z" fill="url(#paint75_linear_1513_6800)"/>
  <path d="M119.241 164.314C119.715 164.139 119.715 163.471 119.241 163.297L105.746 158.327C105.597 158.272 105.48 158.155 105.424 158.006L100.431 144.575C100.255 144.103 99.5846 144.103 99.4091 144.575L94.4156 158.006C94.3604 158.155 94.2429 158.272 94.0938 158.327L80.599 163.297C80.1247 163.471 80.1248 164.139 80.5991 164.314L94.0938 169.284C94.2429 169.339 94.3604 169.456 94.4156 169.604L99.4091 183.036C99.5846 183.508 100.255 183.508 100.431 183.036L105.424 169.604C105.48 169.456 105.597 169.339 105.746 169.284L119.241 164.314Z" fill="url(#paint76_linear_1513_6800)"/>
  <path d="M108.345 204.726C108.82 204.551 108.82 203.884 108.345 203.709L103.201 201.814C103.052 201.759 102.934 201.642 102.879 201.494L100.976 196.374C100.8 195.902 100.129 195.902 99.9539 196.374L98.0504 201.494C97.9952 201.642 97.8776 201.759 97.7285 201.814L92.5843 203.709C92.11 203.884 92.11 204.551 92.5843 204.726L97.7285 206.621C97.8776 206.676 97.9952 206.793 98.0504 206.941L99.9539 212.061C100.129 212.533 100.8 212.533 100.976 212.061L102.879 206.941C102.934 206.793 103.052 206.676 103.201 206.621L108.345 204.726Z" fill="url(#paint77_linear_1513_6800)"/>
  <path d="M99.2809 254.1C99.4564 254.572 100.127 254.572 100.303 254.1L102.942 247.001C102.997 246.853 103.115 246.736 103.264 246.681L110.396 244.054C110.871 243.879 110.871 243.212 110.396 243.037L103.264 240.41C103.115 240.355 102.997 240.238 102.942 240.09L100.303 232.991C100.127 232.518 99.4564 232.518 99.2809 232.991L96.6417 240.09C96.5865 240.238 96.4689 240.355 96.3198 240.41L89.1874 243.037C88.7131 243.212 88.7131 243.879 89.1874 244.054L96.3198 246.681C96.4689 246.736 96.5865 246.853 96.6417 247.001L99.2809 254.1Z" fill="url(#paint78_linear_1513_6800)"/>
  <path d="M114.883 284.466C115.357 284.291 115.357 283.624 114.883 283.449L104.967 279.797C104.818 279.742 104.7 279.625 104.645 279.477L100.976 269.607C100.8 269.135 100.129 269.135 99.9539 269.607L96.2847 279.477C96.2295 279.625 96.1119 279.742 95.9628 279.797L86.0469 283.449C85.5726 283.624 85.5726 284.291 86.0469 284.466L95.9628 288.118C96.1119 288.173 96.2295 288.29 96.2847 288.439L99.9539 298.308C100.129 298.78 100.8 298.78 100.976 298.308L104.645 288.439C104.7 288.29 104.818 288.173 104.967 288.118L114.883 284.466Z" fill="url(#paint79_linear_1513_6800)"/>
  <path d="M59.2234 -56.1848C59.399 -55.7127 60.0698 -55.7127 60.2453 -56.1848L65.2388 -69.6164C65.294 -69.7648 65.4116 -69.8818 65.5607 -69.9367L79.0554 -74.9068C79.5297 -75.0815 79.5297 -75.7492 79.0554 -75.9239L65.5607 -80.894C65.4116 -80.949 65.294 -81.066 65.2388 -81.2144L60.2453 -94.6459C60.0698 -95.118 59.399 -95.118 59.2234 -94.6459L54.2299 -81.2144C54.1748 -81.066 54.0572 -80.949 53.9081 -80.894L40.4134 -75.9239C39.9391 -75.7492 39.9391 -75.0815 40.4134 -74.9068L53.9081 -69.9367C54.0572 -69.8818 54.1748 -69.7648 54.2299 -69.6164L59.2234 -56.1848Z" fill="url(#paint80_linear_1513_6800)"/>
  <path d="M60.9181 -50.5655C60.7426 -51.0376 60.0717 -51.0376 59.8962 -50.5655L56.227 -40.696C56.1718 -40.5476 56.0543 -40.4306 55.9052 -40.3757L45.9892 -36.7236C45.5149 -36.5489 45.5149 -35.8812 45.9892 -35.7065L55.9052 -32.0545C56.0543 -31.9996 56.1718 -31.8825 56.227 -31.7341L59.8962 -21.8646C60.0717 -21.3925 60.7426 -21.3925 60.9181 -21.8646L64.5873 -31.7341C64.6425 -31.8825 64.7601 -31.9996 64.9092 -32.0545L74.8251 -35.7065C75.2994 -35.8812 75.2994 -36.5489 74.8251 -36.7236L64.9091 -40.3757C64.76 -40.4306 64.6425 -40.5476 64.5873 -40.696L60.9181 -50.5655Z" fill="url(#paint81_linear_1513_6800)"/>
  <path d="M40.4134 3.68873C39.9391 3.86341 39.9391 4.53111 40.4134 4.7058L53.9081 9.67593C54.0572 9.73084 54.1748 9.84786 54.2299 9.99628L59.2234 23.4278C59.399 23.8999 60.0698 23.8999 60.2453 23.4278L65.2388 9.99628C65.294 9.84786 65.4116 9.73084 65.5607 9.67593L79.0554 4.7058C79.5297 4.53111 79.5297 3.86341 79.0554 3.68873L65.5607 -1.28139C65.4116 -1.33631 65.294 -1.45333 65.2388 -1.60175L60.2453 -15.0333C60.0698 -15.5054 59.399 -15.5054 59.2234 -15.0333L54.2299 -1.60175C54.1748 -1.45333 54.0572 -1.33631 53.9081 -1.28139L40.4134 3.68873Z" fill="url(#paint82_linear_1513_6800)"/>
  <path d="M59.2234 63.4255C59.399 63.8976 60.0698 63.8976 60.2453 63.4255L65.2388 49.9939C65.294 49.8455 65.4116 49.7285 65.5607 49.6736L79.0554 44.7034C79.5297 44.5288 79.5297 43.8611 79.0554 43.6864L65.5607 38.7163C65.4116 38.6613 65.294 38.5443 65.2388 38.3959L60.2453 24.9643C60.0698 24.4923 59.399 24.4923 59.2234 24.9644L54.2299 38.3959C54.1748 38.5443 54.0572 38.6613 53.9081 38.7163L40.4134 43.6864C39.9391 43.8611 39.9391 44.5288 40.4134 44.7034L53.9081 49.6736C54.0572 49.7285 54.1748 49.8455 54.2299 49.9939L59.2234 63.4255Z" fill="url(#paint83_linear_1513_6800)"/>
  <path d="M59.2234 94.6198C59.399 95.0919 60.0698 95.0919 60.2453 94.6198L62.8846 87.5207C62.9397 87.3723 63.0573 87.2553 63.2064 87.2004L70.3389 84.5735C70.8132 84.3988 70.8132 83.7311 70.3389 83.5564L63.2064 80.9295C63.0573 80.8746 62.9397 80.7576 62.8846 80.6092L60.2453 73.5101C60.0698 73.038 59.399 73.038 59.2234 73.5101L56.5842 80.6092C56.5291 80.7576 56.4115 80.8746 56.2624 80.9295L49.1299 83.5564C48.6556 83.7311 48.6556 84.3988 49.1299 84.5735L56.2624 87.2004C56.4115 87.2553 56.5291 87.3723 56.5842 87.5207L59.2234 94.6198Z" fill="url(#paint84_linear_1513_6800)"/>
  <path d="M60.3733 104.577C60.1978 104.105 59.5269 104.105 59.3514 104.577L54.3579 118.008C54.3028 118.157 54.1852 118.274 54.0361 118.329L40.5414 123.299C40.067 123.474 40.0671 124.141 40.5414 124.316L54.0361 129.286C54.1852 129.341 54.3028 129.458 54.3579 129.607L59.3514 143.038C59.5269 143.51 60.1978 143.51 60.3733 143.038L65.3668 129.607C65.422 129.458 65.5396 129.341 65.6887 129.286L79.1834 124.316C79.6577 124.141 79.6577 123.474 79.1834 123.299L65.6887 118.329C65.5396 118.274 65.422 118.157 65.3668 118.008L60.3733 104.577Z" fill="url(#paint85_linear_1513_6800)"/>
  <path d="M59.2234 183.036C59.399 183.508 60.0698 183.508 60.2453 183.036L65.2388 169.604C65.294 169.456 65.4116 169.339 65.5607 169.284L79.0554 164.314C79.5297 164.139 79.5297 163.471 79.0554 163.297L65.5607 158.327C65.4116 158.272 65.294 158.155 65.2388 158.006L60.2453 144.575C60.0698 144.103 59.399 144.103 59.2234 144.575L54.2299 158.006C54.1748 158.155 54.0572 158.272 53.9081 158.327L40.4134 163.297C39.9391 163.471 39.9391 164.139 40.4134 164.314L53.9081 169.284C54.0572 169.339 54.1748 169.456 54.2299 169.604L59.2234 183.036Z" fill="url(#paint86_linear_1513_6800)"/>
  <path d="M68.2877 204.726C68.762 204.551 68.762 203.884 68.2877 203.709L63.1435 201.814C62.9944 201.759 62.8768 201.642 62.8216 201.494L60.9181 196.374C60.7426 195.902 60.0717 195.902 59.8962 196.374L57.9927 201.494C57.9375 201.642 57.8199 201.759 57.6708 201.814L52.5266 203.709C52.0523 203.884 52.0523 204.551 52.5266 204.726L57.6708 206.621C57.8199 206.676 57.9375 206.793 57.9927 206.941L59.8962 212.061C60.0717 212.533 60.7426 212.533 60.9181 212.061L62.8216 206.941C62.8768 206.793 62.9944 206.676 63.1435 206.621L68.2877 204.726Z" fill="url(#paint87_linear_1513_6800)"/>
  <path d="M70.4669 244.054C70.9412 243.879 70.9412 243.212 70.4669 243.037L63.3344 240.41C63.1853 240.355 63.0677 240.238 63.0125 240.09L60.3733 232.991C60.1978 232.518 59.5269 232.518 59.3514 232.991L56.7122 240.09C56.657 240.238 56.5395 240.355 56.3904 240.41L49.2579 243.037C48.7836 243.212 48.7836 243.879 49.2579 244.054L56.3904 246.681C56.5395 246.736 56.657 246.853 56.7122 247.001L59.3514 254.1C59.5269 254.572 60.1978 254.572 60.3733 254.1L63.0125 247.001C63.0677 246.853 63.1853 246.736 63.3344 246.681L70.4669 244.054Z" fill="url(#paint88_linear_1513_6800)"/>
  <path d="M60.9181 274.902C60.7426 274.43 60.0717 274.43 59.8962 274.902L57.9927 280.022C57.9375 280.17 57.8199 280.287 57.6708 280.342L52.5266 282.237C52.0523 282.412 52.0523 283.079 52.5266 283.254L57.6708 285.149C57.8199 285.204 57.9375 285.321 57.9927 285.469L59.8962 290.589C60.0717 291.061 60.7426 291.061 60.9181 290.589L62.8216 285.469C62.8768 285.321 62.9944 285.204 63.1435 285.149L68.2877 283.254C68.762 283.079 68.762 282.412 68.2877 282.237L63.1435 280.342C62.9944 280.287 62.8768 280.17 62.8216 280.022L60.9181 274.902Z" fill="url(#paint89_linear_1513_6800)"/>
  <path d="M19.1658 -64.8605C19.3413 -64.3885 20.0121 -64.3885 20.1877 -64.8605L22.8269 -71.9596C22.882 -72.108 22.9996 -72.225 23.1487 -72.28L30.2812 -74.9068C30.7555 -75.0815 30.7555 -75.7492 30.2812 -75.9239L23.1487 -78.5508C22.9996 -78.6057 22.882 -78.7227 22.8269 -78.8712L20.1877 -85.9702C20.0121 -86.4423 19.3413 -86.4423 19.1658 -85.9702L16.5266 -78.8712C16.4714 -78.7227 16.3538 -78.6057 16.2047 -78.5508L9.07227 -75.9239C8.59796 -75.7492 8.59796 -75.0815 9.07227 -74.9068L16.2047 -72.28C16.3538 -72.225 16.4714 -72.108 16.5266 -71.9596L19.1658 -64.8605Z" fill="url(#paint90_linear_1513_6800)"/>
  <path d="M20.3159 -46.2277C20.1404 -46.6998 19.4695 -46.6998 19.294 -46.2277L16.6548 -39.1286C16.5996 -38.9802 16.4821 -38.8632 16.3329 -38.8083L9.20047 -36.1814C8.72617 -36.0067 8.72617 -35.339 9.20047 -35.1643L16.3329 -32.5374C16.4821 -32.4825 16.5996 -32.3655 16.6548 -32.2171L19.294 -25.118C19.4695 -24.6459 20.1404 -24.6459 20.3159 -25.118L22.9551 -32.2171C23.0103 -32.3655 23.1279 -32.4825 23.277 -32.5374L30.4095 -35.1643C30.8838 -35.339 30.8838 -36.0067 30.4095 -36.1814L23.277 -38.8083C23.1279 -38.8632 23.0103 -38.9802 22.9551 -39.1286L20.3159 -46.2277Z" fill="url(#paint91_linear_1513_6800)"/>
  <path d="M39.126 4.83337C39.6003 4.65868 39.6003 3.99098 39.126 3.8163L25.6313 -1.15383C25.4821 -1.20875 25.3646 -1.32577 25.3094 -1.47419L20.3159 -14.9057C20.1404 -15.3778 19.4695 -15.3778 19.294 -14.9057L14.3005 -1.47419C14.2454 -1.32577 14.1278 -1.20875 13.9787 -1.15383L0.483948 3.8163C0.00964355 3.99098 0.00967407 4.65868 0.483978 4.83337L13.9787 9.80349C14.1278 9.85841 14.2454 9.97542 14.3005 10.1238L19.294 23.5554C19.4695 24.0275 20.1404 24.0275 20.3159 23.5554L25.3094 10.1238C25.3646 9.97542 25.4821 9.85841 25.6313 9.80349L39.126 4.83337Z" fill="url(#paint92_linear_1513_6800)"/>
  <path d="M20.8607 29.1746C20.6852 28.7025 20.0143 28.7025 19.8388 29.1746L16.1696 39.0441C16.1144 39.1925 15.9969 39.3096 15.8477 39.3645L5.93182 43.0165C5.45752 43.1912 5.45752 43.8589 5.93182 44.0336L15.8477 47.6856C15.9969 47.7406 16.1144 47.8576 16.1696 48.006L19.8388 57.8755C20.0143 58.3476 20.6852 58.3476 20.8607 57.8755L24.5299 48.006C24.5851 47.8576 24.7027 47.7406 24.8518 47.6856L34.7677 44.0336C35.242 43.8589 35.242 43.1912 34.7677 43.0165L24.8518 39.3645C24.7027 39.3096 24.5851 39.1925 24.5299 39.0441L20.8607 29.1746Z" fill="url(#paint93_linear_1513_6800)"/>
  <path d="M0.355713 83.4288C-0.118591 83.6035 -0.118561 84.2712 0.355743 84.4459L13.8504 89.416C13.9995 89.471 14.1171 89.588 14.1723 89.7364L19.1658 103.168C19.3413 103.64 20.0121 103.64 20.1877 103.168L25.1812 89.7364C25.2363 89.588 25.3539 89.471 25.503 89.416L38.9977 84.4459C39.472 84.2712 39.472 83.6035 38.9977 83.4288L25.503 78.4587C25.3539 78.4038 25.2363 78.2868 25.1812 78.1384L20.1877 64.7068C20.0121 64.2347 19.3413 64.2347 19.1658 64.7068L14.1723 78.1384C14.1171 78.2868 13.9995 78.4038 13.8504 78.4587L0.355713 83.4288Z" fill="url(#paint94_linear_1513_6800)"/>
  <path d="M0.355713 123.299C-0.118591 123.474 -0.118561 124.141 0.355743 124.316L13.8504 129.286C13.9995 129.341 14.1171 129.458 14.1723 129.607L19.1658 143.038C19.3413 143.51 20.0121 143.51 20.1877 143.038L25.1812 129.607C25.2363 129.458 25.3539 129.341 25.503 129.286L38.9977 124.316C39.472 124.141 39.472 123.474 38.9977 123.299L25.503 118.329C25.3539 118.274 25.2363 118.157 25.1812 118.008L20.1877 104.577C20.0121 104.105 19.3413 104.105 19.1658 104.577L14.1723 118.008C14.1171 118.157 13.9995 118.274 13.8504 118.329L0.355713 123.299Z" fill="url(#paint95_linear_1513_6800)"/>
  <path d="M18.621 178.698C18.7965 179.17 19.4674 179.17 19.6429 178.698L23.3121 168.828C23.3673 168.68 23.4848 168.563 23.6339 168.508L33.5499 164.856C34.0242 164.681 34.0242 164.014 33.5499 163.839L23.6339 160.187C23.4848 160.132 23.3673 160.015 23.3121 159.866L19.6429 149.997C19.4674 149.525 18.7965 149.525 18.621 149.997L14.9518 159.866C14.8966 160.015 14.779 160.132 14.6299 160.187L4.71396 163.839C4.23965 164.014 4.23969 164.681 4.71399 164.856L14.6299 168.508C14.779 168.563 14.8966 168.68 14.9518 168.828L18.621 178.698Z" fill="url(#paint96_linear_1513_6800)"/>
  <path d="M20.3159 192.993C20.1404 192.521 19.4695 192.521 19.294 192.993L16.6548 200.092C16.5996 200.24 16.4821 200.357 16.3329 200.412L9.20047 203.039C8.72617 203.214 8.72617 203.882 9.20047 204.056L16.3329 206.683C16.4821 206.738 16.5996 206.855 16.6548 207.003L19.294 214.102C19.4695 214.575 20.1404 214.575 20.3159 214.102L22.9551 207.003C23.0103 206.855 23.1279 206.738 23.277 206.683L30.4095 204.056C30.8838 203.882 30.8838 203.214 30.4095 203.039L23.277 200.412C23.1279 200.357 23.0103 200.24 22.9551 200.092L20.3159 192.993Z" fill="url(#paint97_linear_1513_6800)"/>
  <path d="M11.2514 242.367C10.7771 242.542 10.7771 243.209 11.2514 243.384L16.3956 245.279C16.5447 245.334 16.6623 245.451 16.7175 245.599L18.621 250.719C18.7965 251.191 19.4674 251.191 19.6429 250.719L21.5464 245.599C21.6016 245.451 21.7191 245.334 21.8683 245.279L27.0125 243.384C27.4868 243.209 27.4868 242.542 27.0125 242.367L21.8683 240.472C21.7191 240.417 21.6016 240.3 21.5464 240.152L19.6429 235.032C19.4674 234.56 18.7965 234.56 18.621 235.032L16.7175 240.152C16.6623 240.3 16.5447 240.417 16.3956 240.472L11.2514 242.367Z" fill="url(#paint98_linear_1513_6800)"/>
  <path d="M20.8607 274.902C20.6852 274.43 20.0143 274.43 19.8388 274.902L17.9353 280.022C17.8801 280.17 17.7625 280.287 17.6134 280.342L12.4692 282.237C11.9949 282.412 11.9949 283.079 12.4692 283.254L17.6134 285.149C17.7625 285.204 17.8801 285.321 17.9353 285.469L19.8388 290.589C20.0143 291.061 20.6852 291.061 20.8607 290.589L22.7642 285.469C22.8194 285.321 22.937 285.204 23.0861 285.149L28.2303 283.254C28.7046 283.079 28.7046 282.412 28.2303 282.237L23.0861 280.342C22.937 280.287 22.8194 280.17 22.7642 280.022L20.8607 274.902Z" fill="url(#paint99_linear_1513_6800)"/>
  <defs>
    <linearGradient id="paint0_linear_1513_6800" x1="228" y1="240.5" x2="92.5253" y2="-26.7662" gradientUnits="userSpaceOnUse">
      <stop stop-color="#F1F4FE" stop-opacity="0"/>
      <stop offset="1" stop-color="#F1F4FE"/>
    </linearGradient>
    <linearGradient id="paint1_linear_1513_6800" x1="228" y1="240.5" x2="92.5253" y2="-26.7662" gradientUnits="userSpaceOnUse">
      <stop stop-color="#F1F4FE" stop-opacity="0"/>
      <stop offset="1" stop-color="#F1F4FE"/>
    </linearGradient>
    <linearGradient id="paint2_linear_1513_6800" x1="228" y1="240.5" x2="92.5253" y2="-26.7662" gradientUnits="userSpaceOnUse">
      <stop stop-color="#F1F4FE" stop-opacity="0"/>
      <stop offset="1" stop-color="#F1F4FE"/>
    </linearGradient>
    <linearGradient id="paint3_linear_1513_6800" x1="228" y1="240.5" x2="92.5253" y2="-26.7662" gradientUnits="userSpaceOnUse">
      <stop stop-color="#F1F4FE" stop-opacity="0"/>
      <stop offset="1" stop-color="#F1F4FE"/>
    </linearGradient>
    <linearGradient id="paint4_linear_1513_6800" x1="228" y1="240.5" x2="92.5253" y2="-26.7662" gradientUnits="userSpaceOnUse">
      <stop stop-color="#F1F4FE" stop-opacity="0"/>
      <stop offset="1" stop-color="#F1F4FE"/>
    </linearGradient>
    <linearGradient id="paint5_linear_1513_6800" x1="228" y1="240.5" x2="92.5253" y2="-26.7662" gradientUnits="userSpaceOnUse">
      <stop stop-color="#F1F4FE" stop-opacity="0"/>
      <stop offset="1" stop-color="#F1F4FE"/>
    </linearGradient>
    <linearGradient id="paint6_linear_1513_6800" x1="228" y1="240.5" x2="92.5253" y2="-26.7662" gradientUnits="userSpaceOnUse">
      <stop stop-color="#F1F4FE" stop-opacity="0"/>
      <stop offset="1" stop-color="#F1F4FE"/>
    </linearGradient>
    <linearGradient id="paint7_linear_1513_6800" x1="228" y1="240.5" x2="92.5253" y2="-26.7662" gradientUnits="userSpaceOnUse">
      <stop stop-color="#F1F4FE" stop-opacity="0"/>
      <stop offset="1" stop-color="#F1F4FE"/>
    </linearGradient>
    <linearGradient id="paint8_linear_1513_6800" x1="228" y1="240.5" x2="92.5253" y2="-26.7662" gradientUnits="userSpaceOnUse">
      <stop stop-color="#F1F4FE" stop-opacity="0"/>
      <stop offset="1" stop-color="#F1F4FE"/>
    </linearGradient>
    <linearGradient id="paint9_linear_1513_6800" x1="228" y1="240.5" x2="92.5253" y2="-26.7662" gradientUnits="userSpaceOnUse">
      <stop stop-color="#F1F4FE" stop-opacity="0"/>
      <stop offset="1" stop-color="#F1F4FE"/>
    </linearGradient>
    <linearGradient id="paint10_linear_1513_6800" x1="228" y1="240.5" x2="92.5253" y2="-26.7662" gradientUnits="userSpaceOnUse">
      <stop stop-color="#F1F4FE" stop-opacity="0"/>
      <stop offset="1" stop-color="#F1F4FE"/>
    </linearGradient>
    <linearGradient id="paint11_linear_1513_6800" x1="228" y1="240.5" x2="92.5253" y2="-26.7662" gradientUnits="userSpaceOnUse">
      <stop stop-color="#F1F4FE" stop-opacity="0"/>
      <stop offset="1" stop-color="#F1F4FE"/>
    </linearGradient>
    <linearGradient id="paint12_linear_1513_6800" x1="228" y1="240.5" x2="92.5253" y2="-26.7662" gradientUnits="userSpaceOnUse">
      <stop stop-color="#F1F4FE" stop-opacity="0"/>
      <stop offset="1" stop-color="#F1F4FE"/>
    </linearGradient>
    <linearGradient id="paint13_linear_1513_6800" x1="228" y1="240.5" x2="92.5253" y2="-26.7662" gradientUnits="userSpaceOnUse">
      <stop stop-color="#F1F4FE" stop-opacity="0"/>
      <stop offset="1" stop-color="#F1F4FE"/>
    </linearGradient>
    <linearGradient id="paint14_linear_1513_6800" x1="228" y1="240.5" x2="92.5253" y2="-26.7662" gradientUnits="userSpaceOnUse">
      <stop stop-color="#F1F4FE" stop-opacity="0"/>
      <stop offset="1" stop-color="#F1F4FE"/>
    </linearGradient>
    <linearGradient id="paint15_linear_1513_6800" x1="228" y1="240.5" x2="92.5253" y2="-26.7662" gradientUnits="userSpaceOnUse">
      <stop stop-color="#F1F4FE" stop-opacity="0"/>
      <stop offset="1" stop-color="#F1F4FE"/>
    </linearGradient>
    <linearGradient id="paint16_linear_1513_6800" x1="228" y1="240.5" x2="92.5253" y2="-26.7662" gradientUnits="userSpaceOnUse">
      <stop stop-color="#F1F4FE" stop-opacity="0"/>
      <stop offset="1" stop-color="#F1F4FE"/>
    </linearGradient>
    <linearGradient id="paint17_linear_1513_6800" x1="228" y1="240.5" x2="92.5253" y2="-26.7662" gradientUnits="userSpaceOnUse">
      <stop stop-color="#F1F4FE" stop-opacity="0"/>
      <stop offset="1" stop-color="#F1F4FE"/>
    </linearGradient>
    <linearGradient id="paint18_linear_1513_6800" x1="228" y1="240.5" x2="92.5253" y2="-26.7662" gradientUnits="userSpaceOnUse">
      <stop stop-color="#F1F4FE" stop-opacity="0"/>
      <stop offset="1" stop-color="#F1F4FE"/>
    </linearGradient>
    <linearGradient id="paint19_linear_1513_6800" x1="228" y1="240.5" x2="92.5253" y2="-26.7662" gradientUnits="userSpaceOnUse">
      <stop stop-color="#F1F4FE" stop-opacity="0"/>
      <stop offset="1" stop-color="#F1F4FE"/>
    </linearGradient>
    <linearGradient id="paint20_linear_1513_6800" x1="228" y1="240.5" x2="92.5253" y2="-26.7662" gradientUnits="userSpaceOnUse">
      <stop stop-color="#F1F4FE" stop-opacity="0"/>
      <stop offset="1" stop-color="#F1F4FE"/>
    </linearGradient>
    <linearGradient id="paint21_linear_1513_6800" x1="228" y1="240.5" x2="92.5253" y2="-26.7662" gradientUnits="userSpaceOnUse">
      <stop stop-color="#F1F4FE" stop-opacity="0"/>
      <stop offset="1" stop-color="#F1F4FE"/>
    </linearGradient>
    <linearGradient id="paint22_linear_1513_6800" x1="228" y1="240.5" x2="92.5253" y2="-26.7662" gradientUnits="userSpaceOnUse">
      <stop stop-color="#F1F4FE" stop-opacity="0"/>
      <stop offset="1" stop-color="#F1F4FE"/>
    </linearGradient>
    <linearGradient id="paint23_linear_1513_6800" x1="228" y1="240.5" x2="92.5253" y2="-26.7662" gradientUnits="userSpaceOnUse">
      <stop stop-color="#F1F4FE" stop-opacity="0"/>
      <stop offset="1" stop-color="#F1F4FE"/>
    </linearGradient>
    <linearGradient id="paint24_linear_1513_6800" x1="228" y1="240.5" x2="92.5253" y2="-26.7662" gradientUnits="userSpaceOnUse">
      <stop stop-color="#F1F4FE" stop-opacity="0"/>
      <stop offset="1" stop-color="#F1F4FE"/>
    </linearGradient>
    <linearGradient id="paint25_linear_1513_6800" x1="228" y1="240.5" x2="92.5253" y2="-26.7662" gradientUnits="userSpaceOnUse">
      <stop stop-color="#F1F4FE" stop-opacity="0"/>
      <stop offset="1" stop-color="#F1F4FE"/>
    </linearGradient>
    <linearGradient id="paint26_linear_1513_6800" x1="228" y1="240.5" x2="92.5253" y2="-26.7662" gradientUnits="userSpaceOnUse">
      <stop stop-color="#F1F4FE" stop-opacity="0"/>
      <stop offset="1" stop-color="#F1F4FE"/>
    </linearGradient>
    <linearGradient id="paint27_linear_1513_6800" x1="228" y1="240.5" x2="92.5253" y2="-26.7662" gradientUnits="userSpaceOnUse">
      <stop stop-color="#F1F4FE" stop-opacity="0"/>
      <stop offset="1" stop-color="#F1F4FE"/>
    </linearGradient>
    <linearGradient id="paint28_linear_1513_6800" x1="228" y1="240.5" x2="92.5253" y2="-26.7662" gradientUnits="userSpaceOnUse">
      <stop stop-color="#F1F4FE" stop-opacity="0"/>
      <stop offset="1" stop-color="#F1F4FE"/>
    </linearGradient>
    <linearGradient id="paint29_linear_1513_6800" x1="228" y1="240.5" x2="92.5253" y2="-26.7662" gradientUnits="userSpaceOnUse">
      <stop stop-color="#F1F4FE" stop-opacity="0"/>
      <stop offset="1" stop-color="#F1F4FE"/>
    </linearGradient>
    <linearGradient id="paint30_linear_1513_6800" x1="228" y1="240.5" x2="92.5253" y2="-26.7662" gradientUnits="userSpaceOnUse">
      <stop stop-color="#F1F4FE" stop-opacity="0"/>
      <stop offset="1" stop-color="#F1F4FE"/>
    </linearGradient>
    <linearGradient id="paint31_linear_1513_6800" x1="228" y1="240.5" x2="92.5253" y2="-26.7662" gradientUnits="userSpaceOnUse">
      <stop stop-color="#F1F4FE" stop-opacity="0"/>
      <stop offset="1" stop-color="#F1F4FE"/>
    </linearGradient>
    <linearGradient id="paint32_linear_1513_6800" x1="228" y1="240.5" x2="92.5253" y2="-26.7662" gradientUnits="userSpaceOnUse">
      <stop stop-color="#F1F4FE" stop-opacity="0"/>
      <stop offset="1" stop-color="#F1F4FE"/>
    </linearGradient>
    <linearGradient id="paint33_linear_1513_6800" x1="228" y1="240.5" x2="92.5253" y2="-26.7662" gradientUnits="userSpaceOnUse">
      <stop stop-color="#F1F4FE" stop-opacity="0"/>
      <stop offset="1" stop-color="#F1F4FE"/>
    </linearGradient>
    <linearGradient id="paint34_linear_1513_6800" x1="228" y1="240.5" x2="92.5253" y2="-26.7662" gradientUnits="userSpaceOnUse">
      <stop stop-color="#F1F4FE" stop-opacity="0"/>
      <stop offset="1" stop-color="#F1F4FE"/>
    </linearGradient>
    <linearGradient id="paint35_linear_1513_6800" x1="228" y1="240.5" x2="92.5253" y2="-26.7662" gradientUnits="userSpaceOnUse">
      <stop stop-color="#F1F4FE" stop-opacity="0"/>
      <stop offset="1" stop-color="#F1F4FE"/>
    </linearGradient>
    <linearGradient id="paint36_linear_1513_6800" x1="228" y1="240.5" x2="92.5253" y2="-26.7662" gradientUnits="userSpaceOnUse">
      <stop stop-color="#F1F4FE" stop-opacity="0"/>
      <stop offset="1" stop-color="#F1F4FE"/>
    </linearGradient>
    <linearGradient id="paint37_linear_1513_6800" x1="228" y1="240.5" x2="92.5253" y2="-26.7662" gradientUnits="userSpaceOnUse">
      <stop stop-color="#F1F4FE" stop-opacity="0"/>
      <stop offset="1" stop-color="#F1F4FE"/>
    </linearGradient>
    <linearGradient id="paint38_linear_1513_6800" x1="228" y1="240.5" x2="92.5253" y2="-26.7662" gradientUnits="userSpaceOnUse">
      <stop stop-color="#F1F4FE" stop-opacity="0"/>
      <stop offset="1" stop-color="#F1F4FE"/>
    </linearGradient>
    <linearGradient id="paint39_linear_1513_6800" x1="228" y1="240.5" x2="92.5253" y2="-26.7662" gradientUnits="userSpaceOnUse">
      <stop stop-color="#F1F4FE" stop-opacity="0"/>
      <stop offset="1" stop-color="#F1F4FE"/>
    </linearGradient>
    <linearGradient id="paint40_linear_1513_6800" x1="228" y1="240.5" x2="92.5253" y2="-26.7662" gradientUnits="userSpaceOnUse">
      <stop stop-color="#F1F4FE" stop-opacity="0"/>
      <stop offset="1" stop-color="#F1F4FE"/>
    </linearGradient>
    <linearGradient id="paint41_linear_1513_6800" x1="228" y1="240.5" x2="92.5253" y2="-26.7662" gradientUnits="userSpaceOnUse">
      <stop stop-color="#F1F4FE" stop-opacity="0"/>
      <stop offset="1" stop-color="#F1F4FE"/>
    </linearGradient>
    <linearGradient id="paint42_linear_1513_6800" x1="228" y1="240.5" x2="92.5253" y2="-26.7662" gradientUnits="userSpaceOnUse">
      <stop stop-color="#F1F4FE" stop-opacity="0"/>
      <stop offset="1" stop-color="#F1F4FE"/>
    </linearGradient>
    <linearGradient id="paint43_linear_1513_6800" x1="228" y1="240.5" x2="92.5253" y2="-26.7662" gradientUnits="userSpaceOnUse">
      <stop stop-color="#F1F4FE" stop-opacity="0"/>
      <stop offset="1" stop-color="#F1F4FE"/>
    </linearGradient>
    <linearGradient id="paint44_linear_1513_6800" x1="228" y1="240.5" x2="92.5253" y2="-26.7662" gradientUnits="userSpaceOnUse">
      <stop stop-color="#F1F4FE" stop-opacity="0"/>
      <stop offset="1" stop-color="#F1F4FE"/>
    </linearGradient>
    <linearGradient id="paint45_linear_1513_6800" x1="228" y1="240.5" x2="92.5253" y2="-26.7662" gradientUnits="userSpaceOnUse">
      <stop stop-color="#F1F4FE" stop-opacity="0"/>
      <stop offset="1" stop-color="#F1F4FE"/>
    </linearGradient>
    <linearGradient id="paint46_linear_1513_6800" x1="228" y1="240.5" x2="92.5253" y2="-26.7662" gradientUnits="userSpaceOnUse">
      <stop stop-color="#F1F4FE" stop-opacity="0"/>
      <stop offset="1" stop-color="#F1F4FE"/>
    </linearGradient>
    <linearGradient id="paint47_linear_1513_6800" x1="228" y1="240.5" x2="92.5253" y2="-26.7662" gradientUnits="userSpaceOnUse">
      <stop stop-color="#F1F4FE" stop-opacity="0"/>
      <stop offset="1" stop-color="#F1F4FE"/>
    </linearGradient>
    <linearGradient id="paint48_linear_1513_6800" x1="228" y1="240.5" x2="92.5253" y2="-26.7662" gradientUnits="userSpaceOnUse">
      <stop stop-color="#F1F4FE" stop-opacity="0"/>
      <stop offset="1" stop-color="#F1F4FE"/>
    </linearGradient>
    <linearGradient id="paint49_linear_1513_6800" x1="228" y1="240.5" x2="92.5253" y2="-26.7662" gradientUnits="userSpaceOnUse">
      <stop stop-color="#F1F4FE" stop-opacity="0"/>
      <stop offset="1" stop-color="#F1F4FE"/>
    </linearGradient>
    <linearGradient id="paint50_linear_1513_6800" x1="228" y1="240.5" x2="92.5253" y2="-26.7662" gradientUnits="userSpaceOnUse">
      <stop stop-color="#F1F4FE" stop-opacity="0"/>
      <stop offset="1" stop-color="#F1F4FE"/>
    </linearGradient>
    <linearGradient id="paint51_linear_1513_6800" x1="228" y1="240.5" x2="92.5253" y2="-26.7662" gradientUnits="userSpaceOnUse">
      <stop stop-color="#F1F4FE" stop-opacity="0"/>
      <stop offset="1" stop-color="#F1F4FE"/>
    </linearGradient>
    <linearGradient id="paint52_linear_1513_6800" x1="228" y1="240.5" x2="92.5253" y2="-26.7662" gradientUnits="userSpaceOnUse">
      <stop stop-color="#F1F4FE" stop-opacity="0"/>
      <stop offset="1" stop-color="#F1F4FE"/>
    </linearGradient>
    <linearGradient id="paint53_linear_1513_6800" x1="228" y1="240.5" x2="92.5253" y2="-26.7662" gradientUnits="userSpaceOnUse">
      <stop stop-color="#F1F4FE" stop-opacity="0"/>
      <stop offset="1" stop-color="#F1F4FE"/>
    </linearGradient>
    <linearGradient id="paint54_linear_1513_6800" x1="228" y1="240.5" x2="92.5253" y2="-26.7662" gradientUnits="userSpaceOnUse">
      <stop stop-color="#F1F4FE" stop-opacity="0"/>
      <stop offset="1" stop-color="#F1F4FE"/>
    </linearGradient>
    <linearGradient id="paint55_linear_1513_6800" x1="228" y1="240.5" x2="92.5253" y2="-26.7662" gradientUnits="userSpaceOnUse">
      <stop stop-color="#F1F4FE" stop-opacity="0"/>
      <stop offset="1" stop-color="#F1F4FE"/>
    </linearGradient>
    <linearGradient id="paint56_linear_1513_6800" x1="228" y1="240.5" x2="92.5253" y2="-26.7662" gradientUnits="userSpaceOnUse">
      <stop stop-color="#F1F4FE" stop-opacity="0"/>
      <stop offset="1" stop-color="#F1F4FE"/>
    </linearGradient>
    <linearGradient id="paint57_linear_1513_6800" x1="228" y1="240.5" x2="92.5253" y2="-26.7662" gradientUnits="userSpaceOnUse">
      <stop stop-color="#F1F4FE" stop-opacity="0"/>
      <stop offset="1" stop-color="#F1F4FE"/>
    </linearGradient>
    <linearGradient id="paint58_linear_1513_6800" x1="228" y1="240.5" x2="92.5253" y2="-26.7662" gradientUnits="userSpaceOnUse">
      <stop stop-color="#F1F4FE" stop-opacity="0"/>
      <stop offset="1" stop-color="#F1F4FE"/>
    </linearGradient>
    <linearGradient id="paint59_linear_1513_6800" x1="228" y1="240.5" x2="92.5253" y2="-26.7662" gradientUnits="userSpaceOnUse">
      <stop stop-color="#F1F4FE" stop-opacity="0"/>
      <stop offset="1" stop-color="#F1F4FE"/>
    </linearGradient>
    <linearGradient id="paint60_linear_1513_6800" x1="228" y1="240.5" x2="92.5253" y2="-26.7662" gradientUnits="userSpaceOnUse">
      <stop stop-color="#F1F4FE" stop-opacity="0"/>
      <stop offset="1" stop-color="#F1F4FE"/>
    </linearGradient>
    <linearGradient id="paint61_linear_1513_6800" x1="228" y1="240.5" x2="92.5253" y2="-26.7662" gradientUnits="userSpaceOnUse">
      <stop stop-color="#F1F4FE" stop-opacity="0"/>
      <stop offset="1" stop-color="#F1F4FE"/>
    </linearGradient>
    <linearGradient id="paint62_linear_1513_6800" x1="228" y1="240.5" x2="92.5253" y2="-26.7662" gradientUnits="userSpaceOnUse">
      <stop stop-color="#F1F4FE" stop-opacity="0"/>
      <stop offset="1" stop-color="#F1F4FE"/>
    </linearGradient>
    <linearGradient id="paint63_linear_1513_6800" x1="228" y1="240.5" x2="92.5253" y2="-26.7662" gradientUnits="userSpaceOnUse">
      <stop stop-color="#F1F4FE" stop-opacity="0"/>
      <stop offset="1" stop-color="#F1F4FE"/>
    </linearGradient>
    <linearGradient id="paint64_linear_1513_6800" x1="228" y1="240.5" x2="92.5253" y2="-26.7662" gradientUnits="userSpaceOnUse">
      <stop stop-color="#F1F4FE" stop-opacity="0"/>
      <stop offset="1" stop-color="#F1F4FE"/>
    </linearGradient>
    <linearGradient id="paint65_linear_1513_6800" x1="228" y1="240.5" x2="92.5253" y2="-26.7662" gradientUnits="userSpaceOnUse">
      <stop stop-color="#F1F4FE" stop-opacity="0"/>
      <stop offset="1" stop-color="#F1F4FE"/>
    </linearGradient>
    <linearGradient id="paint66_linear_1513_6800" x1="228" y1="240.5" x2="92.5253" y2="-26.7662" gradientUnits="userSpaceOnUse">
      <stop stop-color="#F1F4FE" stop-opacity="0"/>
      <stop offset="1" stop-color="#F1F4FE"/>
    </linearGradient>
    <linearGradient id="paint67_linear_1513_6800" x1="228" y1="240.5" x2="92.5253" y2="-26.7662" gradientUnits="userSpaceOnUse">
      <stop stop-color="#F1F4FE" stop-opacity="0"/>
      <stop offset="1" stop-color="#F1F4FE"/>
    </linearGradient>
    <linearGradient id="paint68_linear_1513_6800" x1="228" y1="240.5" x2="92.5253" y2="-26.7662" gradientUnits="userSpaceOnUse">
      <stop stop-color="#F1F4FE" stop-opacity="0"/>
      <stop offset="1" stop-color="#F1F4FE"/>
    </linearGradient>
    <linearGradient id="paint69_linear_1513_6800" x1="228" y1="240.5" x2="92.5253" y2="-26.7662" gradientUnits="userSpaceOnUse">
      <stop stop-color="#F1F4FE" stop-opacity="0"/>
      <stop offset="1" stop-color="#F1F4FE"/>
    </linearGradient>
    <linearGradient id="paint70_linear_1513_6800" x1="228" y1="240.5" x2="92.5253" y2="-26.7662" gradientUnits="userSpaceOnUse">
      <stop stop-color="#F1F4FE" stop-opacity="0"/>
      <stop offset="1" stop-color="#F1F4FE"/>
    </linearGradient>
    <linearGradient id="paint71_linear_1513_6800" x1="228" y1="240.5" x2="92.5253" y2="-26.7662" gradientUnits="userSpaceOnUse">
      <stop stop-color="#F1F4FE" stop-opacity="0"/>
      <stop offset="1" stop-color="#F1F4FE"/>
    </linearGradient>
    <linearGradient id="paint72_linear_1513_6800" x1="228" y1="240.5" x2="92.5253" y2="-26.7662" gradientUnits="userSpaceOnUse">
      <stop stop-color="#F1F4FE" stop-opacity="0"/>
      <stop offset="1" stop-color="#F1F4FE"/>
    </linearGradient>
    <linearGradient id="paint73_linear_1513_6800" x1="228" y1="240.5" x2="92.5253" y2="-26.7662" gradientUnits="userSpaceOnUse">
      <stop stop-color="#F1F4FE" stop-opacity="0"/>
      <stop offset="1" stop-color="#F1F4FE"/>
    </linearGradient>
    <linearGradient id="paint74_linear_1513_6800" x1="228" y1="240.5" x2="92.5253" y2="-26.7662" gradientUnits="userSpaceOnUse">
      <stop stop-color="#F1F4FE" stop-opacity="0"/>
      <stop offset="1" stop-color="#F1F4FE"/>
    </linearGradient>
    <linearGradient id="paint75_linear_1513_6800" x1="228" y1="240.5" x2="92.5253" y2="-26.7662" gradientUnits="userSpaceOnUse">
      <stop stop-color="#F1F4FE" stop-opacity="0"/>
      <stop offset="1" stop-color="#F1F4FE"/>
    </linearGradient>
    <linearGradient id="paint76_linear_1513_6800" x1="228" y1="240.5" x2="92.5253" y2="-26.7662" gradientUnits="userSpaceOnUse">
      <stop stop-color="#F1F4FE" stop-opacity="0"/>
      <stop offset="1" stop-color="#F1F4FE"/>
    </linearGradient>
    <linearGradient id="paint77_linear_1513_6800" x1="228" y1="240.5" x2="92.5253" y2="-26.7662" gradientUnits="userSpaceOnUse">
      <stop stop-color="#F1F4FE" stop-opacity="0"/>
      <stop offset="1" stop-color="#F1F4FE"/>
    </linearGradient>
    <linearGradient id="paint78_linear_1513_6800" x1="228" y1="240.5" x2="92.5253" y2="-26.7662" gradientUnits="userSpaceOnUse">
      <stop stop-color="#F1F4FE" stop-opacity="0"/>
      <stop offset="1" stop-color="#F1F4FE"/>
    </linearGradient>
    <linearGradient id="paint79_linear_1513_6800" x1="228" y1="240.5" x2="92.5253" y2="-26.7662" gradientUnits="userSpaceOnUse">
      <stop stop-color="#F1F4FE" stop-opacity="0"/>
      <stop offset="1" stop-color="#F1F4FE"/>
    </linearGradient>
    <linearGradient id="paint80_linear_1513_6800" x1="228" y1="240.5" x2="92.5253" y2="-26.7662" gradientUnits="userSpaceOnUse">
      <stop stop-color="#F1F4FE" stop-opacity="0"/>
      <stop offset="1" stop-color="#F1F4FE"/>
    </linearGradient>
    <linearGradient id="paint81_linear_1513_6800" x1="228" y1="240.5" x2="92.5253" y2="-26.7662" gradientUnits="userSpaceOnUse">
      <stop stop-color="#F1F4FE" stop-opacity="0"/>
      <stop offset="1" stop-color="#F1F4FE"/>
    </linearGradient>
    <linearGradient id="paint82_linear_1513_6800" x1="228" y1="240.5" x2="92.5253" y2="-26.7662" gradientUnits="userSpaceOnUse">
      <stop stop-color="#F1F4FE" stop-opacity="0"/>
      <stop offset="1" stop-color="#F1F4FE"/>
    </linearGradient>
    <linearGradient id="paint83_linear_1513_6800" x1="228" y1="240.5" x2="92.5253" y2="-26.7662" gradientUnits="userSpaceOnUse">
      <stop stop-color="#F1F4FE" stop-opacity="0"/>
      <stop offset="1" stop-color="#F1F4FE"/>
    </linearGradient>
    <linearGradient id="paint84_linear_1513_6800" x1="228" y1="240.5" x2="92.5253" y2="-26.7662" gradientUnits="userSpaceOnUse">
      <stop stop-color="#F1F4FE" stop-opacity="0"/>
      <stop offset="1" stop-color="#F1F4FE"/>
    </linearGradient>
    <linearGradient id="paint85_linear_1513_6800" x1="228" y1="240.5" x2="92.5253" y2="-26.7662" gradientUnits="userSpaceOnUse">
      <stop stop-color="#F1F4FE" stop-opacity="0"/>
      <stop offset="1" stop-color="#F1F4FE"/>
    </linearGradient>
    <linearGradient id="paint86_linear_1513_6800" x1="228" y1="240.5" x2="92.5253" y2="-26.7662" gradientUnits="userSpaceOnUse">
      <stop stop-color="#F1F4FE" stop-opacity="0"/>
      <stop offset="1" stop-color="#F1F4FE"/>
    </linearGradient>
    <linearGradient id="paint87_linear_1513_6800" x1="228" y1="240.5" x2="92.5253" y2="-26.7662" gradientUnits="userSpaceOnUse">
      <stop stop-color="#F1F4FE" stop-opacity="0"/>
      <stop offset="1" stop-color="#F1F4FE"/>
    </linearGradient>
    <linearGradient id="paint88_linear_1513_6800" x1="228" y1="240.5" x2="92.5253" y2="-26.7662" gradientUnits="userSpaceOnUse">
      <stop stop-color="#F1F4FE" stop-opacity="0"/>
      <stop offset="1" stop-color="#F1F4FE"/>
    </linearGradient>
    <linearGradient id="paint89_linear_1513_6800" x1="228" y1="240.5" x2="92.5253" y2="-26.7662" gradientUnits="userSpaceOnUse">
      <stop stop-color="#F1F4FE" stop-opacity="0"/>
      <stop offset="1" stop-color="#F1F4FE"/>
    </linearGradient>
    <linearGradient id="paint90_linear_1513_6800" x1="228" y1="240.5" x2="92.5253" y2="-26.7662" gradientUnits="userSpaceOnUse">
      <stop stop-color="#F1F4FE" stop-opacity="0"/>
      <stop offset="1" stop-color="#F1F4FE"/>
    </linearGradient>
    <linearGradient id="paint91_linear_1513_6800" x1="228" y1="240.5" x2="92.5253" y2="-26.7662" gradientUnits="userSpaceOnUse">
      <stop stop-color="#F1F4FE" stop-opacity="0"/>
      <stop offset="1" stop-color="#F1F4FE"/>
    </linearGradient>
    <linearGradient id="paint92_linear_1513_6800" x1="228" y1="240.5" x2="92.5253" y2="-26.7662" gradientUnits="userSpaceOnUse">
      <stop stop-color="#F1F4FE" stop-opacity="0"/>
      <stop offset="1" stop-color="#F1F4FE"/>
    </linearGradient>
    <linearGradient id="paint93_linear_1513_6800" x1="228" y1="240.5" x2="92.5253" y2="-26.7662" gradientUnits="userSpaceOnUse">
      <stop stop-color="#F1F4FE" stop-opacity="0"/>
      <stop offset="1" stop-color="#F1F4FE"/>
    </linearGradient>
    <linearGradient id="paint94_linear_1513_6800" x1="228" y1="240.5" x2="92.5253" y2="-26.7662" gradientUnits="userSpaceOnUse">
      <stop stop-color="#F1F4FE" stop-opacity="0"/>
      <stop offset="1" stop-color="#F1F4FE"/>
    </linearGradient>
    <linearGradient id="paint95_linear_1513_6800" x1="228" y1="240.5" x2="92.5253" y2="-26.7662" gradientUnits="userSpaceOnUse">
      <stop stop-color="#F1F4FE" stop-opacity="0"/>
      <stop offset="1" stop-color="#F1F4FE"/>
    </linearGradient>
    <linearGradient id="paint96_linear_1513_6800" x1="228" y1="240.5" x2="92.5253" y2="-26.7662" gradientUnits="userSpaceOnUse">
      <stop stop-color="#F1F4FE" stop-opacity="0"/>
      <stop offset="1" stop-color="#F1F4FE"/>
    </linearGradient>
    <linearGradient id="paint97_linear_1513_6800" x1="228" y1="240.5" x2="92.5253" y2="-26.7662" gradientUnits="userSpaceOnUse">
      <stop stop-color="#F1F4FE" stop-opacity="0"/>
      <stop offset="1" stop-color="#F1F4FE"/>
    </linearGradient>
    <linearGradient id="paint98_linear_1513_6800" x1="228" y1="240.5" x2="92.5253" y2="-26.7662" gradientUnits="userSpaceOnUse">
      <stop stop-color="#F1F4FE" stop-opacity="0"/>
      <stop offset="1" stop-color="#F1F4FE"/>
    </linearGradient>
    <linearGradient id="paint99_linear_1513_6800" x1="228" y1="240.5" x2="92.5253" y2="-26.7662" gradientUnits="userSpaceOnUse">
      <stop stop-color="#F1F4FE" stop-opacity="0"/>
      <stop offset="1" stop-color="#F1F4FE"/>
    </linearGradient>
  </defs>
</svg>
