<svg width="24" height="24" viewBox="0 0 24 24" fill="none" xmlns="http://www.w3.org/2000/svg">
<path d="M11.1696 4.1829C11.3531 3.72731 11.7975 3.42857 12.2917 3.42857H20.0474C20.9024 3.42857 21.487 4.286 21.1695 5.07424L15.2303 19.8171C15.0468 20.2727 14.6024 20.5714 14.1082 20.5714H6.35256C5.49756 20.5714 4.91291 19.714 5.23045 18.9258L11.1696 4.1829Z" fill="url(#paint0_linear_2001_510)"/>
<path d="M7.88566 13.7143C10.726 13.7143 13.0285 11.4118 13.0285 8.57143C13.0285 5.73111 10.726 3.42857 7.88566 3.42857C5.04533 3.42857 2.7428 5.73111 2.7428 8.57143C2.7428 11.4118 5.04533 13.7143 7.88566 13.7143Z" fill="#0A33FF"/>
<path d="M13.0286 8.57143C13.0286 11.4118 10.7261 13.7143 7.88576 13.7143C7.7019 13.7143 7.5203 13.7046 7.34143 13.6858L11.0387 4.5081C12.2495 5.44901 13.0286 6.91924 13.0286 8.57143Z" fill="url(#paint1_linear_2001_510)"/>
<defs>
<linearGradient id="paint0_linear_2001_510" x1="16.3947" y1="3.42857" x2="10.3341" y2="20.5923" gradientUnits="userSpaceOnUse">
<stop stop-color="#FFD60A"/>
<stop offset="1" stop-color="#F0BA09"/>
</linearGradient>
<linearGradient id="paint1_linear_2001_510" x1="11.0012" y1="4.51444" x2="7.32809" y2="13.6694" gradientUnits="userSpaceOnUse">
<stop stop-color="#051A80"/>
<stop offset="1" stop-color="#0A33FF"/>
</linearGradient>
</defs>
</svg>
