<svg width="84" height="24" viewBox="0 0 84 24" fill="none" xmlns="http://www.w3.org/2000/svg">
<path fill-rule="evenodd" clip-rule="evenodd" d="M20.5714 0C21.5182 0 22.2857 0.767512 22.2857 1.71429V10.2857C22.2857 11.2325 23.0532 12 24 12H29.1429C30.0896 12 30.8572 11.2325 30.8572 10.2857V8.57143C30.8572 7.62466 31.6247 6.85714 32.5714 6.85714C33.5182 6.85714 34.2857 7.62466 34.2857 8.57143V10.2857C34.2857 13.126 31.9832 15.4286 29.1429 15.4286H24C21.1597 15.4286 18.8572 13.126 18.8572 10.2857V1.71429C18.8572 0.767512 19.6247 0 20.5714 0Z" fill="#2E2E38"/>
<path fill-rule="evenodd" clip-rule="evenodd" d="M24 18.8571C24 17.9104 24.7675 17.1429 25.7143 17.1429H30.8572C31.8039 17.1429 32.5714 17.9104 32.5714 18.8571V20.5714C32.5714 21.5182 31.8039 22.2857 30.8572 22.2857C29.9104 22.2857 29.1429 21.5182 29.1429 20.5714H25.7143C24.7675 20.5714 24 19.8039 24 18.8571Z" fill="#2E2E38"/>
<path fill-rule="evenodd" clip-rule="evenodd" d="M15.4286 0C16.3754 0 17.1429 0.767512 17.1429 1.71429V13.6898C17.1429 17.4769 14.0721 20.5714 10.285 20.5714C6.49792 20.5714 3.42859 17.4769 3.42859 13.6898V10.2613C3.42859 9.3145 4.1961 8.54699 5.14287 8.54699C6.08965 8.54699 6.85716 9.3145 6.85716 10.2613V13.6898C6.85716 15.5834 8.39147 17.1428 10.285 17.1428C12.1786 17.1428 13.7143 15.5834 13.7143 13.6898V1.71429C13.7143 0.767512 14.4818 0 15.4286 0Z" fill="#2E2E38"/>
<path fill-rule="evenodd" clip-rule="evenodd" d="M69.7445 16.6295C70.032 16.2873 70.2857 15.6878 70.2857 14.7857V8.57143C70.2857 7.62465 71.0532 6.85714 72 6.85714C72.9468 6.85714 73.7143 7.62465 73.7143 8.57143V14.7857C73.7143 16.3122 73.2823 17.7484 72.3698 18.8348C71.4353 19.9472 70.0927 20.5714 68.5714 20.5714C67.6247 20.5714 66.8572 19.8039 66.8572 18.8571C66.8572 17.9104 67.6247 17.1429 68.5714 17.1429C69.1074 17.1429 69.479 16.9456 69.7445 16.6295Z" fill="#2E2E38"/>
<path fill-rule="evenodd" clip-rule="evenodd" d="M76.6017 16.6295C76.8891 16.2873 77.1429 15.6878 77.1429 14.7857V8.57143C77.1429 7.62465 77.9104 6.85714 78.8572 6.85714C79.8039 6.85714 80.5714 7.62465 80.5714 8.57143V14.7857C80.5714 16.3122 80.1395 17.7484 79.2269 18.8348C78.2925 19.9472 76.9498 20.5714 75.4286 20.5714C74.4818 20.5714 73.7143 19.8039 73.7143 18.8571C73.7143 17.9104 74.4818 17.1429 75.4286 17.1429C75.9645 17.1429 76.3361 16.9456 76.6017 16.6295Z" fill="#2E2E38"/>
<path fill-rule="evenodd" clip-rule="evenodd" d="M78.8573 5.14286C79.8024 5.14286 80.5714 4.37378 80.5714 3.42848C80.5714 2.48317 79.8024 1.71429 78.8573 1.71429C77.9118 1.71429 77.1429 2.48317 77.1429 3.42848C77.1429 4.37378 77.9118 5.14286 78.8573 5.14286Z" fill="#2E2E38"/>
<path fill-rule="evenodd" clip-rule="evenodd" d="M56.5714 18.8571C56.5714 17.9104 57.339 17.1429 58.2857 17.1429H63.4286C64.3754 17.1429 65.1429 17.9104 65.1429 18.8571C65.1429 19.8039 64.3754 20.5714 63.4286 20.5714H58.2857C57.339 20.5714 56.5714 19.8039 56.5714 18.8571Z" fill="#2E2E38"/>
<path fill-rule="evenodd" clip-rule="evenodd" d="M48 6.85714C48.9468 6.85714 49.7143 7.62465 49.7143 8.57143V10.4571C49.7143 11.2904 50.3642 12 51.4286 12H61.7143C62.7787 12 63.4286 11.2904 63.4286 10.4571V8.57143C63.4286 7.62465 64.1961 6.85714 65.1429 6.85714C66.0896 6.85714 66.8572 7.62465 66.8572 8.57143V10.4571C66.8572 13.411 64.437 15.4286 61.7143 15.4286H51.4286C48.7059 15.4286 46.2857 13.411 46.2857 10.4571V8.57143C46.2857 7.62465 47.0532 6.85714 48 6.85714Z" fill="#2E2E38"/>
<path fill-rule="evenodd" clip-rule="evenodd" d="M42.8573 5.14286C43.8024 5.14286 44.5714 4.37378 44.5714 3.42848C44.5714 2.48317 43.8024 1.71429 42.8573 1.71429C41.9118 1.71429 41.1429 2.48317 41.1429 3.42848C41.1429 4.37378 41.9118 5.14286 42.8573 5.14286Z" fill="#2E2E38"/>
<path fill-rule="evenodd" clip-rule="evenodd" d="M37.7143 6.85714C38.6611 6.85714 39.4286 7.62465 39.4286 8.57143V13.7143C39.4286 15.6078 40.9636 17.1429 42.8572 17.1429C44.7507 17.1429 46.2857 15.6078 46.2857 13.7143V8.57143C46.2857 7.62465 47.0532 6.85714 48 6.85714C48.9468 6.85714 49.7143 7.62465 49.7143 8.57143V13.7143C49.7143 17.5014 46.6443 20.5714 42.8572 20.5714C39.0701 20.5714 36 17.5014 36 13.7143V8.57143C36 7.62465 36.7675 6.85714 37.7143 6.85714Z" fill="#2E2E38"/>
</svg>
