<svg width="24" height="24" viewBox="0 0 24 24" fill="none" xmlns="http://www.w3.org/2000/svg">
<path d="M10.3365 3.15625C8.29509 3.53898 6.44919 4.61683 5.11255 6.20658" stroke="#0A33FF" stroke-width="1.5" stroke-linecap="round" stroke-linejoin="round"/>
<path d="M3.48982 9.08105C2.8156 11.0177 2.83286 13.128 3.53865 15.0533" stroke="#0A33FF" stroke-width="1.5" stroke-linecap="round" stroke-linejoin="round"/>
<path d="M5.20898 17.8994C6.53696 19.4314 8.34413 20.4691 10.3366 20.8437" stroke="#0A33FF" stroke-width="1.5" stroke-linecap="round" stroke-linejoin="round"/>
<path d="M13.6372 3.15234C17.9055 3.93863 21.0041 7.66008 21.0041 12.0002C21.0041 16.3404 17.9055 20.0618 13.6372 20.8481" stroke="#0A33FF" stroke-width="1.5" stroke-linecap="round" stroke-linejoin="round"/>
<path fill-rule="evenodd" clip-rule="evenodd" d="M10.9406 9.05662L14.8242 11.3536C15.0525 11.4886 15.1926 11.7341 15.1926 11.9993C15.1926 12.2646 15.0525 12.5101 14.8242 12.6451L10.9406 14.9421C10.7085 15.0793 10.4207 15.0815 10.1866 14.9479C9.95251 14.8143 9.80802 14.5654 9.80811 14.2958V9.70289C9.80802 9.43333 9.95251 9.18443 10.1866 9.05082C10.4207 8.91721 10.7085 8.91943 10.9406 9.05662V9.05662Z" stroke="#0A33FF" stroke-width="1.5" stroke-linecap="round" stroke-linejoin="round"/>
</svg>
