<svg width="24" height="24" viewBox="0 0 24 24" fill="none" xmlns="http://www.w3.org/2000/svg">
<path d="M16.6739 16.9996L16.3899 16.2866C16.2459 15.9256 16.0229 15.6006 15.7379 15.3366V15.3366C15.2549 14.8886 14.6199 14.6406 13.9619 14.6406H10.0379C9.37893 14.6406 8.74493 14.8896 8.26193 15.3366V15.3366C7.97693 15.6006 7.75393 15.9256 7.60993 16.2866L7.32593 16.9996" stroke="#0A33FF" stroke-width="1.5" stroke-linecap="round" stroke-linejoin="round"/>
<path d="M13.9445 7.80546C15.0185 8.8794 15.0185 10.6206 13.9445 11.6945C12.8706 12.7685 11.1294 12.7685 10.0555 11.6945C8.98151 10.6206 8.98151 8.8794 10.0555 7.80546C11.1294 6.73151 12.8706 6.73151 13.9445 7.80546" stroke="#0A33FF" stroke-width="1.5" stroke-linecap="round" stroke-linejoin="round"/>
<path d="M7.588 3H5C3.895 3 3 3.895 3 5V7.588" stroke="#0A33FF" stroke-width="1.5" stroke-linecap="round" stroke-linejoin="round"/>
<path d="M16.4121 21.0001H19.0001C20.1051 21.0001 21.0001 20.1051 21.0001 19.0001V16.4121" stroke="#0A33FF" stroke-width="1.5" stroke-linecap="round" stroke-linejoin="round"/>
<path d="M3 16.4121V19.0001C3 20.1051 3.895 21.0001 5 21.0001H7.588" stroke="#0A33FF" stroke-width="1.5" stroke-linecap="round" stroke-linejoin="round"/>
<path d="M21.0001 7.588V5C21.0001 3.895 20.1051 3 19.0001 3H16.4121" stroke="#0A33FF" stroke-width="1.5" stroke-linecap="round" stroke-linejoin="round"/>
</svg>
