<svg width="12" height="12" viewBox="0 0 12 12" fill="none" xmlns="http://www.w3.org/2000/svg">
<g clip-path="url(#clip0_4915_2166)">
<path d="M6.66667 0V1.33333H9.72667L3.17333 7.88667L4.11333 8.82667L10.6667 2.27333V5.33333H12V0M10.6667 10.1667C10.6667 10.4428 10.4428 10.6667 10.1667 10.6667H1.83333C1.55719 10.6667 1.33333 10.4428 1.33333 10.1667V1.83333C1.33333 1.55719 1.55719 1.33333 1.83333 1.33333H4V0H1.33333C0.979711 0 0.640573 0.140476 0.390524 0.390524C0.140476 0.640573 0 0.979711 0 1.33333V10.6667C0 11.0203 0.140476 11.3594 0.390524 11.6095C0.640573 11.8595 0.979711 12 1.33333 12H10.6667C11.0203 12 11.3594 11.8595 11.6095 11.6095C11.8595 11.3594 12 11.0203 12 10.6667V8H10.6667V10.1667Z" fill="white"/>
</g>
<defs>
<clipPath id="clip0_4915_2166">
<rect width="12" height="12" fill="white"/>
</clipPath>
</defs>
</svg>
