<svg width="84" height="24" viewBox="0 0 84 24" fill="none" xmlns="http://www.w3.org/2000/svg">
<path fill-rule="evenodd" clip-rule="evenodd" d="M20.5713 0C21.5181 0 22.2856 0.767512 22.2856 1.71429V10.2857C22.2856 11.2325 23.0531 12 23.9999 12H29.1428C30.0895 12 30.857 11.2325 30.857 10.2857V8.57143C30.857 7.62466 31.6245 6.85714 32.5713 6.85714C33.5181 6.85714 34.2856 7.62466 34.2856 8.57143V10.2857C34.2856 13.126 31.9831 15.4286 29.1428 15.4286H23.9999C21.1596 15.4286 18.857 13.126 18.857 10.2857V1.71429C18.857 0.767512 19.6245 0 20.5713 0Z" fill="#2E2E38"/>
<path fill-rule="evenodd" clip-rule="evenodd" d="M23.9999 18.8571C23.9999 17.9104 24.7674 17.1429 25.7142 17.1429H30.857C31.8038 17.1429 32.5713 17.9104 32.5713 18.8571V20.5714C32.5713 21.5182 31.8038 22.2857 30.857 22.2857C29.9103 22.2857 29.1428 21.5182 29.1428 20.5714H25.7142C24.7674 20.5714 23.9999 19.8039 23.9999 18.8571Z" fill="#2E2E38"/>
<path fill-rule="evenodd" clip-rule="evenodd" d="M15.4285 0C16.3752 0 17.1428 0.767512 17.1428 1.71429V13.6898C17.1428 17.4769 14.072 20.5714 10.2849 20.5714C6.4978 20.5714 3.42847 17.4769 3.42847 13.6898V10.2613C3.42847 9.3145 4.19598 8.54699 5.14275 8.54699C6.08953 8.54699 6.85704 9.3145 6.85704 10.2613V13.6898C6.85704 15.5834 8.39135 17.1428 10.2849 17.1428C12.1784 17.1428 13.7142 15.5834 13.7142 13.6898V1.71429C13.7142 0.767512 14.4817 0 15.4285 0Z" fill="#2E2E38"/>
<path fill-rule="evenodd" clip-rule="evenodd" d="M69.7444 16.6295C70.0319 16.2873 70.2856 15.6878 70.2856 14.7857V8.57143C70.2856 7.62465 71.0531 6.85714 71.9999 6.85714C72.9467 6.85714 73.7142 7.62465 73.7142 8.57143V14.7857C73.7142 16.3122 73.2822 17.7484 72.3697 18.8348C71.4352 19.9472 70.0926 20.5714 68.5713 20.5714C67.6245 20.5714 66.857 19.8039 66.857 18.8571C66.857 17.9104 67.6245 17.1429 68.5713 17.1429C69.1072 17.1429 69.4789 16.9456 69.7444 16.6295Z" fill="#2E2E38"/>
<path fill-rule="evenodd" clip-rule="evenodd" d="M76.6015 16.6295C76.889 16.2873 77.1428 15.6878 77.1428 14.7857V8.57143C77.1428 7.62465 77.9103 6.85714 78.857 6.85714C79.8038 6.85714 80.5713 7.62465 80.5713 8.57143V14.7857C80.5713 16.3122 80.1394 17.7484 79.2268 18.8348C78.2924 19.9472 76.9497 20.5714 75.4285 20.5714C74.4817 20.5714 73.7142 19.8039 73.7142 18.8571C73.7142 17.9104 74.4817 17.1429 75.4285 17.1429C75.9644 17.1429 76.336 16.9456 76.6015 16.6295Z" fill="#2E2E38"/>
<path fill-rule="evenodd" clip-rule="evenodd" d="M78.8571 5.14286C79.8023 5.14286 80.5713 4.37378 80.5713 3.42848C80.5713 2.48317 79.8023 1.71429 78.8571 1.71429C77.9116 1.71429 77.1428 2.48317 77.1428 3.42848C77.1428 4.37378 77.9116 5.14286 78.8571 5.14286Z" fill="#2E2E38"/>
<path fill-rule="evenodd" clip-rule="evenodd" d="M56.5713 18.8571C56.5713 17.9104 57.3388 17.1429 58.2856 17.1429H63.4285C64.3752 17.1429 65.1428 17.9104 65.1428 18.8571C65.1428 19.8039 64.3752 20.5714 63.4285 20.5714H58.2856C57.3388 20.5714 56.5713 19.8039 56.5713 18.8571Z" fill="#2E2E38"/>
<path fill-rule="evenodd" clip-rule="evenodd" d="M47.9999 6.85714C48.9467 6.85714 49.7142 7.62465 49.7142 8.57143V10.4571C49.7142 11.2904 50.3641 12 51.4285 12H61.7142C62.7786 12 63.4285 11.2904 63.4285 10.4571V8.57143C63.4285 7.62465 64.196 6.85714 65.1428 6.85714C66.0895 6.85714 66.857 7.62465 66.857 8.57143V10.4571C66.857 13.411 64.4369 15.4286 61.7142 15.4286H51.4285C48.7058 15.4286 46.2856 13.411 46.2856 10.4571V8.57143C46.2856 7.62465 47.0531 6.85714 47.9999 6.85714Z" fill="#2E2E38"/>
<path fill-rule="evenodd" clip-rule="evenodd" d="M42.8571 5.14286C43.8022 5.14286 44.5713 4.37378 44.5713 3.42848C44.5713 2.48317 43.8022 1.71429 42.8571 1.71429C41.9116 1.71429 41.1428 2.48317 41.1428 3.42848C41.1428 4.37378 41.9116 5.14286 42.8571 5.14286Z" fill="#2E2E38"/>
<path fill-rule="evenodd" clip-rule="evenodd" d="M37.7142 6.85714C38.661 6.85714 39.4285 7.62465 39.4285 8.57143V13.7143C39.4285 15.6078 40.9635 17.1429 42.857 17.1429C44.7506 17.1429 46.2856 15.6078 46.2856 13.7143V8.57143C46.2856 7.62465 47.0531 6.85714 47.9999 6.85714C48.9467 6.85714 49.7142 7.62465 49.7142 8.57143V13.7143C49.7142 17.5014 46.6441 20.5714 42.857 20.5714C39.0699 20.5714 35.9999 17.5014 35.9999 13.7143V8.57143C35.9999 7.62465 36.7674 6.85714 37.7142 6.85714Z" fill="#2E2E38"/>
</svg>
