<svg width="20" height="20" viewBox="0 0 20 20" fill="none" xmlns="http://www.w3.org/2000/svg">
<path fill-rule="evenodd" clip-rule="evenodd" d="M13.3349 17.5031H6.66547C4.36368 17.5031 2.49707 15.6365 2.49707 13.3347V6.66529C2.49707 4.3635 4.36368 2.49689 6.66547 2.49689H13.3349C15.6367 2.49689 17.5033 4.3635 17.5033 6.66529V13.3347C17.5033 15.6365 15.6367 17.5031 13.3349 17.5031Z" stroke="#0A33FF" stroke-width="1.25" stroke-linecap="round" stroke-linejoin="round"/>
<path d="M9.99951 6.66527C9.88446 6.66527 9.79109 6.75864 9.79192 6.87369C9.79192 6.98874 9.88529 7.08211 10.0003 7.08211C10.1154 7.08211 10.2088 6.98874 10.2088 6.87369C10.2088 6.75864 10.1154 6.66527 9.99951 6.66527" stroke="#0A33FF" stroke-width="1.25" stroke-linecap="round" stroke-linejoin="round"/>
<path d="M10.2087 13.4881V9.52814H9.375" stroke="#0A33FF" stroke-width="1.25" stroke-linecap="round" stroke-linejoin="round"/>
</svg>
