<svg width="40" height="40" viewBox="0 0 40 40" fill="none" xmlns="http://www.w3.org/2000/svg">
<path d="M27.6789 7.74818L25.7205 12.8497L25.709 12.8794H20.7862C20.4834 12.8794 20.1877 12.9713 19.9381 13.1428C19.6886 13.3143 19.4969 13.5575 19.3884 13.8402L14.2906 27.1205H10.6692C9.61896 27.1205 8.89502 26.0672 9.2714 25.0867L12.8232 15.834C12.8491 15.7664 12.8582 15.6936 12.8497 15.6217C12.8412 15.5499 12.8153 15.4812 12.7744 15.4215C12.7334 15.3619 12.6785 15.3132 12.6145 15.2795C12.5504 15.2458 12.4792 15.2282 12.4068 15.2282H8.14282C7.09243 15.2282 6.36848 14.1748 6.74488 13.1943L9.24748 6.67505C9.35598 6.39234 9.54766 6.14917 9.79721 5.97765C10.0468 5.80612 10.3425 5.7143 10.6453 5.71429H26.2809C27.3313 5.71429 28.0552 6.76766 27.6789 7.74818Z" fill="url(#paint0_linear_896_11623)"/>
<path d="M25.709 12.8795L20.6112 26.1598C20.5027 26.4425 20.311 26.6857 20.0614 26.8572C19.8119 27.0287 19.5162 27.1206 19.2134 27.1206H14.2905L19.3883 13.8402C19.4968 13.5575 19.6885 13.3143 19.9381 13.1428C20.1876 12.9713 20.4833 12.8795 20.7861 12.8795H25.709Z" fill="url(#paint1_linear_896_11623)"/>
<path d="M33.255 26.8057L30.7524 33.325C30.6439 33.6077 30.4522 33.8508 30.2027 34.0224C29.9531 34.1939 29.6574 34.2857 29.3546 34.2857H13.719C12.6686 34.2857 11.9447 33.2323 12.3211 32.2518L14.2794 27.1503L14.2909 27.1206H19.2137C19.5165 27.1206 19.8122 27.0287 20.0618 26.8572C20.3113 26.6857 20.503 26.4425 20.6115 26.1598L25.7093 12.8795H29.3307C30.3809 12.8795 31.1049 13.9328 30.7285 14.9133L27.1767 24.1661C27.1508 24.2336 27.1417 24.3064 27.1502 24.3783C27.1587 24.4501 27.1846 24.5188 27.2255 24.5785C27.2665 24.6381 27.3214 24.6868 27.3854 24.7205C27.4495 24.7542 27.5207 24.7718 27.5931 24.7718H31.8571C32.9075 24.7718 33.6314 25.8252 33.255 26.8057Z" fill="#5A32FF"/>
<defs>
<linearGradient id="paint0_linear_896_11623" x1="17.2119" y1="6.40485" x2="17.2119" y2="26.7765" gradientUnits="userSpaceOnUse">
<stop stop-color="#FFD60A"/>
<stop offset="1" stop-color="#F0BA09"/>
</linearGradient>
<linearGradient id="paint1_linear_896_11623" x1="18.4738" y1="8.74945" x2="25.9769" y2="52.9802" gradientUnits="userSpaceOnUse">
<stop stop-color="#5A32FF"/>
<stop offset="1" stop-color="#35158B"/>
</linearGradient>
</defs>
</svg>
