<svg width="40" height="40" viewBox="0 0 40 40" fill="none" xmlns="http://www.w3.org/2000/svg">
<path d="M27.4545 5.71429C28.0864 5.71429 28.6017 6.2269 28.5701 6.85805C28.4393 9.4725 27.8607 12.0481 26.8567 14.4718C25.7067 17.2482 24.0211 19.771 21.896 21.896C19.771 24.021 17.2483 25.7066 14.4718 26.8567C12.0481 27.8606 9.47256 28.4392 6.85811 28.5701C6.22696 28.6016 5.71436 28.0864 5.71436 27.4544L5.71436 16.0123C5.71436 15.3803 6.2286 14.8754 6.85561 14.7966C7.66556 14.6948 8.45999 14.485 9.21734 14.1713C10.3279 13.7112 11.337 13.037 12.187 12.187C13.037 11.337 13.7113 10.3279 14.1713 9.21728C14.485 8.45993 14.6949 7.6655 14.7967 6.85554C14.8755 6.22854 15.3804 5.71429 16.0123 5.71429H27.4545Z" fill="url(#paint0_linear_896_11719)"/>
<path d="M12.5457 34.2857C11.9138 34.2857 11.3985 33.7731 11.4301 33.142C11.5609 30.5275 12.1395 27.9519 13.1435 25.5282C14.2935 22.7518 15.9792 20.229 18.1042 18.104C20.2292 15.979 22.7519 14.2934 25.5284 13.1433C27.9521 12.1394 30.5276 11.5608 33.1421 11.43C33.7732 11.3984 34.2859 11.9136 34.2859 12.5456V23.9878C34.2859 24.6197 33.7716 25.1246 33.1446 25.2034C32.3347 25.3052 31.5402 25.5151 30.7829 25.8288C29.6723 26.2888 28.6632 26.963 27.8132 27.813C26.9632 28.663 26.2889 29.6721 25.8289 30.7827C25.5152 31.5401 25.3053 32.3345 25.2035 33.1445C25.1247 33.7715 24.6198 34.2857 23.9879 34.2857H12.5457Z" fill="#8000FF"/>
<path d="M27.6001 12.3996C27.386 13.1005 27.1379 13.7921 26.8564 14.4717C25.7064 17.2481 24.0208 19.7709 21.8957 21.8959C19.7707 24.0209 17.248 25.7065 14.4715 26.8566C13.7919 27.1381 13.1004 27.3861 12.3994 27.6003C12.6135 26.8993 12.8616 26.2077 13.1431 25.5282C14.2931 22.7517 15.9788 20.2289 18.1038 18.1039C20.2288 15.9789 22.7516 14.2933 25.528 13.1432C26.2076 12.8617 26.8991 12.6137 27.6001 12.3996Z" fill="url(#paint1_linear_896_11719)"/>
<defs>
<linearGradient id="paint0_linear_896_11719" x1="28.5715" y1="5.71429" x2="5.71436" y2="28.5714" gradientUnits="userSpaceOnUse">
<stop stop-color="#FFD60A"/>
<stop offset="1" stop-color="#F0BA09"/>
</linearGradient>
<linearGradient id="paint1_linear_896_11719" x1="12.3994" y1="27.6003" x2="27.6001" y2="12.3995" gradientUnits="userSpaceOnUse">
<stop stop-color="#8000FF"/>
<stop offset="1" stop-color="#41047C"/>
</linearGradient>
</defs>
</svg>
