<svg width="41" height="40" viewBox="0 0 41 40" fill="none" xmlns="http://www.w3.org/2000/svg">
<path d="M6.05747 16.2831C5.94228 15.1818 6.85156 14.2802 7.95888 14.2857L23.9899 14.2857C25.0815 14.2913 26.0421 15.2443 26.0476 16.3359L26.0476 32.3745C26.0532 33.4818 25.1515 34.3911 24.0502 34.2759C14.5974 33.2871 7.0462 25.7359 6.05747 16.2831Z" fill="url(#paint0_linear_896_11733)"/>
<path d="M14.6288 7.71172C14.5136 6.6104 15.4229 5.70873 16.5302 5.71432L32.5352 5.71432C33.6268 5.71984 34.6134 6.70197 34.6189 7.79358L34.6189 23.803C34.6245 24.9103 33.7228 25.8196 32.6215 25.7044C23.1687 24.7157 15.6175 17.1645 14.6288 7.71172Z" fill="#01A61C"/>
<path d="M26.0474 23.8468C21.8738 21.8488 18.4843 18.4593 16.4863 14.2857L23.9897 14.2857C25.0814 14.2912 26.0419 15.2443 26.0474 16.3359L26.0474 23.8468Z" fill="url(#paint1_linear_896_11733)"/>
<defs>
<linearGradient id="paint0_linear_896_11733" x1="20.0127" y1="14.2857" x2="12.8033" y2="34.6067" gradientUnits="userSpaceOnUse">
<stop stop-color="#FFD60A"/>
<stop offset="1" stop-color="#F5BE09"/>
</linearGradient>
<linearGradient id="paint1_linear_896_11733" x1="15.476" y1="26.7142" x2="30.9874" y2="19.8903" gradientUnits="userSpaceOnUse">
<stop stop-color="#006900"/>
<stop offset="1" stop-color="#01A61C"/>
</linearGradient>
</defs>
</svg>
