<svg width="41" height="40" viewBox="0 0 41 40" fill="none" xmlns="http://www.w3.org/2000/svg">
<path d="M28.3714 32.8148C28.0335 33.7006 27.1839 34.2857 26.2359 34.2857C21.1415 34.2857 16.0472 34.2857 10.9529 34.2857C10.7148 34.2857 10.5344 34.2456 10.5344 34.2456L10.2778 34.182C10.2778 34.182 17.4916 16.0335 21.1164 6.97152C21.4201 6.21221 22.1555 5.71431 22.9734 5.71431L35.8081 5.71431C37.223 5.71431 38.1905 7.14336 37.665 8.45709L28.3714 32.8148Z" fill="url(#paint0_linear_896_11775)"/>
<path d="M27.1255 34.1053C26.892 34.2041 26.6927 34.269 26.3813 34.2857L10.9576 34.2857C9.9797 34.2857 9.11012 33.6636 8.79435 32.7381L3.58659 18.6564C3.3335 17.9146 3.88203 17.1429 4.66238 17.1429L18.5045 17.1429C19.4764 17.1429 20.3409 17.7634 20.6561 18.6873L25.8713 32.7908C26.094 33.3949 26.5549 33.8638 27.1255 34.1053Z" fill="#3B68FF"/>
<path d="M17.0577 17.1429H18.5042C19.4761 17.1429 20.3406 17.7634 20.6558 18.6873L25.871 32.7908C26.0936 33.3949 26.5546 33.8637 27.1252 34.1053C27.1119 34.1109 27.0988 34.1164 27.0858 34.1217C26.8205 34.2281 26.5328 34.2857 26.2354 34.2857L10.9573 34.2857C10.8426 34.2857 10.7294 34.2771 10.6184 34.2605C10.565 34.2524 10.5339 34.2455 10.5339 34.2455L10.2773 34.182C10.2773 34.182 13.7296 25.4968 17.0577 17.1429Z" fill="url(#paint1_linear_896_11775)"/>
<defs>
<linearGradient id="paint0_linear_896_11775" x1="18.5243" y1="34.2857" x2="29.9529" y2="5.71431" gradientUnits="userSpaceOnUse">
<stop stop-color="#F0BA09"/>
<stop offset="1" stop-color="#FFD60A"/>
</linearGradient>
<linearGradient id="paint1_linear_896_11775" x1="10.5929" y1="36.504" x2="30.2272" y2="22.3234" gradientUnits="userSpaceOnUse">
<stop stop-color="#053EFF"/>
<stop offset="1" stop-color="#4A71F5"/>
</linearGradient>
</defs>
</svg>
