<svg width="41" height="40" viewBox="0 0 41 40" fill="none" xmlns="http://www.w3.org/2000/svg">
<path d="M32.0954 17.1426C32.0954 23.4546 26.979 28.5714 20.667 28.5714C14.3551 28.5714 9.23828 23.4546 9.23828 17.1426C9.23828 10.8307 14.3551 5.71429 20.6671 5.71429C26.9791 5.71429 32.0954 10.8307 32.0954 17.1426Z" fill="url(#paint0_linear_896_11780)"/>
<path d="M9.23828 17.1429C9.2384 23.4547 14.3552 28.5714 20.667 28.5714C26.9789 28.5714 32.0953 23.4547 32.0954 17.1429H30.0957C28.8333 17.1429 27.8461 18.1921 27.4492 19.3904C26.5073 22.2342 23.827 24.2857 20.6673 24.2857C17.5076 24.2857 14.8271 22.2342 13.8851 19.3904C13.4882 18.1921 12.501 17.1429 11.2386 17.1429H9.23828Z" fill="url(#paint1_linear_896_11780)"/>
<path d="M6.38113 17.1429C4.80315 17.1429 3.499 18.4317 3.75901 19.9881C5.11446 28.1017 12.1686 34.2857 20.6671 34.2857C29.1656 34.2857 36.2192 28.1017 37.5746 19.9881C37.8346 18.4317 36.5304 17.1429 34.9524 17.1429H32.095C32.0949 23.4547 26.9786 28.5714 20.6667 28.5714C14.3548 28.5714 9.23805 23.4547 9.23793 17.1429H6.38113Z" fill="#57BDBA"/>
<defs>
<linearGradient id="paint0_linear_896_11780" x1="20.6668" y1="5.52623" x2="20.6668" y2="20.4479" gradientUnits="userSpaceOnUse">
<stop stop-color="#FFD60D"/>
<stop offset="0.999" stop-color="#F5BE10"/>
</linearGradient>
<linearGradient id="paint1_linear_896_11780" x1="20.6668" y1="14.2857" x2="20.6668" y2="28.5714" gradientUnits="userSpaceOnUse">
<stop stop-color="#57BDBA"/>
<stop offset="1" stop-color="#30A7A6"/>
</linearGradient>
</defs>
</svg>
