<svg width="41" height="40" viewBox="0 0 41 40" fill="none" xmlns="http://www.w3.org/2000/svg">
<path d="M19.3046 5.98025C19.9475 5.62564 20.7189 5.62564 21.3618 5.98025L32.1618 12.1099C32.8046 12.4646 33.1904 13.1484 33.1904 13.8577L33.1904 26.1424C33.1904 26.8769 32.8046 27.5355 32.1618 27.8901L21.3618 34.0198C20.7189 34.3744 19.9475 34.3744 19.3046 34.0198L8.50464 27.8901C7.86178 27.5355 7.47607 26.8516 7.47607 26.1424L7.47607 13.8577C7.47607 13.1231 7.86179 12.4645 8.50464 12.1099L19.3046 5.98025Z" fill="url(#paint0_linear_896_8228)"/>
<path d="M33.047 18.862C30.8989 21.3398 27.7024 23.9189 23.8409 26.1439C20.0051 28.3436 16.1436 29.7848 12.8959 30.3917C9.03448 31.0996 6.1275 30.5627 5.05345 28.7422C3.97941 26.9217 4.94449 24.2221 7.47617 21.2891L7.47506 24.113C7.47479 24.7925 8.05768 25.312 8.72535 25.1855C12.2186 24.5238 22.3586 21.8938 30.5362 12.7298C31.0101 12.1987 30.8596 11.3714 30.2406 11.0199L27.8724 9.67521C31.6571 8.99253 34.6102 9.42925 35.6587 11.2244C36.7071 13.0702 35.5787 15.929 33.047 18.862Z" fill="#2C2C31"/>
<path d="M33.1904 18.694C33.1431 18.7499 33.0953 18.8058 33.0469 18.8618C30.8988 21.3397 27.7023 23.9187 23.8408 26.1437C20.0098 28.3407 16.1532 29.7811 12.9081 30.3892L8.50464 27.89C7.86179 27.5354 7.47607 26.8515 7.47607 26.1423L7.47607 24.1645C7.50449 24.8185 8.07462 25.3087 8.72526 25.1854C12.2185 24.5236 22.3585 21.8937 30.5361 12.7296C31.01 12.1985 30.8595 11.3712 30.2405 11.0198L28.9339 10.2779L32.1618 12.1099C32.8046 12.4645 33.1904 13.1484 33.1904 13.8576L33.1904 18.694Z" fill="url(#paint1_linear_896_8228)"/>
<defs>
<linearGradient id="paint0_linear_896_8228" x1="26.4761" y1="8.85715" x2="14.3332" y2="31.1429" gradientUnits="userSpaceOnUse">
<stop stop-color="#FFD748"/>
<stop offset="1" stop-color="#FFC148"/>
</linearGradient>
<linearGradient id="paint1_linear_896_8228" x1="33.1904" y1="10.2779" x2="8.38793" y2="26.5532" gradientUnits="userSpaceOnUse">
<stop stop-color="#594B16"/>
<stop offset="1" stop-color="#2C2C31"/>
</linearGradient>
</defs>
</svg>
