<svg width="40" height="40" viewBox="0 0 40 40" fill="none" xmlns="http://www.w3.org/2000/svg">
<path d="M18.6159 6.9715C18.9218 6.21219 19.6624 5.71429 20.4861 5.71429H33.4122C34.8372 5.71429 35.8116 7.14334 35.2824 8.45707L25.3838 33.0285C25.0779 33.7878 24.3373 34.2857 23.5136 34.2857H10.5875C9.16251 34.2857 8.18811 32.8567 8.71734 31.5429L18.6159 6.9715Z" fill="url(#paint0_linear_896_11728)"/>
<path d="M13.1427 22.8571C17.8766 22.8571 21.7141 19.0196 21.7141 14.2857C21.7141 9.55185 17.8766 5.71429 13.1427 5.71429C8.40885 5.71429 4.57129 9.55185 4.57129 14.2857C4.57129 19.0196 8.40885 22.8571 13.1427 22.8571Z" fill="#0A33FF"/>
<path d="M21.7145 14.2857C21.7145 19.0196 17.8769 22.8572 13.143 22.8572C12.8366 22.8572 12.534 22.8411 12.2358 22.8097L18.3979 7.51353C20.416 9.08172 21.7145 11.5321 21.7145 14.2857Z" fill="url(#paint1_linear_896_11728)"/>
<defs>
<linearGradient id="paint0_linear_896_11728" x1="27.3244" y1="5.71429" x2="16.5268" y2="34.3229" gradientUnits="userSpaceOnUse">
<stop stop-color="#FFD60A"/>
<stop offset="1" stop-color="#F5BE09"/>
</linearGradient>
<linearGradient id="paint1_linear_896_11728" x1="18.3354" y1="7.52409" x2="12.2136" y2="22.7824" gradientUnits="userSpaceOnUse">
<stop stop-color="#051A80"/>
<stop offset="1" stop-color="#0A33FF"/>
</linearGradient>
</defs>
</svg>
