<svg width="41" height="40" viewBox="0 0 41 40" fill="none" xmlns="http://www.w3.org/2000/svg">
<path d="M17.2292 33.6251L12.0957 28.5714L17.3197 15.7144C17.6705 14.8509 18.5127 14.2857 19.4485 14.2857H32.4114L37.1284 18.9293C37.787 19.5778 37.9897 20.5566 37.6424 21.4115L32.9919 32.857C32.6411 33.7205 31.7989 34.2857 30.8632 34.2857H18.8439C18.2393 34.2857 17.6591 34.0483 17.2292 33.6251Z" fill="url(#paint0_linear_896_11694)"/>
<path d="M11.1807 7.13214C11.5327 6.2744 12.368 5.71429 13.2952 5.71429H32.6867C34.3126 5.71429 35.4186 7.36383 34.8013 8.8679L27.2961 27.1536C26.944 28.0113 26.1087 28.5714 25.1815 28.5714H5.79022C4.1644 28.5714 3.05836 26.9219 3.67567 25.4179L11.1807 7.13214Z" fill="#E5176A"/>
<path d="M32.5029 14.3758L27.2708 27.1519C26.9192 28.0105 26.0834 28.5714 25.1556 28.5714H12.0957L17.3197 15.7144C17.6705 14.8509 18.5127 14.2857 19.4485 14.2857H32.4114L32.5029 14.3758Z" fill="url(#paint1_linear_896_11694)"/>
<defs>
<linearGradient id="paint0_linear_896_11694" x1="30.8653" y1="18.4517" x2="28.6474" y2="34.4906" gradientUnits="userSpaceOnUse">
<stop stop-color="#FFD60A"/>
<stop offset="1" stop-color="#F0BA09"/>
</linearGradient>
<linearGradient id="paint1_linear_896_11694" x1="20.3332" y1="28.5714" x2="23.3154" y2="13.9099" gradientUnits="userSpaceOnUse">
<stop stop-color="#DB1666"/>
<stop offset="1" stop-color="#BF1359"/>
</linearGradient>
</defs>
</svg>
