<svg width="41" height="40" viewBox="0 0 41 40" fill="none" xmlns="http://www.w3.org/2000/svg">
<path d="M21.0395 11.4286H32.7697C33.6193 11.4286 34.1719 12.3227 33.7919 13.0825L29.1602 22.3461C28.9993 22.6678 28.9993 23.0465 29.1602 23.3683L33.7919 32.6318C34.1719 33.3917 33.6193 34.2857 32.7697 34.2857H21.0395C20.6066 34.2857 20.2109 34.0412 20.0173 33.654L14.8744 23.3683C14.7136 23.0465 14.7136 22.6678 14.8744 22.3461L20.0173 12.0603C20.2109 11.6732 20.6066 11.4286 21.0395 11.4286Z" fill="url(#paint0_linear_896_11099)"/>
<path d="M19.627 5.71429H7.89679C7.04721 5.71429 6.49464 6.60837 6.87459 7.36825L11.5063 16.6318C11.6672 16.9535 11.6672 17.3322 11.5063 17.654L6.87459 26.9175C6.49464 27.6774 7.04721 28.5714 7.89679 28.5714H19.627C20.0599 28.5714 20.4556 28.3269 20.6492 27.9397L25.7921 17.654C25.9529 17.3322 25.9529 16.9535 25.7921 16.6318L20.6492 6.34605C20.4556 5.95887 20.0599 5.71429 19.627 5.71429Z" fill="#777F8E"/>
<path d="M23.1902 11.4286H21.0394C20.6065 11.4286 20.2108 11.6732 20.0172 12.0603L14.8743 22.3461C14.7134 22.6678 14.7134 23.0465 14.8743 23.3683L17.4759 28.5714H19.6267C20.0596 28.5714 20.4553 28.3269 20.6489 27.9397L25.7918 17.654C25.9527 17.3322 25.9527 16.9535 25.7918 16.6318L23.1902 11.4286Z" fill="url(#paint1_linear_896_11099)"/>
<defs>
<linearGradient id="paint0_linear_896_11099" x1="21.1054" y1="29.1429" x2="25.0871" y2="10.9398" gradientUnits="userSpaceOnUse">
<stop stop-color="#F0BA09"/>
<stop offset="1" stop-color="#FFD60A"/>
</linearGradient>
<linearGradient id="paint1_linear_896_11099" x1="17.4759" y1="28.5714" x2="28.586" y2="24.0093" gradientUnits="userSpaceOnUse">
<stop stop-color="#676D7A"/>
<stop offset="1" stop-color="#777F8E"/>
</linearGradient>
</defs>
</svg>
