<svg width="40" height="40" viewBox="0 0 40 40" fill="none" xmlns="http://www.w3.org/2000/svg">
<path d="M8.57586 31.8683C8.49797 33.1765 9.42473 34.2857 10.5958 34.2857H29.404C30.575 34.2857 31.5018 33.1766 31.4239 31.8683L30.2478 12.1159C30.1769 10.9252 29.2936 10 28.2279 10H11.7718C10.7061 10 9.82283 10.9252 9.75194 12.1159L8.57586 31.8683Z" fill="url(#paint0_linear_896_11683)"/>
<path d="M27.1426 10C27.1426 13.9449 23.9447 17.1429 19.9998 17.1429C16.0549 17.1429 12.8569 13.9449 12.8569 10C12.8569 6.05511 16.0549 2.85715 19.9998 2.85715C23.9447 2.85715 27.1426 6.05511 27.1426 10Z" fill="#018161"/>
<path d="M19.9998 17.1429C23.9447 17.1429 27.1426 13.9449 27.1426 10H12.8569C12.8569 13.9449 16.0549 17.1429 19.9998 17.1429Z" fill="url(#paint1_linear_896_11683)"/>
<defs>
<linearGradient id="paint0_linear_896_11683" x1="25.1427" y1="10.1429" x2="10.8737" y2="32.0555" gradientUnits="userSpaceOnUse">
<stop stop-color="#FFD60A"/>
<stop offset="1" stop-color="#F0BA09"/>
</linearGradient>
<linearGradient id="paint1_linear_896_11683" x1="12.8569" y1="10" x2="27.1426" y2="10" gradientUnits="userSpaceOnUse">
<stop stop-color="#00402A"/>
<stop offset="1" stop-color="#018161"/>
</linearGradient>
</defs>
</svg>
