<svg width="128" height="128" viewBox="0 0 128 128" fill="none" xmlns="http://www.w3.org/2000/svg">
<mask id="mask0_2015_1126" style="mask-type:alpha" maskUnits="userSpaceOnUse" x="0" y="0" width="128" height="128">
<circle cx="64" cy="64" r="64" fill="#EDEEEF"/>
</mask>
<g mask="url(#mask0_2015_1126)">
<path d="M-34 20.3181L-19.1265 9.0663C-16.2713 6.90635 -12.3287 6.90634 -9.4735 9.0663L0.573488 16.6669C3.42867 18.8268 7.37132 18.8268 10.2265 16.6669L20.2735 9.0663C23.1287 6.90635 27.0713 6.90634 29.9265 9.0663L39.9735 16.6669C42.8287 18.8268 46.7713 18.8268 49.6265 16.6669L59.6735 9.0663C62.5287 6.90635 66.4713 6.90634 69.3265 9.0663L79.3735 16.6669C82.2287 18.8268 86.1713 18.8268 89.0265 16.6669L99.0735 9.0663C101.929 6.90635 105.871 6.90634 108.726 9.0663L118.773 16.6669C121.629 18.8268 125.571 18.8268 128.426 16.6669L138.473 9.0663C141.329 6.90635 145.271 6.90634 148.126 9.0663L163 20.3181" stroke="#E4E4E4"/>
<path d="M-34 48.4722L-19.1265 37.2204C-16.2713 35.0604 -12.3287 35.0604 -9.4735 37.2203L0.573488 44.8209C3.42867 46.9809 7.37132 46.9809 10.2265 44.8209L20.2735 37.2204C23.1287 35.0604 27.0713 35.0604 29.9265 37.2203L39.9735 44.8209C42.8287 46.9809 46.7713 46.9809 49.6265 44.8209L59.6735 37.2204C62.5287 35.0604 66.4713 35.0604 69.3265 37.2203L79.3735 44.8209C82.2287 46.9809 86.1713 46.9809 89.0265 44.8209L99.0735 37.2204C101.929 35.0604 105.871 35.0604 108.726 37.2203L118.773 44.8209C121.629 46.9809 125.571 46.9809 128.426 44.8209L138.473 37.2204C141.329 35.0604 145.271 35.0604 148.126 37.2203L163 48.4722" stroke="#E4E4E4"/>
<path d="M-34 76.6263L-19.1265 65.3745C-16.2713 63.2146 -12.3287 63.2146 -9.4735 65.3745L0.573488 72.9751C3.42867 75.135 7.37132 75.135 10.2265 72.9751L20.2735 65.3745C23.1287 63.2146 27.0713 63.2146 29.9265 65.3745L39.9735 72.9751C42.8287 75.135 46.7713 75.135 49.6265 72.9751L59.6735 65.3745C62.5287 63.2146 66.4713 63.2146 69.3265 65.3745L79.3735 72.9751C82.2287 75.135 86.1713 75.135 89.0265 72.9751L99.0735 65.3745C101.929 63.2146 105.871 63.2146 108.726 65.3745L118.773 72.9751C121.629 75.135 125.571 75.135 128.426 72.9751L138.473 65.3745C141.329 63.2146 145.271 63.2146 148.126 65.3745L163 76.6263" stroke="#E4E4E4"/>
<path d="M-34 104.78L-19.1265 93.5286C-16.2713 91.3686 -12.3287 91.3686 -9.4735 93.5286L0.573488 101.129C3.42867 103.289 7.37132 103.289 10.2265 101.129L20.2735 93.5286C23.1287 91.3686 27.0713 91.3686 29.9265 93.5286L39.9735 101.129C42.8287 103.289 46.7713 103.289 49.6265 101.129L59.6735 93.5286C62.5287 91.3686 66.4713 91.3686 69.3265 93.5286L79.3735 101.129C82.2287 103.289 86.1713 103.289 89.0265 101.129L99.0735 93.5286C101.929 91.3686 105.871 91.3686 108.726 93.5286L118.773 101.129C121.629 103.289 125.571 103.289 128.426 101.129L138.473 93.5286C141.329 91.3686 145.271 91.3686 148.126 93.5286L163 104.78" stroke="#E4E4E4"/>
<path d="M-34 132.935L-19.1265 121.683C-16.2713 119.523 -12.3287 119.523 -9.4735 121.683L0.573488 129.283C3.42867 131.443 7.37132 131.443 10.2265 129.283L20.2735 121.683C23.1287 119.523 27.0713 119.523 29.9265 121.683L39.9735 129.283C42.8287 131.443 46.7713 131.443 49.6265 129.283L59.6735 121.683C62.5287 119.523 66.4713 119.523 69.3265 121.683L79.3735 129.283C82.2287 131.443 86.1713 131.443 89.0265 129.283L99.0735 121.683C101.929 119.523 105.871 119.523 108.726 121.683L118.773 129.283C121.629 131.443 125.571 131.443 128.426 129.283L138.473 121.683C141.329 119.523 145.271 119.523 148.126 121.683L163 132.935" stroke="#E4E4E4"/>
<path d="M88.5546 36.1959H45.403C39.1298 36.1959 34.0444 40.8624 34.0444 46.6189V150.577C34.0444 156.333 39.1298 161 45.403 161H88.5546C94.8278 161 99.9132 156.333 99.9132 150.577V46.6189C99.9132 40.8624 94.8278 36.1959 88.5546 36.1959Z" fill="#E4E4E4"/>
<path d="M86.0141 30H42.8625C36.5893 30 31.5039 34.6665 31.5039 40.423V144.381C31.5039 150.138 36.5893 154.804 42.8625 154.804H86.0141C92.2873 154.804 97.3727 150.138 97.3727 144.381V40.423C97.3727 34.6665 92.2873 30 86.0141 30Z" fill="white"/>
<path d="M85.6365 33.4668H43.2401C38.6731 33.4668 34.9707 36.8313 34.9707 40.9815V142.089C34.9707 146.239 38.6731 149.604 43.2401 149.604H85.6365C90.2036 149.604 93.906 146.239 93.906 142.089V40.9815C93.906 36.8313 90.2036 33.4668 85.6365 33.4668Z" fill="#E8E9EB"/>
<path d="M52.3047 33.4668H76.5721V36.667C76.5721 37.7715 75.6767 38.667 74.5721 38.667H54.3047C53.2001 38.667 52.3047 37.7715 52.3047 36.667V33.4668Z" fill="white"/>
<rect x="23" y="58" width="84" height="27" rx="4" fill="#0722AA"/>
<rect x="21" y="54" width="84" height="28" rx="4" fill="#0A33FF"/>
<path d="M41.125 66.6907C42.15 66.6907 43 67.508 43 68.4937C43 69.4794 42.15 70.2968 41.15 70.3208H38.775L39.975 72.3162C40.475 73.1817 40.175 74.2635 39.275 74.7684C38.375 75.2492 37.225 74.9607 36.7 74.0952L35.5 72.0998L34.325 74.0712C33.8 74.9367 32.65 75.2492 31.75 74.7443C31.5346 74.6294 31.3453 74.4742 31.1932 74.288C31.041 74.1018 30.929 73.8882 30.8638 73.6598C30.7986 73.4314 30.7815 73.1928 30.8135 72.9579C30.8454 72.7231 30.9259 72.4967 31.05 72.2922L32.25 70.2968H29.875C28.85 70.2968 28 69.4794 28 68.4937C28.0009 68.2563 28.0511 68.0214 28.1475 67.8028C28.244 67.5842 28.3848 67.3863 28.5617 67.2207C28.7386 67.055 28.9481 66.925 29.1778 66.8381C29.4076 66.7512 29.6531 66.7093 29.9 66.7147H32.275L31.1 64.7434C30.575 63.8779 30.875 62.772 31.775 62.2671C31.9864 62.1474 32.2204 62.0693 32.4634 62.0371C32.7065 62.005 32.9537 62.0195 33.1909 62.0799C33.4281 62.1402 33.6504 62.2452 33.8451 62.3888C34.0397 62.5324 34.2029 62.7116 34.325 62.9163L35.5 64.8876L36.7 62.8922C36.8231 62.6886 36.9867 62.5102 37.1815 62.3674C37.3763 62.2245 37.5984 62.12 37.8352 62.0597C38.072 61.9994 38.3188 61.9846 38.5616 62.0161C38.8043 62.0475 39.0383 62.1247 39.25 62.2431C39.6774 62.4885 39.9876 62.8855 40.1138 63.3485C40.2401 63.8116 40.1723 64.3038 39.925 64.7193L38.75 66.6907H41.125Z" fill="white"/>
<path d="M59.25 66.6907C60.2067 66.6907 61 67.508 61 68.4937C61 69.4794 60.2067 70.2968 59.2733 70.3208H57.0567L58.1767 72.3162C58.6433 73.1817 58.3633 74.2635 57.5233 74.7684C56.6833 75.2492 55.61 74.9607 55.12 74.0952L54 72.0998L52.9033 74.0712C52.4133 74.9367 51.34 75.2492 50.5 74.7443C50.299 74.6294 50.1223 74.4742 49.9803 74.288C49.8383 74.1018 49.7337 73.8882 49.6729 73.6598C49.612 73.4314 49.5961 73.1928 49.6259 72.9579C49.6557 72.7231 49.7308 72.4967 49.8467 72.2922L50.9667 70.2968H48.75C47.7933 70.2968 47 69.4794 47 68.4937C47.0009 68.2563 47.0477 68.0214 47.1377 67.8028C47.2277 67.5842 47.3591 67.3863 47.5242 67.2207C47.6893 67.055 47.8848 66.925 48.0993 66.8381C48.3138 66.7512 48.5429 66.7093 48.7733 66.7147H50.99L49.8933 64.7434C49.4033 63.8779 49.6833 62.772 50.5233 62.2671C50.7206 62.1474 50.939 62.0693 51.1659 62.0371C51.3927 62.005 51.6235 62.0195 51.8448 62.0799C52.0662 62.1402 52.2737 62.2452 52.4554 62.3888C52.6371 62.5324 52.7893 62.7116 52.9033 62.9163L54 64.8876L55.12 62.8922C55.2349 62.6886 55.3876 62.5102 55.5694 62.3674C55.7512 62.2245 55.9585 62.12 56.1795 62.0597C56.4005 61.9994 56.6309 61.9846 56.8575 62.0161C57.084 62.0475 57.3024 62.1247 57.5 62.2431C57.8989 62.4885 58.1884 62.8855 58.3062 63.3485C58.4241 63.8116 58.3608 64.3038 58.13 64.7193L57.0333 66.6907H59.25Z" fill="white"/>
<path d="M78.125 66.6907C79.15 66.6907 80 67.508 80 68.4937C80 69.4794 79.15 70.2968 78.15 70.3208H75.775L76.975 72.3162C77.475 73.1817 77.175 74.2635 76.275 74.7684C75.375 75.2492 74.225 74.9607 73.7 74.0952L72.5 72.0998L71.325 74.0712C70.8 74.9367 69.65 75.2492 68.75 74.7443C68.5346 74.6294 68.3453 74.4742 68.1932 74.288C68.041 74.1018 67.929 73.8882 67.8638 73.6598C67.7986 73.4314 67.7815 73.1928 67.8135 72.9579C67.8454 72.7231 67.9259 72.4967 68.05 72.2922L69.25 70.2968H66.875C65.85 70.2968 65 69.4794 65 68.4937C65.0009 68.2563 65.0511 68.0214 65.1475 67.8028C65.244 67.5842 65.3848 67.3863 65.5617 67.2207C65.7386 67.055 65.9481 66.925 66.1778 66.8381C66.4076 66.7512 66.6531 66.7093 66.9 66.7147H69.275L68.1 64.7434C67.575 63.8779 67.875 62.772 68.775 62.2671C68.9864 62.1474 69.2204 62.0693 69.4634 62.0371C69.7065 62.005 69.9537 62.0195 70.1909 62.0799C70.4281 62.1402 70.6504 62.2452 70.8451 62.3888C71.0397 62.5324 71.2029 62.7116 71.325 62.9163L72.5 64.8876L73.7 62.8922C73.8231 62.6886 73.9867 62.5102 74.1815 62.3674C74.3763 62.2245 74.5984 62.12 74.8352 62.0597C75.072 61.9994 75.3188 61.9846 75.5616 62.0161C75.8043 62.0475 76.0383 62.1247 76.25 62.2431C76.6774 62.4885 76.9876 62.8855 77.1138 63.3485C77.2401 63.8116 77.1723 64.3038 76.925 64.7193L75.75 66.6907H78.125Z" fill="white"/>
<path d="M97.125 66.6907C98.15 66.6907 99 67.508 99 68.4937C99 69.4794 98.15 70.2968 97.15 70.3208H94.775L95.975 72.3162C96.475 73.1817 96.175 74.2635 95.275 74.7684C94.375 75.2492 93.225 74.9607 92.7 74.0952L91.5 72.0998L90.325 74.0712C89.8 74.9367 88.65 75.2492 87.75 74.7443C87.5346 74.6294 87.3453 74.4742 87.1932 74.288C87.041 74.1018 86.929 73.8882 86.8638 73.6598C86.7986 73.4314 86.7815 73.1928 86.8135 72.9579C86.8454 72.7231 86.9259 72.4967 87.05 72.2922L88.25 70.2968H85.875C84.85 70.2968 84 69.4794 84 68.4937C84.0009 68.2563 84.0511 68.0214 84.1475 67.8028C84.244 67.5842 84.3848 67.3863 84.5617 67.2207C84.7386 67.055 84.9481 66.925 85.1778 66.8381C85.4076 66.7512 85.6531 66.7093 85.9 66.7147H88.275L87.1 64.7434C86.575 63.8779 86.875 62.772 87.775 62.2671C87.9864 62.1474 88.2204 62.0693 88.4634 62.0371C88.7065 62.005 88.9537 62.0195 89.1909 62.0799C89.4281 62.1402 89.6504 62.2452 89.8451 62.3888C90.0397 62.5324 90.2029 62.7116 90.325 62.9163L91.5 64.8876L92.7 62.8922C92.8231 62.6886 92.9867 62.5102 93.1815 62.3674C93.3763 62.2245 93.5984 62.12 93.8352 62.0597C94.072 61.9994 94.3188 61.9846 94.5616 62.0161C94.8043 62.0475 95.0383 62.1247 95.25 62.2431C95.6774 62.4885 95.9876 62.8855 96.1138 63.3485C96.2401 63.8116 96.1723 64.3038 95.925 64.7193L94.75 66.6907H97.125Z" fill="white"/>
</g>
</svg>
