<svg width="24" height="24" viewBox="0 0 24 24" fill="none" xmlns="http://www.w3.org/2000/svg">
<g style="mix-blend-mode:multiply" opacity="0.2">
<path fill-rule="evenodd" clip-rule="evenodd" d="M22.4375 23.5086H12.8298V14.1123C12.9584 12.5979 13.1862 11.2032 13.7449 10.2077C14.077 10.3941 14.6698 11.2182 14.8466 12.8128C15.2801 12.0302 15.8079 11.1528 16.7655 10.5963C16.83 12.3235 16.7272 12.9807 16.2432 14.1831C15.5637 15.8711 13.6937 16.2641 13.6937 16.2641V22.6447H21.5737C21.5737 17.4517 21.6716 12.2578 21.5729 7.06569C21.5712 7.01359 21.5683 6.96169 21.564 6.90973C21.5401 6.65901 21.4808 6.4135 21.3826 6.18133C21.141 5.61004 20.6792 5.14437 20.1121 4.89604L20.1113 4.89571C20.2825 4.6335 20.4574 4.39751 20.6305 4.18601C20.9404 4.3436 21.2252 4.55007 21.4712 4.79615C21.819 5.14385 22.0876 5.56876 22.251 6.03265C22.3752 6.38527 22.4352 6.7555 22.4375 7.12898V23.5086ZM12.1034 23.5086H2.49573V7.12898C2.49807 6.7555 2.55806 6.38527 2.68225 6.03265C2.84567 5.56876 3.11429 5.14385 3.46203 4.79615C3.70811 4.55007 3.99285 4.3436 4.30275 4.18601C4.47584 4.39751 4.65078 4.6335 4.82195 4.89571L4.82119 4.89604C4.2541 5.14437 3.79231 5.61004 3.55068 6.18133C3.45246 6.4135 3.39319 6.65901 3.36932 6.90973C3.36501 6.96169 3.36209 7.01359 3.36042 7.06569C3.26163 12.2578 3.35961 17.4517 3.35961 22.6447H11.2396V16.2641C11.2396 16.2641 9.36958 15.8711 8.69008 14.1831C8.20604 12.9807 8.10323 12.3235 8.16777 10.5963C9.12541 11.1528 9.65322 12.0302 10.0866 12.8128C10.2635 11.2182 10.8562 10.3941 11.1883 10.2077C11.747 11.2032 11.9749 12.5979 12.1034 14.1123V23.5086ZM16.0974 1.13354C16.0895 1.21214 16.0787 1.2905 16.065 1.36853C16.0458 1.47784 16.0211 1.5861 15.9915 1.69302C15.7478 2.57307 15.1814 3.3217 14.5669 3.97964C14.4528 4.10177 14.3362 4.22156 14.2185 4.3402C14.1077 4.4519 13.9957 4.56256 13.8839 4.67326C14.0666 5.20934 14.2774 5.73571 14.514 6.25027C14.6105 6.46 14.7114 6.66748 14.8161 6.87309C15.1129 6.41393 15.4411 5.97496 15.7961 5.56C16.0668 5.24378 16.3536 4.94082 16.6558 4.65417C16.4268 4.21936 16.2955 3.73776 16.2119 3.25473C16.091 2.55561 16.0675 1.84228 16.0974 1.13354ZM8.83584 1.13354C8.84378 1.21214 8.85455 1.2905 8.86828 1.36853C8.88751 1.47784 8.91215 1.5861 8.94176 1.69302C9.18545 2.57307 9.75187 3.3217 10.3664 3.97964C10.4805 4.10177 10.5971 4.22156 10.7148 4.3402C10.8256 4.4519 10.9376 4.56256 11.0494 4.67326C10.8667 5.20934 10.6558 5.73571 10.4193 6.25027C10.3228 6.46 10.2219 6.66748 10.1172 6.87309C9.82037 6.41393 9.49219 5.97496 9.13713 5.56C8.86651 5.24378 8.57971 4.94082 8.27746 4.65417C8.50647 4.21936 8.63779 3.73776 8.72136 3.25473C8.84225 2.55561 8.86574 1.84228 8.83584 1.13354Z" fill="#B27D53"/>
<path fill-rule="evenodd" clip-rule="evenodd" d="M21.5472 2.72506C20.0296 3.81876 18.2544 6.20889 18.0452 8.72399C17.8749 10.7726 17.5248 11.6677 17.2634 12.051C17.3793 11.3603 17.3785 10.4211 17.2488 9.66383C16.9588 9.79219 16.4774 10.088 16.0367 10.5262C15.9819 10.347 15.5322 9.42636 14.0507 9.83462C14.1219 9.60523 14.2005 9.37833 14.288 9.1544C14.4972 8.61874 14.7504 8.1004 15.0418 7.60422C15.0438 7.60101 15.0456 7.59781 15.0474 7.59455C15.3611 7.06153 15.7186 6.5542 16.1126 6.07849C16.4476 5.67386 16.81 5.29101 17.198 4.93628C17.2097 4.92729 17.2206 4.91729 17.2309 4.90638C17.5135 4.65006 17.8097 4.40866 18.1186 4.18468C18.9833 3.55756 19.9598 3.05745 21.0062 2.82083C21.1852 2.78041 21.3656 2.74893 21.5472 2.72506ZM3.38599 2.72506C4.90363 3.81876 6.6788 6.20889 6.888 8.72399C7.05835 10.7726 7.40839 11.6677 7.66979 12.051C7.55397 11.3603 7.55468 10.4211 7.68438 9.66383C7.97442 9.79219 8.45578 10.088 8.89652 10.5262C8.9513 10.347 9.40103 9.42636 10.8826 9.83462C10.8113 9.60523 10.7327 9.37833 10.6452 9.1544C10.436 8.61874 10.1828 8.1004 9.89143 7.60422C9.88947 7.60101 9.88761 7.59781 9.88579 7.59455C9.57215 7.06153 9.21461 6.5542 8.82065 6.07849C8.48563 5.67386 8.1232 5.29101 7.73518 4.93628C7.72356 4.92729 7.7126 4.91729 7.70236 4.90638C7.41968 4.65006 7.12351 4.40866 6.81466 4.18468C5.94987 3.55756 4.97338 3.05745 3.927 2.82083C3.74803 2.78041 3.56763 2.74893 3.38599 2.72506ZM13.3841 10.0592C13.2179 9.93776 12.955 9.71952 12.4605 9.72105C11.966 9.72263 11.7095 9.94202 11.5492 10.0592C11.4257 9.28232 10.9154 8.35036 10.4671 7.44931C10.6684 7.06875 11.2703 5.74553 11.4308 5.24455C11.8573 3.91429 12.2295 2.28365 12.4666 1.40441C12.6945 2.28609 13.0669 3.97294 13.5024 5.24455C13.6728 5.74227 14.2648 7.06875 14.4661 7.44931C14.0178 8.35036 13.5075 9.28232 13.3841 10.0592ZM16.739 2.08985C16.8537 1.1789 17.8829 1.11169 18.5174 1.32419C19.4294 1.62959 19.7439 2.48142 19.0114 2.95445C18.6579 3.18274 18.2782 3.36897 17.9345 3.60884C17.6458 3.81034 17.3673 4.02628 17.0995 4.25486L17.0952 4.24543C16.7868 3.25392 16.6749 2.59853 16.739 2.08985ZM8.19425 2.08985C8.07948 1.1789 7.05037 1.11169 6.41578 1.32419C5.50387 1.62959 5.18933 2.48142 5.92179 2.95445C6.27528 3.18274 6.65502 3.36897 6.99875 3.60884C7.28746 3.81034 7.56593 4.02628 7.83373 4.25486L7.83804 4.24543C8.14645 3.25392 8.25835 2.59853 8.19425 2.08985ZM13.1642 1.66475C13.0585 0.945159 13.8116 0.475714 14.3503 0.554505C14.7044 0.606267 15.6653 0.851634 15.3952 1.67581C15.2899 1.99714 15.1332 2.30087 14.9493 2.58427C14.6274 3.08036 14.2236 3.51503 13.8096 3.93462C13.769 3.97538 13.7282 4.01605 13.6875 4.05666C13.5273 3.51689 13.3953 2.9689 13.2901 2.41578C13.2426 2.1663 13.201 1.91591 13.1642 1.66475ZM11.7691 1.66475C11.8747 0.945159 11.1216 0.475714 10.5829 0.554505C10.2288 0.606267 9.26795 0.851634 9.53805 1.67581C9.64334 1.99714 9.80001 2.30087 9.98391 2.58427C10.3059 3.08036 10.7096 3.51503 11.1236 3.93462C11.1642 3.97538 11.205 4.01605 11.2458 4.05666C11.4059 3.51689 11.538 2.9689 11.6432 2.41578C11.6906 2.1663 11.7322 1.91591 11.7691 1.66475Z" fill="black"/>
</g>
</svg>
