<svg width="28" height="28" viewBox="0 0 28 28" fill="none" xmlns="http://www.w3.org/2000/svg">
<g style="mix-blend-mode:multiply" opacity="0.2">
<path fill-rule="evenodd" clip-rule="evenodd" d="M24.2103 27.1389H4.73762V24.0765L5.11871 23.6295C4.10363 22.7091 3.22862 21.637 2.52955 20.4492L7.56503 23.3326H8.12142L2.03468 19.5288C1.83979 19.1301 1.66392 18.7205 1.50825 18.301L8.74086 23.3326H9.12353L1.21453 17.4167C1.06959 16.9239 0.951916 16.4195 0.863304 15.9054L9.68912 23.3326H10.089L0.708995 14.6735C0.680718 14.3171 0.666382 13.9568 0.666382 13.5932C0.666382 13.5133 0.667059 13.4335 0.668527 13.3541L10.4725 23.3326H10.7501L0.726322 12.3123C0.773676 11.8082 0.848742 11.312 0.94994 10.8255L11.1178 23.3326H11.3712L1.2239 9.73763C1.3496 9.31409 1.4955 8.89925 1.66047 8.49407L11.6498 23.3326H11.8861L2.15727 7.413C2.37575 6.98806 2.61607 6.57609 2.87677 6.17858L12.1537 23.3326H12.3701L9.98814 18.4111C9.96269 18.3989 9.93746 18.3863 9.91228 18.3735C9.78868 18.3077 9.67061 18.2326 9.56935 18.135C9.47374 18.0428 9.39557 17.9345 9.33027 17.8192C9.24674 17.6718 9.18296 17.5142 9.10936 17.3619C9.08639 17.3168 9.06313 17.2724 9.0379 17.2287C9.02346 17.2046 9.0111 17.1863 8.99016 17.1679C8.95731 17.1414 8.92231 17.1177 8.88935 17.0913C8.85786 17.0641 8.82619 17.035 8.80463 16.9989C8.78708 16.9695 8.7763 16.9374 8.76484 16.9053L8.76405 16.905C8.74029 16.8916 8.72059 16.8783 8.70502 16.8552C8.6904 16.8335 8.68205 16.8079 8.68103 16.7818C8.68018 16.7595 8.68413 16.7599 8.68515 16.7377C8.68538 16.7321 8.68374 16.7265 8.68402 16.7209C8.68515 16.696 8.68741 16.6941 8.69474 16.6707C8.6996 16.6358 8.70513 16.6011 8.71156 16.5663C8.71868 16.5333 8.72652 16.5027 8.74283 16.473C8.7894 16.3883 8.87908 16.3368 8.9647 16.2963L7.50441 13.2791C7.49239 13.2754 7.48115 13.2718 7.45717 13.264C7.30845 13.2126 7.1516 13.1464 7.053 13.0173C7.0281 12.9847 7.0066 12.9505 6.9891 12.9134C6.96833 12.8694 6.95372 12.8227 6.94384 12.7751C6.93216 12.7188 6.92792 12.6614 6.92623 12.604C6.92454 12.5483 6.92809 12.4918 6.92098 12.4363C6.92025 12.4319 6.9207 12.432 6.91816 12.4283C6.90834 12.4151 6.8979 12.4031 6.88712 12.3905C6.8401 12.3388 6.79145 12.2887 6.745 12.2364C6.7078 12.1923 6.67247 12.1467 6.64425 12.0962C6.6004 12.0175 6.57472 11.9293 6.57765 11.8388C6.57901 11.7983 6.58741 11.7593 6.59893 11.7206C6.62015 11.661 6.6425 11.6018 6.66378 11.5421L3.5899 5.19076C3.86725 4.84071 4.16148 4.50466 4.47145 4.18385L5.35204 6.25901C5.35351 6.19382 5.35718 6.12728 5.36965 6.06339C5.41051 5.85326 5.56753 5.67801 5.76694 5.6039C5.84087 5.57642 5.92661 5.55993 6.00495 5.57698C6.0615 5.58928 6.11422 5.6113 6.16592 5.6372C6.21316 5.66091 6.25825 5.68834 6.3012 5.71876L5.40842 3.30146C5.72799 3.02778 6.06043 2.76877 6.40472 2.5254L7.5972 6.28486C7.63575 6.25173 7.67311 6.21736 7.71047 6.18287C7.8408 6.05898 7.96576 5.92979 8.09523 5.805C8.18469 5.72152 8.27985 5.63286 8.3903 5.57557L7.39469 1.8879C7.8001 1.65107 8.21889 1.43473 8.6497 1.24024L9.82147 6.69586C9.83078 6.68677 9.83998 6.67763 9.84918 6.66832C9.88028 6.63485 9.90986 6.60036 9.93509 6.56221C9.95625 6.53021 9.9751 6.49623 9.98882 6.46033C10.0197 6.37929 10.023 6.29208 10.0212 6.20629C10.0165 6.10425 10.0039 6.00288 9.99757 5.90095C9.99373 5.80935 9.99384 5.71357 10.0312 5.62795C10.0871 5.49977 10.225 5.43328 10.3521 5.39535C10.3775 5.38773 10.4035 5.38119 10.4295 5.37543C10.4699 5.36646 10.5107 5.35957 10.5518 5.35409L10.5616 5.3528L9.79613 0.784706C10.1873 0.649699 10.5864 0.532133 10.9927 0.432967L11.5819 5.32051C11.6551 5.31735 11.6975 5.31594 11.7984 5.31227C11.9466 5.30776 12.0948 5.30369 12.2431 5.30166C12.3463 5.30019 12.4509 5.30251 12.5541 5.29907C12.5728 5.29777 12.5915 5.29624 12.6102 5.29461L12.2358 0.190779C12.6692 0.127283 13.1093 0.0843884 13.555 0.0631103L13.71 6.44764C13.7219 6.45971 13.7329 6.47275 13.7431 6.48692C13.7693 6.52332 13.7855 6.56763 13.7998 6.60962C13.8351 6.71347 13.8505 6.82314 13.8592 6.93207C13.863 6.97942 13.8655 7.02689 13.8672 7.07435C13.8701 7.15004 13.8719 7.22578 13.876 7.30147C13.8794 7.34905 13.8836 7.39652 13.8882 7.44404C13.9016 7.56827 13.916 7.69232 13.9279 7.81672C13.9305 7.8468 13.933 7.87683 13.9352 7.90691L13.938 7.90584C13.962 7.89534 13.9852 7.8836 14.008 7.87079C14.1034 7.81469 14.1887 7.7438 14.2722 7.67155C14.3484 7.60557 14.4234 7.53824 14.5004 7.47311C14.5416 7.43913 14.5414 7.4393 14.5834 7.406C14.6268 7.37321 14.671 7.34143 14.7165 7.31214L14.9009 0.0646342C15.3358 0.0864767 15.7653 0.128807 16.1885 0.190779L15.6828 7.08558C15.8887 7.06611 16.096 7.05296 16.3028 7.06538C16.4111 7.07187 16.5209 7.08508 16.6263 7.11324L17.4316 0.432967C17.838 0.53219 18.2372 0.649756 18.6282 0.784706L17.4699 7.69723C17.5593 7.69125 17.6487 7.68617 17.7382 7.68177C17.8193 7.67855 17.8542 7.67675 17.9355 7.67511C18.0452 7.67291 18.1554 7.67251 18.265 7.6803C18.3059 7.68324 18.3475 7.68685 18.3886 7.69362L19.7746 1.24024C20.2054 1.43473 20.6242 1.65107 21.0297 1.8879L19.3107 8.25453C19.3245 8.26051 19.3381 8.26689 19.3516 8.27338C19.4161 8.30414 19.4785 8.33851 19.5392 8.37616C19.7201 8.48819 19.8792 8.64217 19.9804 8.8304C19.9889 8.84614 19.9969 8.86206 20.0045 8.8782L22.0196 2.5254C22.3639 2.76877 22.6963 3.02783 23.0159 3.30146L19.8109 11.9795C19.842 12.0362 19.8617 12.0987 19.8663 12.1641C19.8693 12.2069 19.8639 12.2478 19.8584 12.29C19.8542 12.3223 19.8509 12.3547 19.8478 12.3871C19.8422 12.4578 19.8423 12.4575 19.8381 12.5282C19.822 12.9346 19.8515 13.3402 19.8962 13.744L23.9529 4.18385C24.2628 4.5046 24.5571 4.84065 24.8344 5.19076L20.582 13.9773C20.7077 14.0307 20.8204 14.1092 20.8986 14.2249C20.9269 14.2669 20.9497 14.3125 20.966 14.3605C20.9838 14.4127 20.9936 14.4674 20.9942 14.5225C20.9945 14.5522 20.9922 14.5818 20.9873 14.611L25.5476 6.17858C25.8082 6.57604 26.0485 6.988 26.2671 7.413L20.6527 16.6001C20.6928 16.6327 20.735 16.6627 20.778 16.6915C20.8772 16.756 20.9799 16.8147 21.0796 16.8783C21.0888 16.8844 21.0981 16.8905 21.1072 16.8967L26.7639 8.49407C26.9288 8.8992 27.0747 9.31409 27.2004 9.73763L21.5086 17.3633C21.5193 17.3935 21.5282 17.4244 21.5356 17.4557C21.566 17.5844 21.5661 17.7159 21.5778 17.847C21.6215 17.8681 21.668 17.8838 21.7128 17.9025L21.7188 17.9052L27.4744 10.8255C27.5756 11.312 27.6507 11.8082 27.698 12.3123L20.771 19.928C20.77 19.9513 20.7693 19.9746 20.769 19.9978C20.7679 20.0645 20.7692 20.1312 20.7736 20.1976L20.7915 20.1958C20.8474 20.1914 20.8472 20.1914 20.9033 20.188C20.9605 20.1859 20.9603 20.1854 21.0173 20.1854C21.026 20.1854 21.0348 20.1857 21.0435 20.1859L27.7558 13.3541L27.7568 13.4137C27.7576 13.4734 27.758 13.5333 27.758 13.5932C27.758 13.9568 27.7436 14.3171 27.7153 14.6735L21.4789 20.4307C21.4764 20.4474 21.4736 20.4639 21.4712 20.4797C21.4659 20.5243 21.4649 20.6259 21.4632 20.6701C21.4597 20.7605 21.4568 20.8507 21.4535 20.941C21.4506 20.9815 21.446 21.0173 21.4299 21.0544C21.4269 21.0613 21.4233 21.0678 21.4193 21.0739L27.561 15.9054L27.544 16.0017C27.4576 16.4826 27.3457 16.9548 27.2098 17.4167L19.3008 23.3326H19.6835L26.9161 18.301L26.8866 18.3795C26.7384 18.7716 26.5724 19.1551 26.3897 19.5288L20.3029 23.3326H20.8593L25.8948 20.4492L25.8671 20.496C25.2409 21.5503 24.4759 22.5125 23.5971 23.3573L24.2103 24.0765V27.1389ZM23.8716 24.4151H5.07627V26.8003H23.8716V24.4151ZM18.1408 26.0531C18.1408 26.1259 18.109 26.2254 18.0452 26.3516C17.9839 26.473 17.9212 26.5658 17.8568 26.6301C17.815 26.6301 17.7589 26.6156 17.6884 26.5864C17.618 26.5573 17.5677 26.5279 17.5373 26.4982C17.6472 26.4478 17.7452 26.3892 17.8313 26.3225C17.9327 26.2442 17.9927 26.1735 18.0116 26.1104C17.9843 26.0346 17.9281 25.9681 17.8432 25.9111L17.9688 25.668C18.0137 25.7069 18.0536 25.7657 18.0885 25.8446C18.1234 25.9235 18.1408 25.993 18.1408 26.0531ZM23.5542 26.3853L23.4077 26.5236L23.2639 26.3798L23.4131 26.2433L23.5542 26.3853ZM19.3769 26.3725L19.2304 26.5109L19.0866 26.3671L19.2359 26.2305L19.3769 26.3725ZM7.68321 24.9399H7.88087V25.7862C7.88087 25.8968 7.8737 25.9819 7.85942 26.0414C7.84023 26.1193 7.80541 26.1818 7.75489 26.2289C7.70443 26.276 7.63789 26.2996 7.55526 26.2996C7.45835 26.2996 7.38374 26.2626 7.33147 26.1888C7.27921 26.1149 7.25291 26.0065 7.25246 25.8637L7.43933 25.8345C7.44159 25.9111 7.44983 25.9652 7.46417 25.9968C7.48561 26.0448 7.51818 26.0688 7.56198 26.0688C7.60617 26.0688 7.63744 26.0517 7.65578 26.0173C7.67407 25.983 7.68321 25.9117 7.68321 25.8035V24.9399ZM8.97763 26.2767H8.76185L8.67612 25.9731H8.28352L8.20247 26.2767H7.99206L8.37461 24.9399H8.58435L8.97763 26.2767ZM7.14189 25.1661H6.61197V25.4624H7.10503V25.6877H6.61197V26.0515H7.16063V26.2767H6.41363V24.9399H7.14189V25.1661ZM9.28179 26.2767H9.08345V24.9399H9.50083C9.60581 24.9399 9.68206 24.9519 9.72964 24.9759C9.77722 24.9999 9.81532 25.0426 9.84388 25.104C9.87244 25.1654 9.88677 25.2356 9.88677 25.3147C9.88677 25.415 9.8651 25.4978 9.82175 25.5632C9.77846 25.6285 9.71367 25.6697 9.62748 25.6868C9.67038 25.7208 9.70577 25.7582 9.73365 25.7989C9.76159 25.8396 9.79923 25.912 9.84653 26.0159L9.96647 26.2767H9.7293L9.58594 25.9859C9.53503 25.8819 9.50021 25.8164 9.48142 25.7893C9.46268 25.7623 9.44281 25.7437 9.42181 25.7337C9.40082 25.7237 9.36752 25.7187 9.32197 25.7187H9.28179V26.2767ZM10.9594 26.2767H10.7437L10.6579 25.9731H10.2653L10.1842 26.2767H9.97386L10.3564 24.9399H10.5661L10.9594 26.2767ZM11.6729 25.1661H11.3821V26.2767H11.1838V25.1661H10.8924V24.9399H11.6729V25.1661ZM12.517 26.2767H12.1827V24.9399H12.5753C12.6531 24.9399 12.711 24.9443 12.7492 24.9531C12.7874 24.962 12.8215 24.9803 12.8517 25.0083C12.8819 25.0362 12.907 25.0735 12.9271 25.12C12.9472 25.1665 12.9572 25.2187 12.9572 25.2764C12.9572 25.339 12.9448 25.3964 12.92 25.4488C12.8952 25.501 12.8617 25.5403 12.8192 25.5664C12.879 25.5901 12.925 25.6305 12.9572 25.6877C12.9894 25.7448 13.0055 25.812 13.0055 25.8892C13.0055 25.95 12.9951 26.0091 12.9743 26.0666C12.9535 26.124 12.9252 26.1699 12.8892 26.2042C12.8532 26.2386 12.8089 26.2597 12.7562 26.2676C12.7232 26.2725 12.6435 26.2755 12.517 26.2767ZM14.0587 26.2767H13.8429L13.7571 25.9731H13.3645L13.2835 26.2767H13.0731L13.4557 24.9399H13.6654L14.0587 26.2767ZM14.3501 26.2767H14.1658V24.9399H14.3588L14.7608 25.8327V24.9399H14.945V26.2767H14.746L14.3501 25.405V26.2767ZM15.3557 26.2767H15.1574V24.9399H15.3557V25.5335L15.7563 24.9399H16.023L15.6532 25.4606L16.0431 26.2767H15.7865L15.5165 25.6494L15.3557 25.8727V26.2767ZM6.28568 25.1661H5.9949V26.2767H5.79662V25.1661H5.50516V24.9399H6.28568V25.1661ZM22.2644 26.0931H22.2053C22.1379 26.0931 22.0739 26.0694 22.0132 26.0221C21.9798 25.996 21.9368 25.949 21.8839 25.881C21.8312 25.813 21.789 25.7666 21.7575 25.7417C21.7611 25.7636 21.7629 25.7863 21.7629 25.81C21.7629 25.841 21.7595 25.8737 21.7529 25.9083C21.6989 25.986 21.6112 26.0388 21.4898 26.0667C21.4134 26.0843 21.3084 26.0931 21.1749 26.0931C20.9935 26.0931 20.8712 26.0803 20.8081 26.0549C20.7158 26.0179 20.6697 25.9396 20.6697 25.82C20.6697 25.7126 20.707 25.6004 20.7817 25.4832C20.8102 25.4808 20.8284 25.4908 20.8363 25.5133C20.8011 25.571 20.7835 25.6264 20.7835 25.6798C20.7835 25.7563 20.8269 25.8052 20.9137 25.8264C20.9628 25.8385 21.065 25.8446 21.2204 25.8446C21.3636 25.8446 21.4683 25.8392 21.5344 25.8282C21.5939 25.8185 21.6446 25.7988 21.6865 25.7691C21.6161 25.6513 21.4935 25.5527 21.3187 25.4733C21.3224 25.35 21.3321 25.2466 21.3478 25.1628C21.6106 25.0148 21.8627 24.9147 22.1042 24.8625L21.995 25.0973C21.9101 25.118 21.8002 25.1559 21.6655 25.2111C21.5581 25.2548 21.4804 25.2897 21.4325 25.3158C21.5277 25.3516 21.637 25.4171 21.7602 25.5124C21.8063 25.5482 21.863 25.6006 21.9304 25.6698C21.9911 25.7323 22.0354 25.7736 22.0633 25.7936C22.1094 25.827 22.1576 25.8437 22.208 25.8437H22.3009C22.4325 25.8437 22.4984 25.824 22.4984 25.7845C22.4984 25.7572 22.4641 25.6972 22.3955 25.6043L22.5357 25.4131C22.6049 25.5054 22.6395 25.6019 22.6395 25.7026C22.6182 25.8313 22.5891 25.9186 22.5521 25.9647C22.4835 26.0503 22.3876 26.0931 22.2644 26.0931ZM23.1874 26.0931H23.1282C23.0124 26.0931 22.9368 26.0452 22.9016 25.9493C22.8779 25.8844 22.8622 25.7396 22.8543 25.5151C22.8506 25.4041 22.8461 25.327 22.8406 25.2839C22.8303 25.2001 22.8109 25.1258 22.7824 25.0609L22.9489 24.8861C22.9769 24.9304 22.9941 24.9987 23.0008 25.0909C23.0032 25.1243 23.0045 25.195 23.0045 25.303V25.5715C23.0045 25.6516 23.0102 25.7099 23.0217 25.7463C23.0424 25.8112 23.0836 25.8437 23.1456 25.8437H23.2238C23.3555 25.8437 23.4213 25.824 23.4213 25.7845C23.4213 25.7572 23.3871 25.6972 23.3185 25.6043L23.4586 25.4131C23.5278 25.5054 23.5624 25.6019 23.5624 25.7026C23.5412 25.8313 23.512 25.9186 23.4751 25.9647C23.4065 26.0503 23.3106 26.0931 23.1874 26.0931ZM17.4682 25.6644C17.4682 25.6929 17.4509 25.7442 17.4163 25.8182C17.3817 25.8922 17.3535 25.938 17.3317 25.9557C17.305 25.9769 17.2215 26.0036 17.0813 26.0357C16.9144 26.074 16.76 26.0931 16.618 26.0931C16.4275 26.0931 16.2964 26.0558 16.2248 25.9811C16.1793 25.9338 16.1565 25.8637 16.1565 25.7709C16.1565 25.6447 16.1926 25.5257 16.2649 25.4141C16.2679 25.4135 16.2712 25.4131 16.2749 25.4131C16.3016 25.4131 16.3201 25.4235 16.3304 25.4441C16.2934 25.5315 16.2749 25.5982 16.2749 25.6443C16.2749 25.7785 16.4193 25.8455 16.7081 25.8455C16.9703 25.8455 17.1756 25.8143 17.3244 25.7517C17.2989 25.6856 17.2655 25.6249 17.2242 25.5697L17.3626 25.3822C17.3905 25.4168 17.4157 25.4669 17.4381 25.5324C17.4581 25.5907 17.4682 25.6346 17.4682 25.6644ZM18.7534 26.0931H18.6287C18.5128 26.0931 18.4373 26.0452 18.4021 25.9493C18.3784 25.8844 18.3626 25.7396 18.3548 25.5151C18.3511 25.4041 18.3465 25.327 18.3411 25.2839C18.3308 25.2001 18.3114 25.1258 18.2828 25.0609L18.4494 24.8861C18.4773 24.9304 18.4946 24.9987 18.5013 25.0909C18.5037 25.1243 18.5049 25.195 18.5049 25.303V25.5715C18.5049 25.6516 18.5107 25.7099 18.5222 25.7463C18.5428 25.8112 18.5841 25.8437 18.646 25.8437H18.7935C18.8924 25.8437 18.9734 25.8337 19.0365 25.8137C19.0796 25.8003 19.1606 25.7639 19.2795 25.7044C19.0483 25.6134 18.9179 25.5679 18.8881 25.5679C18.8614 25.5679 18.8399 25.5764 18.8235 25.5934C18.8089 25.6079 18.7889 25.6395 18.7634 25.6881C18.7537 25.6923 18.7449 25.6944 18.737 25.6944C18.7207 25.6944 18.7076 25.6862 18.6979 25.6698C18.7392 25.5624 18.7707 25.4884 18.7926 25.4477C18.8332 25.3713 18.8724 25.3331 18.91 25.3331C18.9342 25.3331 19.0175 25.3649 19.1598 25.4286C19.3021 25.4923 19.4057 25.5242 19.4706 25.5242C19.5423 25.5242 19.6539 25.5097 19.8056 25.4805L19.7092 25.7008C19.6296 25.7093 19.5641 25.719 19.5125 25.7299C19.5489 25.8058 19.6194 25.8437 19.7237 25.8437H19.9167C20.0484 25.8437 20.1142 25.824 20.1142 25.7845C20.1142 25.7572 20.0799 25.6972 20.0113 25.6043L20.1515 25.4131C20.2207 25.5054 20.2553 25.6019 20.2553 25.7026C20.2341 25.8313 20.2049 25.9186 20.1679 25.9647C20.0993 26.0503 20.0034 26.0931 19.8803 26.0931H19.8047C19.7022 26.0931 19.6206 26.0624 19.5599 26.0011C19.5113 25.952 19.4692 25.8731 19.4333 25.7645C19.2392 25.9016 19.1236 25.9805 19.0866 26.0011C18.9767 26.0624 18.8657 26.0931 18.7534 26.0931ZM12.5412 25.6941H12.3811V26.0515H12.5646C12.6361 26.0515 12.6814 26.0488 12.7006 26.0433C12.7301 26.036 12.7541 26.0182 12.7726 25.99C12.7912 25.9617 12.8005 25.9238 12.8005 25.8764C12.8005 25.8363 12.7933 25.8023 12.779 25.7743C12.7647 25.7463 12.744 25.7259 12.7171 25.7132C12.69 25.7004 12.6314 25.6941 12.5412 25.6941ZM13.6935 25.7478L13.5582 25.2518L13.4256 25.7478H13.6935ZM8.61245 25.7478L8.47717 25.2518L8.34447 25.7478H8.61245ZM10.5943 25.7478L10.4589 25.2518L10.3263 25.7478H10.5943ZM9.43655 25.1661H9.28178V25.5053H9.42847C9.52363 25.5053 9.58301 25.4998 9.60671 25.4889C9.63036 25.4779 9.64893 25.4591 9.66231 25.4323C9.67574 25.4056 9.6824 25.3721 9.6824 25.332C9.6824 25.287 9.6736 25.2507 9.65593 25.2231C9.63832 25.1954 9.61343 25.1779 9.58126 25.1706C9.56517 25.1676 9.51692 25.1661 9.43655 25.1661ZM12.495 25.1624H12.3811V25.4716H12.511C12.5883 25.4716 12.6363 25.47 12.6551 25.467C12.689 25.4615 12.7157 25.4455 12.7351 25.4191C12.7545 25.3927 12.7643 25.3578 12.7643 25.3147C12.7643 25.2733 12.7559 25.2398 12.7391 25.2139C12.7224 25.1881 12.6975 25.1724 12.6645 25.167C12.6448 25.1639 12.5883 25.1624 12.495 25.1624ZM16.7946 25.2857L16.6599 25.4132L16.5279 25.2793L16.6653 25.1565L16.7946 25.2857ZM17.1277 25.2684L16.993 25.395L16.861 25.2621L16.9994 25.1383L17.1277 25.2684ZM22.6531 25.1437L22.5065 25.2821L22.3627 25.1383L22.512 25.0018L22.6531 25.1437ZM20.3845 25.151L20.259 25.2766L20.1315 25.1646L20.015 25.2821L19.8812 25.1646L20.0068 25.0363L20.1342 25.1501L20.2507 25.0309L20.3845 25.151ZM12.8064 23.3326L12.1003 21.4208L12.084 21.4181L12.0334 21.4086C12.0087 21.4017 11.9876 21.3941 11.9677 21.3771C11.9233 21.3391 11.9069 21.2757 11.9272 21.2209C11.9363 21.1965 11.951 21.1795 11.9692 21.1615L11.9962 21.139L11.7637 20.5093C11.7413 20.5241 11.7171 20.5361 11.6914 20.5461C11.6579 20.5591 11.6231 20.5684 11.5878 20.575C11.5697 20.5784 11.5516 20.5809 11.5332 20.5826C11.5002 20.5858 11.4651 20.5863 11.4303 20.5831L12.597 23.3326H12.8064ZM13.0048 23.3326H13.1845L12.6843 21.4801C12.5931 21.4756 12.502 21.4695 12.4111 21.4609L13.0048 23.3326ZM13.3947 23.3326H13.5744L13.266 21.4924L13.1831 21.4919L12.9989 21.4901L13.3947 23.3326ZM13.7533 23.3326H13.933L13.7983 21.4964L13.7685 21.4966C13.6896 21.4957 13.6106 21.4949 13.5317 21.4944L13.7533 23.3326ZM14.309 23.3326L14.3562 21.4766C14.2902 21.5185 14.2166 21.5064 14.1431 21.4947C14.1268 21.493 14.1104 21.4937 14.0939 21.4935L14.0751 21.4934L14.1198 23.3326H14.309ZM14.671 23.3326L14.978 20.7866C14.973 20.7999 14.968 20.8132 14.9627 20.8263C14.9498 20.8546 14.9364 20.8824 14.9191 20.9082C14.8611 20.9949 14.7781 21.0644 14.6956 21.1265C14.6808 21.1371 14.6658 21.1475 14.6508 21.1577L14.4913 23.3326H14.671ZM15.0297 23.3326L15.7177 20.1291C15.7019 20.1635 15.686 20.1979 15.6696 20.2322C15.6495 20.2722 15.6496 20.2721 15.6286 20.3114C15.5593 20.4313 15.4716 20.5591 15.3299 20.5959C15.3225 20.5977 15.3152 20.5994 15.3077 20.6007L14.85 23.3326H15.0297ZM15.2398 23.3326H15.4196L16.205 20.8563C16.1925 20.847 16.181 20.8365 16.1712 20.8241C16.1517 20.7997 16.1393 20.7697 16.1305 20.7401C16.1105 20.6723 16.1125 20.6008 16.1225 20.5315C16.1249 20.5151 16.1287 20.4935 16.1319 20.4772C16.1393 20.4404 16.1474 20.4039 16.1541 20.367C16.1656 20.2909 16.1741 20.2143 16.1822 20.1378C16.1915 20.0423 16.1985 19.9466 16.1979 19.8506C16.1977 19.8301 16.1973 19.8097 16.1965 19.7893L15.2398 23.3326ZM15.6179 23.3326H15.8273L16.7396 21.1826C16.7241 21.1798 16.7089 21.1757 16.6939 21.1697C16.6308 21.1446 16.5825 21.0924 16.5621 21.0275C16.5522 20.996 16.5498 20.9634 16.5487 20.9306L16.5484 20.9204C16.5358 20.9187 16.5231 20.9172 16.5104 20.9162L15.6179 23.3326ZM16.0543 23.3326H16.2706L17.3467 21.3428C17.2737 21.3407 17.2009 21.3347 17.129 21.3209C17.0987 21.315 17.068 21.3088 17.0387 21.2987L16.0543 23.3326ZM16.7746 23.3326L18.1244 21.3275C18.0031 21.3294 17.8818 21.3295 17.7606 21.3325L16.5383 23.3326H16.7746ZM17.3065 23.3326L18.9667 21.2905L18.957 21.2911C18.825 21.299 18.6929 21.3064 18.5609 21.3126L17.0532 23.3326H17.3065ZM17.9519 23.3326L20.0277 21.2198C19.9493 21.2249 19.8708 21.2296 19.7923 21.2349L19.5683 21.2502L17.6742 23.3326H17.9519ZM18.7352 23.3326L21.3595 21.1242C21.319 21.1443 21.2699 21.152 21.2282 21.155C21.218 21.1558 21.2078 21.1562 21.1975 21.1564C21.178 21.1569 21.1577 21.1566 21.1382 21.1558C21.1098 21.1546 21.0849 21.1526 21.0558 21.1503C21.0211 21.1476 20.9866 21.1442 20.9518 21.1433C20.8948 21.1443 20.8378 21.1494 20.7809 21.1536C20.7496 21.1562 20.7183 21.1588 20.6871 21.1616L18.3353 23.3326H18.7352ZM11.7835 20.152C11.787 20.1517 11.7904 20.1514 11.7939 20.1512C11.817 20.1515 11.8169 20.1514 11.8401 20.1533C11.8467 20.1543 11.8533 20.1554 11.8598 20.1566L11.8617 20.1569C11.8679 20.1582 11.8741 20.1595 11.8803 20.1609L11.883 20.1615C11.889 20.1629 11.8949 20.1644 11.9008 20.166L11.9075 20.1679L11.914 20.1699L11.9226 20.1724L11.9294 20.1746L11.9352 20.1766L11.9426 20.1791L11.9509 20.1821L11.9624 20.1865L11.9723 20.1905L11.9819 20.1945L11.9933 20.1995L12.0012 20.2031L12.014 20.2092C12.0605 20.2317 12.1051 20.2589 12.1481 20.2877C12.2251 20.3393 12.3011 20.3965 12.3595 20.4693C12.4819 20.6217 12.5138 20.8227 12.4601 21.0089C12.4429 21.0685 12.4194 21.1245 12.3828 21.1747L12.3822 21.1755C12.4571 21.1832 12.532 21.1891 12.607 21.1936L12.6172 21.1942L12.6826 21.1978L12.7008 21.1986L12.7687 21.2015L12.8492 21.2043L12.9314 21.2064L12.9924 21.2078C13.0678 21.2087 13.1432 21.2093 13.2187 21.2099L13.4976 21.2119C13.5884 21.2125 13.6791 21.2133 13.7698 21.2144L13.8503 21.2137L13.9957 21.2118L14.0014 21.2118C14.0334 21.2114 14.0654 21.2112 14.0974 21.2113C14.139 21.2122 14.1389 21.2105 14.1801 21.2149L14.1903 21.2165C14.196 21.1983 14.2024 21.1808 14.2097 21.1631C14.2264 21.1296 14.2464 21.101 14.275 21.0767C14.3056 21.0535 14.3365 21.031 14.3679 21.0089L14.4485 20.9545L14.4887 20.927L14.5285 20.8991C14.5518 20.8815 14.5744 20.8635 14.5966 20.8446L14.6194 20.8236L14.6307 20.813L14.6419 20.802L14.6527 20.7907L14.6576 20.7853L14.6632 20.779L14.6679 20.7734L14.673 20.767L14.6802 20.7575L14.6844 20.7514C14.699 20.7295 14.7084 20.7038 14.7173 20.6792C14.7282 20.6489 14.7388 20.6184 14.7503 20.5883C14.7614 20.5616 14.7613 20.5618 14.7737 20.5356C14.7927 20.5009 14.8129 20.4681 14.8405 20.4395C14.8925 20.3856 14.9596 20.3526 15.032 20.3383L15.0446 20.336C15.0493 20.3352 15.0542 20.3344 15.059 20.3338C15.1216 20.3255 15.1851 20.3331 15.2475 20.3248C15.2563 20.3233 15.2653 20.3217 15.2729 20.3169L15.2825 20.3093L15.2918 20.301L15.2948 20.2981L15.3036 20.2893L15.3119 20.2802L15.3199 20.2707L15.3278 20.2607L15.3305 20.2572L15.3379 20.2469L15.3447 20.237L15.3554 20.2202L15.3632 20.2072L15.3711 20.1936L15.3764 20.1841C15.3843 20.17 15.3918 20.1557 15.3991 20.142C15.4414 20.0577 15.4788 19.9711 15.5203 19.8864C15.5445 19.84 15.5717 19.7953 15.5961 19.749C15.6253 19.6938 15.6533 19.638 15.6834 19.5833C15.7006 19.5541 15.7181 19.5255 15.7373 19.4975C15.7587 19.4678 15.7812 19.4392 15.8063 19.4125C15.828 19.3896 15.8512 19.3682 15.8756 19.3484L15.8874 19.3393L15.8956 19.3329L15.9046 19.3262L15.916 19.3181L15.9222 19.3139L15.9369 19.304L15.9384 19.303C15.945 19.2987 15.9516 19.2946 15.9582 19.2905C16.0501 19.2341 16.1629 19.178 16.2711 19.2206C16.2954 19.2303 16.3182 19.246 16.3378 19.2631L16.3384 19.2636C16.3587 19.2813 16.3763 19.3019 16.3911 19.3244C16.4136 19.3585 16.4292 19.3968 16.4402 19.4361C16.4609 19.51 16.4642 19.5869 16.4706 19.6628C16.4771 19.7402 16.4809 19.8173 16.4799 19.8949C16.479 19.9622 16.4752 20.0293 16.4696 20.0963L16.4694 20.0986L16.4692 20.1007C16.4679 20.1156 16.4666 20.1305 16.4652 20.1454C16.4634 20.1636 16.4615 20.1819 16.4595 20.2001L16.4576 20.2174L16.4546 20.2438L16.453 20.2573L16.452 20.2656L16.4506 20.277L16.4487 20.2921L16.4456 20.3165L16.4443 20.3272L16.4362 20.3886C16.428 20.4504 16.4118 20.5107 16.4018 20.5722C16.3996 20.5893 16.398 20.6061 16.3973 20.6234L16.3974 20.6263C16.4394 20.6302 16.4817 20.631 16.5238 20.6338L16.5455 20.6358L16.5608 20.6375L16.5794 20.6398L16.5891 20.6412L16.5978 20.6425L16.6106 20.6449C16.6308 20.6486 16.6505 20.6537 16.6698 20.6608C16.7386 20.6861 16.793 20.7374 16.8161 20.8076C16.8266 20.8396 16.8294 20.8729 16.8303 20.9064L16.8571 20.9058L16.8623 20.9058L16.8757 20.9057L16.8943 20.906C16.9524 20.9102 17.0045 20.9254 17.0513 20.9609C17.0651 20.9714 17.0778 20.9831 17.0902 20.9952C17.1024 21.0072 17.1142 21.0215 17.1286 21.0312L17.1374 21.0339L17.1462 21.0363L17.1637 21.0403C17.1763 21.0428 17.1891 21.0449 17.2016 21.0472C17.3034 21.063 17.4064 21.0642 17.5096 21.0609L17.533 21.0602L17.5681 21.0588L17.7107 21.0521L17.7474 21.0507C17.7593 21.0503 17.7713 21.0499 17.7832 21.0496L17.7841 21.0495C17.8924 21.0485 18.0008 21.0478 18.1092 21.0461C18.1842 21.0442 18.2591 21.0419 18.334 21.0391L18.4168 21.0359L18.4418 21.0349L18.5472 21.0304L18.5576 21.0299L18.6549 21.0253L18.6767 21.0242L18.8014 21.0177C18.9374 21.0096 19.0734 21.0009 19.2094 20.992L19.5153 20.9717L19.8418 20.9496L20.1077 20.9318C20.1847 20.9261 20.2616 20.9191 20.3384 20.9117C20.4156 20.9044 20.4927 20.8966 20.5699 20.8893L20.5962 20.8867L20.6295 20.8837L20.6517 20.8815L20.6777 20.8792L20.6858 20.8785C20.7103 20.8763 20.7347 20.8742 20.7591 20.8722C20.8157 20.8681 20.8723 20.8645 20.929 20.8615L20.9441 20.8614H20.9492L20.9593 20.8615L20.9694 20.8618L20.9895 20.8626L21.0098 20.8637C21.0635 20.867 21.117 20.8729 21.1708 20.8744H21.173C21.1747 20.7703 21.1809 20.666 21.1849 20.562L21.1893 20.4627C21.1626 20.4643 21.136 20.4663 21.1093 20.4678L21.0827 20.4689C21.0633 20.4688 21.044 20.4685 21.0247 20.4683L20.9958 20.468C20.9861 20.468 20.9764 20.468 20.9668 20.468L20.9384 20.4693L20.9111 20.4707L20.8559 20.4744L20.8289 20.4766L20.7976 20.4792L20.7679 20.482C20.678 20.4904 20.5883 20.501 20.4983 20.5097C20.443 20.5143 20.4432 20.5143 20.3877 20.5179C20.3405 20.5199 20.2935 20.5213 20.2463 20.5209L20.232 20.5205L20.2237 20.5204L20.2219 20.5202C20.2169 20.5201 20.2113 20.5198 20.2011 20.5192C20.1474 20.5137 20.097 20.4987 20.0478 20.4769C19.991 20.4517 19.9381 20.4186 19.8812 20.3936C19.8656 20.3875 19.8507 20.3831 19.8343 20.379L19.8202 20.3763L19.806 20.3739L19.8005 20.3731L19.7918 20.3719L19.7862 20.3711L19.7777 20.37L19.767 20.3688L19.7489 20.3668L19.72 20.3641C19.6824 20.3609 19.6448 20.3584 19.6073 20.3542C19.5753 20.3497 19.5756 20.3497 19.544 20.3439C19.5098 20.3358 19.4763 20.3269 19.4438 20.3132C19.4093 20.2987 19.3764 20.2816 19.3443 20.2631L19.342 20.2618C19.333 20.2567 19.3241 20.2514 19.3152 20.2459L19.3142 20.2453L19.2962 20.2342L19.2889 20.2296L19.2862 20.2279L19.2828 20.2257L19.2759 20.2214L19.2682 20.2164L19.2576 20.2096L19.2404 20.1982L19.2358 20.1953L19.2307 20.1919L19.2292 20.1909L19.1861 20.1624L19.1627 20.1472L19.1484 20.1379L19.1412 20.1333L19.1152 20.1171C19.089 20.1022 19.0628 20.088 19.0352 20.0759L19.0228 20.0711L19.0196 20.0699L19.0131 20.0676L19 20.0634L18.9952 20.0619C18.9571 20.0505 18.9182 20.0439 18.8781 20.0379C18.8337 20.0312 18.789 20.0259 18.7443 20.0217C18.6878 20.0163 18.6308 20.0121 18.5737 20.0097L18.5691 20.0095L18.5369 20.0084L18.5297 20.0082L18.5041 20.0077L18.4953 20.0076L18.469 20.0074L18.4623 20.0074L18.4295 20.0077L18.4242 20.0078L18.3973 20.0084L18.3866 20.0088L18.3647 20.0097L18.3532 20.0103L18.3208 20.0123L18.2887 20.0148L18.2518 20.0184L18.2409 20.0197L18.2135 20.0229L18.2033 20.0242L18.1673 20.029L18.1126 20.0371C18.0631 20.0445 18.0138 20.0523 17.9643 20.0588C17.9202 20.0639 17.9203 20.0638 17.8759 20.068C17.7898 20.0739 17.704 20.0757 17.6183 20.0646C17.5507 20.0558 17.4884 20.0406 17.4292 20.0059L17.4194 20L17.4169 19.9984L17.4155 19.9976L17.4135 19.9964L17.4098 19.994L17.4072 19.9922L17.4021 19.9889L17.3933 19.9828L17.391 19.9813L17.3902 19.9807C17.3848 19.9768 17.3793 19.9729 17.374 19.9688L17.3728 19.9679L17.3701 19.9658L17.3635 19.9608L17.3573 19.9558L17.3549 19.954L17.3534 19.9527L17.351 19.9509L17.3469 19.9475L17.3374 19.9397L17.3297 19.9331L17.3265 19.9305L17.3235 19.9278L17.3201 19.925L17.3133 19.919L17.3024 19.9096L17.286 19.8951C17.2675 19.8788 17.249 19.8625 17.2301 19.8468C17.1552 19.7885 17.0744 19.7381 16.9981 19.6816C16.9898 19.6752 16.9817 19.6687 16.9736 19.6621L16.9669 19.6566L16.9607 19.6514L16.9591 19.6502C16.9536 19.6456 16.9482 19.641 16.9427 19.6363L16.9396 19.6336L16.9277 19.6231L16.9261 19.6216L16.9244 19.6201L16.9129 19.6096L16.9096 19.6065L16.9068 19.6039L16.9035 19.6007L16.8984 19.5958L16.8933 19.5907L16.8897 19.5872L16.8874 19.5848L16.8842 19.5816L16.8731 19.5699L16.8719 19.5686C16.8668 19.5632 16.8618 19.5576 16.8569 19.552C16.8521 19.5465 16.8474 19.541 16.8428 19.5354L16.8416 19.5339L16.8385 19.53L16.8322 19.5223L16.8291 19.5182L16.8268 19.5155L16.8243 19.512L16.8204 19.5069L16.8156 19.5004L16.8127 19.4966L16.8111 19.4943L16.809 19.4913L16.7991 19.4773L16.7986 19.4765C16.7946 19.4705 16.7906 19.4645 16.7867 19.4584L16.7862 19.4576L16.7838 19.4538L16.7771 19.4431L16.7752 19.44L16.7737 19.4376L16.7713 19.4332L16.7672 19.4265L16.7641 19.421L16.7619 19.4172L16.7601 19.4139L16.7578 19.4097L16.7532 19.4012L16.7507 19.3964L16.7497 19.3946L16.7487 19.3927L16.7408 19.377L16.74 19.3755L16.7393 19.3739L16.7318 19.358L16.731 19.3561L16.7301 19.3541L16.7277 19.3488L16.724 19.3404L16.7223 19.3362L16.7206 19.3325L16.7188 19.3279L16.7166 19.3226L16.714 19.316L16.7119 19.3106L16.7107 19.3075L16.7096 19.3046L16.7059 19.2946L16.7037 19.2885L16.7032 19.2871L16.703 19.2864C16.6955 19.2649 16.6888 19.2429 16.683 19.2207C16.6558 19.1158 16.647 19.0075 16.6297 18.9007C16.6252 18.8765 16.6202 18.8527 16.6141 18.8288C16.604 18.7954 16.5925 18.7619 16.5699 18.7346C16.5498 18.7103 16.5227 18.6944 16.4934 18.6837L16.48 18.6791L16.4789 18.6789L16.4658 18.6751L16.4634 18.6745L16.4507 18.6715L16.4335 18.6681C16.4101 18.6639 16.3866 18.6614 16.363 18.6609L16.3488 18.6608C16.3393 18.6609 16.3299 18.6613 16.3204 18.662C16.2242 18.6696 16.1345 18.7085 16.0495 18.7516L16.0095 18.773C15.922 18.8208 15.8369 18.8728 15.7494 18.9205C15.693 18.9499 15.6351 18.9759 15.5761 18.9989L15.5754 18.9992L15.5739 18.9998L15.5663 19.0027L15.5521 19.0082L15.5481 19.0097L15.5439 19.0112L15.5367 19.0138L15.5279 19.0171L15.5202 19.0198L15.5137 19.0222L15.5087 19.0239L15.5036 19.0257L15.4911 19.03L15.4834 19.0326L15.481 19.0335C15.4721 19.0365 15.4631 19.0394 15.4542 19.0423L15.453 19.0427L15.4459 19.0449L15.43 19.0499L15.4263 19.051L15.4224 19.0523L15.4148 19.0545L15.4053 19.0574L15.398 19.0596L15.3916 19.0615L15.386 19.0631L15.3805 19.0646L15.369 19.0679L15.3607 19.0702L15.3576 19.0711L15.3557 19.0716L15.3343 19.0774L15.3297 19.0786L15.3204 19.081L15.3057 19.0848L15.3029 19.0855L15.2986 19.0866L15.289 19.089L15.2806 19.0911L15.2775 19.0918C15.2619 19.0956 15.2463 19.0993 15.2308 19.1028L15.2302 19.103L15.2289 19.1032L15.2046 19.1086L15.1796 19.1139L15.1731 19.1153C15.0482 19.1412 14.9217 19.1601 14.7962 19.1761C14.7843 19.1776 14.7725 19.1792 14.7607 19.1806C14.7186 19.1859 14.6765 19.1909 14.6343 19.1959C14.6156 19.1981 14.5966 19.2003 14.5777 19.2024L14.5764 19.2025L14.5672 19.2034L14.5522 19.2049L14.5499 19.2051L14.5472 19.2054L14.5377 19.2062L14.5246 19.2074L14.5215 19.2077L14.518 19.2079L14.5086 19.2086L14.4969 19.2095L14.493 19.2096L14.4886 19.21L14.4796 19.2104L14.4692 19.2109L14.4645 19.2111L14.4593 19.2113L14.4507 19.2115L14.4415 19.2118L14.4361 19.2119L14.4299 19.212L14.4219 19.2119L14.4138 19.212C14.3313 19.2115 14.2496 19.2 14.1725 19.1667C14.1146 19.1416 14.0634 19.1076 14.0163 19.0684L14.014 19.0665L14.0072 19.0608L14.0002 19.0546L13.998 19.0528L13.9967 19.0516C13.9856 19.0418 13.9748 19.0318 13.9641 19.0216L13.9625 19.02L13.9602 19.0178L13.9548 19.0125L13.9474 19.0052L13.9421 18.9999L13.9385 18.9962L13.9283 18.9858L13.9205 18.9775L13.9172 18.9742L13.9148 18.9716C13.9077 18.9641 13.9007 18.9564 13.8937 18.9488L13.8928 18.9479L13.8896 18.9442L13.8787 18.9323L13.8741 18.9272L13.8687 18.9212L13.8483 18.8981L13.8463 18.8959L13.8454 18.8948L13.8449 18.8942L13.8084 18.8526L13.7886 18.8303L13.777 18.8171L13.7714 18.8109L13.7497 18.7872C13.7316 18.7686 13.713 18.7507 13.6936 18.7334L13.6815 18.7236L13.6773 18.7204L13.6691 18.7142L13.6638 18.7105L13.6565 18.7052L13.6506 18.7013L13.6437 18.6966L13.6371 18.6925L13.6307 18.6885L13.6234 18.6841L13.6175 18.6807L13.6093 18.6761L13.6041 18.6732L13.5948 18.6684C13.4836 18.6108 13.3549 18.5868 13.233 18.5637L13.1515 18.5482L13.1434 18.5466C13.119 18.542 13.0946 18.5372 13.0701 18.5323C13.0229 18.5221 12.976 18.5112 12.9293 18.4986C12.9209 18.4962 12.9126 18.4937 12.9043 18.4911L12.9023 18.4905L12.8963 18.4885L12.8845 18.4848L12.8794 18.4831L12.8755 18.4818L12.8701 18.48L12.8622 18.4773L12.8544 18.4745L12.849 18.4726L12.8451 18.4712L12.8402 18.4695L12.829 18.4653L12.8227 18.463L12.8205 18.4621L12.8184 18.4613L12.7996 18.454L12.7966 18.4528L12.7926 18.4512L12.7751 18.444L12.7733 18.4432L12.7707 18.4421L12.7537 18.4348C12.6739 18.3999 12.5975 18.358 12.524 18.3099C12.437 18.2528 12.3552 18.1888 12.2756 18.1221L12.2734 18.1204L12.2693 18.1169L12.2512 18.1017L12.2442 18.0957L12.2422 18.094L12.2387 18.0911L12.213 18.0691L12.2117 18.068L12.1649 18.0274L12.151 18.0153L12.1484 18.0131L12.1479 18.0127L12.0888 17.9612L12.0271 17.908L11.9763 17.8657L11.9579 17.8505L11.9256 17.8239L11.8185 17.736L11.7913 17.7136L11.7302 17.6634L11.7207 17.6555L11.714 17.65L11.6809 17.6224L11.6732 17.616L11.6621 17.6068L11.6464 17.5936L11.6317 17.5812L11.6104 17.5632C11.5171 17.4826 11.4252 17.4004 11.338 17.3132C11.2854 17.2607 11.2322 17.208 11.1892 17.147C11.1158 17.0426 11.0681 16.9218 11.0333 16.7998C10.9871 16.6384 10.9623 16.4709 10.9469 16.3039C10.9416 16.246 10.9416 16.1878 10.9376 16.1299C10.9352 16.1056 10.9324 16.0816 10.9274 16.0577C10.9219 16.0351 10.9155 16.0101 10.8982 15.9934C10.8919 15.9882 10.8853 15.9849 10.8774 15.9829C10.8535 15.9785 10.8285 15.9829 10.805 15.9869C10.7688 15.9931 10.7329 16.0006 10.6965 16.0063C10.6832 16.0078 10.6701 16.0092 10.657 16.0101L10.6543 16.0103L10.6481 16.0107L10.6445 16.0109L10.643 16.011C10.6377 16.0113 10.6324 16.0115 10.627 16.0116C10.6 16.0112 10.5734 16.0096 10.5468 16.0042C10.5116 15.997 10.4766 15.9836 10.4431 15.972C10.3551 15.9414 10.2679 15.8991 10.2103 15.8231C10.1746 15.7757 10.1582 15.7172 10.1335 15.664L10.1299 15.657C10.1149 15.6509 10.0996 15.6458 10.0834 15.6437L10.0769 15.6431L10.0752 15.643L10.0692 15.6429L10.0629 15.6431L10.0545 15.644L10.0462 15.6458L10.0437 15.6464L10.0376 15.6482L10.0356 15.6489L10.0278 15.6519L10.0261 15.6527L10.0201 15.6554L10.0176 15.6567L10.0121 15.6597L10.01 15.6609L10.0033 15.665L9.99254 15.6725L9.99102 15.6736L9.98069 15.6816C9.97014 15.6901 9.96009 15.6992 9.95038 15.708C9.90811 15.7502 9.87007 15.796 9.82926 15.8396C9.77135 15.8982 9.7104 15.954 9.65418 16.0143C9.64103 16.0291 9.62839 16.044 9.6162 16.0597C9.59678 16.0866 9.57878 16.1145 9.56111 16.1427L9.55219 16.1571L9.54226 16.1731L9.52612 16.1992L9.51776 16.2126L9.51285 16.2205L9.5111 16.2232L9.50851 16.2274L9.49891 16.2423L9.49276 16.2519L9.49135 16.254L9.4905 16.2553L9.4892 16.2572L9.48243 16.2674L9.47193 16.2828C9.45641 16.3042 9.4405 16.3249 9.42373 16.3453C9.40144 16.3706 9.3792 16.3953 9.35222 16.4158C9.30933 16.4484 9.26 16.472 9.21123 16.4944C9.18759 16.5053 9.16377 16.5159 9.14006 16.5267L9.12595 16.533L9.09079 16.5494L9.08785 16.5508C9.07442 16.5572 9.06105 16.5637 9.04778 16.5706C9.03091 16.58 9.01459 16.5898 8.99924 16.6016C8.99501 16.6052 8.99507 16.605 8.99112 16.6089C8.98688 16.6284 8.98355 16.648 8.98028 16.6678L8.97717 16.6886C8.98756 16.7059 8.99619 16.7238 9.0046 16.7421C9.01939 16.7778 9.03012 16.8152 9.04535 16.8507C9.0554 16.863 9.06816 16.873 9.08052 16.8829C9.11105 16.906 9.14232 16.9281 9.17212 16.9522C9.1912 16.9689 9.19103 16.9688 9.20932 16.9866C9.2285 17.0076 9.22834 17.0075 9.24606 17.0299C9.26485 17.0579 9.28184 17.0867 9.29866 17.1159C9.38157 17.2655 9.4475 17.4233 9.52166 17.5772C9.54361 17.6204 9.56585 17.6629 9.59006 17.7048C9.63827 17.7846 9.69273 17.86 9.75888 17.9255L9.77226 17.9384L9.77598 17.9419L9.78924 17.954C9.89202 18.046 10.015 18.1136 10.1397 18.1708L10.188 18.1926L10.2031 18.1993L10.2313 18.2117L10.3019 18.2422L10.3852 18.2778L10.3877 18.279C10.4134 18.2899 10.439 18.301 10.4646 18.3122L10.4671 18.3133C10.4997 18.3275 10.5321 18.342 10.5643 18.3569C10.6008 18.3743 10.637 18.3923 10.6729 18.4108C10.7283 18.4407 10.7839 18.4709 10.8341 18.5091C10.9402 18.5899 11.0298 18.693 11.1107 18.7982C11.1247 18.8165 11.1386 18.8349 11.1522 18.8537L11.1603 18.8647L11.1653 18.8718L11.1714 18.8802L11.1786 18.8906L11.1843 18.8986L11.1915 18.9091C11.1971 18.9175 11.2027 18.9259 11.2082 18.9344L11.2187 18.9507L11.2272 18.9643C11.2323 18.9725 11.2373 18.9808 11.2421 18.9891L11.2509 19.0041L11.2609 19.0222L11.2671 19.0337L11.2747 19.0483L11.2809 19.0607C11.2836 19.0663 11.2863 19.072 11.289 19.0777C11.3235 19.1515 11.3482 19.2295 11.3656 19.309C11.3677 19.3183 11.3696 19.3276 11.3714 19.337L11.3758 19.3601L11.3774 19.3691L11.3802 19.3857L11.3824 19.3994L11.3842 19.4115L11.3868 19.4296L11.3909 19.4618L11.394 19.4904L11.3964 19.5148C11.4051 19.6084 11.4079 19.7025 11.4105 19.7963C11.4128 19.8812 11.4182 19.9659 11.4212 20.0507C11.4235 20.1136 11.4207 20.1766 11.4237 20.2395C11.4252 20.2592 11.4264 20.2791 11.4307 20.2984C11.4767 20.3112 11.5306 20.3002 11.5749 20.2879C11.5824 20.2855 11.5821 20.2856 11.5894 20.2829L11.5935 20.2813C11.5973 20.2716 11.6015 20.2622 11.6064 20.2531C11.6164 20.2374 11.6262 20.2218 11.6404 20.2094C11.6436 20.2067 11.6468 20.2041 11.65 20.2016L11.658 20.1956L11.6661 20.1901L11.675 20.1846L11.684 20.1796L11.6932 20.1751L11.7026 20.171L11.7121 20.1673L11.7218 20.164L11.7317 20.1612L11.7416 20.1587L11.7547 20.156L11.7643 20.1544L11.774 20.153L11.7835 20.152ZM12.1642 20.6826L12.2019 20.8014C12.1978 20.7597 12.1853 20.7193 12.1642 20.6826ZM9.36571 7.22974C9.32575 7.21292 9.28212 7.20315 9.24104 7.19644L9.2131 7.19231L9.20395 7.19119L9.18488 7.18898L9.17421 7.18791L9.15643 7.18633L9.14542 7.18549L9.12748 7.18436L9.11692 7.18379L9.09705 7.18306L9.08848 7.18278L9.06042 7.18238H9.05326L9.03215 7.18255L9.02052 7.18278L9.00387 7.18328L8.99089 7.18374L8.97571 7.18447L8.96194 7.1852L8.93321 7.18707L8.92186 7.18797C8.89929 7.18977 8.87677 7.19192 8.8543 7.1944L8.82823 7.19739C8.8043 7.20027 8.78042 7.20343 8.75677 7.20682L8.73267 7.21066C8.74199 7.14005 8.75028 7.06939 8.75818 6.99855L8.76253 6.95408L8.76693 6.90746L8.77235 6.84786L8.77585 6.80699L8.77777 6.78391L8.78285 6.71878C8.78691 6.65505 8.79075 6.59139 8.79306 6.52756C8.79459 6.48466 8.79566 6.44126 8.79594 6.39836C8.79622 6.3566 8.79583 6.3141 8.79453 6.27233C8.79306 6.22588 8.79137 6.19952 8.78787 6.15341C8.78116 6.06672 8.76964 5.97455 8.73442 5.89423C8.71591 5.85213 8.68809 5.81149 8.64147 5.79992C8.6269 5.79778 8.6142 5.79755 8.59959 5.79879L8.58977 5.80082L8.5866 5.80156L8.58011 5.80319L8.57639 5.80427L8.57057 5.80596L8.56674 5.8072L8.56109 5.80912L8.55731 5.81047L8.55167 5.81262L8.54811 5.81403L8.54213 5.81651L8.53902 5.81787L8.53095 5.82159L8.53011 5.82199L8.51504 5.82966L8.51312 5.83074L8.50025 5.83807L8.48913 5.8449L8.48337 5.84852L8.46847 5.85845L8.46701 5.85947L8.44996 5.87166C8.39284 5.91337 8.34103 5.96162 8.28939 6.00982C8.17684 6.11825 8.06774 6.23011 7.95571 6.3391C7.90311 6.38911 7.85011 6.43849 7.79559 6.48647C7.75038 6.52626 7.70364 6.56447 7.65567 6.60087C7.61814 6.62937 7.57964 6.65669 7.54008 6.68232C7.51113 6.70105 7.48166 6.71889 7.45147 6.73554C7.35659 6.7878 7.25421 6.82912 7.14663 6.84554C7.12603 6.8487 7.10526 6.85096 7.08455 6.85198L7.06378 6.85249C7.03618 6.85254 7.00858 6.85 6.98132 6.84368C6.93605 6.83318 6.89361 6.81337 6.85506 6.78763C6.76887 6.73018 6.7021 6.6467 6.64182 6.56385L6.61569 6.52733L6.61298 6.52349L6.61152 6.5214L6.6061 6.51356C6.5492 6.43234 6.49536 6.34886 6.4383 6.26776C6.40692 6.22481 6.37486 6.18287 6.34133 6.14156C6.26141 6.04764 6.17195 5.96157 6.06302 5.90191C6.03943 5.88898 6.01516 5.87736 5.99027 5.86714C5.97746 5.86189 5.96408 5.85557 5.95009 5.85393C5.92164 5.85055 5.89173 5.85862 5.86531 5.86844C5.80802 5.88977 5.75582 5.92674 5.71642 5.97336C5.68577 6.0096 5.66292 6.05227 5.65106 6.09832C5.64395 6.12587 5.64119 6.15431 5.63876 6.18259C5.6343 6.23468 5.63311 6.28706 5.63374 6.33938C5.63582 6.51 5.65609 6.68051 5.68448 6.84859C5.70615 6.9766 5.7329 7.10393 5.76558 7.22968L5.7684 7.24018L5.78178 7.28973L5.78364 7.2965L5.79775 7.34595L5.79973 7.35272L5.81214 7.39398L5.81604 7.40662L5.83111 7.45403C5.86294 7.5519 5.89889 7.64869 5.94235 7.74199L5.95725 7.77309L5.96228 7.78314L5.97277 7.80396L5.98547 7.82784L5.98768 7.83179L6.00207 7.85724L6.01065 7.87169L6.01398 7.87705C6.02114 7.88879 6.0286 7.90042 6.03633 7.91177L6.04716 7.9274L6.05687 7.94072L6.06664 7.95364L6.07634 7.96595C6.08227 7.97334 6.08831 7.98057 6.09452 7.98762L6.1106 8.16016L6.11563 8.21243L6.11834 8.24093L6.12646 8.32169C6.15135 8.5351 6.18104 8.75855 6.28066 8.95219C6.30527 8.99994 6.33535 9.04419 6.36718 9.08737C6.41053 9.14618 6.4554 9.20364 6.5014 9.26036L6.55914 9.33091L6.57088 9.34519L6.60102 9.38154L6.69262 9.49177L6.70481 9.50639L6.7358 9.54369L6.75651 9.56875C6.77565 9.59189 6.79467 9.61515 6.81363 9.6384C6.86804 9.70669 6.92132 9.7755 6.97364 9.84537C7.00841 9.89323 7.04278 9.94138 7.07563 9.99065C7.10848 10.0399 7.14155 10.0875 7.15989 10.1441C7.18191 10.2123 7.1893 10.2848 7.1915 10.356C7.19415 10.4402 7.18896 10.5245 7.17976 10.6082L7.1792 10.6135L7.17914 10.6143L7.17897 10.6156L7.17463 10.6524C7.14048 10.9257 7.07185 11.1951 6.9895 11.4575C6.96483 11.5362 6.93859 11.6143 6.9106 11.6918C6.89479 11.7356 6.8738 11.7789 6.86296 11.8242C6.86155 11.8322 6.86053 11.84 6.85997 11.8481C6.86042 11.9284 6.90879 11.9928 6.95846 12.0518C7.01303 12.1132 7.07111 12.1713 7.12445 12.2338C7.14307 12.2573 7.16193 12.2813 7.17519 12.3084C7.19709 12.3531 7.20245 12.4033 7.20561 12.4523C7.20826 12.5139 7.20742 12.5755 7.21013 12.6371L7.21182 12.657L7.21221 12.6608L7.2143 12.6797C7.21831 12.7122 7.22486 12.7443 7.23688 12.7751C7.25319 12.817 7.2791 12.8509 7.31076 12.8789C7.32273 12.8895 7.33554 12.8993 7.34897 12.9084L7.36353 12.9177L7.37855 12.9266L7.39373 12.9349L7.4075 12.9419L7.41128 12.9437L7.42821 12.9516L7.43386 12.9542L7.45367 12.9627L7.47461 12.9709L7.48003 12.973L7.49013 12.9767L7.51124 12.9843L7.51937 12.9871L7.5464 12.9963C7.57908 13.0072 7.59415 13.0115 7.62734 13.0215C7.7506 13.0569 7.87489 13.0883 7.9981 13.1237C8.01215 13.1279 8.0262 13.1321 8.0402 13.1365L8.07751 13.1481L8.08699 13.1511L8.11702 13.1608L8.13118 13.1655L8.14191 13.1692L8.1563 13.174L8.16589 13.1774L8.17509 13.1806L8.18446 13.1839L8.19547 13.1878L8.20727 13.1921L8.21884 13.1963L8.22646 13.1993L8.23436 13.2021L8.2483 13.2075L8.26218 13.2129L8.2742 13.2177C8.29893 13.2276 8.32353 13.238 8.34792 13.249C8.42293 13.2827 8.49585 13.3213 8.56482 13.3663C8.60382 13.3917 8.64152 13.419 8.67759 13.4485C8.7066 13.4721 8.73544 13.4964 8.75864 13.5261C8.83641 13.6257 8.8508 13.7607 8.85351 13.8826C8.85413 13.9115 8.85391 13.9408 8.85334 13.9697C8.85244 14.0154 8.85052 14.0533 8.84866 14.101C8.84618 14.1649 8.84589 14.1647 8.84443 14.2286C8.8442 14.2682 8.84493 14.3075 8.84708 14.3471C8.85408 14.4298 8.8696 14.5234 8.93721 14.5796C8.96154 14.5998 8.99106 14.6095 9.01787 14.6254C9.03175 14.6356 9.03153 14.6354 9.04451 14.6467C9.09429 14.6975 9.12448 14.7616 9.14723 14.8284C9.17043 14.8967 9.18651 14.9678 9.19814 15.0389C9.22518 15.2037 9.23754 15.3707 9.24115 15.5379L9.24205 15.5868L9.24222 15.6025V15.6157L9.24245 15.6419L9.24239 15.6563L9.24245 15.6654L9.24233 15.6782L9.24228 15.6969L9.24199 15.7284L9.24183 15.7388L9.24171 15.752L9.2412 15.7765L9.24098 15.7912L9.24081 15.7986L9.24064 15.807L9.23979 15.8391L9.23945 15.8541L9.23929 15.8578C9.23878 15.8775 9.2381 15.8972 9.23742 15.9168L9.23488 15.9699L9.30656 16.0195L9.33958 15.9665C9.3507 15.9489 9.36187 15.9313 9.37339 15.9139L9.38626 15.8964L9.39941 15.8792L9.41047 15.8653C9.41572 15.8586 9.42114 15.852 9.42667 15.8455C9.49412 15.7696 9.57065 15.7028 9.64001 15.6288C9.66925 15.5961 9.69809 15.5632 9.72812 15.5312C9.75623 15.5032 9.78456 15.4756 9.81622 15.4516C9.8366 15.4361 9.85805 15.4221 9.8804 15.41L9.88994 15.405L9.89959 15.4002L9.90963 15.3955L9.91923 15.3913L9.92922 15.3872L9.93887 15.3836L9.95304 15.3787L9.9597 15.3766L9.96878 15.374L9.98289 15.3704L9.99096 15.3685L9.99943 15.3668L10.0135 15.3644L10.023 15.3631L10.0308 15.3623C10.0354 15.3618 10.0401 15.3614 10.0448 15.3611C10.051 15.3607 10.0573 15.3604 10.0636 15.3604L10.0825 15.3606C10.0951 15.361 10.1076 15.3621 10.1202 15.3638C10.1549 15.3683 10.189 15.3774 10.2217 15.3897C10.257 15.403 10.2911 15.4186 10.3193 15.4439C10.3591 15.4796 10.3838 15.5295 10.4041 15.5779C10.4146 15.603 10.4228 15.6305 10.4366 15.6541C10.4431 15.6614 10.4511 15.6668 10.4591 15.672C10.4837 15.6862 10.5099 15.6964 10.5366 15.7057C10.5454 15.7087 10.5555 15.7126 10.566 15.7163L10.5773 15.7202L10.5915 15.7246C10.597 15.7261 10.6026 15.7274 10.6079 15.7284C10.6185 15.7295 10.6289 15.7294 10.6395 15.7288C10.6896 15.7232 10.7387 15.7116 10.7886 15.7039C10.812 15.7013 10.8345 15.6994 10.858 15.6988C10.8924 15.6996 10.9262 15.7029 10.9594 15.7126C10.9815 15.719 11.003 15.7276 11.0233 15.7386C11.046 15.7509 11.0672 15.7656 11.0864 15.7828C11.1699 15.8574 11.2003 15.9634 11.2153 16.0704C11.2222 16.1399 11.2227 16.2095 11.228 16.279C11.2439 16.437 11.2656 16.5955 11.3121 16.7477C11.3414 16.8434 11.3806 16.9369 11.4437 17.0153C11.4598 17.0334 11.4764 17.0511 11.4932 17.0684L11.5376 17.1136L11.5766 17.1515L11.6161 17.1887L11.632 17.2034L11.656 17.2255L11.6729 17.2408L11.6963 17.2619L11.7135 17.2772L11.7372 17.298L11.7541 17.3128L11.7785 17.334L11.7945 17.3477L11.8205 17.3699L11.8346 17.3819L11.8589 17.4024L11.8928 17.4307L11.95 17.4784L11.9644 17.4902C12.0459 17.5576 12.1281 17.6245 12.2094 17.6925C12.2993 17.7694 12.3878 17.8477 12.4784 17.9237C12.548 17.9802 12.6195 18.0353 12.6949 18.0838L12.7238 18.102L12.753 18.1194L12.7826 18.136L12.7974 18.144L12.8125 18.1518L12.8277 18.1593L12.843 18.1667L12.8584 18.1738L12.8739 18.1806L12.8895 18.1872L12.9053 18.1936L12.9212 18.1996L12.9372 18.2054L12.9639 18.2144L12.9906 18.2228L13.0015 18.2259L13.0175 18.2305L13.0293 18.2337L13.0446 18.2377L13.0571 18.2408L13.0714 18.2444L13.0849 18.2475L13.0978 18.2505L13.1132 18.2539L13.1418 18.26C13.2264 18.2775 13.3119 18.2911 13.396 18.3084C13.4339 18.3171 13.4713 18.3259 13.5088 18.3359C13.5336 18.343 13.5582 18.3505 13.5827 18.3588L13.5949 18.3629L13.6162 18.3705L13.6373 18.3784L13.6582 18.3867L13.6729 18.3929L13.69 18.4004L13.6994 18.4048L13.7069 18.4083L13.7197 18.4145L13.7237 18.4165L13.74 18.4249C13.7461 18.4281 13.7521 18.4315 13.758 18.4349L13.7727 18.4433L13.7788 18.447L13.7886 18.4531L13.7979 18.459L13.8043 18.4633L13.8166 18.4717L13.8198 18.4739L13.835 18.485L13.8468 18.4941L13.8572 18.5023C13.8635 18.5074 13.8697 18.5126 13.8758 18.5179L13.8811 18.5225L13.8879 18.5286L13.8977 18.5374L13.9032 18.5424L13.9094 18.5483L13.9175 18.556L13.9247 18.5629L13.93 18.5682L13.9369 18.5751L13.9456 18.5839L13.9559 18.5946L13.9661 18.6054L13.9746 18.6145L13.9929 18.6346L14.0061 18.6494C14.0501 18.6987 14.0927 18.7496 14.1379 18.7975C14.1557 18.8154 14.174 18.8325 14.1931 18.849C14.2252 18.8748 14.2595 18.8993 14.2986 18.9131C14.336 18.9262 14.3765 18.9297 14.4159 18.9301L14.4432 18.9298L14.4656 18.9289L14.4882 18.9275L14.5107 18.9256L14.5333 18.9234L14.5558 18.921L14.6013 18.9156C14.6427 18.9107 14.6841 18.9058 14.7254 18.9006L14.7751 18.8942L14.8172 18.8885C14.937 18.8721 15.0565 18.852 15.1743 18.8253C15.1881 18.8222 15.2019 18.8189 15.2156 18.8156L15.2421 18.809L15.263 18.8037L15.2877 18.797L15.3127 18.79L15.3376 18.7828L15.3618 18.7753L15.3873 18.7671L15.4127 18.7586L15.424 18.7546L15.4379 18.7496L15.4491 18.7455L15.4631 18.7403L15.474 18.736L15.4881 18.7304L15.4989 18.7262L15.5131 18.7202L15.5235 18.7158L15.5382 18.7093L15.5479 18.705L15.5722 18.6938L15.5962 18.6821C15.706 18.625 15.8105 18.5583 15.9201 18.5007C15.9784 18.4712 16.038 18.4442 16.0996 18.4232L16.1121 18.419L16.1321 18.4127L16.1521 18.4068L16.1723 18.4015L16.1926 18.3967L16.2138 18.3923C16.2204 18.391 16.2271 18.3897 16.2338 18.3886L16.2507 18.386L16.2678 18.3837L16.2851 18.3819L16.2955 18.3809L16.3025 18.3803L16.318 18.3794C16.331 18.3787 16.3441 18.3783 16.3573 18.3783H16.3588L16.3729 18.3784L16.3907 18.379L16.4013 18.3796L16.4085 18.38L16.424 18.3812C16.4374 18.3824 16.4508 18.384 16.464 18.386L16.4793 18.3884L16.4968 18.3916L16.5142 18.3954L16.5284 18.3989C16.542 18.4022 16.5555 18.4061 16.5687 18.4105C16.6405 18.4341 16.7067 18.4713 16.7601 18.5246C16.7881 18.5526 16.8121 18.5845 16.8317 18.6189C16.8557 18.661 16.8728 18.7054 16.8857 18.7513L16.8886 18.7616L16.892 18.7749C16.8937 18.7814 16.8952 18.7879 16.8967 18.7945C16.8986 18.8032 16.9005 18.812 16.9023 18.8208L16.9066 18.843L16.9082 18.8521L16.9105 18.8661L16.9137 18.8859L16.9178 18.9134L16.9241 18.9588L16.9266 18.9778L16.9326 19.0215L16.936 19.045L16.9384 19.0607L16.9397 19.0691L16.9444 19.0965C16.9498 19.123 16.956 19.149 16.9633 19.175L16.968 19.189L16.973 19.2028L16.9784 19.2165L16.9841 19.2299L16.9901 19.2433L16.9965 19.2565L17.0032 19.2695L17.0102 19.2823L17.0176 19.2949L17.0253 19.3073L17.0333 19.3195L17.0417 19.3314L17.0505 19.3431L17.0596 19.3546L17.069 19.3659L17.0793 19.3773C17.1067 19.4069 17.1376 19.4323 17.1692 19.4572C17.2411 19.5104 17.316 19.5593 17.388 19.6122L17.4084 19.6285L17.4284 19.6454L17.4384 19.654C17.4533 19.6669 17.468 19.68 17.4829 19.6929L17.4888 19.6981L17.5086 19.7149L17.5282 19.7311L17.5481 19.7466C17.5628 19.7568 17.5776 19.7668 17.5944 19.7734C17.6136 19.7799 17.6346 19.7821 17.6546 19.7847L17.6694 19.7865L17.6843 19.7879L17.6991 19.7891L17.7138 19.7899L17.7283 19.7905L17.7412 19.7907L17.7684 19.7909L17.7787 19.7907C17.9268 19.7876 18.073 19.7564 18.2195 19.7381C18.2652 19.7335 18.265 19.7336 18.3109 19.7302C18.3268 19.7294 18.3427 19.7287 18.3586 19.7282L18.3676 19.7279C18.383 19.7274 18.3983 19.727 18.4137 19.7267L18.4389 19.7263L18.4702 19.7262C18.4863 19.7262 18.5025 19.7263 18.5185 19.7266L18.5266 19.7268C18.5424 19.7271 18.5581 19.7275 18.5739 19.728L18.5802 19.7282C18.6136 19.7294 18.6469 19.7311 18.6801 19.7333L18.684 19.7336C18.7011 19.7348 18.7182 19.7361 18.7353 19.7375C18.7642 19.7399 18.7931 19.7428 18.8219 19.746C18.9238 19.7575 19.0281 19.7701 19.1244 19.8075L19.1479 19.8171L19.171 19.8275L19.1802 19.8319L19.1865 19.8349L19.1937 19.8385L19.2079 19.8459L19.2161 19.8502L19.229 19.8573L19.2382 19.8625L19.2499 19.8692L19.2601 19.8752L19.2706 19.8815L19.2817 19.8883L19.291 19.8941L19.3114 19.907L19.3332 19.9211L19.3456 19.9292L19.3881 19.9573L19.4314 19.9856L19.452 19.9987L19.473 20.0118L19.4934 20.0232L19.5148 20.0346C19.5273 20.0411 19.54 20.0472 19.5529 20.0529C19.582 20.0645 19.6122 20.0698 19.6431 20.0743C19.7061 20.0814 19.7694 20.0845 19.8324 20.0922C19.8683 20.0978 19.9035 20.1047 19.9379 20.1149L19.9508 20.1188L19.9574 20.121L19.9699 20.1254L19.9714 20.1259C19.9773 20.1281 19.9831 20.1303 19.9889 20.1328C20.0487 20.1574 20.1037 20.1918 20.1623 20.219C20.1751 20.2244 20.1878 20.2293 20.201 20.2334C20.2087 20.2353 20.2161 20.2371 20.2238 20.2379C20.2404 20.2388 20.257 20.2391 20.2736 20.2389L20.3234 20.2382C20.3802 20.2358 20.4367 20.2315 20.4933 20.2262C20.4751 19.9652 20.4944 19.7016 20.5451 19.4449C20.5472 19.4343 20.5493 19.4238 20.5515 19.4132L20.5576 19.3852L20.5642 19.3554L20.5674 19.342C20.578 19.2969 20.5897 19.2522 20.6026 19.2078C20.6231 19.1375 20.6458 19.0682 20.6788 19.0027C20.75 18.8609 20.8556 18.7402 20.9618 18.6237C20.9964 18.5857 21.0313 18.548 21.0656 18.5098C21.0806 18.4932 21.0946 18.4756 21.111 18.4603C21.1189 18.4539 21.1269 18.4486 21.1359 18.4439C21.1872 18.4208 21.2443 18.4293 21.2977 18.4402L21.3015 18.441C21.3629 18.4551 21.4229 18.4745 21.4844 18.4881C21.5051 18.4922 21.5285 18.4968 21.5512 18.4966L21.5588 18.4964C21.5737 18.4954 21.5882 18.492 21.6012 18.4845C21.622 18.4723 21.6393 18.4527 21.6529 18.4331C21.6841 18.3876 21.7009 18.3292 21.6961 18.2741C21.694 18.2497 21.6872 18.2246 21.6717 18.2052C21.6624 18.1934 21.651 18.1868 21.6382 18.1792C21.6042 18.1621 21.5691 18.1485 21.5336 18.1345C21.5093 18.1248 21.4854 18.1148 21.4615 18.1042C21.4385 18.0931 21.4165 18.0814 21.3947 18.0681C21.3728 18.0531 21.3519 18.0366 21.3367 18.0146C21.3128 17.9801 21.3055 17.9371 21.2995 17.8964C21.291 17.826 21.2888 17.7552 21.2837 17.6845L21.2823 17.6666L21.2804 17.6445L21.2773 17.6139C21.2677 17.5433 21.2532 17.4732 21.2226 17.4084L21.2166 17.3963L21.2146 17.3924L21.2103 17.3844L21.2077 17.3799L21.2035 17.3727L21.2008 17.3681L21.1965 17.361L21.1937 17.3567L21.1889 17.3493L21.1863 17.3455L21.1801 17.3365L21.1787 17.3346L21.1708 17.3239L21.1683 17.3207L21.1626 17.3135L21.1594 17.3095L21.1542 17.3032L21.1506 17.299L21.1454 17.293L21.1417 17.2889L21.1385 17.2853L21.1234 17.2693L21.1227 17.2685L21.1069 17.2529L21.1051 17.2512L21.0889 17.2362L21.0864 17.234L21.0765 17.2254L21.0645 17.2152L21.0553 17.2077L21.0437 17.1984L21.0339 17.1907L21.0225 17.1821L21.0122 17.1744L21.0018 17.1668C20.9846 17.1544 20.9672 17.1424 20.9496 17.1308L20.9448 17.1276C20.929 17.1171 20.9131 17.1069 20.8974 17.0968C20.8057 17.0403 20.7128 16.9857 20.6225 16.927C20.5747 16.8949 20.5278 16.8614 20.4831 16.8255L20.481 16.8239L20.4769 16.8205L20.4675 16.8129L20.4616 16.8079L20.4579 16.8049L20.4546 16.8021L20.4491 16.7975L20.4396 16.7892L20.4352 16.7854L20.4335 16.7839C20.4266 16.7778 20.4197 16.7716 20.4129 16.7655L20.4123 16.7648L20.3956 16.7492L20.3931 16.7467L20.3911 16.7448L20.3869 16.7407L20.3784 16.7323L20.3733 16.7271L20.3698 16.7237L20.3665 16.7203L20.3615 16.7152L20.3533 16.7064L20.349 16.7019L20.3473 16.7C20.3411 16.6933 20.3349 16.6865 20.3289 16.6796C20.2682 16.61 20.2155 16.5328 20.1753 16.4496C20.1715 16.4417 20.1678 16.4338 20.1642 16.4259L20.1636 16.4244L20.1633 16.4238C20.16 16.4162 20.1567 16.4085 20.1536 16.4009L20.1528 16.399L20.1523 16.3979C20.1492 16.3903 20.1462 16.3827 20.1434 16.3751L20.1428 16.3735L20.1423 16.372L20.1405 16.3674L20.1372 16.3578L20.1336 16.3477L20.1324 16.344L20.1309 16.3396L20.1278 16.3297L20.1252 16.3218L20.1241 16.3177L20.1221 16.3116L20.1193 16.3012L20.1177 16.2956L20.1167 16.2918L20.1143 16.2833L20.1116 16.2724L20.1109 16.2694L20.1102 16.2667L20.1073 16.255L20.1047 16.243L20.1011 16.2264C20.0549 15.9973 20.0848 15.7539 20.1225 15.5247C20.1322 15.465 20.1369 15.4406 20.1492 15.3717C20.1528 15.3543 20.157 15.3375 20.162 15.3205C20.1952 15.2212 20.2554 15.1368 20.3241 15.0586C20.3985 14.974 20.481 14.8972 20.558 14.8151C20.5813 14.7892 20.5812 14.7894 20.6037 14.7631C20.6695 14.6805 20.7344 14.5806 20.7043 14.4701C20.6976 14.4452 20.6878 14.4213 20.6748 14.399C20.6587 14.3716 20.6381 14.347 20.6146 14.3255C20.5797 14.2935 20.5388 14.2684 20.4962 14.2481C20.4893 14.2448 20.4824 14.2417 20.4755 14.2387L20.4589 14.2317L20.4428 14.2253L20.4388 14.2238L20.4243 14.2185L20.4184 14.2165L20.4049 14.2119L20.3979 14.2096L20.3849 14.2056L20.3771 14.2033L20.3646 14.1997L20.3561 14.1973L20.344 14.1941L20.3237 14.1891L20.3031 14.1844L20.2937 14.1824L20.2817 14.18L20.2722 14.1782L20.2603 14.176L20.2508 14.1743L20.2386 14.1722L20.2294 14.1707L20.2169 14.1688L20.208 14.1674L20.1949 14.1656L20.1866 14.1644L20.144 14.1593L20.1163 14.1564L20.1071 14.1555L20.0884 14.1538L20.0606 14.1517L20.0489 14.1509L20.0326 14.1499L20.0207 14.1492L20.0046 14.1484L19.9925 14.1479L19.9766 14.1473L19.9644 14.1469L19.9485 14.1466L19.9363 14.1463L19.9202 14.1461L19.9082 14.146H19.8811L19.8655 14.1462L19.854 14.1463L19.8267 14.1469L19.8082 14.1475L19.7996 14.1477L19.7799 14.1485L19.7731 14.1488L19.7515 14.1499L19.7473 14.1501L19.7232 14.1515L19.7048 14.1527C19.6951 14.1534 19.6853 14.1541 19.6756 14.1549L19.6651 14.1558C19.6309 13.9264 19.6042 13.6958 19.5843 13.4646C19.5639 13.2279 19.5505 12.9902 19.5507 12.7525C19.5507 12.7162 19.5511 12.6798 19.552 12.6435L19.5529 12.6061L19.5546 12.5573L19.5553 12.5428L19.5562 12.5224L19.5568 12.5086L19.5575 12.4976L19.5582 12.4823L19.5595 12.4598L19.5607 12.4424L19.5632 12.4073C19.5642 12.3923 19.5654 12.3774 19.5667 12.3625C19.5698 12.3262 19.5739 12.2899 19.5785 12.2538C19.5811 12.2339 19.5843 12.2151 19.5851 12.1953C19.5847 12.1838 19.5835 12.1731 19.5815 12.1618C19.5572 12.0655 19.4642 12.0049 19.3856 11.9547C19.3691 11.9441 19.3525 11.9337 19.3358 11.9232C19.3028 11.9023 19.2699 11.8815 19.2375 11.8596C19.2146 11.8433 19.2148 11.8435 19.1925 11.8265C19.1877 11.8224 19.1827 11.8184 19.1779 11.8141L19.1762 11.8127L19.1734 11.8102L19.1667 11.8044L19.1631 11.801L19.1602 11.7984L19.1554 11.7939L19.1541 11.7927L19.1536 11.7923C19.1499 11.7887 19.1463 11.7852 19.1428 11.7815L19.142 11.7807L19.1411 11.7797C19.1363 11.7747 19.1317 11.7696 19.1272 11.7643L19.1249 11.7616L19.1245 11.7611L19.1232 11.7596L19.1209 11.7566L19.1197 11.755L19.1188 11.7538L19.1167 11.7511L19.1151 11.7489L19.1146 11.7482L19.1135 11.7467C19.1022 11.7308 19.0929 11.7136 19.0866 11.6945C19.0714 11.649 19.0796 11.6008 19.092 11.5556C19.1222 11.4456 19.1869 11.3461 19.2526 11.2545C19.2815 11.2142 19.3118 11.1748 19.3425 11.1358C19.3753 11.0943 19.406 11.0568 19.4401 11.0149C19.4953 10.947 19.5507 10.8793 19.6046 10.8103C19.6356 10.7695 19.6659 10.7284 19.6955 10.6866C19.7637 10.5854 19.8301 10.4784 19.8613 10.3591C19.8943 10.233 19.9109 10.1034 19.9158 9.97321L19.917 9.93031L19.9172 9.91632L19.9175 9.88725L19.9174 9.87071L19.9172 9.84407L19.9169 9.82674L19.9161 9.8005L19.9155 9.78323L19.9143 9.75631L19.9134 9.74L19.9114 9.70986L19.9105 9.69687L19.907 9.65443L19.9059 9.64269L19.9027 9.61176L19.9007 9.59427L19.8976 9.56915L19.8951 9.54996L19.8918 9.52665L19.8888 9.50656L19.8853 9.48443L19.8819 9.46366L19.8781 9.44255L19.8743 9.42111L19.8706 9.40214C19.8666 9.3816 19.8623 9.36116 19.8578 9.34079C19.8508 9.30963 19.8433 9.27859 19.8351 9.24772C19.8025 9.12417 19.7618 9.00034 19.6891 8.894C19.6024 8.76696 19.4807 8.6679 19.3488 8.59075C19.3102 8.56812 19.2704 8.54734 19.23 8.52804C19.2078 8.51743 19.1856 8.50676 19.1622 8.49892C19.128 8.4874 19.0925 8.48086 19.0569 8.47527C18.9664 8.46353 18.8752 8.4589 18.7845 8.4488C18.7223 8.43988 18.6434 8.43181 18.5992 8.38107C18.5757 8.35398 18.5626 8.31989 18.551 8.28648C18.534 8.23105 18.5202 8.17478 18.5029 8.11947C18.4891 8.08092 18.4729 8.04118 18.4424 8.01268L18.4361 8.00721L18.4339 8.00551L18.4295 8.00224L18.4268 8.00043L18.4227 7.99772L18.4197 7.99603L18.4155 7.99372L18.4125 7.99214L18.4081 7.99011L18.4051 7.98869L18.4005 7.98683L18.3975 7.98565L18.3924 7.98384L18.3899 7.98294L18.3821 7.98062L18.3802 7.98006L18.3743 7.97854L18.3623 7.97588L18.3524 7.97408L18.3458 7.97289L18.336 7.97142L18.3291 7.97046L18.3137 7.96843C18.2508 7.96036 18.1872 7.95793 18.1239 7.95675C17.9218 7.95285 17.7195 7.96267 17.5177 7.97662L17.422 7.9835L17.3161 7.99157L17.2774 7.99485C17.2656 7.97515 17.2532 7.95601 17.2405 7.93688C17.2161 7.90206 17.1908 7.86842 17.1645 7.83501C17.0665 7.71592 16.955 7.60857 16.8276 7.52103C16.7731 7.48349 16.7157 7.44709 16.6548 7.42056L16.6404 7.41458L16.6359 7.41277L16.6257 7.40882L16.6208 7.40702L16.6102 7.40323L16.6063 7.40188L16.5921 7.39714L16.589 7.39618C16.5398 7.38071 16.489 7.37033 16.4383 7.36265C16.3342 7.34685 16.2285 7.3425 16.1233 7.34296C15.9657 7.34358 15.8084 7.35548 15.6516 7.37208L15.6312 7.37428L15.5675 7.38139L15.4825 7.39149C15.4036 7.40115 15.3248 7.41187 15.2458 7.42067C15.2132 7.42429 15.1809 7.42683 15.1485 7.43157C15.1278 7.4354 15.1074 7.44003 15.087 7.44545C14.9489 7.48727 14.83 7.56894 14.7187 7.65891C14.6033 7.75209 14.4951 7.85369 14.3814 7.94902C14.3435 7.97989 14.3436 7.97978 14.3051 8.00986C14.2054 8.08408 14.103 8.14966 13.9845 8.18912L13.9634 8.19538L13.9429 8.20074L13.9427 8.20571C13.9396 8.28659 13.9314 8.37001 13.9137 8.45089C13.9098 8.48526 13.9057 8.51963 13.9016 8.55401C13.8946 8.60469 13.8879 8.65532 13.8789 8.70572C13.873 8.73953 13.8662 8.77316 13.8579 8.80652C13.8506 8.83638 13.8421 8.86595 13.8318 8.89491C13.8171 8.93555 13.7982 8.97629 13.7722 9.01123L13.7678 9.01716L13.7642 9.02156L13.7635 9.02252L13.7623 9.02382L13.7582 9.02895L13.7553 9.032L13.7542 9.03336L13.752 9.03567L13.7478 9.04019L13.7457 9.04227L13.7443 9.04369L13.7411 9.04679L13.7369 9.05085L13.7344 9.05305L13.7335 9.05384C13.7303 9.05672 13.727 9.05949 13.7236 9.06214L13.723 9.06265L13.7223 9.06316C13.7189 9.06581 13.7155 9.06835 13.7119 9.07078L13.7067 9.07428L13.7061 9.07467L13.7054 9.07512L13.7023 9.07704L13.7001 9.0784L13.6993 9.0789L13.6954 9.08111L13.6934 9.08229L13.6864 9.08596C13.669 9.09476 13.6505 9.1012 13.6315 9.10543C13.6189 9.10831 13.6067 9.11023 13.5948 9.11074L13.5878 9.11085C13.5643 9.11068 13.5422 9.10436 13.521 9.08777C13.4977 9.06954 13.4793 9.0447 13.4638 9.01987C13.4565 9.00835 13.4495 8.99667 13.4427 8.98493C13.3862 9.00762 13.3277 9.0254 13.2684 9.03923C13.1268 9.07219 12.9817 9.08173 12.8368 9.08551C12.7347 9.08709 12.6326 9.08573 12.5305 9.08483C12.4428 9.08404 12.3551 9.08613 12.2674 9.08359C12.1976 9.08043 12.1284 9.07382 12.0589 9.0657C12.0078 9.05875 11.9569 9.05097 11.9059 9.04284C11.8986 9.04346 11.8913 9.04402 11.884 9.04453C11.8607 9.04617 11.8374 9.04741 11.814 9.04792L11.7907 9.04826C11.6975 9.04848 11.6051 9.03663 11.5189 8.99701C11.5063 8.99125 11.494 8.98504 11.482 8.9785C11.4517 8.97522 11.4215 8.97274 11.3911 8.97172C11.3204 8.96935 11.2495 8.97477 11.1788 8.97517C11.1477 8.97455 11.1172 8.97297 11.0863 8.97003C11.0482 8.96489 11.0105 8.95727 10.9755 8.94085C10.9443 8.92618 10.9166 8.90467 10.8907 8.88215C10.8542 8.85026 10.8206 8.81459 10.7889 8.77796C10.7181 8.69629 10.6517 8.61107 10.5798 8.53036C10.5585 8.50727 10.5369 8.48481 10.5146 8.4628C10.4456 8.39885 10.3689 8.33913 10.2723 8.33123L10.26 8.33089L10.1965 8.3117C10.1804 8.31317 10.1643 8.31453 10.1482 8.31577L10.1414 8.31633L10.1137 8.31825C10.0951 8.31904 10.0765 8.31972 10.0578 8.31989H10.0392C10.0144 8.31966 9.98955 8.31842 9.96483 8.31537C9.92498 8.31046 9.88531 8.30121 9.84879 8.28416C9.79551 8.25916 9.75657 8.21846 9.7271 8.17032L9.53966 8.11388C9.50687 8.03684 9.46843 7.96234 9.43547 7.88541C9.42294 7.85448 9.41103 7.82344 9.40172 7.79138C9.38344 7.72828 9.37294 7.66218 9.36334 7.59728C9.34562 7.47796 9.33557 7.34877 9.36571 7.22974ZM10.6379 18.7158L11.1308 19.8773C11.1298 19.8529 11.129 19.8285 11.1284 19.8041C11.1267 19.7437 11.1245 19.6834 11.1215 19.623C11.1182 19.5746 11.1144 19.5265 11.1085 19.4784C11.0963 19.3902 11.0785 19.3026 11.0436 19.2203C11 19.1173 10.9307 19.024 10.8611 18.9374C10.7973 18.8579 10.7272 18.7754 10.6417 18.7183L10.6379 18.7158ZM10.3098 10.2711C11.0004 10.5698 11.5557 11.1025 11.7002 12.1022C11.8298 12.1093 11.9426 12.1541 12.0479 12.236C11.9829 12.3704 11.9304 12.5106 11.8913 12.6549H11.454C11.3596 13.0689 11.3596 13.4989 11.454 13.9129H11.8913C11.9451 14.1113 12.024 14.3019 12.1263 14.4802L11.8171 14.7894C12.0431 15.1489 12.3471 15.453 12.7067 15.679L13.0159 15.3698C13.1941 15.4721 13.3848 15.551 13.5832 15.6048V16.0421C13.9972 16.1364 14.4272 16.1364 14.8411 16.0421V15.6048C15.0395 15.551 15.2302 15.4721 15.4085 15.3698L16.1044 16.0657C15.5651 16.4335 14.9136 16.6486 14.2122 16.6486C12.3552 16.6486 10.8475 15.1409 10.8475 13.2839C10.8475 13.0268 10.8705 12.7592 10.8828 12.4772C10.8936 12.2307 10.8122 11.8147 10.5875 11.5899C10.1935 11.1956 9.79421 10.9342 9.79421 10.9342L10.3098 10.2711ZM18.1145 16.2967C17.4239 15.998 16.8686 15.4653 16.7242 14.4656C16.5945 14.4584 16.4818 14.4137 16.3764 14.3318C16.4415 14.1975 16.494 14.0573 16.5331 13.9129H16.9703C17.0647 13.4989 17.0647 13.0689 16.9703 12.6549H16.5331C16.4793 12.4565 16.4003 12.2659 16.2981 12.0876L16.6072 11.7784C16.3812 11.4189 16.0772 11.1148 15.7177 10.8888L15.4085 11.198C15.2302 11.0958 15.0395 11.0168 14.8411 10.963V10.5258C14.4272 10.4313 13.9972 10.4313 13.5832 10.5258V10.963C13.3848 11.0168 13.1941 11.0958 13.0159 11.198L12.3199 10.5021C12.8592 10.1343 13.5108 9.91925 14.2122 9.91925C16.0692 9.91925 17.5768 11.4269 17.5768 13.2839C17.5768 13.541 17.5539 13.8086 17.5416 14.0906C17.5308 14.3372 17.6122 14.7531 17.8369 14.9779C18.2308 15.3722 18.6301 15.6337 18.6301 15.6337L18.1145 16.2967ZM20.7838 14.9874C20.7112 15.0686 20.6301 15.1436 20.5575 15.2211C20.5372 15.2437 20.5175 15.2665 20.4984 15.2902C20.4715 15.3258 20.4456 15.3622 20.4313 15.4048C20.4203 15.4428 20.4152 15.487 20.4089 15.523C20.4028 15.5577 20.3991 15.5821 20.3935 15.6168C20.3874 15.6577 20.3812 15.6995 20.3759 15.7416L20.7838 14.9874ZM14.6706 10.9793C14.3679 10.9191 14.0564 10.9191 13.7538 10.9793L13.765 11.3373C13.5479 11.3872 13.3407 11.4731 13.1519 11.5913L12.9068 11.3302C12.6502 11.5016 12.4299 11.7219 12.2584 11.9785L12.5196 12.2237C12.4013 12.4124 12.3155 12.6197 12.2656 12.8367L11.9076 12.8255C11.8474 13.1281 11.8474 13.4397 11.9076 13.7423L12.2656 13.7311C12.3155 13.9482 12.4013 14.1554 12.5196 14.3442L12.2584 14.5893C12.4299 14.8459 12.6502 15.0662 12.9068 15.2377L13.1519 14.9765C13.3407 15.0948 13.5479 15.1806 13.765 15.2305L13.7538 15.5885C14.0564 15.6487 14.3679 15.6487 14.6706 15.5885L14.6593 15.2305C14.8764 15.1806 15.0836 15.0948 15.2724 14.9765L15.5176 15.2377C15.7742 15.0662 15.9945 14.8459 16.1659 14.5893L15.9048 14.3442C16.023 14.1554 16.1089 13.9482 16.1588 13.7311L16.5168 13.7423C16.5769 13.4397 16.5769 13.1281 16.5168 12.8255L16.1588 12.8367C16.1089 12.6197 16.023 12.4124 15.9048 12.2237L16.1659 11.9785C15.9945 11.7219 15.7742 11.5016 15.5176 11.3302L15.2724 11.5913C15.0836 11.4731 14.8764 11.3872 14.6593 11.3373L14.6706 10.9793ZM14.1103 12.0033V11.7911H14.314V12.0026C14.5485 11.9586 14.6542 11.7778 14.6512 11.7927C14.6127 11.9744 14.5233 12.171 14.314 12.22V12.6558C14.7328 12.6083 14.9208 12.2906 14.9157 12.3155C14.8504 12.6191 14.6936 12.9493 14.314 13.0011V13.3973C14.8288 13.3516 15.0597 12.9863 15.0536 13.0146C14.9743 13.3592 14.7824 13.7345 14.314 13.7841V14.2629C14.972 14.2152 15.2669 13.7343 15.2591 13.7709C15.1538 14.2431 14.888 14.7601 14.2122 14.7627C13.5348 14.7647 13.2694 14.244 13.1689 13.7688C13.1625 13.7345 13.4528 14.2186 14.1103 14.2634V13.785C13.6386 13.7394 13.4464 13.3606 13.3707 13.0129C13.3656 12.9865 13.5939 13.3557 14.1103 13.398V13.0021C13.728 12.9537 13.5711 12.6203 13.5086 12.314C13.5044 12.2907 13.6903 12.6119 14.1103 12.6566V12.2211C13.8994 12.1738 13.81 11.9752 13.7732 11.7918C13.7707 11.7778 13.8752 11.9607 14.1103 12.0033ZM8.49353 13.6622L8.56928 13.8408C8.56781 13.8168 8.56527 13.793 8.56081 13.7693C8.55646 13.7463 8.55071 13.7219 8.53773 13.702C8.52627 13.6864 8.50934 13.6741 8.49353 13.6622ZM11.1115 8.68856C11.1201 8.68986 11.1286 8.69059 11.1373 8.69144C11.2128 8.69539 11.2883 8.6898 11.3638 8.68907C11.401 8.68963 11.4007 8.68963 11.4377 8.69155C11.6404 8.70956 11.8394 8.74811 12.0404 8.77841C12.0939 8.78569 12.1472 8.7919 12.2009 8.79698C12.2438 8.80014 12.2866 8.80212 12.3296 8.80263C12.4967 8.80184 12.6638 8.80596 12.831 8.80336C12.9448 8.80037 13.0589 8.7941 13.1708 8.77164C13.2401 8.7577 13.3086 8.73755 13.3729 8.70786C13.4403 8.67676 13.5119 8.63494 13.5586 8.5759C13.5946 8.53036 13.6164 8.47493 13.6311 8.41917C13.6542 8.33095 13.6609 8.23861 13.6619 8.14774C13.6624 8.09808 13.661 8.04841 13.6584 7.9988C13.6558 7.94659 13.6514 7.8945 13.6469 7.8424C13.6317 7.6847 13.6116 7.52752 13.598 7.36971C13.5891 7.24571 13.5877 7.12143 13.5809 6.99731C13.5779 6.95566 13.5743 6.91434 13.5696 6.87286C13.5614 6.8145 13.5517 6.75648 13.5327 6.70055C13.5266 6.68265 13.5209 6.65889 13.5082 6.64427C13.499 6.63502 13.4883 6.62779 13.4775 6.62063C13.4647 6.61284 13.4517 6.60556 13.4385 6.5985C13.3727 6.56571 13.3054 6.53591 13.2399 6.50227C13.1564 6.45717 13.0771 6.40547 13.0114 6.33611C12.9515 6.27284 12.9074 6.19704 12.8655 6.12118C12.8177 6.03488 12.777 5.9448 12.746 5.85106C12.7178 5.76572 12.6985 5.6784 12.6817 5.5903L12.6795 5.57145C12.6696 5.57235 12.6597 5.57325 12.6497 5.57416L12.6308 5.57591L12.6257 5.57636L12.6125 5.5776L12.6073 5.578L12.5964 5.5789L12.5911 5.57935L12.5687 5.58093C12.5102 5.58291 12.4517 5.58189 12.3931 5.58229C12.2649 5.58319 12.229 5.58415 12.1007 5.58635L12.0527 5.58753L12.0453 5.58776L12.0401 5.58787L11.9566 5.5903L11.93 5.59115L11.9189 5.59148L11.9144 5.59165C11.896 5.59222 11.8775 5.59284 11.859 5.59346L11.8582 5.59352L11.8535 5.59369L11.8126 5.5951L11.8031 5.59549L11.7977 5.59566L11.7454 5.59764L11.7371 5.59792L11.7301 5.5982L11.7166 5.59871L11.6765 5.60029L11.6752 5.60035C11.6554 5.60114 11.6357 5.60193 11.616 5.60277C11.5215 5.60661 11.427 5.61073 11.3326 5.6148C11.1606 5.61948 10.9887 5.61276 10.8167 5.61694C10.7476 5.61937 10.6775 5.62264 10.6082 5.63094C10.5937 5.63263 10.5792 5.63461 10.5648 5.63681L10.5638 5.63692L10.5629 5.63709L10.5569 5.63805L10.5527 5.63867L10.5521 5.63878L10.5509 5.63901L10.5461 5.6398L10.5417 5.64053L10.5405 5.64076L10.5389 5.64104L10.5349 5.64177L10.5307 5.64251L10.529 5.64285L10.527 5.64318L10.5235 5.64386L10.5197 5.6446L10.5174 5.64505L10.5151 5.6455L10.5088 5.6468L10.5059 5.64742L10.5033 5.64793L10.5007 5.64849L10.4978 5.64911L10.4944 5.6499L10.4914 5.65052L10.4893 5.65103L10.4869 5.65159L10.4829 5.6525L10.4796 5.65329L10.4779 5.65368L10.476 5.65413L10.4714 5.65532L10.4679 5.65617L10.4666 5.6565L10.4651 5.65684L10.4598 5.65825L10.4553 5.65944L10.4543 5.65972L10.4478 5.66153L10.4445 5.66243C10.4407 5.6635 10.4366 5.66469 10.4328 5.66582C10.3956 5.67694 10.3587 5.69082 10.3254 5.71097C10.3144 5.71763 10.2994 5.72514 10.2921 5.73643C10.2861 5.74681 10.2841 5.75934 10.2821 5.77102C10.2753 5.81855 10.2782 5.8668 10.2812 5.91455L10.2821 5.9255C10.2849 5.96106 10.2882 5.99662 10.2913 6.03217C10.2951 6.07372 10.2987 6.1152 10.3014 6.15685C10.302 6.16865 10.3024 6.1805 10.3027 6.19235C10.3065 6.32646 10.296 6.46073 10.2426 6.58563C10.2177 6.64388 10.1852 6.69897 10.1481 6.75027C10.1058 6.8088 10.0566 6.86118 10.0048 6.91135L9.99757 6.91807L9.99508 6.92033L9.9904 6.92462L9.97747 6.9363L9.97584 6.93777L9.9606 6.95131L9.9457 6.96429L9.9378 6.97112L9.93097 6.97699L9.92154 6.98512L9.88943 7.01238C9.84501 7.05003 9.80053 7.0875 9.75792 7.12724C9.71565 7.16838 9.67247 7.21354 9.64921 7.26879C9.62082 7.33646 9.62726 7.42096 9.63437 7.49139C9.63872 7.53497 9.64555 7.57831 9.65345 7.62138C9.65994 7.65699 9.66603 7.69294 9.67732 7.72737C9.69194 7.77191 9.71237 7.81429 9.73218 7.85668L9.74353 7.88055L10.3054 8.04982L10.2877 8.04931C10.3148 8.05157 10.3146 8.05151 10.3416 8.05518C10.3674 8.06004 10.3673 8.05998 10.3928 8.06613C10.4321 8.07759 10.4699 8.09142 10.5065 8.10987C10.6276 8.17105 10.7236 8.26475 10.8122 8.36623L10.8261 8.38231L10.8399 8.39845L10.8534 8.41448L10.8664 8.43006L10.8776 8.44355C10.8924 8.4615 10.9072 8.4795 10.922 8.49745L10.9457 8.52618L10.9665 8.55124L10.9794 8.56642L10.9933 8.58268L11.0062 8.59758L11.0183 8.61118C11.0369 8.63133 11.0558 8.65086 11.0761 8.66926C11.0821 8.67428 11.0905 8.68382 11.0986 8.68608C11.1029 8.68709 11.1072 8.68788 11.1115 8.68856ZM13.5564 0.0630538C13.7737 0.0526123 13.9923 0.0473633 14.2122 0.0473633C14.443 0.0473633 14.6728 0.0531767 14.9009 0.0646342L13.5564 0.0630538Z" fill="#2F4A98"/>
</g>
</svg>
