<svg width="3" height="4" viewBox="0 0 3 4" fill="none" xmlns="http://www.w3.org/2000/svg">
<path d="M0.866333 1.34028V2.15176C1.38627 2.14193 1.9062 1.94304 2.42617 1.32225L2.42395 0.393555C1.95293 0.95982 1.44264 1.32167 0.866333 1.34028Z" fill="#1F1F48"/>
<path d="M1.97239 2.82005C1.97239 3.01234 1.81556 3.16917 1.62325 3.16917C1.43097 3.16917 1.27413 3.01234 1.27413 2.82005C1.27413 2.62775 1.43097 2.47091 1.62325 2.47091C1.81556 2.47091 1.97239 2.62775 1.97239 2.82005Z" fill="#1F1F48"/>
<path fill-rule="evenodd" clip-rule="evenodd" d="M1.95742 1.41089V2.22237C1.38113 2.24098 0.870823 2.60283 0.399807 3.1691L0.397583 2.2404C0.917553 1.61961 1.43749 1.42072 1.95742 1.41089Z" fill="#AFB2AE"/>
</svg>
