<svg width="4" height="5" viewBox="0 0 4 5" fill="none" xmlns="http://www.w3.org/2000/svg">
<path fill-rule="evenodd" clip-rule="evenodd" d="M3.52171 4.34837H0.959518V3.94542L1.00966 3.88661C0.876097 3.7655 0.760965 3.62444 0.668982 3.46815L1.33154 3.84754H1.40475L0.603867 3.34704C0.578223 3.29458 0.555083 3.24068 0.534601 3.18548L1.48626 3.84754H1.53661L0.495954 3.06913C0.476882 3.00429 0.461398 2.93792 0.449739 2.87028L1.61103 3.84754H1.66365L0.429435 2.70818C0.425714 2.66129 0.423828 2.61388 0.423828 2.56603C0.423828 2.55552 0.423917 2.54503 0.42411 2.53457L1.7141 3.84754H1.75063L0.431715 2.3975C0.437946 2.33116 0.447823 2.26588 0.461138 2.20186L1.79902 3.84754H1.83235L0.497186 2.05873C0.513725 2.003 0.532922 1.94841 0.55463 1.8951L1.86901 3.84754H1.9001L0.619997 1.75285C0.648745 1.69694 0.680366 1.64274 0.714669 1.59043L1.93532 3.84754H1.96379L1.65038 3.19997C1.64703 3.19836 1.64371 3.19671 1.64039 3.19503C1.62413 3.18637 1.60859 3.17649 1.59527 3.16364C1.58269 3.15152 1.57241 3.13726 1.56381 3.12209C1.55282 3.1027 1.54443 3.08196 1.53475 3.06192C1.53172 3.05599 1.52866 3.05015 1.52534 3.04439C1.52344 3.04122 1.52182 3.03882 1.51906 3.0364C1.51474 3.0329 1.51013 3.02979 1.5058 3.02631C1.50165 3.02273 1.49749 3.01891 1.49465 3.01416C1.49234 3.01029 1.49092 3.00607 1.48942 3.00184L1.48931 3.00181C1.48618 3.00003 1.48359 2.99829 1.48154 2.99525C1.47962 2.9924 1.47852 2.98903 1.47839 2.98559C1.47828 2.98265 1.4788 2.98271 1.47893 2.97979C1.47896 2.97905 1.47874 2.97832 1.47878 2.97757C1.47893 2.9743 1.47923 2.97405 1.48019 2.97097C1.48083 2.96638 1.48156 2.96181 1.4824 2.95724C1.48334 2.9529 1.48437 2.94886 1.48652 2.94496C1.49265 2.93381 1.50445 2.92704 1.51571 2.92171L1.32357 2.52471C1.32199 2.52422 1.32051 2.52375 1.31735 2.52273C1.29778 2.51596 1.27715 2.50725 1.26417 2.49027C1.2609 2.48598 1.25807 2.48147 1.25577 2.47659C1.25303 2.4708 1.25111 2.46465 1.24981 2.45839C1.24827 2.45098 1.24772 2.44344 1.24749 2.43588C1.24727 2.42855 1.24774 2.42112 1.2468 2.41382C1.24671 2.41324 1.24676 2.41325 1.24643 2.41277C1.24514 2.41103 1.24376 2.40945 1.24235 2.40778C1.23616 2.40098 1.22976 2.39439 1.22365 2.38752C1.21875 2.38171 1.2141 2.37572 1.21039 2.36906C1.20462 2.35871 1.20124 2.3471 1.20163 2.3352C1.2018 2.32986 1.20291 2.32473 1.20443 2.31965C1.20722 2.3118 1.21016 2.30401 1.21296 2.29616L0.808502 1.46045C0.844995 1.41439 0.883709 1.37018 0.924495 1.32797L1.04036 1.60101C1.04056 1.59244 1.04104 1.58368 1.04268 1.57527C1.04806 1.54762 1.06872 1.52457 1.09495 1.51481C1.10468 1.5112 1.11596 1.50903 1.12627 1.51127C1.13371 1.51289 1.14065 1.51579 1.14745 1.5192C1.15367 1.52232 1.1596 1.52592 1.16525 1.52993L1.04778 1.21186C1.08983 1.17585 1.13357 1.14177 1.17887 1.10975L1.33578 1.60441C1.34085 1.60006 1.34577 1.59553 1.35068 1.591C1.36783 1.57469 1.38427 1.5577 1.40131 1.54128C1.41308 1.53029 1.4256 1.51862 1.44013 1.51109L1.30913 1.02587C1.36248 0.994706 1.41758 0.96624 1.47427 0.940649L1.62845 1.65849C1.62967 1.6573 1.63088 1.6561 1.63209 1.65487C1.63618 1.65047 1.64008 1.64593 1.64339 1.64091C1.64618 1.6367 1.64866 1.63223 1.65046 1.6275C1.65453 1.61684 1.65496 1.60537 1.65472 1.59408C1.6541 1.58065 1.65245 1.56731 1.65162 1.5539C1.65111 1.54185 1.65113 1.52924 1.65604 1.51798C1.66339 1.50111 1.68154 1.49236 1.69826 1.48737C1.70161 1.48637 1.70503 1.48551 1.70844 1.48475C1.71376 1.48357 1.71914 1.48267 1.72454 1.48195L1.72583 1.48177L1.62511 0.88071C1.67658 0.862946 1.7291 0.847477 1.78256 0.834429L1.86008 1.47753C1.86971 1.47711 1.87528 1.47693 1.88857 1.47644C1.90807 1.47585 1.92757 1.47531 1.94708 1.47505C1.96067 1.47485 1.97443 1.47516 1.988 1.4747C1.99046 1.47453 1.99292 1.47433 1.99538 1.47412L1.94613 0.802562C2.00315 0.794207 2.06106 0.788563 2.1197 0.785763L2.1401 1.62583C2.14166 1.62742 2.14311 1.62914 2.14446 1.631C2.14789 1.63579 2.15003 1.64162 2.15191 1.64715C2.15656 1.66081 2.15858 1.67524 2.15972 1.68957C2.16022 1.6958 2.16055 1.70205 2.16078 1.7083C2.16116 1.71825 2.1614 1.72822 2.16194 1.73818C2.16238 1.74444 2.16293 1.75069 2.16354 1.75694C2.1653 1.77328 2.16719 1.78961 2.16877 1.80598C2.16911 1.80993 2.16943 1.81388 2.16972 1.81784L2.17009 1.8177C2.17325 1.81632 2.1763 1.81478 2.17931 1.81309C2.19186 1.80571 2.20309 1.79638 2.21407 1.78687C2.2241 1.77819 2.23397 1.76933 2.24409 1.76076C2.24952 1.75629 2.24949 1.75631 2.25502 1.75193C2.26072 1.74762 2.26654 1.74344 2.27253 1.73958L2.29679 0.785964C2.35401 0.788838 2.41053 0.794408 2.46621 0.802562L2.39968 1.70977C2.42677 1.70721 2.45405 1.70548 2.48125 1.70711C2.4955 1.70797 2.50995 1.70971 2.52382 1.71341L2.62978 0.834429C2.68325 0.847484 2.73578 0.862954 2.78723 0.88071L2.63481 1.79025C2.64658 1.78947 2.65835 1.7888 2.67012 1.78822C2.68079 1.7878 2.68538 1.78756 2.69608 1.78734C2.71052 1.78705 2.72502 1.787 2.73943 1.78803C2.74481 1.78841 2.7503 1.78889 2.7557 1.78978L2.93807 0.940649C2.99475 0.96624 3.04985 0.994706 3.10321 1.02587L2.87703 1.86358C2.87884 1.86437 2.88063 1.86521 2.88241 1.86606C2.89089 1.87011 2.89911 1.87463 2.9071 1.87959C2.93089 1.89433 2.95183 1.91459 2.96515 1.93935C2.96626 1.94143 2.96732 1.94352 2.96832 1.94564L3.23347 1.10975C3.27877 1.14177 3.32251 1.17586 3.36456 1.21186L2.94285 2.3537C2.94693 2.36117 2.94953 2.36939 2.95014 2.378C2.95053 2.38363 2.94981 2.38901 2.94909 2.39457C2.94854 2.39882 2.94811 2.40308 2.9477 2.40734C2.94696 2.41664 2.94697 2.41661 2.94643 2.4259C2.9443 2.47938 2.94819 2.53275 2.95406 2.58588L3.48784 1.32797C3.52862 1.37017 3.56734 1.41439 3.60384 1.46045L3.04431 2.61658C3.06085 2.6236 3.07568 2.63393 3.08596 2.64916C3.08969 2.65468 3.09269 2.66069 3.09484 2.667C3.09717 2.67387 3.09847 2.68106 3.09854 2.68832C3.09859 2.69222 3.09827 2.69612 3.09764 2.69996L3.69767 1.59043C3.73196 1.64273 3.76359 1.69693 3.79234 1.75285L3.0536 2.96168C3.05888 2.96597 3.06444 2.96992 3.0701 2.97371C3.08315 2.98219 3.09666 2.98992 3.10978 2.99829C3.11099 2.99909 3.11221 2.9999 3.11341 3.00072L3.85771 1.8951C3.87942 1.94841 3.89861 2.003 3.91515 2.05873L3.16623 3.06211C3.16763 3.06608 3.1688 3.07014 3.16978 3.07426C3.17378 3.09119 3.17379 3.1085 3.17533 3.12575C3.18109 3.12853 3.1872 3.1306 3.1931 3.13305L3.19389 3.13341L3.9512 2.20186C3.96451 2.26589 3.97439 2.33117 3.98062 2.3975L3.06918 3.39956C3.06904 3.40263 3.06896 3.40569 3.0689 3.40875C3.06876 3.41753 3.06894 3.4263 3.06952 3.43503L3.07187 3.4348C3.07923 3.43422 3.0792 3.43423 3.08658 3.43378C3.09411 3.4335 3.09408 3.43344 3.10159 3.43343C3.10273 3.43343 3.10388 3.43347 3.10503 3.4335L3.98823 2.53457L3.98835 2.54242C3.98846 2.55028 3.98851 2.55815 3.98851 2.56603C3.98851 2.61388 3.98662 2.66129 3.9829 2.70818L3.16231 3.46571C3.16199 3.46791 3.16162 3.47007 3.1613 3.47215C3.1606 3.47803 3.16047 3.49139 3.16025 3.49722C3.1598 3.5091 3.15941 3.52097 3.15897 3.53286C3.1586 3.53818 3.15799 3.54289 3.15587 3.54777C3.15547 3.54869 3.15501 3.54954 3.15447 3.55034L3.9626 2.87028L3.96036 2.88295C3.94899 2.94623 3.93427 3.00835 3.91638 3.06913L2.87573 3.84754H2.92608L3.87774 3.18548L3.87386 3.19581C3.85435 3.24741 3.83251 3.29786 3.80847 3.34704L3.00758 3.84754H3.08079L3.74336 3.46815L3.73971 3.47431C3.65732 3.61302 3.55666 3.73963 3.44103 3.85079L3.52171 3.94542V4.34837ZM3.47715 3.98997H1.00408V4.30381H3.47715V3.98997ZM2.7231 4.2055C2.7231 4.21508 2.7189 4.22817 2.71052 4.24477C2.70245 4.26075 2.6942 4.27296 2.68573 4.28142C2.68022 4.28142 2.67284 4.27951 2.66357 4.27568C2.65431 4.27184 2.64768 4.26797 2.64369 4.26406C2.65814 4.25743 2.67104 4.24973 2.68237 4.24094C2.69571 4.23064 2.70361 4.22134 2.70609 4.21304C2.7025 4.20306 2.69511 4.19431 2.68393 4.18681L2.70046 4.15483C2.70637 4.15994 2.71162 4.16769 2.71621 4.17806C2.7208 4.18844 2.7231 4.19759 2.7231 4.2055ZM3.43539 4.24921L3.4161 4.26741L3.39718 4.24849L3.41682 4.23052L3.43539 4.24921ZM2.88574 4.24753L2.86646 4.26574L2.84754 4.24681L2.86718 4.22884L2.88574 4.24753ZM1.3471 4.05902H1.3731V4.17038C1.3731 4.18493 1.37216 4.19613 1.37028 4.20397C1.36776 4.21421 1.36317 4.22243 1.35653 4.22863C1.34989 4.23482 1.34113 4.23793 1.33026 4.23793C1.31751 4.23793 1.30769 4.23307 1.30081 4.22335C1.29394 4.21363 1.29048 4.19937 1.29042 4.18057L1.31501 4.17673C1.3153 4.18681 1.31639 4.19393 1.31827 4.19809C1.3211 4.20441 1.32538 4.20757 1.33114 4.20757C1.33696 4.20757 1.34107 4.20531 1.34349 4.20079C1.34589 4.19627 1.3471 4.18689 1.3471 4.17266V4.05902ZM1.51741 4.23493H1.48902L1.47774 4.19497H1.42608L1.41542 4.23493H1.38773L1.43807 4.05902H1.46567L1.51741 4.23493ZM1.27587 4.08878H1.20614V4.12778H1.27102V4.15742H1.20614V4.20529H1.27833V4.23493H1.18005V4.05902H1.27587V4.08878ZM1.55743 4.23493H1.53134V4.05902H1.58626C1.60007 4.05902 1.6101 4.06061 1.61636 4.06376C1.62262 4.06693 1.62764 4.07254 1.63139 4.08062C1.63515 4.0887 1.63704 4.09794 1.63704 4.10834C1.63704 4.12154 1.63419 4.13243 1.62848 4.14103C1.62279 4.14963 1.61426 4.15506 1.60292 4.1573C1.60856 4.16178 1.61322 4.16669 1.61689 4.17205C1.62057 4.17741 1.62552 4.18693 1.63174 4.20061L1.64752 4.23493H1.61632L1.59745 4.19665C1.59076 4.18297 1.58617 4.17435 1.5837 4.17079C1.58124 4.16723 1.57862 4.16479 1.57586 4.16348C1.5731 4.16216 1.56871 4.16149 1.56272 4.16149H1.55743V4.23493ZM1.77817 4.23493H1.74979L1.7385 4.19497H1.68684L1.67617 4.23493H1.6485L1.69883 4.05902H1.72642L1.77817 4.23493ZM1.87205 4.08878H1.83379V4.23493H1.8077V4.08878H1.76935V4.05902H1.87205V4.08878ZM1.98312 4.23493H1.93914V4.05902H1.9908C2.00102 4.05902 2.00865 4.0596 2.01367 4.06076C2.0187 4.06193 2.02319 4.06434 2.02716 4.06803C2.03113 4.0717 2.03443 4.0766 2.03708 4.08272C2.03972 4.08884 2.04104 4.0957 2.04104 4.1033C2.04104 4.11154 2.03942 4.1191 2.03615 4.12598C2.03289 4.13286 2.02847 4.13802 2.02288 4.14146C2.03076 4.14458 2.03681 4.14989 2.04104 4.15742C2.04528 4.16493 2.04739 4.17377 2.04739 4.18393C2.04739 4.19193 2.04603 4.19971 2.04329 4.20727C2.04056 4.21483 2.03682 4.22087 2.03209 4.22538C2.02736 4.22991 2.02153 4.23268 2.0146 4.23372C2.01025 4.23437 1.99976 4.23476 1.98312 4.23493ZM2.18597 4.23493H2.15758L2.1463 4.19497H2.09464L2.08397 4.23493H2.0563L2.10663 4.05902H2.13422L2.18597 4.23493ZM2.22432 4.23493H2.20007V4.05902H2.22546L2.27835 4.1765V4.05902H2.30259V4.23493H2.27642L2.22432 4.12022V4.23493ZM2.35664 4.23493H2.33054V4.05902H2.35664V4.13714L2.40935 4.05902H2.44444L2.39577 4.12754L2.44708 4.23493H2.41331L2.37779 4.15237L2.35664 4.18177V4.23493ZM1.16321 4.08878H1.12495V4.23493H1.09886V4.08878H1.06051V4.05902H1.16321V4.08878ZM3.26567 4.21076H3.25789C3.24903 4.21076 3.24061 4.20765 3.23262 4.20142C3.22823 4.19799 3.22256 4.1918 3.21561 4.18286C3.20867 4.17391 3.20312 4.16781 3.19897 4.16453C3.19944 4.16741 3.19968 4.1704 3.19968 4.17352C3.19968 4.17759 3.19924 4.18189 3.19837 4.18645C3.19126 4.19667 3.17973 4.20362 3.16375 4.20729C3.1537 4.2096 3.13988 4.21076 3.12231 4.21076C3.09845 4.21076 3.08235 4.20908 3.07405 4.20573C3.06191 4.20086 3.05585 4.19056 3.05585 4.17483C3.05585 4.1607 3.06076 4.14593 3.07057 4.13052C3.07433 4.1302 3.07672 4.13151 3.07776 4.13447C3.07313 4.14206 3.07082 4.14936 3.07082 4.15638C3.07082 4.16645 3.07652 4.17288 3.08794 4.17567C3.09441 4.17727 3.10786 4.17806 3.12831 4.17806C3.14715 4.17806 3.16092 4.17735 3.16962 4.17591C3.17745 4.17463 3.18412 4.17204 3.18963 4.16813C3.18037 4.15263 3.16424 4.13966 3.14124 4.1292C3.14172 4.11299 3.143 4.09938 3.14507 4.08836C3.17965 4.06888 3.21282 4.0557 3.2446 4.04884L3.23023 4.07974C3.21905 4.08245 3.2046 4.08745 3.18687 4.09471C3.17274 4.10046 3.16252 4.10505 3.15621 4.10848C3.16874 4.11319 3.18311 4.12181 3.19933 4.13435C3.20539 4.13906 3.21286 4.14597 3.22172 4.15507C3.22971 4.16329 3.23554 4.16872 3.23921 4.17136C3.24527 4.17575 3.25162 4.17794 3.25825 4.17794H3.27047C3.2878 4.17794 3.29646 4.17535 3.29646 4.17016C3.29646 4.16657 3.29195 4.15866 3.28293 4.14645L3.30136 4.12129C3.31047 4.13343 3.31502 4.14613 3.31502 4.15939C3.31223 4.17631 3.30839 4.18781 3.30353 4.19387C3.2945 4.20513 3.28189 4.21076 3.26567 4.21076ZM3.38712 4.21076H3.37933C3.36409 4.21076 3.35414 4.20446 3.34951 4.19184C3.3464 4.1833 3.34433 4.16425 3.34329 4.13471C3.3428 4.1201 3.34221 4.10995 3.34149 4.10429C3.34013 4.09327 3.33758 4.08349 3.33383 4.07495L3.35574 4.05195C3.35942 4.05778 3.36169 4.06676 3.36257 4.0789C3.36289 4.08329 3.36305 4.09259 3.36305 4.10681V4.14213C3.36305 4.15267 3.36381 4.16034 3.36532 4.16513C3.36804 4.17367 3.37347 4.17794 3.38161 4.17794H3.39192C3.40924 4.17794 3.4179 4.17535 3.4179 4.17016C3.4179 4.16657 3.41339 4.15866 3.40437 4.14645L3.42281 4.12129C3.43191 4.13343 3.43647 4.14613 3.43647 4.15939C3.43367 4.17631 3.42983 4.18781 3.42497 4.19387C3.41595 4.20513 3.40333 4.21076 3.38712 4.21076ZM2.63459 4.15435C2.63459 4.15811 2.63231 4.16485 2.62776 4.17459C2.62321 4.18433 2.6195 4.19036 2.61663 4.19268C2.61311 4.19547 2.60213 4.19898 2.58369 4.20322C2.56173 4.20824 2.54141 4.21076 2.52273 4.21076C2.49766 4.21076 2.48041 4.20585 2.47099 4.19603C2.465 4.1898 2.462 4.18058 2.462 4.16836C2.462 4.15176 2.46675 4.13611 2.47626 4.12141C2.47665 4.12134 2.47709 4.12129 2.47757 4.12129C2.48109 4.12129 2.48352 4.12265 2.48488 4.12536C2.48001 4.13687 2.47757 4.14565 2.47757 4.15171C2.47757 4.16937 2.49658 4.17819 2.53458 4.17819C2.56908 4.17819 2.5961 4.17407 2.61567 4.16585C2.61231 4.15715 2.60792 4.14916 2.60249 4.1419L2.6207 4.11723C2.62437 4.12178 2.62768 4.12837 2.63063 4.13699C2.63327 4.14465 2.63459 4.15044 2.63459 4.15435ZM2.8037 4.21076H2.78729C2.77204 4.21076 2.7621 4.20446 2.75747 4.19184C2.75436 4.1833 2.75228 4.16425 2.75125 4.13471C2.75076 4.1201 2.75016 4.10995 2.74945 4.10429C2.74809 4.09327 2.74553 4.08349 2.74178 4.07495L2.7637 4.05195C2.76737 4.05778 2.76965 4.06676 2.77052 4.0789C2.77084 4.08329 2.77101 4.09259 2.77101 4.10681V4.14213C2.77101 4.15267 2.77176 4.16034 2.77328 4.16513C2.77599 4.17367 2.78143 4.17794 2.78957 4.17794H2.80897C2.82198 4.17794 2.83265 4.17663 2.84095 4.17399C2.84662 4.17224 2.85727 4.16744 2.87293 4.15962C2.8425 4.14764 2.82534 4.14166 2.82143 4.14166C2.81791 4.14166 2.81508 4.14277 2.81292 4.14501C2.81101 4.14692 2.80837 4.15107 2.80502 4.15747C2.80374 4.15803 2.80258 4.1583 2.80154 4.1583C2.79939 4.1583 2.79768 4.15722 2.79639 4.15507C2.80183 4.14094 2.80598 4.13119 2.80885 4.12585C2.8142 4.11578 2.81935 4.11076 2.8243 4.11076C2.82749 4.11076 2.83845 4.11495 2.85718 4.12333C2.8759 4.13171 2.88953 4.13591 2.89807 4.13591C2.9075 4.13591 2.92219 4.13399 2.94215 4.13016L2.92946 4.15914C2.91899 4.16026 2.91037 4.16154 2.90358 4.16297C2.90837 4.17295 2.91764 4.17794 2.93137 4.17794H2.95676C2.97409 4.17794 2.98275 4.17535 2.98275 4.17016C2.98275 4.16657 2.97824 4.15866 2.96922 4.14645L2.98767 4.12129C2.99676 4.13343 3.00132 4.14613 3.00132 4.15939C2.99852 4.17631 2.99469 4.18781 2.98982 4.19387C2.9808 4.20513 2.96818 4.21076 2.95197 4.21076H2.94203C2.92854 4.21076 2.9178 4.20673 2.90981 4.19866C2.90343 4.1922 2.89788 4.18182 2.89316 4.16752C2.86762 4.18557 2.85241 4.19595 2.84754 4.19866C2.83308 4.20673 2.81847 4.21076 2.8037 4.21076ZM1.9863 4.15826H1.96523V4.20529H1.98938C1.99879 4.20529 2.00476 4.20493 2.00728 4.20421C2.01116 4.20325 2.01432 4.20091 2.01676 4.19719C2.01919 4.19347 2.02042 4.18849 2.02042 4.18225C2.02042 4.17697 2.01948 4.17249 2.0176 4.16882C2.01571 4.16513 2.01299 4.16245 2.00944 4.16077C2.00589 4.1591 1.99818 4.15826 1.9863 4.15826ZM2.13793 4.16533L2.12012 4.10006L2.10267 4.16533H2.13793ZM1.46936 4.16533L1.45156 4.10006L1.4341 4.16533H1.46936ZM1.73013 4.16533L1.71232 4.10006L1.69487 4.16533H1.73013ZM1.5778 4.08878H1.55743V4.13341H1.57674C1.58926 4.13341 1.59707 4.13269 1.60019 4.13126C1.6033 4.12982 1.60574 4.12734 1.6075 4.12382C1.60927 4.1203 1.61015 4.1159 1.61015 4.11062C1.61015 4.1047 1.60899 4.09992 1.60666 4.09628C1.60435 4.09264 1.60107 4.09034 1.59684 4.08938C1.59472 4.08898 1.58837 4.08878 1.5778 4.08878ZM1.98022 4.0883H1.96523V4.12898H1.98234C1.9925 4.12898 1.99882 4.12878 2.00129 4.12838C2.00575 4.12766 2.00926 4.12556 2.01182 4.12208C2.01437 4.1186 2.01566 4.11402 2.01566 4.10834C2.01566 4.1029 2.01455 4.09848 2.01235 4.09508C2.01015 4.09168 2.00687 4.08962 2.00252 4.0889C1.99994 4.0885 1.9925 4.0883 1.98022 4.0883ZM2.54596 4.10453L2.52824 4.1213L2.51087 4.10369L2.52895 4.08752L2.54596 4.10453ZM2.5898 4.10225L2.57207 4.1189L2.55471 4.10141L2.57291 4.08513L2.5898 4.10225ZM3.31682 4.08584L3.29753 4.10405L3.27861 4.08513L3.29825 4.06716L3.31682 4.08584ZM3.01832 4.08681L3.0018 4.10333L2.98503 4.0886L2.9697 4.10405L2.95209 4.0886L2.96862 4.07171L2.98539 4.08668L3.00071 4.071L3.01832 4.08681ZM2.0212 3.84754L1.92829 3.59599L1.92615 3.59563L1.91949 3.59438C1.91624 3.59347 1.91346 3.59247 1.91085 3.59023C1.90501 3.58523 1.90284 3.57689 1.90552 3.56968C1.90671 3.56647 1.90865 3.56424 1.91104 3.56186L1.9146 3.55891L1.884 3.47605C1.88105 3.478 1.87787 3.47958 1.87449 3.48089C1.87009 3.4826 1.8655 3.48383 1.86086 3.48469C1.85847 3.48514 1.85609 3.48547 1.85367 3.4857C1.84933 3.48611 1.84472 3.48618 1.84013 3.48576L1.99365 3.84754H2.0212ZM2.0473 3.84754H2.07095L2.00514 3.60378C1.99313 3.6032 1.98115 3.60239 1.96918 3.60126L2.0473 3.84754ZM2.0986 3.84754H2.12225L2.08167 3.60541L2.07077 3.60534L2.04653 3.6051L2.0986 3.84754ZM2.14579 3.84754H2.16944L2.15172 3.60593L2.14779 3.60596C2.13741 3.60583 2.12702 3.60574 2.11664 3.60566L2.14579 3.84754ZM2.21891 3.84754L2.22512 3.60333C2.21644 3.60884 2.20676 3.60725 2.19708 3.60572C2.19494 3.60549 2.19277 3.60557 2.19061 3.60555L2.18814 3.60554L2.19401 3.84754H2.21891ZM2.26655 3.84754L2.30693 3.51254C2.30628 3.51429 2.30562 3.51603 2.30492 3.51776C2.30322 3.52149 2.30146 3.52514 2.29918 3.52854C2.29155 3.53995 2.28063 3.54909 2.26978 3.55726C2.26783 3.55865 2.26586 3.56002 2.26389 3.56137L2.2429 3.84754H2.26655ZM2.31373 3.84754L2.40427 3.42603C2.40218 3.43055 2.40009 3.43508 2.39794 3.43959C2.3953 3.44486 2.3953 3.44484 2.39254 3.45001C2.38342 3.46579 2.37189 3.48261 2.35323 3.48744C2.35227 3.48769 2.3513 3.4879 2.35032 3.48807L2.29009 3.84754H2.31373ZM2.34139 3.84754H2.36503L2.46839 3.52171C2.46673 3.52049 2.46522 3.5191 2.46393 3.51748C2.46137 3.51427 2.45974 3.51032 2.45859 3.50642C2.45595 3.49751 2.45621 3.48809 2.45753 3.47898C2.45785 3.47682 2.45835 3.47397 2.45877 3.47182C2.45974 3.46699 2.46081 3.46218 2.46168 3.45733C2.4632 3.44732 2.46432 3.43724 2.46539 3.42717C2.46661 3.4146 2.46753 3.40202 2.46744 3.38938C2.46742 3.38669 2.46737 3.384 2.46727 3.38131L2.34139 3.84754ZM2.39114 3.84754H2.41869L2.53873 3.56465C2.53669 3.56427 2.53468 3.56373 2.53272 3.56295C2.52441 3.55964 2.51805 3.55277 2.51537 3.54423C2.51407 3.54009 2.51375 3.5358 2.51361 3.53149L2.51357 3.53014C2.51191 3.52991 2.51024 3.52973 2.50857 3.52959L2.39114 3.84754ZM2.44855 3.84754H2.47702L2.61861 3.58572C2.60901 3.58545 2.59943 3.58466 2.58996 3.58284C2.58598 3.58207 2.58193 3.58125 2.57808 3.57992L2.44855 3.84754ZM2.54333 3.84754L2.72094 3.58371C2.70498 3.58396 2.68902 3.58398 2.67307 3.58437L2.51223 3.84754H2.54333ZM2.61332 3.84754L2.83177 3.57884L2.83049 3.57892C2.81312 3.57995 2.79574 3.58093 2.77837 3.58175L2.57998 3.84754H2.61332ZM2.69824 3.84754L2.97137 3.56954C2.96105 3.57021 2.95072 3.57083 2.9404 3.57153L2.91093 3.57354L2.66171 3.84754H2.69824ZM2.80131 3.84754L3.14661 3.55696C3.14127 3.55961 3.13482 3.56062 3.12932 3.56102C3.12799 3.56111 3.12664 3.56117 3.12529 3.5612C3.12272 3.56127 3.12006 3.56122 3.11749 3.56111C3.11375 3.56096 3.11047 3.5607 3.10664 3.5604C3.10208 3.56004 3.09754 3.55959 3.09296 3.55947C3.08546 3.55961 3.07796 3.56027 3.07048 3.56082C3.06636 3.56116 3.06224 3.56151 3.05813 3.56189L2.74869 3.84754H2.80131ZM1.88661 3.42904C1.88706 3.429 1.88752 3.42896 1.88798 3.42893C1.89102 3.42897 1.891 3.42896 1.89405 3.42921C1.89492 3.42934 1.89579 3.42948 1.89665 3.42964L1.8969 3.42969C1.89771 3.42985 1.89853 3.43002 1.89934 3.43021L1.8997 3.43029C1.90048 3.43047 1.90127 3.43068 1.90204 3.43088L1.90292 3.43113L1.90377 3.43139L1.90492 3.43172L1.9058 3.43201L1.90656 3.43228L1.90755 3.43261L1.90864 3.433L1.91014 3.43358L1.91144 3.4341L1.91271 3.43463L1.91421 3.43529L1.91525 3.43576L1.91694 3.43656C1.92306 3.43952 1.92893 3.4431 1.93458 3.44689C1.94471 3.45369 1.95471 3.46121 1.9624 3.47079C1.9785 3.49084 1.98269 3.51729 1.97564 3.54179C1.97337 3.54963 1.97028 3.557 1.96546 3.56361L1.96538 3.5637C1.97524 3.56472 1.9851 3.56549 1.99496 3.56609L1.9963 3.56617L2.00491 3.56664L2.0073 3.56675L2.01624 3.56714L2.02684 3.5675L2.03764 3.56778L2.04568 3.56796C2.0556 3.56808 2.06552 3.56816 2.07545 3.56823L2.11215 3.56849C2.12409 3.56858 2.13603 3.56868 2.14796 3.56883L2.15856 3.56874L2.17768 3.56849L2.17844 3.56848C2.18265 3.56844 2.18686 3.56841 2.19107 3.56842C2.19654 3.56854 2.19652 3.56832 2.20194 3.56889L2.20329 3.5691C2.20404 3.5667 2.20488 3.5644 2.20584 3.56208C2.20804 3.55767 2.21067 3.55391 2.21444 3.55071C2.21846 3.54766 2.22253 3.54469 2.22667 3.54179L2.23727 3.53463L2.24255 3.53101L2.24779 3.52734C2.25085 3.52503 2.25383 3.52266 2.25676 3.52017L2.25976 3.51741L2.26124 3.51601L2.26271 3.51456L2.26414 3.51308L2.26478 3.51237L2.26551 3.51154L2.26613 3.5108L2.26681 3.50996L2.26775 3.50871L2.26831 3.5079C2.27023 3.50502 2.27146 3.50165 2.27263 3.49841C2.27407 3.49442 2.27546 3.49041 2.27697 3.48644C2.27844 3.48293 2.27843 3.48296 2.28005 3.47951C2.28255 3.47494 2.28522 3.47063 2.28885 3.46686C2.29569 3.45977 2.30451 3.45543 2.31404 3.45356L2.31569 3.45325C2.31632 3.45314 2.31696 3.45304 2.31759 3.45296C2.32583 3.45186 2.33419 3.45287 2.3424 3.45178C2.34356 3.45158 2.34474 3.45137 2.34574 3.45074L2.347 3.44973L2.34822 3.44864L2.34862 3.44826L2.34978 3.4471L2.35087 3.44591L2.35193 3.44465L2.35296 3.44334L2.35332 3.44288L2.35429 3.44153L2.35518 3.44022L2.35659 3.43801L2.35762 3.4363L2.35866 3.43451L2.35935 3.43327C2.36039 3.4314 2.36138 3.42953 2.36235 3.42773C2.36791 3.41663 2.37283 3.40523 2.37829 3.39409C2.38148 3.38798 2.38505 3.3821 2.38826 3.37601C2.3921 3.36875 2.39579 3.36141 2.39975 3.35421C2.40201 3.35037 2.40432 3.3466 2.40684 3.34292C2.40966 3.33902 2.41262 3.33525 2.41593 3.33174C2.41878 3.32873 2.42182 3.3259 2.42505 3.3233L2.42659 3.3221L2.42767 3.32126L2.42886 3.32039L2.43036 3.31932L2.43117 3.31876L2.43311 3.31746L2.43331 3.31733C2.43417 3.31677 2.43504 3.31622 2.43591 3.31568C2.448 3.30826 2.46284 3.30088 2.47708 3.30649C2.48028 3.30776 2.48328 3.30983 2.48586 3.31208L2.48594 3.31214C2.48861 3.31447 2.49093 3.31718 2.49287 3.32014C2.49583 3.32463 2.49789 3.32968 2.49933 3.33484C2.50205 3.34456 2.50248 3.35468 2.50333 3.36468C2.50419 3.37485 2.50469 3.385 2.50455 3.39521C2.50444 3.40406 2.50394 3.41289 2.5032 3.4217L2.50317 3.42201L2.50314 3.42229C2.50298 3.42425 2.5028 3.42621 2.50262 3.42817C2.50238 3.43056 2.50213 3.43297 2.50187 3.43537L2.50161 3.43764L2.50123 3.44112L2.50101 3.44289L2.50089 3.44399L2.50069 3.44548L2.50046 3.44747L2.50005 3.45068L2.49988 3.45209L2.49881 3.46017C2.49772 3.4683 2.49559 3.47624 2.49428 3.48433C2.49399 3.48658 2.49377 3.48879 2.49369 3.49106L2.4937 3.49145C2.49922 3.49196 2.50479 3.49207 2.51033 3.49243L2.51319 3.4927L2.5152 3.49292L2.51764 3.49322L2.51892 3.49341L2.52006 3.49358L2.52175 3.49389C2.52441 3.49439 2.527 3.49505 2.52954 3.49599C2.5386 3.49932 2.54575 3.50607 2.54879 3.51531C2.55017 3.51952 2.55054 3.52389 2.55067 3.5283L2.55419 3.52823L2.55488 3.52822L2.55663 3.52821L2.55908 3.52825C2.56672 3.52881 2.57358 3.5308 2.57974 3.53547C2.58155 3.53685 2.58323 3.5384 2.58486 3.53998C2.58647 3.54157 2.58801 3.54345 2.58991 3.54472L2.59107 3.54508L2.59222 3.54539L2.59453 3.54592C2.59619 3.54625 2.59787 3.54653 2.59951 3.54682C2.61291 3.54891 2.62647 3.54907 2.64004 3.54864L2.64312 3.54854L2.64774 3.54835L2.6665 3.54748L2.67133 3.54728C2.6729 3.54723 2.67448 3.54718 2.67605 3.54714L2.67616 3.54714C2.69042 3.547 2.70467 3.54691 2.71894 3.54668C2.7288 3.54643 2.73866 3.54613 2.74851 3.54576L2.75941 3.54535L2.7627 3.54521L2.77657 3.54462L2.77794 3.54455L2.79074 3.54394L2.79361 3.5438L2.81001 3.54294C2.82791 3.54188 2.8458 3.54074 2.8637 3.53957L2.90395 3.5369L2.94691 3.53398L2.9819 3.53164C2.99202 3.53089 3.00214 3.52997 3.01225 3.529C3.02241 3.52804 3.03256 3.52701 3.04271 3.52605L3.04618 3.52571L3.05055 3.52531L3.05347 3.52503L3.05689 3.52472L3.05796 3.52463C3.06118 3.52434 3.0644 3.52406 3.06761 3.5238C3.07506 3.52326 3.0825 3.52278 3.08996 3.52239L3.09195 3.52238H3.09262L3.09395 3.5224L3.09528 3.52243L3.09793 3.52253L3.10059 3.52268C3.10765 3.52311 3.1147 3.52389 3.12178 3.52408H3.12206C3.12229 3.51039 3.12311 3.49667 3.12364 3.48299L3.12421 3.46992C3.1207 3.47013 3.1172 3.4704 3.11369 3.47058L3.11019 3.47074C3.10764 3.47073 3.1051 3.47069 3.10256 3.47065L3.09875 3.47062C3.09748 3.47061 3.0962 3.47061 3.09493 3.47062L3.0912 3.47079L3.0876 3.47098L3.08034 3.47146L3.07679 3.47175L3.07267 3.47209L3.06877 3.47246C3.05694 3.47357 3.04513 3.47496 3.03329 3.4761C3.02601 3.47671 3.02604 3.47671 3.01874 3.47719C3.01253 3.47745 3.00634 3.47763 3.00013 3.47758L2.99826 3.47753L2.99716 3.47751L2.99693 3.47749C2.99627 3.47748 2.99553 3.47744 2.99419 3.47736C2.98712 3.47663 2.98048 3.47466 2.97401 3.47179C2.96654 3.46848 2.95959 3.46412 2.95209 3.46083C2.95004 3.46003 2.94808 3.45945 2.94592 3.4589L2.94407 3.45855L2.9422 3.45824L2.94147 3.45813L2.94033 3.45797L2.93959 3.45787L2.93847 3.45772L2.93707 3.45756L2.93469 3.4573L2.93088 3.45695C2.92594 3.45653 2.92098 3.4562 2.91606 3.45565C2.91185 3.45505 2.91189 3.45505 2.90773 3.45428C2.90322 3.45322 2.89882 3.45205 2.89454 3.45024C2.89001 3.44834 2.88567 3.44609 2.88145 3.44366L2.88115 3.44349C2.87997 3.44281 2.87879 3.44211 2.87762 3.4414L2.87749 3.44132L2.87512 3.43985L2.87416 3.43925L2.8738 3.43903L2.87335 3.43874L2.87245 3.43817L2.87144 3.43751L2.87005 3.43662L2.86777 3.43512L2.86717 3.43473L2.8665 3.43428L2.86631 3.43416L2.86063 3.43041L2.85755 3.4284L2.85568 3.42718L2.85473 3.42658L2.8513 3.42444C2.84786 3.42248 2.84441 3.42062 2.84078 3.41902L2.83915 3.41839L2.83873 3.41824L2.83787 3.41794L2.83615 3.41738L2.83552 3.41718C2.83051 3.41568 2.82538 3.41482 2.8201 3.41403C2.81426 3.41315 2.80838 3.41245 2.8025 3.41189C2.79506 3.41118 2.78757 3.41063 2.78005 3.41031L2.77945 3.41029L2.77522 3.41015L2.77426 3.41012L2.7709 3.41005L2.76974 3.41004L2.76628 3.41001L2.7654 3.41001L2.76108 3.41005L2.76039 3.41007L2.75685 3.41015L2.75544 3.4102L2.75256 3.41032L2.75105 3.41039L2.74677 3.41065L2.74255 3.41099L2.7377 3.41146L2.73627 3.41163L2.73266 3.41206L2.73131 3.41222L2.72658 3.41286L2.71939 3.41391C2.71287 3.41489 2.70638 3.41592 2.69987 3.41677C2.69406 3.41744 2.69408 3.41743 2.68824 3.41798C2.67691 3.41876 2.66562 3.419 2.65434 3.41754C2.64545 3.41638 2.63726 3.41437 2.62946 3.40981L2.62817 3.40904L2.62785 3.40883L2.62766 3.40872L2.6274 3.40856L2.62691 3.40825L2.62656 3.40801L2.6259 3.40758L2.62474 3.40678L2.62444 3.40658L2.62433 3.40649C2.62362 3.40599 2.6229 3.40547 2.6222 3.40494L2.62204 3.40482L2.62168 3.40454L2.62082 3.40388L2.62 3.40323L2.61969 3.40299L2.61949 3.40282L2.61917 3.40257L2.61864 3.40213L2.61738 3.4011L2.61637 3.40023L2.61595 3.39989L2.61555 3.39954L2.61511 3.39917L2.61421 3.39838L2.61278 3.39714L2.61062 3.39524C2.60818 3.39309 2.60575 3.39094 2.60327 3.38889C2.5934 3.38122 2.58278 3.37458 2.57274 3.36715C2.57165 3.3663 2.57058 3.36544 2.56951 3.36457L2.56864 3.36386L2.56781 3.36318L2.56761 3.36301C2.56688 3.36241 2.56617 3.3618 2.56545 3.36119L2.56504 3.36082L2.56348 3.35945L2.56326 3.35925L2.56305 3.35905L2.56153 3.35767L2.56109 3.35726L2.56073 3.35692L2.56029 3.35649L2.55962 3.35585L2.55895 3.35519L2.55848 3.35472L2.55817 3.35441L2.55776 3.35398L2.55629 3.35245L2.55613 3.35228C2.55546 3.35157 2.55481 3.35083 2.55416 3.35009C2.55353 3.34937 2.55292 3.34864 2.55231 3.34791L2.55214 3.34771L2.55173 3.3472L2.5509 3.34618L2.5505 3.34565L2.5502 3.34529L2.54987 3.34483L2.54935 3.34416L2.54873 3.3433L2.54835 3.3428L2.54813 3.3425L2.54785 3.34211L2.54656 3.34026L2.54648 3.34015C2.54596 3.33937 2.54543 3.33857 2.54492 3.33778L2.54485 3.33767L2.54454 3.33717L2.54365 3.33576L2.54341 3.33535L2.54322 3.33504L2.54289 3.33447L2.54236 3.33357L2.54195 3.33285L2.54166 3.33235L2.54143 3.33192L2.54112 3.33137L2.54052 3.33025L2.54019 3.32962L2.54006 3.32939L2.53993 3.32913L2.53889 3.32707L2.53878 3.32686L2.53869 3.32665L2.5377 3.32457L2.53759 3.32431L2.53747 3.32405L2.53716 3.32335L2.53667 3.32225L2.53644 3.3217L2.53623 3.32121L2.53599 3.32061L2.53569 3.3199L2.53536 3.31903L2.53508 3.31833L2.53492 3.31792L2.53477 3.31753L2.5343 3.31623L2.534 3.31542L2.53394 3.31523L2.53391 3.31515C2.53292 3.31231 2.53204 3.30942 2.53128 3.3065C2.5277 3.2927 2.52654 3.27844 2.52426 3.2644C2.52367 3.26121 2.52301 3.25808 2.52221 3.25494C2.52088 3.25054 2.51937 3.24614 2.5164 3.24254C2.51376 3.23934 2.51018 3.23725 2.50634 3.23584L2.50456 3.23524L2.50443 3.2352L2.5027 3.23471L2.50239 3.23463L2.50071 3.23424L2.49844 3.23379C2.49538 3.23324 2.49227 3.23291 2.48917 3.23284L2.4873 3.23283C2.48606 3.23284 2.48482 3.23289 2.48357 3.23299C2.47091 3.23399 2.45911 3.2391 2.44792 3.24477L2.44266 3.24759C2.43115 3.25388 2.41995 3.26073 2.40844 3.267C2.40102 3.27087 2.3934 3.27428 2.38564 3.27732L2.38555 3.27736L2.38534 3.27744L2.38434 3.27782L2.38247 3.27854L2.38194 3.27873L2.3814 3.27894L2.38045 3.27928L2.37929 3.27971L2.37828 3.28007L2.37743 3.28038L2.37677 3.28061L2.37609 3.28085L2.37445 3.2814L2.37344 3.28175L2.37312 3.28186C2.37195 3.28226 2.37077 3.28264 2.36959 3.28302L2.36943 3.28308L2.3685 3.28336L2.36642 3.28403L2.36592 3.28417L2.36541 3.28434L2.36441 3.28463L2.36316 3.28501L2.36221 3.2853L2.36136 3.28555L2.36062 3.28576L2.3599 3.28596L2.35839 3.28639L2.3573 3.2867L2.35689 3.28681L2.35663 3.28688L2.35381 3.28764L2.35321 3.28781L2.35199 3.28812L2.35006 3.28862L2.34969 3.28871L2.34912 3.28886L2.34786 3.28917L2.34675 3.28945L2.34634 3.28954C2.34429 3.29004 2.34224 3.29052 2.34019 3.29098L2.34012 3.29101L2.33995 3.29104L2.33675 3.29175L2.33346 3.29245L2.3326 3.29263C2.31618 3.29603 2.29953 3.29852 2.28301 3.30063C2.28145 3.30083 2.27989 3.30103 2.27834 3.30123C2.2728 3.30192 2.26726 3.30258 2.26171 3.30324C2.25925 3.30353 2.25676 3.30382 2.25426 3.30408L2.25409 3.3041L2.25288 3.30423L2.25091 3.30443L2.2506 3.30445L2.25025 3.30449L2.249 3.3046L2.24727 3.30475L2.24687 3.30478L2.24641 3.30482L2.24517 3.3049L2.24363 3.30502L2.24312 3.30504L2.24254 3.30509L2.24136 3.30514L2.23999 3.30521L2.23937 3.30524L2.23868 3.30527L2.23755 3.30529L2.23634 3.30533L2.23563 3.30534L2.23482 3.30535L2.23377 3.30535L2.2327 3.30535C2.22184 3.30529 2.2111 3.30378 2.20096 3.29939C2.19333 3.29609 2.18659 3.29162 2.1804 3.28646L2.18009 3.28621L2.1792 3.28546L2.17828 3.28465L2.17799 3.2844L2.17781 3.28425C2.17636 3.28296 2.17493 3.28165 2.17353 3.2803L2.17332 3.2801L2.17302 3.2798L2.1723 3.27911L2.17133 3.27814L2.17063 3.27745L2.17017 3.27696L2.16881 3.27559L2.16779 3.27451L2.16736 3.27406L2.16705 3.27373C2.16611 3.27273 2.16518 3.27173 2.16426 3.27072L2.16414 3.2706L2.16372 3.27012L2.16229 3.26855L2.16169 3.26788L2.16097 3.26709L2.15829 3.26405L2.15803 3.26376L2.15791 3.26362L2.15784 3.26354L2.15304 3.25807L2.15044 3.25513L2.1489 3.2534L2.14817 3.25258L2.14532 3.24946C2.14293 3.24701 2.14049 3.24465 2.13793 3.24238L2.13634 3.24109L2.13579 3.24067L2.13471 3.23985L2.13402 3.23936L2.13306 3.23867L2.13228 3.23815L2.13137 3.23754L2.1305 3.237L2.12965 3.23647L2.1287 3.2359L2.12792 3.23544L2.12684 3.23484L2.12616 3.23446L2.12493 3.23382C2.1103 3.22625 2.09338 3.22309 2.07734 3.22005L2.06661 3.21801L2.06554 3.2178C2.06233 3.2172 2.05912 3.21657 2.0559 3.21593C2.04969 3.21457 2.04352 3.21315 2.03737 3.21148C2.03627 3.21116 2.03517 3.21084 2.03408 3.2105L2.03382 3.21041L2.03303 3.21016L2.03147 3.20966L2.0308 3.20944L2.0303 3.20928L2.02958 3.20903L2.02854 3.20868L2.02751 3.20831L2.0268 3.20807L2.02629 3.20788L2.02565 3.20765L2.02417 3.2071L2.02334 3.2068L2.02306 3.20669L2.02277 3.20658L2.0203 3.20562L2.01991 3.20546L2.01938 3.20525L2.01708 3.2043L2.01684 3.2042L2.01651 3.20406L2.01426 3.20309C2.00377 3.1985 1.99371 3.19299 1.98404 3.18665C1.97259 3.17915 1.96183 3.17073 1.95135 3.16195L1.95107 3.16172L1.95052 3.16126L1.94815 3.15926L1.94722 3.15847L1.94696 3.15825L1.9465 3.15787L1.94312 3.15497L1.94295 3.15483L1.93679 3.14949L1.93496 3.1479L1.93462 3.14761L1.93455 3.14755L1.92677 3.14077L1.91866 3.13377L1.91197 3.1282L1.90956 3.12621L1.90531 3.12271L1.89121 3.11114L1.88763 3.10819L1.87959 3.10159L1.87834 3.10055L1.87747 3.09983L1.8731 3.0962L1.8721 3.09536L1.87063 3.09414L1.86857 3.0924L1.86663 3.09078L1.86383 3.08841C1.85155 3.0778 1.83947 3.06699 1.82799 3.05551C1.82107 3.0486 1.81406 3.04166 1.80841 3.03364C1.79876 3.01991 1.79248 3.00401 1.78789 2.98796C1.78182 2.96672 1.77855 2.94468 1.77653 2.92271C1.77583 2.9151 1.77583 2.90744 1.7753 2.89982C1.77498 2.89662 1.77462 2.89346 1.77397 2.89031C1.77324 2.88734 1.77239 2.88405 1.77012 2.88185C1.76929 2.88116 1.76842 2.88073 1.76739 2.88047C1.76424 2.87989 1.76095 2.88047 1.75786 2.881C1.75309 2.88181 1.74837 2.88281 1.74358 2.88356C1.74183 2.88375 1.7401 2.88393 1.73838 2.88405L1.73803 2.88408L1.73721 2.88413L1.73674 2.88416L1.73654 2.88416C1.73584 2.88421 1.73514 2.88424 1.73444 2.88425C1.73089 2.8842 1.72738 2.88399 1.72388 2.88327C1.71926 2.88232 1.71465 2.88056 1.71024 2.87903C1.69866 2.87502 1.68718 2.86945 1.67961 2.85944C1.6749 2.8532 1.67275 2.84552 1.6695 2.83851L1.66903 2.83759C1.66706 2.83679 1.66504 2.83612 1.66291 2.83584L1.66205 2.83576L1.66183 2.83574L1.66104 2.83573L1.66022 2.83577L1.65911 2.83589L1.65802 2.83612L1.65769 2.8362L1.65689 2.83644L1.65661 2.83652L1.6556 2.83692L1.65537 2.83702L1.65459 2.83739L1.65425 2.83756L1.65353 2.83795L1.65326 2.8381L1.65237 2.83865L1.65095 2.83963L1.65075 2.83978L1.6494 2.84082C1.64801 2.84195 1.64668 2.84315 1.64541 2.84431C1.63984 2.84985 1.63484 2.85589 1.62947 2.86161C1.62185 2.86933 1.61383 2.87666 1.60643 2.8846C1.6047 2.88655 1.60304 2.88852 1.60144 2.89057C1.59888 2.89412 1.59651 2.89779 1.59419 2.9015L1.59301 2.90339L1.59171 2.90549L1.58958 2.90893L1.58848 2.91069L1.58784 2.91173L1.58761 2.9121L1.58727 2.91264L1.586 2.9146L1.58519 2.91587L1.58501 2.91614L1.5849 2.91631L1.58473 2.91657L1.58383 2.91791L1.58245 2.91994C1.58041 2.92275 1.57832 2.92547 1.57611 2.92815C1.57318 2.93149 1.57025 2.93473 1.5667 2.93743C1.56106 2.94172 1.55457 2.94482 1.54815 2.94778C1.54504 2.94921 1.54191 2.9506 1.53879 2.95202L1.53693 2.95286L1.5323 2.95501L1.53192 2.95519C1.53015 2.95604 1.52839 2.9569 1.52664 2.9578C1.52442 2.95904 1.52228 2.96032 1.52026 2.96187C1.5197 2.96235 1.51971 2.96233 1.51919 2.96284C1.51863 2.96541 1.51819 2.96799 1.51776 2.97059L1.51735 2.97333C1.51872 2.97561 1.51986 2.97795 1.52096 2.98037C1.52291 2.98507 1.52432 2.98998 1.52632 2.99466C1.52765 2.99628 1.52932 2.99759 1.53095 2.99889C1.53497 3.00193 1.53908 3.00484 1.543 3.00801C1.54551 3.01021 1.54549 3.0102 1.5479 3.01254C1.55042 3.01531 1.5504 3.01529 1.55273 3.01823C1.55521 3.02192 1.55744 3.02571 1.55965 3.02955C1.57056 3.04924 1.57924 3.07 1.589 3.09026C1.59189 3.09593 1.59481 3.10153 1.598 3.10704C1.60434 3.11754 1.61151 3.12746 1.62021 3.13608L1.62197 3.13777L1.62246 3.13824L1.6242 3.13983C1.63773 3.15193 1.65391 3.16083 1.67032 3.16836L1.67667 3.17123L1.67866 3.1721L1.68238 3.17374L1.69166 3.17775L1.70262 3.18244L1.70295 3.18259C1.70633 3.18403 1.7097 3.18548 1.71306 3.18695L1.7134 3.1871C1.71768 3.18897 1.72194 3.19088 1.72618 3.19284C1.73099 3.19513 1.73575 3.19749 1.74048 3.19994C1.74777 3.20387 1.75508 3.20784 1.76169 3.21287C1.77565 3.22349 1.78743 3.23706 1.79808 3.25091C1.79993 3.25331 1.80176 3.25574 1.80355 3.2582L1.80461 3.25965L1.80527 3.26059L1.80606 3.26169L1.80701 3.26306L1.80776 3.26412L1.80871 3.2655C1.80945 3.2666 1.81018 3.26771 1.81091 3.26882L1.81229 3.27097L1.81342 3.27276C1.81408 3.27384 1.81474 3.27493 1.81538 3.27602L1.81653 3.278L1.81785 3.28039L1.81866 3.28189L1.81965 3.28381L1.82047 3.28544C1.82083 3.28619 1.82119 3.28693 1.82155 3.28769C1.82608 3.29739 1.82933 3.30766 1.83162 3.31811C1.83189 3.31935 1.83214 3.32057 1.83239 3.3218L1.83296 3.32484L1.83318 3.32603L1.83354 3.32821L1.83383 3.33001L1.83407 3.3316L1.83441 3.33399L1.83494 3.33822L1.83536 3.34199L1.83567 3.3452C1.83682 3.35751 1.83719 3.36989 1.83753 3.38223C1.83783 3.39341 1.83854 3.40455 1.83894 3.41571C1.83924 3.42399 1.83887 3.43227 1.83926 3.44055C1.83946 3.44314 1.83962 3.44576 1.84019 3.4483C1.84623 3.44998 1.85333 3.44854 1.85916 3.44692C1.86014 3.4466 1.86011 3.44661 1.86106 3.44626L1.86161 3.44605C1.8621 3.44478 1.86266 3.44354 1.86331 3.44233C1.86462 3.44027 1.86591 3.43823 1.86778 3.43659C1.8682 3.43623 1.86862 3.43589 1.86905 3.43556L1.87009 3.43477L1.87116 3.43405L1.87233 3.43333L1.87352 3.43267L1.87473 3.43208L1.87596 3.43154L1.87722 3.43105L1.87849 3.43062L1.87979 3.43025L1.8811 3.42992L1.88282 3.42956L1.88408 3.42935L1.88536 3.42918L1.88661 3.42904ZM1.9367 3.49885L1.94166 3.51448C1.94112 3.50899 1.93948 3.50368 1.9367 3.49885ZM1.56848 1.72874C1.56322 1.72653 1.55748 1.72524 1.55207 1.72436L1.5484 1.72382L1.54719 1.72367L1.54468 1.72338L1.54328 1.72324L1.54094 1.72303L1.53949 1.72292L1.53713 1.72277L1.53574 1.7227L1.53313 1.7226L1.532 1.72256L1.52831 1.72251H1.52736L1.52459 1.72253L1.52306 1.72256L1.52087 1.72263L1.51916 1.72269L1.51716 1.72278L1.51535 1.72288L1.51157 1.72313L1.51008 1.72324C1.50711 1.72348 1.50414 1.72376 1.50119 1.72409L1.49776 1.72448C1.49461 1.72486 1.49147 1.72528 1.48835 1.72573L1.48518 1.72623C1.48641 1.71694 1.4875 1.70764 1.48854 1.69832L1.48911 1.69247L1.48969 1.68634L1.4904 1.67849L1.49086 1.67312L1.49112 1.67008L1.49178 1.66151C1.49232 1.65312 1.49282 1.64475 1.49313 1.63635C1.49333 1.6307 1.49347 1.62499 1.49351 1.61935C1.49354 1.61385 1.49349 1.60826 1.49332 1.60277C1.49313 1.59665 1.49291 1.59319 1.49245 1.58712C1.49156 1.57571 1.49005 1.56358 1.48541 1.55302C1.48298 1.54748 1.47932 1.54213 1.47318 1.54061C1.47127 1.54032 1.46959 1.54029 1.46767 1.54046L1.46638 1.54073L1.46596 1.54082L1.46511 1.54104L1.46462 1.54118L1.46385 1.5414L1.46335 1.54156L1.46261 1.54182L1.46211 1.542L1.46137 1.54228L1.4609 1.54246L1.46011 1.54279L1.4597 1.54297L1.45864 1.54346L1.45853 1.54351L1.45655 1.54452L1.45629 1.54466L1.4546 1.54563L1.45314 1.54653L1.45238 1.547L1.45042 1.54831L1.45023 1.54844L1.44798 1.55005C1.44047 1.55553 1.43365 1.56188 1.42686 1.56823C1.41205 1.58249 1.39769 1.59721 1.38295 1.61155C1.37603 1.61813 1.36906 1.62463 1.36188 1.63094C1.35593 1.63618 1.34978 1.64121 1.34347 1.646C1.33853 1.64975 1.33347 1.65334 1.32826 1.65671C1.32445 1.65918 1.32058 1.66152 1.3166 1.66371C1.30412 1.67059 1.29065 1.67603 1.27649 1.67819C1.27378 1.6786 1.27105 1.6789 1.26832 1.67904L1.26559 1.6791C1.26196 1.67911 1.25833 1.67878 1.25474 1.67794C1.24878 1.67656 1.2432 1.67396 1.23813 1.67057C1.22679 1.66301 1.218 1.65203 1.21007 1.64112L1.20663 1.63632L1.20628 1.63581L1.20608 1.63554L1.20537 1.63451C1.19788 1.62382 1.1908 1.61284 1.18329 1.60216C1.17916 1.59651 1.17494 1.591 1.17053 1.58556C1.16002 1.5732 1.14825 1.56188 1.13391 1.55403C1.13081 1.55233 1.12762 1.5508 1.12434 1.54945C1.12265 1.54876 1.12089 1.54793 1.11905 1.54771C1.11531 1.54727 1.11137 1.54833 1.1079 1.54962C1.10036 1.55243 1.09349 1.55729 1.08831 1.56343C1.08427 1.5682 1.08127 1.57381 1.07971 1.57987C1.07877 1.58349 1.07841 1.58724 1.07809 1.59096C1.0775 1.59781 1.07735 1.6047 1.07743 1.61159C1.0777 1.63404 1.08037 1.65647 1.0841 1.67859C1.08696 1.69543 1.09048 1.71219 1.09478 1.72873L1.09515 1.73011L1.09691 1.73663L1.09715 1.73753L1.09901 1.74403L1.09927 1.74492L1.1009 1.75035L1.10141 1.75201L1.1034 1.75825C1.10759 1.77113 1.11232 1.78387 1.11803 1.79614L1.12 1.80023L1.12066 1.80156L1.12204 1.8043L1.12371 1.80744L1.124 1.80796L1.12589 1.81131L1.12702 1.81321L1.12746 1.81391C1.1284 1.81546 1.12938 1.81699 1.1304 1.81848L1.13183 1.82054L1.1331 1.82229L1.13439 1.82399L1.13567 1.82561C1.13645 1.82658 1.13724 1.82753 1.13806 1.82846L1.14017 1.85116L1.14083 1.85804L1.14119 1.86179L1.14226 1.87242C1.14554 1.9005 1.14944 1.9299 1.16255 1.95538C1.16579 1.96166 1.16975 1.96748 1.17393 1.97317C1.17964 1.9809 1.18554 1.98846 1.19159 1.99593L1.19919 2.00521L1.20074 2.00709L1.2047 2.01187L1.21675 2.02638L1.21836 2.0283L1.22244 2.03321L1.22516 2.03651C1.22768 2.03955 1.23018 2.04261 1.23268 2.04567C1.23984 2.05466 1.24685 2.06371 1.25373 2.0729C1.25831 2.0792 1.26283 2.08554 1.26715 2.09202C1.27147 2.09849 1.27582 2.10476 1.27824 2.11221C1.28113 2.12118 1.28211 2.13072 1.2824 2.1401C1.28275 2.15117 1.28206 2.16227 1.28085 2.17327L1.28078 2.17397L1.28077 2.17407L1.28075 2.17424L1.28018 2.17909C1.27568 2.21505 1.26665 2.2505 1.25582 2.28503C1.25257 2.29538 1.24912 2.30566 1.24544 2.31586C1.24336 2.32161 1.24059 2.32731 1.23917 2.33327C1.23898 2.33433 1.23885 2.33535 1.23877 2.33642C1.23883 2.34698 1.2452 2.35546 1.25173 2.36322C1.25891 2.3713 1.26656 2.37895 1.27357 2.38717C1.27602 2.39026 1.27851 2.39342 1.28025 2.39698C1.28313 2.40287 1.28384 2.40947 1.28425 2.41592C1.2846 2.42402 1.28449 2.43213 1.28485 2.44024L1.28507 2.44285L1.28512 2.44335L1.2854 2.44584C1.28592 2.45011 1.28679 2.45434 1.28837 2.45839C1.29051 2.46391 1.29392 2.46837 1.29809 2.47205C1.29966 2.47345 1.30135 2.47473 1.30312 2.47593L1.30503 2.47716L1.30701 2.47833L1.30901 2.47942L1.31082 2.48035L1.31131 2.48058L1.31354 2.48162L1.31429 2.48196L1.31689 2.48307L1.31965 2.48416L1.32036 2.48443L1.32169 2.48492L1.32447 2.48592L1.32554 2.48629L1.32909 2.48751C1.33339 2.48894 1.33538 2.4895 1.33974 2.49082C1.35596 2.49547 1.37232 2.49961 1.38853 2.50427C1.39038 2.50482 1.39223 2.50537 1.39407 2.50594L1.39898 2.50747L1.40022 2.50787L1.40417 2.50915L1.40604 2.50976L1.40745 2.51024L1.40934 2.51088L1.41061 2.51132L1.41182 2.51174L1.41305 2.51218L1.4145 2.5127L1.41605 2.51327L1.41757 2.51382L1.41857 2.5142L1.41961 2.51458L1.42145 2.51529L1.42328 2.516L1.42486 2.51663C1.42811 2.51793 1.43135 2.5193 1.43456 2.52075C1.44443 2.52519 1.45402 2.53027 1.4631 2.53618C1.46823 2.53952 1.47319 2.54312 1.47793 2.547C1.48175 2.55011 1.48555 2.5533 1.4886 2.55721C1.49883 2.57031 1.50073 2.58807 1.50108 2.60412C1.50116 2.60792 1.50113 2.61177 1.50106 2.61557C1.50094 2.6216 1.50069 2.62657 1.50044 2.63285C1.50012 2.64126 1.50008 2.64123 1.49989 2.64964C1.49986 2.65486 1.49995 2.66003 1.50024 2.66524C1.50116 2.67612 1.5032 2.68843 1.5121 2.69582C1.5153 2.69848 1.51918 2.69976 1.52271 2.70185C1.52453 2.70319 1.52451 2.70317 1.52621 2.70465C1.53276 2.71134 1.53674 2.71978 1.53973 2.72857C1.54278 2.73755 1.5449 2.7469 1.54643 2.75626C1.54999 2.77795 1.55161 2.79992 1.55209 2.82192L1.55221 2.82836L1.55223 2.83042V2.83216L1.55226 2.8356L1.55225 2.8375L1.55226 2.8387L1.55224 2.84038L1.55224 2.84284L1.5522 2.84698L1.55218 2.84835L1.55216 2.85009L1.55209 2.85331L1.55206 2.85525L1.55204 2.85622L1.55202 2.85733L1.55191 2.86155L1.55186 2.86352L1.55184 2.86402C1.55177 2.8666 1.55169 2.86919 1.5516 2.87178L1.55126 2.87877L1.56069 2.88529L1.56504 2.87832C1.5665 2.876 1.56797 2.87369 1.56949 2.8714L1.57118 2.86909L1.57291 2.86683L1.57437 2.865C1.57506 2.86412 1.57577 2.86325 1.5765 2.86239C1.58537 2.8524 1.59544 2.84362 1.60457 2.83388C1.60842 2.82957 1.61221 2.82524 1.61616 2.82104C1.61986 2.81735 1.62359 2.81373 1.62775 2.81056C1.63044 2.80853 1.63326 2.80669 1.6362 2.8051L1.63745 2.80443L1.63872 2.8038L1.64005 2.80318L1.64131 2.80263L1.64262 2.8021L1.64389 2.80161L1.64576 2.80097L1.64663 2.8007L1.64783 2.80035L1.64968 2.79988L1.65075 2.79963L1.65186 2.79941L1.65371 2.7991L1.65497 2.79892L1.65598 2.79881C1.6566 2.79875 1.65721 2.79869 1.65782 2.79866C1.65865 2.79861 1.65948 2.79857 1.6603 2.79856L1.66279 2.79859C1.66445 2.79865 1.6661 2.79879 1.66775 2.79901C1.67231 2.79961 1.6768 2.8008 1.68111 2.80242C1.68575 2.80417 1.69023 2.80622 1.69395 2.80955C1.69919 2.81425 1.70243 2.82081 1.7051 2.82719C1.70648 2.83049 1.70757 2.8341 1.70939 2.83722C1.71023 2.83817 1.71129 2.83888 1.71235 2.83957C1.71558 2.84143 1.71903 2.84277 1.72254 2.844C1.7237 2.84439 1.72503 2.8449 1.72641 2.8454L1.7279 2.84591L1.72976 2.84648C1.73049 2.84668 1.73122 2.84685 1.73193 2.84698C1.73331 2.84714 1.73468 2.84712 1.73608 2.84703C1.74267 2.8463 1.74914 2.84478 1.7557 2.84376C1.75878 2.84342 1.76174 2.84316 1.76483 2.8431C1.76936 2.8432 1.7738 2.84363 1.77817 2.8449C1.78108 2.84575 1.78391 2.84688 1.78658 2.84833C1.78956 2.84994 1.79235 2.85188 1.79489 2.85415C1.80587 2.86396 1.80987 2.87791 1.81184 2.89199C1.81275 2.90113 1.81282 2.91029 1.81352 2.91943C1.81561 2.94022 1.81846 2.96108 1.82458 2.98111C1.82844 2.9937 1.83359 3.006 1.8419 3.01632C1.84401 3.0187 1.8462 3.02102 1.84842 3.02331L1.85425 3.02925L1.85938 3.03423L1.86458 3.03913L1.86667 3.04107L1.86983 3.04397L1.87205 3.04599L1.87514 3.04876L1.8774 3.05077L1.88051 3.05352L1.88273 3.05546L1.88595 3.05825L1.88805 3.06005L1.89147 3.06298L1.89333 3.06455L1.89652 3.06725L1.90099 3.07098L1.90852 3.07724L1.9104 3.0788C1.92114 3.08766 1.93195 3.09647 1.94264 3.10542C1.95447 3.11553 1.96612 3.12584 1.97804 3.13584C1.98719 3.14327 1.9966 3.15053 2.00652 3.15691L2.01033 3.1593L2.01417 3.16159L2.01807 3.16378L2.02002 3.16482L2.022 3.16585L2.024 3.16684L2.02601 3.16781L2.02804 3.16875L2.03008 3.16964L2.03214 3.17051L2.03422 3.17135L2.0363 3.17215L2.03841 3.17291L2.04192 3.17409L2.04544 3.17519L2.04686 3.17561L2.04898 3.17621L2.05053 3.17662L2.05254 3.17715L2.05418 3.17757L2.05607 3.17804L2.05785 3.17845L2.05954 3.17884L2.06156 3.17929L2.06533 3.18009C2.07646 3.18239 2.08772 3.18418 2.09878 3.18646C2.10376 3.1876 2.10869 3.18876 2.11362 3.19007C2.11688 3.19101 2.12013 3.192 2.12335 3.19309L2.12495 3.19363L2.12775 3.19463L2.13052 3.19567L2.13328 3.19677L2.13522 3.19758L2.13747 3.19857L2.1387 3.19914L2.13969 3.1996L2.14137 3.20042L2.14189 3.20069L2.14404 3.20179C2.14484 3.20222 2.14564 3.20265 2.14642 3.2031L2.14835 3.20421L2.14915 3.2047L2.15044 3.2055L2.15166 3.20628L2.15251 3.20684L2.15412 3.20794L2.15454 3.20823L2.15654 3.20969L2.1581 3.21089L2.15946 3.21197C2.16029 3.21264 2.16111 3.21333 2.16191 3.21402L2.16261 3.21463L2.1635 3.21543L2.1648 3.21659L2.16552 3.21725L2.16633 3.21802L2.1674 3.21904L2.16834 3.21994L2.16904 3.22065L2.16995 3.22155L2.17109 3.22271L2.17245 3.22412L2.17379 3.22554L2.1749 3.22673L2.17732 3.22938L2.17905 3.23133C2.18484 3.23781 2.19045 3.24451 2.1964 3.25081C2.19874 3.25317 2.20114 3.25543 2.20367 3.25759C2.20788 3.26098 2.21239 3.26421 2.21754 3.26602C2.22246 3.26775 2.22779 3.26821 2.23297 3.26826L2.23657 3.26822L2.23952 3.2681L2.24248 3.26792L2.24545 3.26767L2.24843 3.26738L2.25139 3.26706L2.25737 3.26636C2.26282 3.26571 2.26826 3.26506 2.2737 3.26438L2.28023 3.26354L2.28578 3.26279C2.30155 3.26063 2.31726 3.25799 2.33277 3.25448C2.33458 3.25406 2.33639 3.25364 2.3382 3.2532L2.34169 3.25233L2.34443 3.25162L2.34769 3.25075L2.35098 3.24983L2.35425 3.24888L2.35744 3.2479L2.36079 3.24682L2.36413 3.24569L2.36561 3.24517L2.36746 3.24451L2.36892 3.24397L2.37076 3.24328L2.3722 3.24273L2.37406 3.24199L2.37547 3.24143L2.37735 3.24064L2.37871 3.24007L2.38065 3.23921L2.38192 3.23865L2.38512 3.23717L2.38828 3.23563C2.40273 3.22812 2.41648 3.21934 2.4309 3.21177C2.43856 3.20788 2.44641 3.20433 2.45452 3.20156L2.45616 3.20101L2.45879 3.20018L2.46142 3.19941L2.46408 3.19871L2.46675 3.19807L2.46954 3.19749C2.47041 3.19732 2.47129 3.19716 2.47218 3.19701L2.4744 3.19667L2.47665 3.19637L2.47892 3.19613L2.48029 3.196L2.48121 3.19593L2.48325 3.1958C2.48496 3.19571 2.48669 3.19566 2.48842 3.19566H2.48862L2.49048 3.19567L2.49282 3.19575L2.49422 3.19582L2.49516 3.19588L2.4972 3.19604C2.49896 3.1962 2.50072 3.19641 2.50247 3.19667L2.50447 3.19699L2.50678 3.19741L2.50906 3.1979L2.51094 3.19836C2.51273 3.19881 2.5145 3.19932 2.51624 3.1999C2.52568 3.203 2.53439 3.20789 2.54142 3.21491C2.54511 3.21859 2.54826 3.22279 2.55084 3.22732C2.554 3.23285 2.55625 3.23869 2.55795 3.24473L2.55833 3.24609L2.55878 3.24784C2.559 3.2487 2.5592 3.24955 2.55939 3.25041C2.55965 3.25156 2.5599 3.25272 2.56013 3.25388L2.5607 3.25681L2.56091 3.258L2.56122 3.25984L2.56163 3.26244L2.56218 3.26606L2.563 3.27203L2.56333 3.27454L2.56412 3.28029L2.56457 3.28338L2.56488 3.28545L2.56506 3.28656L2.56567 3.29016C2.56639 3.29364 2.5672 3.29706 2.56815 3.30048L2.56878 3.30232L2.56944 3.30414L2.57014 3.30594L2.5709 3.30772L2.57169 3.30948L2.57253 3.31121L2.57341 3.31291L2.57433 3.3146L2.5753 3.31626L2.57632 3.31789L2.57737 3.31949L2.57848 3.32107L2.57963 3.32261L2.58083 3.32412L2.58207 3.3256L2.58342 3.32711C2.58703 3.33101 2.59109 3.33435 2.59525 3.33762C2.60471 3.34462 2.61456 3.35105 2.62405 3.35801L2.62673 3.36016L2.62936 3.36237L2.63067 3.36351C2.63263 3.3652 2.63456 3.36693 2.63652 3.36863L2.63731 3.36931L2.63991 3.37153L2.64249 3.37366L2.64511 3.3757C2.64705 3.37704 2.64898 3.37835 2.6512 3.37922C2.65372 3.38008 2.65649 3.38037 2.65912 3.38071L2.66107 3.38094L2.66303 3.38113L2.66497 3.38128L2.66691 3.38139L2.66882 3.38147L2.67052 3.3815L2.6741 3.38152L2.67545 3.3815C2.69493 3.38109 2.71417 3.37698 2.73345 3.37458C2.73946 3.37397 2.73944 3.37398 2.74548 3.37354C2.74757 3.37343 2.74966 3.37334 2.75176 3.37328L2.75294 3.37323C2.75496 3.37316 2.75698 3.37311 2.759 3.37308L2.76231 3.37303L2.76643 3.37302C2.76855 3.37302 2.77068 3.37303 2.7728 3.37307L2.77385 3.37309C2.77593 3.37313 2.778 3.37318 2.78008 3.37325L2.78091 3.37328C2.7853 3.37343 2.78968 3.37366 2.79406 3.37395L2.79456 3.37398C2.79682 3.37414 2.79907 3.37431 2.80132 3.3745C2.80512 3.37482 2.80892 3.37519 2.81271 3.37562C2.82613 3.37713 2.83985 3.37879 2.85251 3.38371L2.85561 3.38497L2.85865 3.38634L2.85986 3.38693L2.86068 3.38732L2.86164 3.38779L2.8635 3.38876L2.86458 3.38933L2.86628 3.39027L2.86749 3.39094L2.86903 3.39183L2.87037 3.39261L2.87175 3.39345L2.87321 3.39434L2.87444 3.39511L2.87712 3.3968L2.87998 3.39866L2.88162 3.39972L2.88722 3.40342L2.89291 3.40714L2.89562 3.40887L2.89839 3.41059L2.90107 3.41209L2.90389 3.41359C2.90553 3.41444 2.9072 3.41525 2.9089 3.416C2.91273 3.41753 2.9167 3.41823 2.92076 3.41882C2.92906 3.41974 2.93739 3.42016 2.94568 3.42117C2.95039 3.4219 2.95503 3.42282 2.95955 3.42416L2.96125 3.42467L2.96212 3.42496L2.96377 3.42554L2.96396 3.42561C2.96473 3.42589 2.96551 3.42619 2.96627 3.42651C2.97413 3.42975 2.98138 3.43427 2.98908 3.43785C2.99076 3.43856 2.99243 3.43921 2.99418 3.43975C2.99518 3.44 2.99615 3.44023 2.99718 3.44034C2.99935 3.44046 3.00155 3.44049 3.00373 3.44048L3.01028 3.44038C3.01775 3.44006 3.02519 3.4395 3.03263 3.43881C3.03023 3.40446 3.03277 3.36977 3.03945 3.336C3.03972 3.3346 3.04001 3.33322 3.0403 3.33183L3.04109 3.32814L3.04197 3.32422L3.04238 3.32246C3.04378 3.31653 3.04532 3.31065 3.04702 3.3048C3.04971 3.29555 3.0527 3.28644 3.05704 3.27781C3.06641 3.25915 3.0803 3.24327 3.09427 3.22795C3.09882 3.22295 3.10342 3.21799 3.10794 3.21296C3.1099 3.21077 3.11175 3.20845 3.11391 3.20645C3.11495 3.2056 3.116 3.20491 3.11718 3.20429C3.12393 3.20124 3.13145 3.20237 3.13847 3.2038L3.13898 3.2039C3.14705 3.20576 3.15495 3.20831 3.16304 3.21011C3.16577 3.21064 3.16885 3.21125 3.17183 3.21122L3.17283 3.21119C3.1748 3.21107 3.17671 3.21062 3.17841 3.20963C3.18115 3.20803 3.18343 3.20545 3.18521 3.20286C3.18932 3.19688 3.19153 3.1892 3.1909 3.18194C3.19061 3.17874 3.18972 3.17543 3.18769 3.17287C3.18646 3.17133 3.18496 3.17046 3.18328 3.16947C3.1788 3.16721 3.17418 3.16542 3.16952 3.16358C3.16632 3.1623 3.16317 3.16098 3.16003 3.1596C3.157 3.15813 3.15411 3.1566 3.15123 3.15484C3.14836 3.15287 3.1456 3.15069 3.14361 3.1478C3.14046 3.14327 3.1395 3.1376 3.13871 3.13225C3.1376 3.12299 3.13731 3.11366 3.13663 3.10437L3.13645 3.10201L3.13619 3.0991L3.13579 3.09508C3.13452 3.08578 3.13262 3.07657 3.12859 3.06804L3.1278 3.06645L3.12753 3.06593L3.12697 3.06488L3.12664 3.06429L3.12609 3.06333L3.12573 3.06273L3.12516 3.0618L3.12479 3.06123L3.12416 3.06027L3.12382 3.05976L3.123 3.05858L3.12282 3.05833L3.12178 3.05693L3.12145 3.0565L3.1207 3.05555L3.12027 3.05502L3.11959 3.05419L3.11912 3.05364L3.11844 3.05286L3.11795 3.05231L3.11753 3.05185L3.11554 3.04973L3.11544 3.04963L3.11337 3.04758L3.11313 3.04736L3.111 3.04539L3.11067 3.04509L3.10937 3.04396L3.1078 3.04262L3.10658 3.04163L3.10506 3.0404L3.10376 3.03939L3.10227 3.03826L3.1009 3.03725L3.09954 3.03625C3.09728 3.03462 3.09498 3.03304 3.09268 3.03151L3.09204 3.03109C3.08996 3.02971 3.08787 3.02836 3.0858 3.02704C3.07374 3.0196 3.06151 3.01242 3.04963 3.0047C3.04334 3.00048 3.03718 2.99607 3.03129 2.99134L3.03102 2.99113L3.03048 2.99068L3.02924 2.98968L3.02846 2.98903L3.02798 2.98862L3.02755 2.98826L3.02682 2.98765L3.02556 2.98656L3.02498 2.98606L3.02476 2.98586C3.02385 2.98507 3.02295 2.98425 3.02206 2.98344L3.02198 2.98336L3.01978 2.9813L3.01944 2.98097L3.01918 2.98072L3.01863 2.98018L3.01751 2.97908L3.01684 2.9784L3.01638 2.97795L3.01595 2.9775L3.01529 2.97682L3.01421 2.97567L3.01365 2.97508L3.01343 2.97483C3.0126 2.97395 3.01179 2.97305 3.011 2.97214C3.00301 2.96298 2.99608 2.95283 2.99078 2.94188C2.99029 2.94084 2.9898 2.9398 2.98934 2.93876L2.98925 2.93857L2.98921 2.93848C2.98877 2.93748 2.98834 2.93648 2.98793 2.93547L2.98783 2.93523L2.98776 2.93507C2.98736 2.93408 2.98697 2.93308 2.9866 2.93207L2.98651 2.93186L2.98645 2.93167L2.98622 2.93106L2.98578 2.9298L2.9853 2.92847L2.98515 2.92798L2.98495 2.9274L2.98455 2.9261L2.9842 2.92506L2.98405 2.92452L2.9838 2.92372L2.98343 2.92236L2.98321 2.92162L2.98308 2.92111L2.98276 2.92L2.98241 2.91856L2.98231 2.91817L2.98222 2.91781L2.98184 2.91627L2.9815 2.91469L2.98103 2.91251C2.97495 2.88237 2.97889 2.85034 2.98384 2.82019C2.98513 2.81232 2.98574 2.80911 2.98736 2.80005C2.98784 2.79777 2.98839 2.79555 2.98904 2.79331C2.99341 2.78025 3.00133 2.76914 3.01038 2.75885C3.02016 2.74773 3.03102 2.73761 3.04114 2.72681C3.04422 2.72341 3.0442 2.72343 3.04716 2.71997C3.05582 2.70911 3.06436 2.69596 3.0604 2.68142C3.05951 2.67814 3.05822 2.675 3.05651 2.67207C3.05439 2.66846 3.05168 2.66522 3.0486 2.66239C3.044 2.65818 3.03863 2.65487 3.03301 2.65221C3.03211 2.65178 3.0312 2.65136 3.03029 2.65097L3.0281 2.65005L3.02599 2.64922L3.02546 2.64901L3.02355 2.64832L3.02278 2.64805L3.021 2.64744L3.02007 2.64714L3.01837 2.64662L3.01734 2.64631L3.0157 2.64584L3.01458 2.64553L3.01299 2.64511L3.01032 2.64445L3.00761 2.64383L3.00637 2.64357L3.00479 2.64325L3.00354 2.64301L3.00197 2.64272L3.00072 2.64249L2.99912 2.64223L2.99791 2.64203L2.99627 2.64177L2.99509 2.6416L2.99338 2.64135L2.99228 2.6412L2.98668 2.64052L2.98302 2.64014L2.98181 2.64003L2.97936 2.63981L2.97569 2.63952L2.97416 2.63942L2.97202 2.63929L2.97044 2.6392L2.96833 2.63909L2.96674 2.63903L2.96464 2.63895L2.96304 2.6389L2.96095 2.63885L2.95935 2.63881L2.95722 2.63879L2.95565 2.63877H2.95209L2.95003 2.6388L2.94851 2.63881L2.94492 2.63889L2.94249 2.63897L2.94135 2.639L2.93876 2.63911L2.93786 2.63915L2.93503 2.63929L2.93448 2.63932L2.93131 2.6395L2.92889 2.63966C2.92761 2.63975 2.92632 2.63984 2.92505 2.63994L2.92366 2.64007C2.91916 2.60988 2.91564 2.57953 2.91303 2.54912C2.91035 2.51797 2.90858 2.4867 2.9086 2.45542C2.90861 2.45064 2.90866 2.44586 2.90877 2.44108L2.90889 2.43616L2.90912 2.42973L2.90921 2.42783L2.90932 2.42514L2.90941 2.42333L2.9095 2.42188L2.9096 2.41987L2.90977 2.41691L2.90992 2.41461L2.91025 2.41C2.91039 2.40803 2.91054 2.40607 2.91071 2.4041C2.91111 2.39932 2.91166 2.39456 2.91227 2.3898C2.91261 2.38719 2.91302 2.38472 2.91313 2.3821C2.91307 2.38059 2.91293 2.37918 2.91266 2.3777C2.90946 2.36502 2.89722 2.35705 2.88689 2.35044C2.88471 2.34905 2.88252 2.34768 2.88033 2.3463C2.87599 2.34355 2.87167 2.34082 2.8674 2.33794C2.86439 2.33579 2.86441 2.33581 2.86148 2.33358C2.86084 2.33304 2.86019 2.33251 2.85955 2.33195L2.85933 2.33177L2.85896 2.33143L2.85807 2.33067L2.85761 2.33023L2.85722 2.32989L2.85659 2.32929L2.85643 2.32914L2.85636 2.32908C2.85588 2.32861 2.8554 2.32814 2.85493 2.32765L2.85483 2.32755L2.85471 2.32742C2.85408 2.32676 2.85347 2.32609 2.85288 2.32539L2.85259 2.32504L2.85253 2.32497L2.85236 2.32477L2.85206 2.32438L2.8519 2.32417L2.85178 2.32401L2.8515 2.32366L2.85129 2.32337L2.85123 2.32328L2.85109 2.32308C2.84959 2.32098 2.84837 2.31872 2.84754 2.31621C2.84554 2.31023 2.84662 2.30388 2.84826 2.29793C2.85223 2.28346 2.86074 2.27036 2.86938 2.25832C2.87319 2.25301 2.87717 2.24782 2.88122 2.2427C2.88552 2.23723 2.88956 2.2323 2.89405 2.22679C2.90132 2.21786 2.9086 2.20894 2.9157 2.19987C2.91978 2.1945 2.92377 2.1891 2.92766 2.18359C2.93663 2.17027 2.94536 2.1562 2.94948 2.1405C2.95382 2.12391 2.956 2.10685 2.95665 2.08972L2.95681 2.08408L2.95683 2.08224L2.95687 2.07841L2.95686 2.07624L2.95683 2.07273L2.95679 2.07045L2.95669 2.067L2.95661 2.06473L2.95645 2.06118L2.95633 2.05904L2.95607 2.05507L2.95595 2.05336L2.95549 2.04778L2.95534 2.04623L2.95492 2.04216L2.95466 2.03986L2.95425 2.03656L2.95392 2.03403L2.95349 2.03097L2.9531 2.02832L2.95264 2.02541L2.95219 2.02268L2.95169 2.0199L2.95118 2.01708L2.9507 2.01458C2.95017 2.01188 2.94961 2.00919 2.94901 2.00651C2.9481 2.00241 2.9471 1.99833 2.94603 1.99426C2.94174 1.97801 2.93638 1.96171 2.92682 1.94772C2.91541 1.93101 2.8994 1.91797 2.88205 1.90782C2.87696 1.90484 2.87173 1.90211 2.86641 1.89957C2.86349 1.89817 2.86056 1.89677 2.85749 1.89574C2.85299 1.89422 2.84832 1.89336 2.84364 1.89263C2.83173 1.89108 2.81972 1.89047 2.80779 1.88914C2.79961 1.88797 2.78922 1.88691 2.78341 1.88023C2.78031 1.87667 2.7786 1.87218 2.77707 1.86779C2.77482 1.86049 2.77302 1.85309 2.77073 1.84581C2.76892 1.84074 2.7668 1.83551 2.76278 1.83176L2.76195 1.83104L2.76166 1.83082L2.76108 1.83039L2.76073 1.83015L2.76018 1.82979L2.75979 1.82957L2.75924 1.82926L2.75884 1.82906L2.75827 1.82879L2.75787 1.8286L2.75726 1.82836L2.75687 1.8282L2.7562 1.82796L2.75586 1.82785L2.75485 1.82754L2.75459 1.82747L2.75382 1.82727L2.75223 1.82692L2.75094 1.82668L2.75007 1.82652L2.74877 1.82633L2.74787 1.8262L2.74584 1.82594C2.73757 1.82488 2.7292 1.82456 2.72086 1.8244C2.69428 1.82389 2.66765 1.82518 2.6411 1.82701L2.62851 1.82792L2.61458 1.82898L2.60949 1.82941C2.60794 1.82682 2.6063 1.8243 2.60463 1.82179C2.60143 1.8172 2.59809 1.81278 2.59464 1.80838C2.58174 1.79271 2.56706 1.77859 2.55031 1.76707C2.54313 1.76213 2.53558 1.75734 2.52757 1.75385L2.52568 1.75306L2.52508 1.75282L2.52374 1.7523L2.5231 1.75207L2.5217 1.75157L2.52119 1.75139L2.51931 1.75077L2.51891 1.75064C2.51244 1.74861 2.50576 1.74724 2.49908 1.74623C2.48538 1.74415 2.47147 1.74358 2.45763 1.74364C2.43689 1.74372 2.4162 1.74529 2.39557 1.74747L2.39288 1.74776L2.3845 1.7487L2.37332 1.75002C2.36294 1.75129 2.35257 1.75271 2.34217 1.75386C2.33788 1.75434 2.33363 1.75467 2.32937 1.7553C2.32664 1.7558 2.32397 1.75641 2.32128 1.75712C2.30311 1.76263 2.28747 1.77337 2.27281 1.78521C2.25763 1.79747 2.24339 1.81084 2.22844 1.82338C2.22345 1.82744 2.22346 1.82743 2.21839 1.83139C2.20528 1.84115 2.1918 1.84978 2.17622 1.85497L2.17344 1.8558L2.17074 1.8565L2.17071 1.85716C2.17031 1.8678 2.16923 1.87878 2.1669 1.88942C2.16638 1.89394 2.16584 1.89846 2.1653 1.90299C2.16438 1.90966 2.1635 1.91632 2.16232 1.92295C2.16154 1.9274 2.16064 1.93182 2.15956 1.93621C2.1586 1.94014 2.15748 1.94403 2.15611 1.94784C2.15419 1.95319 2.1517 1.95855 2.14828 1.96315L2.1477 1.96393L2.14723 1.96451L2.14713 1.96463L2.14698 1.9648L2.14643 1.96548L2.14606 1.96588L2.1459 1.96606L2.14561 1.96636L2.14507 1.96696L2.14479 1.96723L2.14461 1.96742L2.14418 1.96783L2.14364 1.96836L2.1433 1.96865L2.14319 1.96875C2.14276 1.96913 2.14233 1.9695 2.14188 1.96985L2.1418 1.96991L2.14171 1.96998C2.14127 1.97033 2.14082 1.97066 2.14035 1.97098L2.13966 1.97144L2.13958 1.9715L2.13949 1.97155L2.13909 1.97181L2.1388 1.97199L2.13868 1.97205L2.13817 1.97234L2.13791 1.9725L2.13699 1.97298C2.1347 1.97414 2.13227 1.97499 2.12977 1.97554C2.1281 1.97592 2.1265 1.97617 2.12494 1.97624L2.12401 1.97626C2.12092 1.97623 2.11802 1.9754 2.11522 1.97322C2.11216 1.97082 2.10974 1.96755 2.10769 1.96428C2.10674 1.96277 2.10582 1.96123 2.10492 1.95969C2.09748 1.96267 2.08979 1.96501 2.08198 1.96683C2.06336 1.97117 2.04427 1.97242 2.0252 1.97292C2.01176 1.97313 1.99833 1.97295 1.98489 1.97283C1.97336 1.97273 1.96182 1.973 1.95028 1.97267C1.9411 1.97225 1.93199 1.97138 1.92284 1.97031C1.91612 1.9694 1.90942 1.96838 1.90272 1.96731C1.90175 1.96739 1.90079 1.96746 1.89983 1.96753C1.89677 1.96774 1.89369 1.96791 1.89062 1.96797L1.88755 1.96802C1.87528 1.96805 1.86313 1.96649 1.85179 1.96128C1.85014 1.96052 1.84852 1.9597 1.84693 1.95884C1.84295 1.95841 1.83897 1.95808 1.83497 1.95795C1.82567 1.95764 1.81635 1.95835 1.80704 1.9584C1.80295 1.95832 1.79893 1.95811 1.79486 1.95773C1.78986 1.95705 1.78489 1.95605 1.78029 1.95389C1.77619 1.95196 1.77254 1.94913 1.76914 1.94616C1.76433 1.94197 1.75992 1.93727 1.75574 1.93245C1.74643 1.92171 1.73768 1.91049 1.72823 1.89987C1.72543 1.89684 1.72258 1.89388 1.71964 1.89099C1.71057 1.88257 1.70048 1.87471 1.68776 1.87367L1.68615 1.87363L1.67779 1.8711C1.67567 1.8713 1.67355 1.87148 1.67143 1.87164L1.67054 1.87171L1.6669 1.87197C1.66445 1.87207 1.662 1.87216 1.65955 1.87218H1.6571C1.65383 1.87215 1.65056 1.87199 1.64731 1.87159C1.64207 1.87094 1.63684 1.86972 1.63204 1.86748C1.62503 1.86419 1.6199 1.85884 1.61603 1.8525L1.59137 1.84508C1.58705 1.83494 1.58199 1.82514 1.57766 1.81501C1.57601 1.81094 1.57444 1.80686 1.57322 1.80264C1.57081 1.79434 1.56943 1.78564 1.56817 1.7771C1.56583 1.7614 1.56451 1.7444 1.56848 1.72874ZM1.73588 3.24007L1.80072 3.39289C1.8006 3.38968 1.80049 3.38647 1.8004 3.38326C1.80018 3.37531 1.7999 3.36738 1.79951 3.35943C1.79907 3.35306 1.79856 3.34674 1.7978 3.34041C1.79619 3.3288 1.79384 3.31728 1.78925 3.30645C1.78352 3.29289 1.7744 3.28062 1.76524 3.26922C1.75685 3.25876 1.74762 3.2479 1.73637 3.24039L1.73588 3.24007ZM1.6927 2.12892C1.78357 2.16823 1.85664 2.23831 1.87564 2.36986C1.8927 2.37079 1.90754 2.37668 1.9214 2.38746C1.91284 2.40514 1.90593 2.42359 1.90079 2.44258H1.84325C1.83083 2.49706 1.83083 2.55363 1.84325 2.6081H1.90079C1.90786 2.63421 1.91825 2.65929 1.93171 2.68275L1.89103 2.72343C1.92076 2.77074 1.96077 2.81075 2.00808 2.84048L2.04876 2.7998C2.07222 2.81326 2.0973 2.82365 2.12341 2.83072V2.88826C2.17788 2.90067 2.23446 2.90067 2.28893 2.88826V2.83072C2.31503 2.82365 2.34012 2.81326 2.36358 2.7998L2.45515 2.89137C2.38419 2.93976 2.29846 2.96806 2.20617 2.96806C1.96182 2.96806 1.76345 2.76969 1.76345 2.52534C1.76345 2.49152 1.76647 2.4563 1.76809 2.4192C1.76951 2.38676 1.7588 2.33203 1.72924 2.30245C1.6774 2.25057 1.62486 2.21617 1.62486 2.21617L1.6927 2.12892ZM2.71964 2.92176C2.62877 2.88246 2.5557 2.81237 2.5367 2.68083C2.51964 2.67989 2.5048 2.674 2.49093 2.66323C2.4995 2.64555 2.5064 2.6271 2.51155 2.6081H2.56908C2.58151 2.55363 2.58151 2.49706 2.56908 2.44258H2.51155C2.50447 2.41648 2.49408 2.39139 2.48063 2.36793L2.52131 2.32725C2.49157 2.27994 2.45157 2.23994 2.40426 2.2102L2.36358 2.25088C2.34012 2.23743 2.31503 2.22704 2.28893 2.21996V2.16243C2.23446 2.15 2.17788 2.15 2.12341 2.16243V2.21996C2.0973 2.22704 2.07222 2.23743 2.04876 2.25088L1.95719 2.15932C2.02815 2.11093 2.11388 2.08262 2.20617 2.08262C2.45051 2.08262 2.64889 2.281 2.64889 2.52534C2.64889 2.55917 2.64586 2.59439 2.64425 2.63149C2.64283 2.66393 2.65354 2.71866 2.6831 2.74824C2.73494 2.80012 2.78748 2.83452 2.78748 2.83452L2.71964 2.92176ZM3.07086 2.74948C3.06131 2.76017 3.05063 2.77004 3.04108 2.78024C3.03841 2.78321 3.03581 2.78621 3.0333 2.78932C3.02977 2.79402 3.02636 2.7988 3.02448 2.80441C3.02302 2.8094 3.02236 2.81522 3.02153 2.81996C3.02073 2.82453 3.02024 2.82773 3.0195 2.83231C3.01869 2.83768 3.01788 2.84318 3.01719 2.84873L3.07086 2.74948ZM2.26649 2.22211C2.22667 2.21418 2.18567 2.21418 2.14585 2.22211L2.14733 2.26921C2.11877 2.27578 2.0915 2.28707 2.06666 2.30262L2.0344 2.26827C2.00064 2.29083 1.97166 2.31982 1.9491 2.35358L1.98346 2.38584C1.9679 2.41067 1.9566 2.43794 1.95004 2.4665L1.90293 2.46503C1.89502 2.50485 1.89502 2.54584 1.90293 2.58566L1.95004 2.58418C1.9566 2.61274 1.9679 2.64001 1.98346 2.66485L1.9491 2.69711C1.97166 2.73087 2.00064 2.75985 2.0344 2.78242L2.06666 2.74805C2.0915 2.76361 2.11877 2.77491 2.14733 2.78147L2.14585 2.82858C2.18567 2.83649 2.22667 2.83649 2.26649 2.82858L2.26501 2.78147C2.29357 2.77491 2.32083 2.76361 2.34567 2.74805L2.37793 2.78242C2.41169 2.75985 2.44068 2.73087 2.46324 2.69711L2.42888 2.66485C2.44444 2.64001 2.45573 2.61274 2.4623 2.58418L2.5094 2.58566C2.51732 2.54584 2.51732 2.50485 2.5094 2.46503L2.4623 2.4665C2.45573 2.43794 2.44444 2.41067 2.42888 2.38584L2.46324 2.35358C2.44068 2.31982 2.41169 2.29083 2.37793 2.26827L2.34567 2.30262C2.32083 2.28707 2.29357 2.27578 2.26501 2.26921L2.26649 2.22211ZM2.19277 2.35684V2.32891H2.21957V2.35675C2.25042 2.35096 2.26432 2.32717 2.26393 2.32914C2.25887 2.35303 2.2471 2.37891 2.21957 2.38535V2.4427C2.27467 2.43645 2.29941 2.39465 2.29874 2.39792C2.29015 2.43787 2.26951 2.48131 2.21957 2.48813V2.54026C2.28731 2.53425 2.31769 2.48618 2.31688 2.4899C2.30646 2.53525 2.28121 2.58463 2.21957 2.59116V2.65415C2.30615 2.64788 2.34495 2.5846 2.34392 2.58942C2.33006 2.65155 2.29509 2.71958 2.20617 2.71991C2.11704 2.72019 2.08212 2.65167 2.0689 2.58914C2.06805 2.58464 2.10625 2.64833 2.19277 2.65422V2.59127C2.1307 2.58528 2.10541 2.53544 2.09545 2.48969C2.09478 2.48621 2.12481 2.53479 2.19277 2.54036V2.48826C2.14246 2.48189 2.12181 2.43803 2.1136 2.39773C2.11304 2.39466 2.1375 2.43692 2.19277 2.4428V2.3855C2.16502 2.37927 2.15325 2.35314 2.14841 2.32902C2.14808 2.32717 2.16183 2.35123 2.19277 2.35684ZM1.45372 2.57512L1.46368 2.59861C1.46349 2.59546 1.46316 2.59232 1.46257 2.58921C1.462 2.58618 1.46124 2.58297 1.45953 2.58036C1.45802 2.57831 1.4558 2.57669 1.45372 2.57512ZM1.79819 1.92069C1.79931 1.92086 1.80043 1.92096 1.80158 1.92107C1.81151 1.92159 1.82145 1.92085 1.83139 1.92076C1.83627 1.92083 1.83624 1.92083 1.8411 1.92108C1.86778 1.92345 1.89396 1.92853 1.92042 1.93251C1.92745 1.93347 1.93446 1.93429 1.94153 1.93496C1.94717 1.93537 1.9528 1.93563 1.95846 1.9357C1.98045 1.9356 2.00244 1.93614 2.02443 1.9358C2.03941 1.9354 2.05442 1.93458 2.06914 1.93162C2.07827 1.92979 2.08727 1.92714 2.09574 1.92323C2.10461 1.91914 2.11403 1.91364 2.12017 1.90587C2.12491 1.89987 2.12778 1.89258 2.12971 1.88524C2.13275 1.87364 2.13363 1.86149 2.13376 1.84953C2.13384 1.843 2.13365 1.83646 2.13331 1.82993C2.13296 1.82306 2.13239 1.81621 2.13179 1.80935C2.1298 1.7886 2.12715 1.76792 2.12535 1.74716C2.12418 1.73084 2.124 1.71449 2.1231 1.69816C2.12272 1.69268 2.12224 1.68724 2.12162 1.68178C2.12053 1.6741 2.11926 1.66647 2.11676 1.65911C2.11596 1.65676 2.11521 1.65363 2.11355 1.65171C2.11234 1.65049 2.11092 1.64954 2.1095 1.64859C2.10781 1.64757 2.10611 1.64661 2.10437 1.64568C2.09571 1.64137 2.08686 1.63745 2.07824 1.63302C2.06726 1.62709 2.05682 1.62028 2.04818 1.61116C2.04029 1.60283 2.03449 1.59286 2.02897 1.58288C2.02269 1.57152 2.01733 1.55967 2.01325 1.54734C2.00954 1.53611 2.00701 1.52462 2.00479 1.51303L2.0045 1.51054C2.0032 1.51066 2.00189 1.51078 2.00058 1.5109L1.9981 1.51113L1.99743 1.51119L1.99569 1.51135L1.99501 1.51141L1.99357 1.51153L1.99287 1.51158L1.98992 1.51179C1.98223 1.51205 1.97452 1.51192 1.96682 1.51197C1.94995 1.51209 1.94523 1.51222 1.92835 1.51251L1.92203 1.51266L1.92105 1.51269L1.92037 1.51271L1.90939 1.51303L1.90589 1.51314L1.90442 1.51318L1.90383 1.5132C1.9014 1.51328 1.89897 1.51336 1.89655 1.51344L1.89644 1.51345L1.89582 1.51347L1.89043 1.51366L1.88918 1.51371L1.88847 1.51373L1.88159 1.51399L1.88051 1.51403L1.87958 1.51406L1.8778 1.51413L1.87253 1.51434L1.87235 1.51435C1.86975 1.51445 1.86716 1.51456 1.86456 1.51467C1.85214 1.51517 1.8397 1.51571 1.82727 1.51625C1.80465 1.51686 1.78202 1.51598 1.7594 1.51653C1.7503 1.51685 1.74108 1.51728 1.73196 1.51837C1.73005 1.5186 1.72815 1.51885 1.72625 1.51914L1.72612 1.51916L1.726 1.51918L1.72521 1.51931L1.72466 1.51939L1.72458 1.5194L1.72442 1.51943L1.72379 1.51954L1.72321 1.51963L1.72306 1.51966L1.72285 1.5197L1.72232 1.5198L1.72177 1.51989L1.72154 1.51994L1.72128 1.51998L1.72082 1.52007L1.72032 1.52017L1.72002 1.52023L1.71972 1.52029L1.71888 1.52046L1.71851 1.52054L1.71816 1.52061L1.71781 1.52068L1.71744 1.52076L1.71699 1.52087L1.7166 1.52095L1.71631 1.52102L1.716 1.52109L1.71548 1.52121L1.71504 1.52131L1.71482 1.52137L1.71457 1.52142L1.71396 1.52158L1.7135 1.52169L1.71333 1.52174L1.71314 1.52178L1.71243 1.52197L1.71184 1.52212L1.71172 1.52216L1.71086 1.5224L1.71042 1.52252C1.70993 1.52266 1.70938 1.52281 1.70888 1.52296C1.70399 1.52442 1.69914 1.52625 1.69476 1.5289C1.69331 1.52978 1.69133 1.53077 1.69037 1.53225C1.68959 1.53362 1.68932 1.53527 1.68905 1.5368C1.68815 1.54306 1.68854 1.54941 1.68893 1.55569L1.68905 1.55713C1.68942 1.56181 1.68985 1.56649 1.69027 1.57117C1.69076 1.57663 1.69124 1.58209 1.69159 1.58757C1.69167 1.58912 1.69173 1.59068 1.69176 1.59224C1.69227 1.60989 1.69088 1.62756 1.68385 1.64399C1.68058 1.65165 1.6763 1.6589 1.67142 1.66565C1.66585 1.67335 1.65938 1.68025 1.65257 1.68685L1.65162 1.68773L1.65129 1.68803L1.65067 1.68859L1.64897 1.69013L1.64876 1.69032L1.64675 1.69211L1.64479 1.69381L1.64375 1.69471L1.64285 1.69548L1.64161 1.69655L1.63739 1.70014C1.63154 1.70509 1.62569 1.71003 1.62008 1.71525C1.61452 1.72067 1.60884 1.72661 1.60578 1.73388C1.60204 1.74278 1.60289 1.7539 1.60383 1.76317C1.6044 1.7689 1.6053 1.77461 1.60634 1.78027C1.60719 1.78496 1.60799 1.78969 1.60948 1.79422C1.6114 1.80008 1.61409 1.80566 1.6167 1.81123L1.61819 1.81437L1.69212 1.83665L1.68979 1.83658C1.69336 1.83688 1.69333 1.83687 1.69688 1.83735C1.70028 1.83799 1.70026 1.83798 1.70362 1.83879C1.70879 1.8403 1.71377 1.84212 1.71859 1.84455C1.73451 1.8526 1.74715 1.86493 1.7588 1.87828L1.76064 1.8804L1.76245 1.88252L1.76422 1.88463L1.76594 1.88668L1.76741 1.88845C1.76936 1.89081 1.7713 1.89318 1.77325 1.89555L1.77636 1.89933L1.77911 1.90262L1.78081 1.90462L1.78263 1.90676L1.78433 1.90872L1.78592 1.91051C1.78837 1.91316 1.79085 1.91573 1.79353 1.91815C1.79431 1.91881 1.79543 1.92007 1.79648 1.92036C1.79705 1.9205 1.79762 1.9206 1.79819 1.92069ZM2.11989 0.785756C2.14847 0.784382 2.17724 0.783691 2.20617 0.783691C2.23654 0.783691 2.26678 0.784456 2.29679 0.785964L2.11989 0.785756Z" fill="#2F4A98"/>
</svg>
