<svg width="16" height="16" viewBox="0 0 16 16" fill="none" xmlns="http://www.w3.org/2000/svg">
<path fill-rule="evenodd" clip-rule="evenodd" d="M13.9048 16H2.40443V14.1913L2.6295 13.9274C2.03 13.3838 1.51323 12.7506 1.10037 12.0491L4.07427 13.752H4.40287L0.8081 11.5055C0.693 11.2701 0.589133 11.0281 0.4972 10.7804L4.7687 13.752H4.9947L0.323733 10.2582C0.238133 9.96713 0.168633 9.66923 0.1163 9.3656L5.32873 13.752H5.5649L0.0251667 8.63803C0.00846667 8.42757 0 8.21477 0 8C0 7.95283 0.0004 7.90573 0.00126667 7.8588L5.79137 13.752H5.95533L0.0354 7.24353C0.0633667 6.9458 0.1077 6.65277 0.167467 6.36543L6.1725 13.752H6.32213L0.329267 5.72297C0.4035 5.47283 0.489667 5.22783 0.5871 4.98853L6.48667 13.752H6.62623L0.8805 4.35007C1.00953 4.0991 1.15147 3.8558 1.30543 3.62103L6.7843 13.752H6.91207L5.50533 10.8454C5.4903 10.8382 5.4754 10.8308 5.46053 10.8232C5.38753 10.7844 5.3178 10.74 5.258 10.6824C5.20153 10.6279 5.15537 10.564 5.1168 10.4959C5.06747 10.4088 5.0298 10.3157 4.98633 10.2258C4.97277 10.1992 4.95903 10.1729 4.94413 10.1471C4.9356 10.1329 4.9283 10.1221 4.91593 10.1112C4.89653 10.0955 4.87587 10.0816 4.8564 10.066C4.8378 10.0499 4.8191 10.0327 4.80637 10.0114C4.796 9.99403 4.78963 9.9751 4.78287 9.9561L4.7824 9.95597C4.76837 9.948 4.75673 9.9402 4.74753 9.92653C4.7389 9.91373 4.73397 9.8986 4.73337 9.88317C4.73287 9.87 4.7352 9.87027 4.7358 9.85717C4.73593 9.85383 4.73497 9.85053 4.73513 9.8472C4.7358 9.8325 4.73713 9.83137 4.74147 9.81757C4.74433 9.79693 4.7476 9.77643 4.7514 9.75593C4.7556 9.73643 4.76023 9.71833 4.76987 9.7008C4.79737 9.65077 4.85033 9.62037 4.9009 9.59647L4.03847 7.81453C4.03137 7.81233 4.02473 7.8102 4.01057 7.80563C3.92273 7.77527 3.8301 7.73617 3.77187 7.65993C3.75717 7.64067 3.74447 7.62047 3.73413 7.59853C3.72187 7.57253 3.71323 7.54497 3.7074 7.51687C3.7005 7.4836 3.698 7.44973 3.697 7.41583C3.696 7.38293 3.6981 7.34957 3.6939 7.3168C3.69347 7.3142 3.69373 7.31423 3.69223 7.31207C3.68643 7.30427 3.68027 7.29717 3.6739 7.2897C3.64613 7.25917 3.6174 7.2296 3.58997 7.19873C3.568 7.17267 3.54713 7.14577 3.53047 7.1159C3.50457 7.06943 3.4894 7.01733 3.49113 6.9639C3.49193 6.93997 3.4969 6.91693 3.5037 6.8941C3.51623 6.85887 3.52943 6.8239 3.542 6.7887L1.7266 3.03763C1.8904 2.8309 2.06417 2.63243 2.24723 2.44297L2.7673 3.66853C2.76817 3.63003 2.77033 3.59073 2.7777 3.553C2.80183 3.4289 2.89457 3.3254 3.01233 3.28163C3.056 3.2654 3.10663 3.25567 3.1529 3.26573C3.1863 3.273 3.21743 3.286 3.24797 3.3013C3.27587 3.3153 3.3025 3.3315 3.32787 3.34947L2.8006 1.92183C2.98933 1.7602 3.18567 1.60723 3.389 1.4635L4.09327 3.6838C4.11603 3.66423 4.1381 3.64393 4.16017 3.62357C4.23713 3.5504 4.31093 3.4741 4.3874 3.4004C4.44023 3.3511 4.49643 3.29873 4.56167 3.2649L3.97367 1.087C4.2131 0.947133 4.46043 0.819367 4.71487 0.7045L5.4069 3.92653C5.4124 3.92117 5.41783 3.91577 5.42327 3.91027C5.44163 3.8905 5.4591 3.87013 5.474 3.8476C5.4865 3.8287 5.49763 3.80863 5.50573 3.78743C5.524 3.73957 5.5259 3.68807 5.52483 3.6374C5.52207 3.57713 5.51467 3.51727 5.5109 3.45707C5.50863 3.40297 5.5087 3.3464 5.53077 3.29583C5.56377 3.22013 5.6452 3.18087 5.72027 3.15847C5.7353 3.15397 5.75063 3.1501 5.76597 3.1467C5.78983 3.1414 5.81397 3.13733 5.8382 3.1341L5.844 3.13333L5.39193 0.435467C5.62293 0.355733 5.85867 0.2863 6.09863 0.227733L6.4466 3.11427C6.48983 3.1124 6.51483 3.11157 6.57447 3.1094C6.662 3.10673 6.74953 3.10433 6.8371 3.10313C6.89807 3.10227 6.95983 3.10363 7.02073 3.1016C7.0318 3.10083 7.04283 3.09993 7.05387 3.09897L6.8328 0.0847C7.08877 0.0472 7.34867 0.0218667 7.6119 0.0093L7.70343 3.77993C7.71043 3.78707 7.71697 3.79477 7.723 3.80313C7.73843 3.82463 7.74803 3.8508 7.75647 3.8756C7.77733 3.93693 7.7864 4.0017 7.79153 4.06603C7.79377 4.094 7.79523 4.12203 7.79627 4.15007C7.79797 4.19477 7.79907 4.2395 7.80147 4.2842C7.80347 4.3123 7.80593 4.34033 7.80867 4.3684C7.81657 4.44177 7.82507 4.51503 7.83213 4.5885C7.83367 4.60627 7.8351 4.624 7.8364 4.64177L7.83807 4.64113C7.85227 4.63493 7.86593 4.628 7.87943 4.62043C7.93577 4.5873 7.98617 4.54543 8.03547 4.50277C8.08047 4.4638 8.12477 4.42403 8.1702 4.38557C8.19457 4.3655 8.19447 4.3656 8.21927 4.34593C8.24487 4.32657 8.27097 4.3078 8.29787 4.2905L8.40673 0.0102C8.6636 0.0231 8.91727 0.0481 9.1672 0.0847L8.86857 4.1567C8.99017 4.1452 9.1126 4.13743 9.2347 4.14477C9.29867 4.1486 9.3635 4.1564 9.42577 4.17303L9.90137 0.227733C10.1414 0.286333 10.3771 0.355767 10.6081 0.435467L9.92397 4.51793C9.97677 4.5144 10.0296 4.5114 10.0824 4.5088C10.1303 4.5069 10.1509 4.50583 10.199 4.50487C10.2638 4.50357 10.3288 4.50333 10.3935 4.50793C10.4177 4.50967 10.4423 4.5118 10.4666 4.5158L11.2851 0.7045C11.5395 0.819367 11.7869 0.947133 12.0263 1.087L11.0112 4.84707C11.0193 4.8506 11.0273 4.85437 11.0353 4.8582C11.0734 4.87637 11.1102 4.89667 11.1461 4.9189C11.2529 4.98507 11.3469 5.076 11.4067 5.18717C11.4117 5.19647 11.4164 5.20587 11.4209 5.2154L12.611 1.4635C12.8143 1.60723 13.0107 1.76023 13.1994 1.92183L11.3066 7.04697C11.3249 7.08047 11.3366 7.11737 11.3393 7.15603C11.3411 7.1813 11.3378 7.20543 11.3346 7.2304C11.3321 7.24947 11.3302 7.2686 11.3283 7.28773C11.325 7.32947 11.3251 7.3293 11.3226 7.37103C11.3131 7.61107 11.3305 7.85063 11.3569 8.0891L13.7528 2.44297C13.9358 2.6324 14.1096 2.83087 14.2734 3.03763L11.762 8.22687C11.8362 8.2584 11.9028 8.30477 11.9489 8.3731C11.9657 8.3979 11.9791 8.42487 11.9888 8.4532C11.9992 8.48403 12.0051 8.5163 12.0054 8.54887C12.0056 8.5664 12.0042 8.5839 12.0013 8.60113L14.6946 3.62103C14.8485 3.85577 14.9904 4.09907 15.1195 4.35007L11.8037 9.77587C11.8274 9.79513 11.8523 9.81283 11.8777 9.82987C11.9363 9.86793 11.9969 9.90263 12.0558 9.94017C12.0613 9.94377 12.0667 9.9474 12.0721 9.95107L15.4129 4.98853C15.5103 5.2278 15.5965 5.47283 15.6707 5.72297L12.3092 10.2266C12.3155 10.2445 12.3208 10.2627 12.3251 10.2812C12.3431 10.3572 12.3432 10.4349 12.3501 10.5123C12.3759 10.5248 12.4033 10.534 12.4298 10.545L12.4334 10.5467L15.8325 6.36543C15.8923 6.6528 15.9366 6.94583 15.9646 7.24353L11.8736 11.7413C11.873 11.755 11.8726 11.7688 11.8724 11.7825C11.8717 11.8219 11.8725 11.8613 11.8751 11.9005L11.8857 11.8995C11.9187 11.8968 11.9186 11.8969 11.9517 11.8949C11.9855 11.8936 11.9854 11.8933 12.0191 11.8933C12.0242 11.8933 12.0294 11.8935 12.0345 11.8936L15.9987 7.8588L15.9993 7.89403C15.9998 7.9293 16 7.96463 16 8C16 8.21477 15.9915 8.42757 15.9748 8.63803L12.2916 12.0382C12.2902 12.0481 12.2885 12.0578 12.2871 12.0671C12.284 12.0935 12.2834 12.1535 12.2824 12.1796C12.2803 12.2329 12.2786 12.2862 12.2766 12.3396C12.275 12.3635 12.2722 12.3846 12.2627 12.4065C12.2609 12.4106 12.2588 12.4145 12.2564 12.4181L15.8837 9.3656L15.8737 9.42247C15.8226 9.7065 15.7565 9.98533 15.6763 10.2582L11.0053 13.752H11.2313L15.5028 10.7804L15.4854 10.8268C15.3978 11.0583 15.2998 11.2848 15.1919 11.5055L11.5971 13.752H11.9257L14.8996 12.0491L14.8833 12.0768C14.5135 12.6994 14.0616 13.2677 13.5427 13.7666L13.9048 14.1913V16ZM13.7048 14.3913H2.60443V15.8H13.7048V14.3913ZM10.3202 15.3587C10.3202 15.4017 10.3014 15.4605 10.2638 15.535C10.2276 15.6067 10.1905 15.6615 10.1525 15.6995C10.1278 15.6995 10.0946 15.6909 10.053 15.6737C10.0115 15.6565 9.98173 15.6391 9.9638 15.6216C10.0287 15.5918 10.0866 15.5572 10.1374 15.5178C10.1973 15.4716 10.2328 15.4298 10.2439 15.3926C10.2278 15.3478 10.1946 15.3085 10.1444 15.2748L10.2186 15.1313C10.2451 15.1542 10.2687 15.189 10.2893 15.2356C10.3099 15.2822 10.3202 15.3232 10.3202 15.3587ZM13.5173 15.5549L13.4308 15.6366L13.3458 15.5517L13.434 15.471L13.5173 15.5549ZM11.0502 15.5474L10.9637 15.6291L10.8788 15.5441L10.9669 15.4635L11.0502 15.5474ZM4.14407 14.7013H4.2608V15.2011C4.2608 15.2664 4.25657 15.3167 4.24813 15.3518C4.2368 15.3978 4.21623 15.4347 4.1864 15.4625C4.1566 15.4903 4.1173 15.5043 4.0685 15.5043C4.01127 15.5043 3.9672 15.4825 3.93633 15.4388C3.90547 15.3952 3.88993 15.3312 3.88967 15.2468L4.00003 15.2296C4.00137 15.2748 4.00623 15.3068 4.0147 15.3255C4.02737 15.3538 4.0466 15.368 4.07247 15.368C4.09857 15.368 4.11703 15.3579 4.12787 15.3376C4.13867 15.3173 4.14407 15.2752 4.14407 15.2113V14.7013ZM4.90853 15.4908H4.7811L4.73047 15.3115H4.4986L4.45073 15.4908H4.32647L4.5524 14.7013H4.67627L4.90853 15.4908ZM3.82437 14.8348H3.5114V15.0099H3.8026V15.1429H3.5114V15.3578H3.83543V15.4908H3.39427V14.7013H3.82437V14.8348ZM5.08817 15.4908H4.97103V14.7013H5.21753C5.27953 14.7013 5.32457 14.7084 5.35267 14.7225C5.38077 14.7367 5.40327 14.7619 5.42013 14.7982C5.437 14.8345 5.44547 14.8759 5.44547 14.9226C5.44547 14.9819 5.43267 15.0308 5.40707 15.0694C5.3815 15.108 5.34323 15.1323 5.29233 15.1424C5.31767 15.1625 5.33857 15.1845 5.35503 15.2086C5.37153 15.2326 5.39377 15.2754 5.4217 15.3368L5.49253 15.4908H5.35247L5.2678 15.319C5.23773 15.2576 5.21717 15.2189 5.20607 15.2029C5.195 15.187 5.18327 15.176 5.17087 15.1701C5.15847 15.1642 5.1388 15.1612 5.1119 15.1612H5.08817V15.4908ZM6.07893 15.4908H5.95153L5.90087 15.3115H5.669L5.62113 15.4908H5.4969L5.72283 14.7013H5.84667L6.07893 15.4908ZM6.50033 14.8348H6.3286V15.4908H6.2115V14.8348H6.03937V14.7013H6.50033V14.8348ZM6.99887 15.4908H6.80143V14.7013H7.0333C7.0792 14.7013 7.11343 14.7039 7.13597 14.7091C7.15853 14.7143 7.1787 14.7251 7.19653 14.7417C7.21433 14.7582 7.22917 14.7802 7.24103 14.8076C7.2529 14.8351 7.25883 14.8659 7.25883 14.9C7.25883 14.937 7.25153 14.9709 7.23687 15.0018C7.22223 15.0327 7.2024 15.0558 7.17733 15.0713C7.21267 15.0853 7.23983 15.1091 7.25883 15.1429C7.27783 15.1766 7.28733 15.2163 7.28733 15.2619C7.28733 15.2978 7.2812 15.3327 7.26893 15.3667C7.25667 15.4006 7.2399 15.4277 7.21867 15.448C7.19743 15.4683 7.17127 15.4807 7.14013 15.4854C7.12063 15.4883 7.07353 15.4901 6.99887 15.4908ZM7.90933 15.4908H7.78193L7.73127 15.3115H7.4994L7.45153 15.4908H7.3273L7.55323 14.7013H7.67707L7.90933 15.4908ZM8.08147 15.4908H7.97263V14.7013H8.0866L8.324 15.2285V14.7013H8.4328V15.4908H8.3153L8.08147 14.9759V15.4908ZM8.67537 15.4908H8.55823V14.7013H8.67537V15.0519L8.91197 14.7013H9.06947L8.85103 15.0088L9.08133 15.4908H8.92977L8.77033 15.1203L8.67537 15.2522V15.4908ZM3.3187 14.8348H3.14697V15.4908H3.02987V14.8348H2.85773V14.7013H3.3187V14.8348ZM12.7556 15.3823H12.7206C12.6809 15.3823 12.6431 15.3684 12.6072 15.3404C12.5875 15.325 12.5621 15.2972 12.5309 15.2571C12.4997 15.2169 12.4748 15.1895 12.4562 15.1748C12.4583 15.1877 12.4594 15.2012 12.4594 15.2152C12.4594 15.2334 12.4574 15.2528 12.4535 15.2732C12.4216 15.3191 12.3698 15.3503 12.2981 15.3667C12.253 15.3771 12.191 15.3823 12.1121 15.3823C12.005 15.3823 11.9327 15.3748 11.8955 15.3598C11.841 15.3379 11.8138 15.2917 11.8138 15.2211C11.8138 15.1576 11.8358 15.0913 11.8799 15.0222C11.8967 15.0207 11.9075 15.0266 11.9121 15.0399C11.8913 15.074 11.881 15.1067 11.881 15.1383C11.881 15.1834 11.9066 15.2123 11.9578 15.2248C11.9869 15.232 12.0472 15.2356 12.139 15.2356C12.2236 15.2356 12.2854 15.2324 12.3244 15.2259C12.3596 15.2202 12.3895 15.2085 12.4142 15.191C12.3727 15.1214 12.3003 15.0632 12.197 15.0163C12.1992 14.9435 12.2049 14.8824 12.2142 14.8329C12.3694 14.7455 12.5183 14.6864 12.661 14.6555L12.5965 14.7942C12.5463 14.8064 12.4814 14.8288 12.4019 14.8614C12.3384 14.8872 12.2926 14.9078 12.2642 14.9233C12.3205 14.9444 12.385 14.9831 12.4578 15.0394C12.485 15.0605 12.5185 15.0915 12.5583 15.1324C12.5941 15.1693 12.6203 15.1936 12.6368 15.2055C12.664 15.2252 12.6925 15.235 12.7223 15.235H12.7771C12.8549 15.235 12.8937 15.2234 12.8937 15.2001C12.8937 15.184 12.8735 15.1485 12.833 15.0937L12.9158 14.9808C12.9566 15.0352 12.9771 15.0922 12.9771 15.1517C12.9645 15.2277 12.9473 15.2793 12.9255 15.3065C12.885 15.3571 12.8283 15.3823 12.7556 15.3823ZM13.3007 15.3823H13.2657C13.1973 15.3823 13.1527 15.354 13.1319 15.2974C13.1179 15.2591 13.1086 15.1736 13.1039 15.041C13.1018 14.9754 13.0991 14.9299 13.0959 14.9044C13.0898 14.855 13.0783 14.8111 13.0615 14.7727L13.1598 14.6695C13.1763 14.6957 13.1865 14.736 13.1905 14.7905C13.1919 14.8102 13.1926 14.8519 13.1926 14.9157V15.0743C13.1926 15.1216 13.196 15.156 13.2028 15.1775C13.215 15.2159 13.2394 15.235 13.276 15.235H13.3222C13.4 15.235 13.4388 15.2234 13.4388 15.2001C13.4388 15.184 13.4186 15.1485 13.3781 15.0937L13.4609 14.9808C13.5017 15.0352 13.5222 15.0922 13.5222 15.1517C13.5096 15.2277 13.4924 15.2793 13.4706 15.3065C13.4301 15.3571 13.3734 15.3823 13.3007 15.3823ZM9.92297 15.1291C9.92297 15.146 9.91273 15.1763 9.8923 15.22C9.8719 15.2637 9.85523 15.2908 9.84233 15.3012C9.82657 15.3137 9.77727 15.3295 9.6945 15.3485C9.59593 15.371 9.50473 15.3823 9.42087 15.3823C9.30833 15.3823 9.23093 15.3603 9.18863 15.3162C9.16177 15.2883 9.1483 15.2469 9.1483 15.192C9.1483 15.1175 9.16963 15.0473 9.2123 14.9813C9.21407 14.981 9.21603 14.9808 9.2182 14.9808C9.23397 14.9808 9.2449 14.9869 9.251 14.999C9.22913 15.0507 9.2182 15.0901 9.2182 15.1173C9.2182 15.1965 9.3035 15.2361 9.47407 15.2361C9.6289 15.2361 9.7502 15.2177 9.83803 15.1807C9.82297 15.1417 9.80327 15.1058 9.7789 15.0732L9.8606 14.9625C9.87707 14.9829 9.89197 15.0125 9.9052 15.0512C9.91703 15.0856 9.92297 15.1116 9.92297 15.1291ZM10.682 15.3823H10.6084C10.5399 15.3823 10.4953 15.354 10.4745 15.2974C10.4605 15.2591 10.4512 15.1736 10.4466 15.041C10.4444 14.9754 10.4417 14.9299 10.4385 14.9044C10.4324 14.855 10.4209 14.8111 10.4041 14.7727L10.5025 14.6695C10.5189 14.6957 10.5292 14.736 10.5331 14.7905C10.5345 14.8102 10.5353 14.8519 10.5353 14.9157V15.0743C10.5353 15.1216 10.5387 15.156 10.5455 15.1775C10.5576 15.2159 10.582 15.235 10.6186 15.235H10.7057C10.7641 15.235 10.8119 15.2291 10.8492 15.2173C10.8746 15.2094 10.9225 15.1879 10.9927 15.1528C10.8562 15.099 10.7791 15.0722 10.7616 15.0722C10.7458 15.0722 10.7331 15.0772 10.7234 15.0872C10.7148 15.0958 10.703 15.1144 10.6879 15.1431C10.6822 15.1456 10.677 15.1469 10.6723 15.1469C10.6627 15.1469 10.655 15.142 10.6492 15.1324C10.6736 15.0689 10.6922 15.0252 10.7051 15.0012C10.7291 14.956 10.7523 14.9335 10.7745 14.9335C10.7888 14.9335 10.838 14.9523 10.922 14.9899C11.0061 15.0275 11.0673 15.0464 11.1056 15.0464C11.1479 15.0464 11.2138 15.0378 11.3034 15.0206L11.2465 15.1506C11.1995 15.1557 11.1608 15.1614 11.1303 15.1678C11.1518 15.2126 11.1934 15.235 11.2551 15.235H11.369C11.4468 15.235 11.4857 15.2234 11.4857 15.2001C11.4857 15.184 11.4654 15.1485 11.4249 15.0937L11.5077 14.9808C11.5486 15.0352 11.569 15.0922 11.569 15.1517C11.5565 15.2277 11.5393 15.2793 11.5174 15.3065C11.4769 15.3571 11.4203 15.3823 11.3475 15.3823H11.3029C11.2423 15.3823 11.1941 15.3642 11.1583 15.328C11.1296 15.299 11.1047 15.2524 11.0836 15.1883C10.9689 15.2693 10.9006 15.3159 10.8788 15.328C10.8139 15.3642 10.7483 15.3823 10.682 15.3823ZM7.01313 15.1467H6.91857V15.3578H7.02697C7.06917 15.3578 7.09597 15.3562 7.1073 15.3529C7.1247 15.3486 7.1389 15.3381 7.14983 15.3214C7.16077 15.3047 7.16627 15.2824 7.16627 15.2544C7.16627 15.2307 7.16203 15.2106 7.1536 15.1941C7.14513 15.1775 7.13293 15.1655 7.117 15.158C7.10103 15.1504 7.06643 15.1467 7.01313 15.1467ZM7.6937 15.1784L7.61377 14.8855L7.53543 15.1784H7.6937ZM4.69287 15.1784L4.61297 14.8855L4.5346 15.1784H4.69287ZM5.8633 15.1784L5.78337 14.8855L5.70503 15.1784H5.8633ZM5.17957 14.8348H5.08817V15.0352H5.1748C5.231 15.0352 5.26607 15.0319 5.28007 15.0255C5.29403 15.019 5.305 15.0079 5.3129 14.9921C5.32083 14.9763 5.32477 14.9565 5.32477 14.9329C5.32477 14.9063 5.31957 14.8848 5.30913 14.8685C5.29873 14.8522 5.28403 14.8418 5.26503 14.8375C5.25553 14.8357 5.22703 14.8348 5.17957 14.8348ZM6.98583 14.8327H6.91857V15.0153H6.99533C7.04097 15.0153 7.0693 15.0144 7.0804 15.0126C7.10043 15.0093 7.1162 14.9999 7.12767 14.9843C7.13913 14.9687 7.1449 14.9481 7.1449 14.9226C7.1449 14.8982 7.13993 14.8784 7.13003 14.8631C7.12017 14.8478 7.10543 14.8386 7.08593 14.8354C7.07433 14.8336 7.04097 14.8327 6.98583 14.8327ZM9.52517 14.9055L9.4456 14.9808L9.36763 14.9017L9.4488 14.8292L9.52517 14.9055ZM9.7219 14.8953L9.64233 14.97L9.5644 14.8915L9.6461 14.8184L9.7219 14.8953ZM12.9851 14.8216L12.8986 14.9034L12.8136 14.8184L12.9018 14.7378L12.9851 14.8216ZM11.6453 14.826L11.5712 14.9001L11.4959 14.834L11.4271 14.9034L11.3481 14.834L11.4222 14.7582L11.4975 14.8254L11.5663 14.755L11.6453 14.826ZM7.16977 13.752L6.75277 12.6229L6.74313 12.6213L6.71323 12.6157C6.69867 12.6116 6.68617 12.6071 6.67447 12.5971C6.64823 12.5747 6.63853 12.5372 6.65053 12.5049C6.65587 12.4904 6.6646 12.4804 6.67533 12.4698L6.6913 12.4565L6.55397 12.0846C6.54073 12.0934 6.52643 12.1004 6.51127 12.1063C6.4915 12.114 6.47093 12.1195 6.4501 12.1234C6.43937 12.1254 6.4287 12.1269 6.41783 12.1279C6.39833 12.1298 6.37763 12.1301 6.35703 12.1282L7.0461 13.752H7.16977ZM7.28693 13.752H7.39307L7.09767 12.6579C7.04377 12.6553 6.99 12.6517 6.9363 12.6466L7.28693 13.752ZM7.5172 13.752H7.62333L7.4412 12.6652L7.39227 12.6649L7.28347 12.6638L7.5172 13.752ZM7.729 13.752H7.83513L7.7556 12.6676L7.73797 12.6677C7.69137 12.6671 7.64473 12.6667 7.59813 12.6664L7.729 13.752ZM8.05717 13.752L8.08507 12.6559C8.0461 12.6806 8.00263 12.6735 7.9592 12.6666C7.9496 12.6656 7.93987 12.666 7.93017 12.6659L7.91907 12.6658L7.94543 13.752H8.05717ZM8.271 13.752L8.45227 12.2484C8.44937 12.2562 8.4464 12.2641 8.44323 12.2718C8.43563 12.2885 8.4277 12.3049 8.4175 12.3202C8.38323 12.3714 8.33423 12.4124 8.2855 12.4491C8.27677 12.4554 8.26793 12.4615 8.25907 12.4676L8.16487 13.752H8.271ZM8.4828 13.752L8.88917 11.8601C8.8798 11.8804 8.87043 11.9007 8.86077 11.9209C8.8489 11.9446 8.84893 11.9445 8.83653 11.9677C8.7956 12.0385 8.74383 12.114 8.6601 12.1357C8.65577 12.1368 8.65143 12.1378 8.64703 12.1386L8.37667 13.752H8.4828ZM8.60693 13.752H8.71307L9.17697 12.2895C9.16953 12.2841 9.16277 12.2778 9.15697 12.2705C9.14547 12.2561 9.13817 12.2384 9.13297 12.2209C9.12113 12.1809 9.1223 12.1386 9.12823 12.0977C9.12967 12.088 9.1319 12.0753 9.1338 12.0656C9.13813 12.0439 9.14293 12.0223 9.14687 12.0006C9.15367 11.9556 9.1587 11.9104 9.1635 11.8652C9.16897 11.8088 9.1731 11.7523 9.17273 11.6956C9.17263 11.6835 9.1724 11.6714 9.17193 11.6594L8.60693 13.752ZM8.83023 13.752H8.9539L9.4927 12.4823C9.48353 12.4806 9.47453 12.4782 9.4657 12.4746C9.4284 12.4598 9.39987 12.429 9.38783 12.3906C9.382 12.372 9.38057 12.3528 9.37993 12.3334L9.37977 12.3274C9.3723 12.3264 9.3648 12.3255 9.3573 12.3249L8.83023 13.752ZM9.08793 13.752H9.2157L9.85123 12.5769C9.80813 12.5756 9.76513 12.5721 9.72263 12.5639C9.70477 12.5605 9.6866 12.5568 9.6693 12.5508L9.08793 13.752ZM9.51333 13.752L10.3105 12.5678C10.2389 12.5689 10.1673 12.569 10.0957 12.5708L9.37377 13.752H9.51333ZM9.8275 13.752L10.808 12.546L10.8022 12.5463C10.7243 12.551 10.6463 12.5554 10.5683 12.559L9.67787 13.752H9.8275ZM10.2086 13.752L11.4346 12.5042C11.3883 12.5072 11.3419 12.51 11.2956 12.5132L11.1633 12.5222L10.0447 13.752H10.2086ZM10.6713 13.752L12.2211 12.4478C12.1972 12.4596 12.1682 12.4642 12.1436 12.466C12.1376 12.4664 12.1315 12.4667 12.1255 12.4668C12.1139 12.4671 12.102 12.4669 12.0904 12.4664C12.0737 12.4657 12.0589 12.4645 12.0418 12.4632C12.0213 12.4616 12.0009 12.4596 11.9803 12.459C11.9467 12.4596 11.913 12.4626 11.8794 12.4651C11.8609 12.4666 11.8425 12.4682 11.824 12.4699L10.4351 13.752H10.6713ZM6.56567 11.8736C6.5677 11.8734 6.56973 11.8732 6.5718 11.8731C6.58547 11.8733 6.58537 11.8732 6.59907 11.8744C6.60297 11.8749 6.60687 11.8756 6.61073 11.8763L6.61183 11.8765C6.6155 11.8772 6.61917 11.878 6.6228 11.8788L6.6244 11.8792C6.62793 11.88 6.63147 11.8809 6.63493 11.8819L6.63887 11.883L6.6427 11.8841L6.64783 11.8856L6.6518 11.8869L6.65523 11.8881L6.65963 11.8896L6.66453 11.8914L6.6713 11.894L6.67713 11.8963L6.68283 11.8987L6.68953 11.9016L6.69423 11.9038L6.7018 11.9074C6.72927 11.9206 6.7556 11.9367 6.78097 11.9537C6.82647 11.9842 6.87133 12.018 6.90583 12.061C6.97813 12.151 6.99693 12.2697 6.96527 12.3797C6.9551 12.4149 6.94123 12.4479 6.9196 12.4776L6.91923 12.478C6.96347 12.4826 7.00773 12.4861 7.052 12.4887L7.058 12.4891L7.09663 12.4912L7.1074 12.4917L7.1475 12.4934L7.19507 12.4951L7.24357 12.4963L7.27963 12.4971C7.32417 12.4977 7.3687 12.498 7.41327 12.4984L7.578 12.4995C7.6316 12.4999 7.68517 12.5004 7.73873 12.501L7.7863 12.5006L7.87213 12.4995L7.87553 12.4995C7.89443 12.4993 7.91333 12.4991 7.93223 12.4992C7.9568 12.4997 7.9567 12.4987 7.98103 12.5013L7.9871 12.5023C7.99047 12.4915 7.99423 12.4812 7.99853 12.4707C8.0084 12.451 8.0202 12.4341 8.03713 12.4197C8.05517 12.406 8.07343 12.3927 8.092 12.3797L8.1396 12.3475L8.1633 12.3313L8.1868 12.3148C8.20057 12.3044 8.21393 12.2938 8.22707 12.2826L8.24053 12.2702L8.24717 12.264L8.25377 12.2575L8.2602 12.2508L8.26307 12.2476L8.26637 12.2439L8.26913 12.2406L8.27217 12.2368L8.2764 12.2312L8.2789 12.2276C8.28753 12.2146 8.29307 12.1995 8.2983 12.185C8.30477 12.167 8.311 12.1491 8.3178 12.1312C8.32437 12.1155 8.32433 12.1156 8.33163 12.1001C8.34283 12.0796 8.3548 12.0603 8.3711 12.0434C8.4018 12.0115 8.4414 11.9921 8.48417 11.9836L8.4916 11.9823C8.4944 11.9818 8.49727 11.9813 8.50013 11.981C8.5371 11.976 8.5746 11.9806 8.61147 11.9757C8.61667 11.9748 8.62197 11.9738 8.62647 11.971L8.6321 11.9665L8.6376 11.9616L8.6394 11.9599L8.6446 11.9547L8.6495 11.9493L8.65423 11.9437L8.65887 11.9378L8.66047 11.9357L8.66483 11.9296L8.66883 11.9238L8.67517 11.9139L8.67977 11.9062L8.68443 11.8981L8.68757 11.8926C8.69223 11.8842 8.69667 11.8758 8.701 11.8677C8.72597 11.8179 8.74807 11.7667 8.77257 11.7167C8.78687 11.6893 8.8029 11.6629 8.81733 11.6356C8.83457 11.603 8.8511 11.57 8.8689 11.5377C8.87903 11.5205 8.8894 11.5036 8.9007 11.4871C8.91337 11.4695 8.92663 11.4526 8.9415 11.4369C8.9543 11.4233 8.96797 11.4107 8.98243 11.399L8.98937 11.3936L8.9942 11.3898L8.99953 11.3859L9.00627 11.3811L9.0099 11.3786L9.0186 11.3728L9.0195 11.3722C9.02337 11.3697 9.02727 11.3672 9.0312 11.3648C9.08543 11.3315 9.15207 11.2983 9.21597 11.3235C9.23033 11.3292 9.2438 11.3385 9.2554 11.3486L9.25573 11.3489C9.26773 11.3593 9.27813 11.3715 9.28687 11.3848C9.30013 11.405 9.30937 11.4276 9.31583 11.4508C9.32807 11.4944 9.33 11.5398 9.3338 11.5847C9.33767 11.6304 9.3399 11.6759 9.3393 11.7218C9.33877 11.7615 9.33653 11.8011 9.3332 11.8407L9.3331 11.842L9.33297 11.8433C9.33223 11.8521 9.33143 11.8609 9.3306 11.8697C9.32953 11.8804 9.32843 11.8912 9.32727 11.902L9.3261 11.9122L9.32437 11.9278L9.3234 11.9358L9.32283 11.9407L9.32197 11.9474L9.3209 11.9563L9.31907 11.9707L9.3183 11.977L9.3135 12.0133C9.30863 12.0498 9.29907 12.0854 9.2932 12.1218C9.29187 12.1319 9.2909 12.1418 9.29053 12.152L9.29057 12.1537C9.31537 12.156 9.34037 12.1565 9.3652 12.1581L9.37807 12.1593L9.3871 12.1603L9.39803 12.1617L9.40377 12.1625L9.4089 12.1633L9.4165 12.1647C9.4284 12.1669 9.44007 12.1699 9.45147 12.1741C9.4921 12.189 9.5242 12.2193 9.53783 12.2608C9.54403 12.2797 9.5457 12.2993 9.54627 12.3191L9.56207 12.3188L9.56517 12.3188L9.57303 12.3187L9.58403 12.3189C9.61833 12.3214 9.64913 12.3303 9.67677 12.3513C9.6849 12.3575 9.69243 12.3644 9.69973 12.3716C9.70697 12.3787 9.7139 12.3871 9.72243 12.3928L9.7276 12.3944L9.7328 12.3958L9.74317 12.3982C9.7506 12.3997 9.75813 12.4009 9.7655 12.4023C9.82567 12.4116 9.8865 12.4123 9.9474 12.4104L9.96123 12.41L9.98197 12.4091L10.0662 12.4052L10.0879 12.4043C10.0949 12.4041 10.102 12.4039 10.109 12.4037L10.1095 12.4037C10.1735 12.403 10.2375 12.4027 10.3016 12.4016C10.3458 12.4005 10.3901 12.3991 10.4343 12.3975L10.4832 12.3956L10.498 12.395L10.5602 12.3924L10.5664 12.3921L10.6238 12.3893L10.6367 12.3887L10.7103 12.3848C10.7907 12.3801 10.871 12.375 10.9513 12.3697L11.132 12.3577L11.3248 12.3446L11.4818 12.3341C11.5273 12.3307 11.5727 12.3266 11.6181 12.3223C11.6637 12.3179 11.7092 12.3133 11.7548 12.309L11.7704 12.3075L11.79 12.3057L11.8031 12.3044L11.8185 12.3031L11.8233 12.3026C11.8377 12.3014 11.8521 12.3001 11.8666 12.2989C11.9 12.2965 11.9334 12.2944 11.9669 12.2926L11.9758 12.2925H11.9788L11.9848 12.2926L11.9908 12.2928L12.0026 12.2932L12.0146 12.2939C12.0463 12.2958 12.0779 12.2993 12.1097 12.3002H12.111C12.112 12.2387 12.1157 12.1772 12.118 12.1157L12.1206 12.0571C12.1049 12.058 12.0892 12.0592 12.0734 12.0601L12.0577 12.0608C12.0462 12.0607 12.0348 12.0605 12.0234 12.0604L12.0063 12.0602C12.0006 12.0602 11.9949 12.0602 11.9892 12.0602L11.9725 12.061L11.9563 12.0618L11.9237 12.064L11.9078 12.0653L11.8893 12.0668L11.8718 12.0685C11.8187 12.0735 11.7657 12.0797 11.7125 12.0848C11.6798 12.0876 11.68 12.0876 11.6472 12.0897C11.6193 12.0909 11.5916 12.0917 11.5637 12.0915L11.5553 12.0912L11.5504 12.0911L11.5493 12.0911C11.5463 12.091 11.543 12.0908 11.537 12.0905C11.5053 12.0872 11.4755 12.0784 11.4464 12.0655C11.4129 12.0506 11.3817 12.031 11.3481 12.0163C11.3388 12.0127 11.33 12.0101 11.3204 12.0076L11.312 12.0061L11.3037 12.0047L11.3004 12.0042L11.2953 12.0034L11.292 12.003L11.2869 12.0023L11.2806 12.0016L11.2699 12.0004L11.2529 11.9989C11.2307 11.997 11.2084 11.9955 11.1863 11.993C11.1674 11.9903 11.1676 11.9903 11.1489 11.9869C11.1287 11.9821 11.1089 11.9769 11.0897 11.9688C11.0694 11.9602 11.0499 11.9501 11.031 11.9392L11.0296 11.9384C11.0243 11.9354 11.0191 11.9323 11.0138 11.9291L11.0132 11.9287L11.0026 11.9221L10.9983 11.9194L10.9967 11.9184L10.9946 11.9171L10.9906 11.9146L10.9861 11.9116L10.9798 11.9076L10.9696 11.9009L10.9669 11.8991L10.9639 11.8971L10.963 11.8966L10.9375 11.8797L10.9237 11.8707L10.9153 11.8653L10.911 11.8626L10.8957 11.853C10.8802 11.8442 10.8647 11.8358 10.8484 11.8286L10.8411 11.8258L10.8392 11.8251L10.8354 11.8238L10.8277 11.8213L10.8248 11.8204C10.8023 11.8136 10.7793 11.8098 10.7556 11.8062C10.7294 11.8023 10.703 11.7991 10.6766 11.7966C10.6432 11.7934 10.6096 11.791 10.5759 11.7895L10.5732 11.7894L10.5542 11.7888L10.5499 11.7887L10.5348 11.7884L10.5296 11.7883L10.514 11.7882L10.5101 11.7882L10.4907 11.7884L10.4876 11.7884L10.4717 11.7888L10.4654 11.789L10.4525 11.7896L10.4457 11.7899L10.4265 11.7911L10.4075 11.7926L10.3858 11.7947L10.3793 11.7954L10.3631 11.7974L10.3571 11.7981L10.3359 11.801L10.3036 11.8057C10.2743 11.8101 10.2452 11.8147 10.216 11.8185C10.1899 11.8215 10.19 11.8215 10.1638 11.824C10.1129 11.8275 10.0622 11.8285 10.0116 11.822C9.9717 11.8168 9.93493 11.8078 9.89993 11.7873L9.89417 11.7838L9.8927 11.7829L9.89187 11.7824L9.8907 11.7817L9.8885 11.7803L9.88693 11.7792L9.88393 11.7773L9.87877 11.7737L9.8774 11.7728L9.8769 11.7724C9.8737 11.7701 9.8705 11.7678 9.86733 11.7654L9.86663 11.7649L9.86503 11.7636L9.86113 11.7607L9.85747 11.7577L9.85607 11.7567L9.85517 11.7559L9.85377 11.7548L9.85137 11.7528L9.84573 11.7482L9.84117 11.7443L9.8393 11.7428L9.8375 11.7412L9.83553 11.7395L9.83147 11.736L9.82507 11.7304L9.81537 11.7219C9.80443 11.7122 9.79353 11.7026 9.78237 11.6934C9.7381 11.6589 9.6904 11.6292 9.64533 11.5958C9.64047 11.592 9.63563 11.5881 9.63087 11.5842L9.62693 11.581L9.62323 11.578L9.62233 11.5772C9.61907 11.5745 9.61587 11.5718 9.61263 11.569L9.61077 11.5674L9.60377 11.5612L9.6028 11.5603L9.60183 11.5595L9.59503 11.5532L9.59307 11.5514L9.59143 11.5499L9.58947 11.548L9.58647 11.5451L9.58347 11.5421L9.58133 11.54L9.57997 11.5386L9.5781 11.5367L9.5715 11.5298L9.5708 11.5291C9.5678 11.5259 9.56487 11.5226 9.56193 11.5192C9.55913 11.516 9.55637 11.5127 9.55363 11.5094L9.5529 11.5086L9.55107 11.5063L9.54733 11.5017L9.54553 11.4993L9.5442 11.4977L9.5427 11.4956L9.54037 11.4926L9.53757 11.4888L9.53587 11.4865L9.5349 11.4852L9.53363 11.4834L9.52783 11.4751L9.5275 11.4746C9.52513 11.4711 9.52277 11.4675 9.52047 11.464L9.52017 11.4635L9.51877 11.4612L9.5148 11.4549L9.5137 11.4531L9.51283 11.4517L9.51137 11.4491L9.50897 11.4451L9.50717 11.4419L9.50583 11.4396L9.5048 11.4377L9.5034 11.4352L9.50073 11.4302L9.49923 11.4274L9.49867 11.4263L9.49807 11.4251L9.4934 11.4159L9.49293 11.415L9.4925 11.414L9.48807 11.4047L9.48757 11.4035L9.48703 11.4024L9.48567 11.3992L9.48347 11.3943L9.48243 11.3918L9.48147 11.3896L9.4804 11.3869L9.47907 11.3837L9.47757 11.3798L9.4763 11.3767L9.4756 11.3748L9.47493 11.3731L9.4728 11.3672L9.47147 11.3636L9.4712 11.3628L9.47107 11.3624C9.4666 11.3497 9.46267 11.3367 9.45927 11.3236C9.44317 11.2616 9.438 11.1976 9.42777 11.1346C9.4251 11.1203 9.42213 11.1062 9.41857 11.0921C9.41257 11.0724 9.4058 11.0526 9.39247 11.0365C9.3806 11.0221 9.36457 11.0128 9.3473 11.0064L9.33933 11.0037L9.33873 11.0036L9.33097 11.0014L9.32957 11.001L9.32203 10.9992L9.31187 10.9972C9.2981 10.9947 9.28417 10.9933 9.27023 10.9929L9.26187 10.9929C9.25627 10.9929 9.2507 10.9932 9.2451 10.9936C9.18827 10.9981 9.13533 11.0211 9.0851 11.0465L9.0615 11.0592C9.00983 11.0874 8.95957 11.1181 8.9079 11.1463C8.87457 11.1636 8.84037 11.179 8.80553 11.1926L8.80513 11.1928L8.8042 11.1931L8.79973 11.1948L8.79133 11.1981L8.78897 11.1989L8.7865 11.1999L8.78227 11.2014L8.77703 11.2033L8.7725 11.2049L8.7687 11.2063L8.76573 11.2074L8.7627 11.2084L8.75533 11.2109L8.7508 11.2125L8.74937 11.213C8.7441 11.2148 8.7388 11.2165 8.73353 11.2182L8.7328 11.2184L8.72863 11.2197L8.71927 11.2227L8.71703 11.2234L8.71473 11.2241L8.71027 11.2254L8.70467 11.2271L8.70037 11.2284L8.69657 11.2295L8.69327 11.2305L8.69003 11.2314L8.68323 11.2333L8.67833 11.2347L8.6765 11.2352L8.67533 11.2355L8.6627 11.2389L8.66 11.2397L8.6545 11.2411L8.64583 11.2433L8.6442 11.2437L8.64163 11.2444L8.63597 11.2458L8.631 11.247L8.62917 11.2475C8.61997 11.2497 8.61077 11.2519 8.60157 11.2539L8.60123 11.254L8.60047 11.2542L8.58613 11.2574L8.57137 11.2605L8.5675 11.2613C8.49377 11.2766 8.41907 11.2878 8.3449 11.2972C8.3379 11.2981 8.3309 11.299 8.32393 11.2999C8.29907 11.303 8.2742 11.306 8.2493 11.3089C8.23823 11.3102 8.22707 11.3115 8.21587 11.3127L8.2151 11.3128L8.20967 11.3134L8.2008 11.3143L8.19943 11.3144L8.19787 11.3145L8.19227 11.315L8.1845 11.3157L8.18267 11.3159L8.1806 11.316L8.17507 11.3164L8.16813 11.3169L8.16583 11.317L8.16327 11.3172L8.15793 11.3175L8.1518 11.3178L8.14903 11.3179L8.14593 11.318L8.14087 11.3182L8.13543 11.3183L8.13223 11.3184L8.1286 11.3184L8.12387 11.3184L8.1191 11.3184C8.07033 11.3182 8.02213 11.3114 7.9766 11.2917C7.94237 11.2768 7.91213 11.2568 7.88433 11.2336L7.88297 11.2325L7.87897 11.2291L7.8748 11.2255L7.8735 11.2244L7.87273 11.2237C7.8662 11.2179 7.8598 11.212 7.8535 11.206L7.85257 11.2051L7.8512 11.2037L7.848 11.2006L7.84363 11.1963L7.8405 11.1932L7.8384 11.191L7.83233 11.1848L7.82773 11.18L7.8258 11.178L7.8244 11.1765C7.8202 11.172 7.81603 11.1675 7.8119 11.163L7.81137 11.1624L7.80947 11.1603L7.80303 11.1532L7.80037 11.1502L7.79713 11.1467L7.7851 11.133L7.78393 11.1317L7.7834 11.1311L7.78307 11.1307L7.76153 11.1062L7.74987 11.093L7.74297 11.0852L7.73967 11.0816L7.72687 11.0675C7.71617 11.0566 7.7052 11.046 7.69373 11.0358L7.68657 11.03L7.6841 11.0281L7.67927 11.0244L7.67617 11.0222L7.67183 11.0191L7.66833 11.0168L7.66427 11.0141L7.66037 11.0116L7.65657 11.0092L7.65227 11.0067L7.64877 11.0046L7.64393 11.0019L7.64087 11.0002L7.63537 10.9974C7.5697 10.9634 7.49373 10.9492 7.42173 10.9355L7.3736 10.9264L7.3688 10.9255C7.35437 10.9227 7.33997 10.9199 7.32553 10.917C7.29763 10.911 7.26993 10.9046 7.24237 10.8971C7.2374 10.8957 7.23247 10.8942 7.22757 10.8927L7.2264 10.8923L7.22287 10.8912L7.21587 10.8889L7.21287 10.8879L7.2106 10.8872L7.2074 10.8861L7.20273 10.8845L7.1981 10.8829L7.1949 10.8818L7.19263 10.8809L7.18973 10.8799L7.1831 10.8774L7.17937 10.8761L7.1781 10.8756L7.17683 10.8751L7.16573 10.8708L7.16397 10.8701L7.1616 10.8691L7.15127 10.8649L7.1502 10.8644L7.1487 10.8638L7.13863 10.8594C7.09153 10.8388 7.0464 10.8141 7.00297 10.7856C6.9516 10.752 6.9033 10.7142 6.85627 10.6748L6.855 10.6737L6.85253 10.6717L6.8419 10.6627L6.83773 10.6592L6.83657 10.6582L6.8345 10.6564L6.81933 10.6434L6.81857 10.6428L6.7909 10.6188L6.7827 10.6117L6.78117 10.6104L6.78087 10.6101L6.74593 10.5797L6.70953 10.5483L6.6795 10.5233L6.66867 10.5143L6.6496 10.4986L6.5863 10.4467L6.57023 10.4335L6.53417 10.4038L6.52857 10.3992L6.52463 10.3959L6.50503 10.3796L6.50053 10.3759L6.49393 10.3704L6.4847 10.3626L6.476 10.3553L6.4634 10.3447C6.4083 10.2971 6.35407 10.2485 6.30257 10.197C6.2715 10.166 6.24003 10.1349 6.21467 10.0989C6.17133 10.0372 6.14317 9.96587 6.12257 9.8938C6.0953 9.79847 6.08063 9.69957 6.07157 9.60093C6.06843 9.56677 6.06843 9.5324 6.06607 9.4982C6.06463 9.48383 6.063 9.46963 6.06007 9.45553C6.0568 9.4422 6.053 9.4274 6.0428 9.41753C6.03907 9.41447 6.03517 9.41253 6.03053 9.41137C6.01643 9.40873 6.00167 9.41133 5.98777 9.41373C5.96637 9.41737 5.94517 9.42183 5.9237 9.4252C5.91583 9.42607 5.90807 9.42687 5.90033 9.4274L5.89877 9.42753L5.8951 9.42777L5.89297 9.4279L5.89207 9.42793C5.88893 9.42813 5.8858 9.42827 5.88263 9.42833C5.8667 9.4281 5.85097 9.42713 5.83527 9.42393C5.8145 9.41967 5.79383 9.41177 5.77403 9.4049C5.72207 9.38687 5.67053 9.36187 5.63657 9.31697C5.61543 9.28897 5.60577 9.25447 5.59117 9.22303L5.58907 9.2189C5.5802 9.2153 5.57113 9.2123 5.5616 9.21103L5.55773 9.21067L5.55673 9.2106L5.5532 9.21053L5.5495 9.2107L5.54453 9.21123L5.53963 9.21227L5.53817 9.21263L5.53457 9.2137L5.53333 9.2141L5.52877 9.21587L5.52773 9.21633L5.52423 9.21797L5.52273 9.21873L5.5195 9.2205L5.51827 9.22117L5.5143 9.22363L5.50793 9.22803L5.50703 9.2287L5.50093 9.2334C5.4947 9.23843 5.48877 9.24383 5.48303 9.24903C5.45807 9.27393 5.4356 9.301 5.4115 9.3267C5.3773 9.36133 5.3413 9.39427 5.3081 9.4299C5.30033 9.43863 5.29287 9.44747 5.28567 9.4567C5.2742 9.47263 5.26357 9.4891 5.25313 9.50573L5.24787 9.51423L5.242 9.52367L5.23247 9.5391L5.22753 9.547L5.22463 9.55167L5.2236 9.5533L5.22207 9.55573L5.2164 9.56453L5.21277 9.57023L5.21193 9.57147L5.21143 9.57223L5.21067 9.57337L5.20667 9.5794L5.20047 9.5885C5.1913 9.6011 5.1819 9.61333 5.172 9.62537C5.15883 9.64033 5.1457 9.6549 5.12977 9.667C5.10443 9.68627 5.0753 9.7002 5.0465 9.71347C5.03253 9.7199 5.01847 9.72613 5.00447 9.7325L4.99613 9.73627L4.97537 9.74593L4.97363 9.74673C4.9657 9.75053 4.9578 9.7544 4.94997 9.75843C4.94 9.764 4.93037 9.76977 4.9213 9.77673C4.9188 9.77887 4.91883 9.77877 4.9165 9.78107C4.914 9.7926 4.91203 9.80417 4.9101 9.81583L4.90827 9.82813C4.9144 9.83837 4.9195 9.8489 4.92447 9.85973C4.9332 9.88083 4.93953 9.9029 4.94853 9.92387C4.95447 9.93117 4.962 9.93703 4.9693 9.94287C4.98733 9.95653 5.0058 9.96957 5.0234 9.9838C5.03467 9.9937 5.03457 9.99363 5.04537 10.0041C5.0567 10.0166 5.0566 10.0165 5.06707 10.0297C5.07817 10.0462 5.0882 10.0632 5.09813 10.0805C5.1471 10.1689 5.18603 10.262 5.22983 10.353C5.2428 10.3784 5.25593 10.4036 5.27023 10.4283C5.2987 10.4754 5.33087 10.52 5.36993 10.5586L5.37783 10.5662L5.38003 10.5683L5.38787 10.5755C5.44857 10.6298 5.5212 10.6697 5.59483 10.7035L5.62337 10.7164L5.63227 10.7203L5.64897 10.7277L5.69063 10.7457L5.73983 10.7667L5.74133 10.7674C5.75647 10.7739 5.7716 10.7804 5.7867 10.787L5.7882 10.7877C5.80743 10.7961 5.82657 10.8046 5.8456 10.8134C5.86717 10.8237 5.88853 10.8343 5.90977 10.8453C5.94247 10.8629 5.9753 10.8807 6.00497 10.9033C6.06763 10.951 6.1205 11.0119 6.1683 11.0741C6.1766 11.0848 6.1848 11.0957 6.19283 11.1068L6.1976 11.1133L6.20057 11.1175L6.20413 11.1225L6.2084 11.1286L6.21177 11.1334L6.216 11.1396C6.21933 11.1445 6.22263 11.1495 6.2259 11.1545L6.2321 11.1641L6.23713 11.1721C6.24013 11.177 6.24307 11.1819 6.24593 11.1868L6.2511 11.1957L6.25703 11.2064L6.26067 11.2131L6.26513 11.2217L6.2688 11.2291C6.27043 11.2324 6.27203 11.2357 6.27363 11.2391C6.294 11.2827 6.30857 11.3288 6.31887 11.3757C6.32007 11.3812 6.3212 11.3867 6.3223 11.3923L6.32487 11.4059L6.32583 11.4112L6.32747 11.421L6.32877 11.4291L6.32983 11.4362L6.33137 11.447L6.33377 11.466L6.33563 11.4829L6.33703 11.4973C6.34217 11.5525 6.34383 11.6081 6.34537 11.6635C6.34673 11.7137 6.3499 11.7637 6.3517 11.8138C6.35303 11.8509 6.3514 11.8881 6.35313 11.9253C6.35403 11.9369 6.35473 11.9486 6.3573 11.96C6.38443 11.9676 6.4163 11.9611 6.44247 11.9539C6.44687 11.9524 6.4467 11.9525 6.451 11.9509L6.45343 11.9499C6.45567 11.9442 6.45817 11.9387 6.46107 11.9333C6.46697 11.924 6.47273 11.9148 6.48117 11.9075C6.48303 11.9059 6.4849 11.9043 6.48683 11.9029L6.49153 11.8993L6.49633 11.8961L6.50157 11.8928L6.5069 11.8899L6.51233 11.8872L6.51787 11.8848L6.5235 11.8826L6.5292 11.8807L6.53503 11.879L6.54093 11.8775L6.54863 11.8759L6.5543 11.875L6.56007 11.8742L6.56567 11.8736ZM6.7905 12.1869L6.81277 12.2571C6.81033 12.2325 6.80297 12.2086 6.7905 12.1869ZM5.13773 4.24183C5.11413 4.2319 5.08837 4.22613 5.0641 4.22217L5.0476 4.21973L5.0422 4.21907L5.03093 4.21777L5.02463 4.21713L5.01413 4.2162L5.00763 4.2157L4.99703 4.21503L4.9908 4.2147L4.97907 4.21427L4.974 4.2141L4.95743 4.21387H4.9532L4.94073 4.21397L4.93387 4.2141L4.92403 4.2144L4.91637 4.21467L4.9074 4.2151L4.89927 4.21553L4.8823 4.21663L4.8756 4.21717C4.86227 4.21823 4.84897 4.2195 4.8357 4.22097L4.8203 4.22273C4.80617 4.22443 4.79207 4.2263 4.7781 4.2283L4.76387 4.23057C4.76937 4.18887 4.77427 4.14713 4.77893 4.1053L4.7815 4.07903L4.7841 4.0515L4.7873 4.0163L4.78937 3.99217L4.7905 3.97853L4.7935 3.94007C4.7959 3.90243 4.79817 3.86483 4.79953 3.82713C4.80043 3.8018 4.80107 3.77617 4.80123 3.75083C4.8014 3.72617 4.80117 3.70107 4.8004 3.6764C4.79953 3.64897 4.79853 3.6334 4.79647 3.60617C4.7925 3.55497 4.7857 3.50053 4.7649 3.4531C4.75397 3.42823 4.73753 3.40423 4.71 3.3974C4.7014 3.39613 4.6939 3.396 4.68527 3.39673L4.67947 3.39793L4.6776 3.39837L4.67377 3.39933L4.67157 3.39997L4.66813 3.40097L4.66587 3.4017L4.66253 3.40283L4.6603 3.40363L4.65697 3.4049L4.65487 3.40573L4.65133 3.4072L4.6495 3.408L4.64473 3.4102L4.64423 3.41043L4.63533 3.41497L4.6342 3.4156L4.6266 3.41993L4.62003 3.42397L4.61663 3.4261L4.60783 3.43197L4.60697 3.43257L4.5969 3.43977C4.56317 3.4644 4.53257 3.4929 4.50207 3.52137C4.4356 3.5854 4.37117 3.65147 4.305 3.71583C4.27393 3.74537 4.24263 3.77453 4.21043 3.80287C4.18373 3.82637 4.15613 3.84893 4.1278 3.87043C4.10563 3.88727 4.0829 3.9034 4.05953 3.91853C4.04243 3.9296 4.02503 3.94013 4.0072 3.94997C3.95117 3.98083 3.8907 4.00523 3.82717 4.01493C3.815 4.0168 3.80273 4.01813 3.7905 4.01873L3.77823 4.01903C3.76193 4.01907 3.74563 4.01757 3.72953 4.01383C3.7028 4.00763 3.67773 3.99593 3.65497 3.98073C3.60407 3.9468 3.56463 3.8975 3.52903 3.84857L3.5136 3.827L3.512 3.82473L3.51113 3.8235L3.50793 3.81887C3.47433 3.7709 3.44253 3.7216 3.40883 3.6737C3.3903 3.64833 3.37137 3.62357 3.35157 3.59917C3.30437 3.5437 3.25153 3.49287 3.1872 3.45763C3.17327 3.45 3.15893 3.44313 3.14423 3.4371C3.13667 3.434 3.12877 3.43027 3.1205 3.4293C3.1037 3.4273 3.08603 3.43207 3.07043 3.43787C3.0366 3.45047 3.00577 3.4723 2.9825 3.49983C2.9644 3.52123 2.9509 3.54643 2.9439 3.57363C2.9397 3.5899 2.93807 3.6067 2.93663 3.6234C2.934 3.65417 2.9333 3.6851 2.93367 3.716C2.9349 3.81677 2.94687 3.91747 2.96363 4.01673C2.97643 4.09233 2.99223 4.16753 3.01153 4.2418L3.0132 4.248L3.0211 4.27727L3.0222 4.28127L3.03053 4.31047L3.0317 4.31447L3.03903 4.33883L3.04133 4.3463L3.05023 4.3743C3.06903 4.4321 3.09027 4.48927 3.11593 4.54437L3.12473 4.56273L3.1277 4.56867L3.1339 4.58097L3.1414 4.59507L3.1427 4.5974L3.1512 4.61243L3.15627 4.62097L3.15823 4.62413C3.16247 4.63107 3.16687 4.63793 3.17143 4.64463L3.17783 4.65387L3.18357 4.66173L3.18933 4.66937L3.19507 4.67663C3.19857 4.681 3.20213 4.68527 3.2058 4.68943L3.2153 4.79133L3.21827 4.8222L3.21987 4.83903L3.22467 4.88673C3.23937 5.01277 3.2569 5.14473 3.31573 5.2591C3.33027 5.2873 3.34803 5.31343 3.36683 5.33893C3.39243 5.37367 3.41893 5.4076 3.4461 5.4411L3.4802 5.48277L3.48713 5.4912L3.50493 5.51267L3.55903 5.57777L3.56623 5.5864L3.58453 5.60843L3.59677 5.62323C3.60807 5.6369 3.6193 5.65063 3.6305 5.66437C3.66263 5.7047 3.6941 5.74533 3.725 5.7866C3.74553 5.81487 3.76583 5.8433 3.78523 5.8724C3.80463 5.90147 3.82417 5.9296 3.835 5.96303C3.848 6.0033 3.85237 6.04613 3.85367 6.0882C3.85523 6.1379 3.85217 6.1877 3.84673 6.2371L3.8464 6.24023L3.84637 6.2407L3.84627 6.24147L3.8437 6.26323C3.82353 6.42463 3.783 6.58373 3.73437 6.73873C3.7198 6.78517 3.7043 6.83133 3.68777 6.8771C3.67843 6.90293 3.66603 6.9285 3.65963 6.95527C3.6588 6.96 3.6582 6.9646 3.65787 6.9694C3.65813 7.0168 3.6867 7.05487 3.71603 7.0897C3.74827 7.12597 3.78257 7.16027 3.81407 7.1972C3.82507 7.21107 3.8362 7.22523 3.84403 7.24123C3.85697 7.26767 3.86013 7.29727 3.862 7.32623C3.86357 7.3626 3.86307 7.399 3.86467 7.43537L3.86567 7.4471L3.8659 7.44937L3.86713 7.4605C3.8695 7.4797 3.87337 7.49867 3.88047 7.51687C3.8901 7.54163 3.9054 7.56163 3.9241 7.57817C3.93117 7.58443 3.93873 7.5902 3.94667 7.59557L3.95527 7.6011L3.96413 7.60633L3.9731 7.61123L3.98123 7.6154L3.98347 7.61647L3.99347 7.62113L3.9968 7.62263L4.0085 7.62763L4.02087 7.6325L4.02407 7.63373L4.03003 7.63593L4.0425 7.64043L4.0473 7.6421L4.06327 7.64753C4.08257 7.65397 4.09147 7.65647 4.11107 7.6624C4.18387 7.68327 4.25727 7.70187 4.33003 7.72277C4.33833 7.72523 4.34663 7.72773 4.3549 7.7303L4.37693 7.73713L4.38253 7.73893L4.40027 7.74467L4.40863 7.74743L4.41497 7.7496L4.42347 7.75247L4.42913 7.75443L4.43457 7.75633L4.4401 7.7583L4.4466 7.7606L4.45357 7.76317L4.4604 7.76563L4.4649 7.76737L4.46957 7.76907L4.4778 7.77227L4.486 7.77543L4.4931 7.77827C4.5077 7.7841 4.52223 7.79023 4.53663 7.79673C4.58093 7.81667 4.624 7.83947 4.66473 7.866C4.68777 7.881 4.71003 7.89717 4.73133 7.91457C4.74847 7.92853 4.7655 7.94287 4.7792 7.9604C4.82513 8.0192 4.83363 8.09893 4.83523 8.17097C4.8356 8.18803 4.83547 8.2053 4.83513 8.22237C4.8346 8.2494 4.83347 8.27173 4.83237 8.29993C4.8309 8.33767 4.83073 8.33753 4.82987 8.37527C4.82973 8.3987 4.83017 8.4219 4.83143 8.4453C4.83557 8.49413 4.84473 8.54937 4.88467 8.58257C4.89903 8.5945 4.91647 8.60023 4.9323 8.60963C4.9405 8.61563 4.94037 8.61553 4.94803 8.6222C4.97743 8.6522 4.99527 8.6901 5.0087 8.72953C5.0224 8.76987 5.0319 8.81183 5.03877 8.85383C5.05473 8.9512 5.06203 9.0498 5.06417 9.14857L5.0647 9.17743L5.0648 9.1867V9.1945L5.06493 9.20997L5.0649 9.2185L5.06493 9.22387L5.06487 9.2314L5.06483 9.24247L5.06467 9.26103L5.06457 9.2672L5.0645 9.27497L5.0642 9.28943L5.06407 9.29817L5.06397 9.3025L5.06387 9.30747L5.06337 9.32643L5.06317 9.33527L5.06307 9.3375C5.06277 9.3491 5.06237 9.36073 5.06197 9.37233L5.06047 9.4037L5.1028 9.433L5.1223 9.4017C5.12887 9.39127 5.13547 9.3809 5.14227 9.37063L5.14987 9.36027L5.15763 9.35013L5.16417 9.3419C5.16727 9.33797 5.17047 9.33407 5.17373 9.3302C5.21357 9.28537 5.25877 9.24593 5.29973 9.20223C5.317 9.1829 5.33403 9.16347 5.35177 9.1446C5.36837 9.12803 5.3851 9.11177 5.4038 9.09757C5.41583 9.08843 5.4285 9.08017 5.4417 9.07303L5.44733 9.07007L5.45303 9.06723L5.45897 9.06443L5.46463 9.06197L5.47053 9.05957L5.47623 9.0574L5.4846 9.05453L5.48853 9.0533L5.4939 9.05173L5.50223 9.0496L5.507 9.0485L5.512 9.0475L5.5203 9.0461L5.52593 9.0453L5.5305 9.04483C5.53327 9.04453 5.536 9.0443 5.53877 9.04413C5.54247 9.0439 5.5462 9.04373 5.5499 9.0437L5.56107 9.04383C5.5685 9.0441 5.5759 9.04473 5.5833 9.0457C5.6038 9.0484 5.62393 9.05373 5.64327 9.06103C5.6641 9.06887 5.68423 9.0781 5.7009 9.09303C5.72443 9.1141 5.739 9.14357 5.75097 9.1722C5.75717 9.187 5.76207 9.20323 5.7702 9.2172C5.774 9.2215 5.77873 9.22467 5.7835 9.22777C5.798 9.23613 5.81347 9.24213 5.82923 9.24763C5.83443 9.2494 5.8404 9.2517 5.84663 9.25393L5.8533 9.25623L5.86167 9.2588C5.86493 9.2597 5.8682 9.26047 5.87137 9.26103C5.8776 9.26173 5.88373 9.26167 5.89 9.26127C5.9196 9.25797 5.94863 9.25113 5.97807 9.24657C5.9919 9.24507 6.0052 9.2439 6.01907 9.2436C6.0394 9.24407 6.05933 9.246 6.07893 9.2517C6.092 9.2555 6.1047 9.2606 6.11667 9.26707C6.13007 9.27433 6.1426 9.28303 6.15397 9.2932C6.20327 9.33723 6.22123 9.39987 6.23007 9.46307C6.23413 9.50407 6.23447 9.5452 6.2376 9.58623C6.247 9.67953 6.25977 9.77317 6.28727 9.86307C6.30457 9.91957 6.3277 9.9748 6.36497 10.0211C6.37447 10.0318 6.38427 10.0422 6.39423 10.0525L6.4204 10.0792L6.44343 10.1015L6.46677 10.1235L6.47617 10.1322L6.49033 10.1452L6.50033 10.1543L6.51417 10.1667L6.52433 10.1757L6.5383 10.1881L6.54827 10.1968L6.5627 10.2093L6.57213 10.2174L6.5875 10.2305L6.59583 10.2376L6.61017 10.2497L6.6302 10.2664L6.664 10.2946L6.67247 10.3015C6.72063 10.3413 6.76917 10.3809 6.81717 10.421C6.87027 10.4664 6.92257 10.5127 6.97607 10.5576C7.01713 10.5909 7.05937 10.6235 7.1039 10.6521L7.12097 10.6629L7.13823 10.6731L7.15573 10.683L7.16447 10.6877L7.17337 10.6923L7.18233 10.6967L7.19137 10.7011L7.20047 10.7053L7.20963 10.7093L7.21887 10.7132L7.2282 10.717L7.23757 10.7205L7.24703 10.724L7.26277 10.7293L7.27857 10.7342L7.28497 10.7361L7.29447 10.7388L7.3014 10.7406L7.31043 10.743L7.3178 10.7449L7.3263 10.747L7.33427 10.7488L7.34187 10.7506L7.35093 10.7526L7.36783 10.7562C7.4178 10.7665 7.46833 10.7746 7.518 10.7848C7.54033 10.7899 7.56247 10.7951 7.5846 10.801C7.59923 10.8052 7.6138 10.8096 7.62827 10.8145L7.63547 10.817L7.648 10.8214L7.66047 10.8261L7.67283 10.831L7.68153 10.8347L7.69163 10.8391L7.69717 10.8417L7.7016 10.8438L7.70913 10.8474L7.7115 10.8486L7.72113 10.8536C7.72473 10.8555 7.7283 10.8575 7.7318 10.8595L7.74047 10.8645L7.74407 10.8666L7.74987 10.8702L7.75533 10.8737L7.75913 10.8762L7.7664 10.8812L7.76827 10.8825L7.77723 10.8891L7.78423 10.8944L7.79033 10.8993C7.79407 10.9023 7.79773 10.9054 7.80133 10.9085L7.8045 10.9112L7.80847 10.9148L7.8143 10.92L7.81753 10.923L7.82117 10.9264L7.826 10.931L7.8302 10.9351L7.83333 10.9382L7.83743 10.9423L7.84257 10.9475L7.84863 10.9538L7.85467 10.9602L7.85967 10.9655L7.8705 10.9774L7.8783 10.9862C7.90427 11.0153 7.92943 11.0453 7.95613 11.0736C7.96667 11.0842 7.97743 11.0943 7.98877 11.1041C8.00767 11.1193 8.02793 11.1338 8.05103 11.1419C8.07313 11.1497 8.09703 11.1517 8.1203 11.1519L8.13647 11.1518L8.1497 11.1512L8.163 11.1504L8.1763 11.1493L8.18967 11.148L8.20297 11.1466L8.2298 11.1434C8.25427 11.1405 8.2787 11.1376 8.30313 11.1345L8.33243 11.1308L8.35733 11.1274C8.4281 11.1177 8.49863 11.1058 8.56823 11.0901C8.57637 11.0882 8.5845 11.0863 8.5926 11.0843L8.60827 11.0804L8.6206 11.0773L8.6352 11.0733L8.64997 11.0692L8.66467 11.0649L8.67897 11.0605L8.69403 11.0557L8.709 11.0506L8.71567 11.0483L8.72393 11.0453L8.7305 11.0429L8.73877 11.0398L8.74523 11.0373L8.75357 11.034L8.7599 11.0315L8.76833 11.028L8.77443 11.0254L8.78317 11.0216L8.78887 11.019L8.8032 11.0124L8.8174 11.0055C8.88227 10.9718 8.94397 10.9324 9.0087 10.8984C9.0431 10.8809 9.0783 10.865 9.1147 10.8526L9.1221 10.8501L9.13387 10.8464L9.1457 10.8429L9.15763 10.8398L9.16963 10.8369L9.18213 10.8343C9.18603 10.8335 9.19 10.8328 9.19397 10.8321L9.20393 10.8306L9.21403 10.8293L9.22423 10.8282L9.23037 10.8276L9.2345 10.8273L9.24367 10.8267C9.25137 10.8263 9.2591 10.8261 9.26687 10.8261H9.26777L9.27613 10.8261L9.28663 10.8265L9.2929 10.8268L9.29713 10.8271L9.30627 10.8278C9.3142 10.8285 9.3221 10.8294 9.32993 10.8306L9.33893 10.832L9.34927 10.8339L9.35953 10.8361L9.36797 10.8382C9.376 10.8402 9.38393 10.8425 9.39177 10.8451C9.43413 10.859 9.47323 10.881 9.50477 10.9125C9.52133 10.929 9.53547 10.9479 9.54707 10.9682C9.56123 10.993 9.57133 11.0192 9.57897 11.0463L9.58067 11.0524L9.5827 11.0603C9.58367 11.0641 9.58457 11.068 9.58543 11.0718C9.5866 11.077 9.5877 11.0822 9.58877 11.0874L9.5913 11.1005L9.59223 11.1059L9.59363 11.1141L9.5955 11.1258L9.59793 11.1421L9.60163 11.1689L9.60313 11.1801L9.60667 11.2059L9.60867 11.2198L9.61007 11.2291L9.61087 11.2341L9.6136 11.2502C9.61683 11.2659 9.62047 11.2812 9.62477 11.2966L9.62757 11.3048L9.63053 11.313L9.6337 11.3211L9.63707 11.329L9.64063 11.3369L9.6444 11.3447L9.64833 11.3524L9.6525 11.3599L9.65683 11.3674L9.6614 11.3747L9.66613 11.3819L9.6711 11.389L9.67627 11.3959L9.68167 11.4027L9.68723 11.4093L9.6933 11.4161C9.70947 11.4336 9.7277 11.4486 9.7464 11.4633C9.78883 11.4947 9.83307 11.5235 9.87563 11.5548L9.88767 11.5644L9.89947 11.5744L9.90537 11.5795C9.91417 11.5871 9.92283 11.5948 9.93163 11.6024L9.93517 11.6055L9.94683 11.6155L9.9584 11.625L9.97017 11.6342C9.97887 11.6402 9.98757 11.6461 9.9975 11.65C10.0088 11.6538 10.0213 11.6551 10.0331 11.6567L10.0418 11.6577L10.0506 11.6586L10.0593 11.6592L10.068 11.6597L10.0766 11.6601L10.0842 11.6602L10.1003 11.6603L10.1064 11.6602C10.1938 11.6584 10.2802 11.6399 10.3667 11.6292C10.3937 11.6264 10.3936 11.6265 10.4207 11.6245C10.4301 11.624 10.4395 11.6236 10.4489 11.6233L10.4542 11.6231C10.4632 11.6228 10.4723 11.6226 10.4814 11.6224L10.4962 11.6222L10.5147 11.6221C10.5242 11.6221 10.5338 11.6222 10.5433 11.6224L10.548 11.6225C10.5574 11.6226 10.5667 11.6229 10.576 11.6232L10.5797 11.6233C10.5994 11.624 10.6191 11.625 10.6387 11.6263L10.641 11.6265C10.6511 11.6272 10.6612 11.6279 10.6713 11.6288C10.6884 11.6302 10.7054 11.6319 10.7225 11.6338C10.7827 11.6406 10.8443 11.6481 10.9011 11.6701L10.915 11.6758L10.9286 11.6819L10.9341 11.6846L10.9378 11.6863L10.9421 11.6885L10.9504 11.6928L10.9553 11.6954L10.9629 11.6996L10.9683 11.7026L10.9752 11.7066L10.9812 11.7101L10.9874 11.7138L10.994 11.7178L10.9995 11.7213L11.0115 11.7289L11.0244 11.7372L11.0317 11.742L11.0569 11.7586L11.0824 11.7753L11.0946 11.7831L11.107 11.7908L11.119 11.7975L11.1317 11.8042C11.1391 11.8081 11.1466 11.8117 11.1542 11.8151C11.1714 11.8219 11.1892 11.8251 11.2074 11.8277C11.2447 11.8319 11.2821 11.8337 11.3193 11.8383C11.3404 11.8416 11.3612 11.8457 11.3815 11.8517L11.3892 11.854L11.3931 11.8553L11.4005 11.8579L11.4013 11.8582C11.4048 11.8595 11.4083 11.8608 11.4117 11.8622C11.447 11.8768 11.4795 11.8971 11.5141 11.9131C11.5216 11.9163 11.5291 11.9192 11.537 11.9217C11.5415 11.9228 11.5458 11.9238 11.5504 11.9243C11.5602 11.9249 11.57 11.925 11.5798 11.9249L11.6092 11.9245C11.6428 11.9231 11.6762 11.9205 11.7096 11.9174C11.6988 11.7633 11.7102 11.6076 11.7402 11.456C11.7414 11.4497 11.7427 11.4435 11.744 11.4373L11.7475 11.4207L11.7515 11.4031L11.7533 11.3952C11.7596 11.3686 11.7665 11.3422 11.7741 11.316C11.7862 11.2744 11.7996 11.2335 11.8191 11.1948C11.8612 11.1111 11.9235 11.0398 11.9862 10.971C12.0067 10.9486 12.0273 10.9263 12.0476 10.9037C12.0564 10.8939 12.0647 10.8835 12.0744 10.8745C12.079 10.8707 12.0838 10.8676 12.0891 10.8648C12.1194 10.8511 12.1531 10.8562 12.1846 10.8626L12.1869 10.8631C12.2231 10.8714 12.2586 10.8829 12.2949 10.8909C12.3071 10.8933 12.321 10.8961 12.3344 10.8959L12.3388 10.8958C12.3477 10.8952 12.3562 10.8932 12.3639 10.8888C12.3762 10.8816 12.3864 10.87 12.3944 10.8584C12.4128 10.8316 12.4228 10.7971 12.4199 10.7645C12.4187 10.7501 12.4147 10.7353 12.4055 10.7238C12.4 10.7169 12.3933 10.713 12.3857 10.7085C12.3656 10.6984 12.3449 10.6903 12.324 10.6821C12.3096 10.6763 12.2955 10.6704 12.2814 10.6642C12.2678 10.6576 12.2548 10.6507 12.2419 10.6428C12.229 10.634 12.2166 10.6242 12.2077 10.6113C12.1935 10.5909 12.1892 10.5655 12.1857 10.5415C12.1807 10.4999 12.1794 10.458 12.1764 10.4163L12.1755 10.4057L12.1744 10.3927L12.1726 10.3746C12.1669 10.3329 12.1584 10.2915 12.1403 10.2532L12.1367 10.2461L12.1355 10.2438L12.133 10.2391L12.1315 10.2364L12.129 10.2321L12.1274 10.2294L12.1249 10.2253L12.1232 10.2227L12.1204 10.2184L12.1189 10.2161L12.1152 10.2108L12.1144 10.2097L12.1097 10.2034L12.1082 10.2015L12.1049 10.1972L12.1029 10.1948L12.0999 10.1911L12.0978 10.1886L12.0947 10.1851L12.0925 10.1827L12.0906 10.1806L12.0817 10.1711L12.0813 10.1706L12.0719 10.1614L12.0709 10.1604L12.0613 10.1516L12.0598 10.1502L12.054 10.1452L12.0469 10.1392L12.0415 10.1347L12.0346 10.1292L12.0288 10.1247L12.0221 10.1196L12.016 10.115L12.0099 10.1106C11.9997 10.1032 11.9894 10.0962 11.9791 10.0893L11.9762 10.0874C11.9669 10.0812 11.9575 10.0752 11.9482 10.0692C11.8941 10.0358 11.8392 10.0036 11.7859 9.96893C11.7576 9.95 11.73 9.9302 11.7035 9.90897L11.7023 9.90803L11.6999 9.90603L11.6943 9.90153L11.6908 9.8986L11.6887 9.8968L11.6867 9.89517L11.6835 9.89243L11.6778 9.88753L11.6752 9.8853L11.6742 9.8844C11.6702 9.88083 11.6661 9.87717 11.6621 9.87353L11.6617 9.87317L11.6519 9.8639L11.6504 9.86243L11.6492 9.86133L11.6467 9.8589L11.6417 9.85397L11.6387 9.8509L11.6366 9.84887L11.6347 9.84687L11.6317 9.84383L11.6269 9.83863L11.6244 9.836L11.6234 9.8349C11.6197 9.83093 11.616 9.8269 11.6125 9.8228C11.5766 9.7817 11.5455 9.73613 11.5217 9.687C11.5195 9.68233 11.5173 9.67767 11.5152 9.67297L11.5148 9.67213L11.5147 9.67173C11.5127 9.66723 11.5108 9.66273 11.5089 9.6582L11.5085 9.65713L11.5082 9.65643C11.5064 9.65197 11.5046 9.64747 11.5029 9.64297L11.5026 9.64203L11.5023 9.64117L11.5012 9.63843L11.4993 9.63277L11.4971 9.6268L11.4964 9.6246L11.4955 9.622L11.4937 9.61617L11.4922 9.6115L11.4915 9.60907L11.4904 9.60547L11.4887 9.59937L11.4877 9.59607L11.4871 9.59377L11.4857 9.5888L11.4841 9.58233L11.4837 9.58057L11.4833 9.57897L11.4816 9.57203L11.4801 9.56497L11.478 9.55517C11.4507 9.41987 11.4683 9.27613 11.4906 9.14077C11.4963 9.10547 11.4991 9.09107 11.5064 9.05037C11.5085 9.04013 11.511 9.03017 11.5139 9.02013C11.5335 8.9615 11.5691 8.91163 11.6097 8.86547C11.6536 8.81553 11.7023 8.77013 11.7478 8.72167C11.7616 8.70637 11.7615 8.7065 11.7748 8.69093C11.8136 8.6422 11.852 8.58317 11.8342 8.51793C11.8302 8.5032 11.8244 8.4891 11.8167 8.47593C11.8072 8.45973 11.7951 8.4452 11.7812 8.4325C11.7606 8.4136 11.7365 8.39877 11.7113 8.3868C11.7072 8.38487 11.7031 8.383 11.699 8.38123L11.6892 8.37713L11.6797 8.37337L11.6774 8.37247L11.6688 8.36933L11.6653 8.36813L11.6573 8.3654L11.6532 8.36407L11.6455 8.3617L11.6409 8.36033L11.6336 8.3582L11.6285 8.35683L11.6214 8.35493L11.6094 8.35197L11.5972 8.3492L11.5917 8.34803L11.5846 8.3466L11.579 8.34553L11.5719 8.3442L11.5663 8.3432L11.5592 8.342L11.5537 8.3411L11.5463 8.33997L11.5411 8.33917L11.5334 8.33807L11.5284 8.3374L11.5033 8.33433L11.4869 8.33263L11.4815 8.33213L11.4705 8.33113L11.454 8.32987L11.4471 8.3294L11.4375 8.3288L11.4304 8.3284L11.421 8.32793L11.4138 8.32763L11.4044 8.3273L11.3972 8.32707L11.3878 8.32683L11.3806 8.32667L11.3711 8.32657L11.364 8.3265H11.348L11.3388 8.3266L11.332 8.32667L11.3159 8.32703L11.305 8.32737L11.2999 8.32753L11.2882 8.328L11.2842 8.32817L11.2715 8.3288L11.269 8.32893L11.2548 8.32977L11.2439 8.33047C11.2382 8.33087 11.2324 8.3313 11.2267 8.33173L11.2205 8.3323C11.2003 8.1968 11.1845 8.0606 11.1727 7.9241C11.1607 7.78427 11.1528 7.6439 11.1529 7.50353C11.1529 7.48207 11.1531 7.4606 11.1536 7.43913L11.1542 7.41707L11.1552 7.38823L11.1556 7.37967L11.1561 7.3676L11.1565 7.35947L11.1569 7.35297L11.1573 7.34397L11.1581 7.33067L11.1588 7.32037L11.1602 7.29967C11.1609 7.2908 11.1616 7.282 11.1623 7.27317C11.1641 7.25173 11.1666 7.23033 11.1693 7.209C11.1708 7.19727 11.1727 7.18617 11.1732 7.17443C11.1729 7.16767 11.1723 7.16133 11.1711 7.15467C11.1567 7.09777 11.1018 7.06197 11.0554 7.03233C11.0456 7.02607 11.0358 7.01993 11.026 7.01373C11.0065 7.0014 10.9871 6.98913 10.9679 6.9762C10.9544 6.96657 10.9545 6.96667 10.9413 6.95663C10.9385 6.95423 10.9356 6.95183 10.9327 6.94933L10.9317 6.9485L10.93 6.947L10.9261 6.94357L10.924 6.9416L10.9222 6.94007L10.9194 6.93737L10.9187 6.9367L10.9184 6.93643C10.9162 6.93433 10.9141 6.93223 10.912 6.93003L10.9115 6.9296L10.911 6.929C10.9081 6.92603 10.9054 6.92303 10.9028 6.9199L10.9014 6.91833L10.9012 6.918L10.9004 6.9171L10.8991 6.91537L10.8983 6.9144L10.8978 6.9137L10.8966 6.9121L10.8956 6.9108L10.8953 6.9104L10.8947 6.9095C10.888 6.9001 10.8825 6.88993 10.8788 6.8787C10.8698 6.85183 10.8747 6.82333 10.882 6.79663C10.8998 6.7317 10.938 6.6729 10.9768 6.61883C10.9939 6.595 11.0118 6.57173 11.0299 6.54873C11.0493 6.5242 11.0674 6.50207 11.0875 6.47733C11.1202 6.43723 11.1529 6.3972 11.1847 6.35647C11.203 6.3324 11.2209 6.30813 11.2384 6.28343C11.2787 6.22363 11.3179 6.16047 11.3363 6.09C11.3558 6.01553 11.3656 5.93897 11.3685 5.8621L11.3692 5.83677L11.3693 5.8285L11.3695 5.81133L11.3695 5.80157L11.3693 5.78583L11.3691 5.7756L11.3687 5.7601L11.3683 5.7499L11.3676 5.734L11.3671 5.72437L11.3659 5.70657L11.3654 5.6989L11.3633 5.67383L11.3626 5.6669L11.3608 5.64863L11.3596 5.6383L11.3578 5.62347L11.3563 5.61213L11.3543 5.59837L11.3526 5.5865L11.3505 5.57343L11.3485 5.56117L11.3463 5.5487L11.344 5.53603L11.3418 5.52483C11.3394 5.5127 11.3369 5.50063 11.3342 5.4886C11.3301 5.4702 11.3257 5.45187 11.3209 5.43363C11.3016 5.36067 11.2775 5.28753 11.2346 5.22473C11.1834 5.1497 11.1116 5.0912 11.0337 5.04563C11.0108 5.03227 10.9874 5.02 10.9635 5.0086C10.9504 5.00233 10.9372 4.99603 10.9234 4.9914C10.9032 4.9846 10.8823 4.98073 10.8613 4.97743C10.8078 4.9705 10.7539 4.96777 10.7004 4.9618C10.6636 4.95653 10.617 4.95177 10.5909 4.9218C10.577 4.9058 10.5693 4.88567 10.5625 4.86593C10.5524 4.8332 10.5443 4.79997 10.534 4.7673C10.5259 4.74453 10.5164 4.72107 10.4983 4.70423L10.4946 4.701L10.4933 4.7L10.4907 4.69807L10.4891 4.697L10.4867 4.6954L10.4849 4.6944L10.4825 4.69303L10.4807 4.6921L10.4781 4.6909L10.4763 4.69007L10.4736 4.68897L10.4718 4.68827L10.4688 4.6872L10.4673 4.68667L10.4627 4.6853L10.4616 4.68497L10.4581 4.68407L10.451 4.6825L10.4452 4.68143L10.4413 4.68073L10.4355 4.67987L10.4314 4.6793L10.4223 4.6781C10.3852 4.67333 10.3476 4.6719 10.3102 4.6712C10.1909 4.6689 10.0714 4.6747 9.9522 4.68293L9.89567 4.687L9.83313 4.69177L9.8103 4.6937C9.80333 4.68207 9.796 4.67077 9.7885 4.65947C9.7741 4.6389 9.75913 4.61903 9.74363 4.5993C9.68577 4.52897 9.61987 4.46557 9.54467 4.41387C9.51243 4.3917 9.47857 4.3702 9.4426 4.35453L9.4341 4.351L9.43143 4.34993L9.42543 4.3476L9.42253 4.34653L9.41627 4.3443L9.41397 4.3435L9.40553 4.3407L9.40373 4.34013C9.3747 4.331 9.3447 4.32487 9.31473 4.32033C9.25323 4.311 9.1908 4.30843 9.12867 4.3087C9.0356 4.30907 8.9427 4.3161 8.85013 4.3259L8.83807 4.3272L8.80043 4.3314L8.75027 4.33737C8.70367 4.34307 8.65713 4.3494 8.61043 4.3546C8.5912 4.35673 8.5721 4.35823 8.553 4.36103C8.54073 4.3633 8.52873 4.36603 8.51667 4.36923C8.4351 4.39393 8.3649 4.44217 8.29913 4.4953C8.231 4.55033 8.16707 4.61033 8.09997 4.66663C8.07757 4.68487 8.07763 4.6848 8.05487 4.70257C7.996 4.7464 7.9355 4.78513 7.86557 4.80843L7.8531 4.81213L7.84097 4.8153L7.84087 4.81823C7.83903 4.866 7.8342 4.91527 7.82373 4.96303C7.8214 4.98333 7.819 5.00363 7.81657 5.02393C7.81243 5.05387 7.8085 5.08377 7.8032 5.11353C7.79967 5.1335 7.79567 5.15337 7.7908 5.17307C7.78647 5.1907 7.78147 5.20817 7.77533 5.22527C7.7667 5.24927 7.7555 5.27333 7.74017 5.29397L7.73757 5.29747L7.73543 5.30007L7.735 5.30063L7.73433 5.3014L7.73187 5.30443L7.7302 5.30623L7.7295 5.30703L7.7282 5.3084L7.72577 5.31107L7.7245 5.3123L7.7237 5.31313L7.72177 5.31497L7.71933 5.31737L7.71783 5.31867L7.7173 5.31913C7.7154 5.32083 7.71347 5.32247 7.71143 5.32403L7.7111 5.32433L7.71067 5.32463C7.7087 5.3262 7.70667 5.3277 7.70457 5.32913L7.70147 5.3312L7.7011 5.33143L7.70073 5.3317L7.6989 5.33283L7.6976 5.33363L7.6971 5.33393L7.6948 5.33523L7.6936 5.33593L7.6895 5.3381C7.67923 5.3433 7.6683 5.3471 7.65707 5.3496C7.6496 5.3513 7.6424 5.35243 7.6354 5.35273L7.63123 5.3528C7.61737 5.3527 7.60433 5.34897 7.5918 5.33917C7.57803 5.3284 7.5672 5.31373 7.558 5.29907C7.5537 5.29227 7.5496 5.28537 7.54557 5.27843C7.51217 5.29183 7.47763 5.30233 7.4426 5.3105C7.359 5.32997 7.2733 5.3356 7.18773 5.33783C7.1274 5.33877 7.06713 5.33797 7.0068 5.33743C6.95503 5.33697 6.90323 5.3382 6.85147 5.3367C6.81023 5.33483 6.76933 5.33093 6.7283 5.32613C6.69813 5.32203 6.66803 5.31743 6.63797 5.31263C6.63363 5.313 6.62933 5.31333 6.625 5.31363C6.61127 5.3146 6.59747 5.31533 6.58367 5.31563L6.5699 5.31583C6.51483 5.31597 6.4603 5.30897 6.4094 5.28557C6.40197 5.28217 6.3947 5.2785 6.38757 5.27463C6.3697 5.2727 6.35183 5.27123 6.3339 5.27063C6.29213 5.26923 6.2503 5.27243 6.20853 5.27267C6.19017 5.2723 6.17213 5.27137 6.15387 5.26963C6.1314 5.2666 6.1091 5.2621 6.08847 5.2524C6.07003 5.24373 6.05367 5.23103 6.0384 5.21773C6.0168 5.1989 5.997 5.17783 5.97827 5.1562C5.93647 5.10797 5.8972 5.05763 5.85477 5.00997C5.8422 4.99633 5.82943 4.98307 5.81623 4.97007C5.7755 4.9323 5.73023 4.89703 5.67313 4.89237L5.6659 4.89217L5.62837 4.88083C5.61887 4.8817 5.60937 4.8825 5.59983 4.88323L5.59583 4.88357L5.5795 4.8847C5.5685 4.88517 5.5575 4.88557 5.5465 4.88567H5.5355C5.52083 4.88553 5.50617 4.8848 5.49157 4.883C5.46803 4.8801 5.4446 4.87463 5.42303 4.86457C5.39157 4.8498 5.36857 4.82577 5.35117 4.79733L5.24047 4.764C5.2211 4.7185 5.1984 4.6745 5.17893 4.62907C5.17153 4.6108 5.1645 4.59247 5.159 4.57353C5.1482 4.53627 5.142 4.49723 5.13633 4.4589C5.12587 4.38843 5.11993 4.31213 5.13773 4.24183ZM5.8891 11.0254L6.18017 11.7113C6.1796 11.6969 6.17913 11.6825 6.17873 11.6681C6.17773 11.6324 6.17647 11.5968 6.1747 11.5612C6.17273 11.5326 6.17047 11.5042 6.16703 11.4758C6.1598 11.4237 6.14927 11.372 6.12867 11.3233C6.10293 11.2625 6.062 11.2074 6.0209 11.1562C5.98323 11.1093 5.94183 11.0606 5.8913 11.0268L5.8891 11.0254ZM5.6953 6.03803C6.10317 6.21447 6.43113 6.52903 6.51643 7.11947C6.593 7.12367 6.6596 7.1501 6.72183 7.19847C6.6834 7.27783 6.6524 7.36063 6.6293 7.4459H6.37107C6.3153 7.6904 6.3153 7.94433 6.37107 8.18883H6.6293C6.66107 8.306 6.7077 8.4186 6.7681 8.5239L6.5855 8.7065C6.71897 8.91883 6.89853 9.0984 7.11087 9.23187L7.29347 9.04927C7.39877 9.10967 7.51137 9.1563 7.62853 9.18803V9.4463C7.87303 9.50203 8.12697 9.50203 8.37147 9.4463V9.18803C8.48863 9.1563 8.60123 9.10967 8.70653 9.04927L9.11753 9.46027C8.79903 9.67747 8.41423 9.8045 8 9.8045C6.90327 9.8045 6.01287 8.9141 6.01287 7.81737C6.01287 7.66553 6.02643 7.50747 6.0337 7.34093C6.04007 7.19533 5.992 6.94967 5.8593 6.8169C5.62663 6.58403 5.3908 6.42963 5.3908 6.42963L5.6953 6.03803ZM10.3047 9.5967C9.89683 9.42027 9.56887 9.1057 9.48357 8.51527C9.407 8.51103 9.3404 8.48463 9.27817 8.43627C9.3166 8.3569 9.3476 8.2741 9.3707 8.18883H9.62893C9.6847 7.94433 9.6847 7.6904 9.62893 7.4459H9.3707C9.33893 7.32873 9.2923 7.21613 9.2319 7.11083L9.4145 6.92823C9.28103 6.7159 9.10147 6.53633 8.88913 6.40287L8.70653 6.58547C8.60123 6.52507 8.48863 6.47843 8.37147 6.44667V6.18843C8.12697 6.13267 7.87303 6.13267 7.62853 6.18843V6.44667C7.51137 6.47843 7.39877 6.52507 7.29347 6.58547L6.88247 6.17447C7.20097 5.95727 7.58577 5.83023 8 5.83023C9.09673 5.83023 9.98713 6.72063 9.98713 7.81737C9.98713 7.9692 9.97357 8.12727 9.9663 8.2938C9.95993 8.4394 10.008 8.68507 10.1407 8.81783C10.3734 9.0507 10.6092 9.2051 10.6092 9.2051L10.3047 9.5967ZM11.8811 8.8234C11.8383 8.87137 11.7903 8.91567 11.7475 8.96147C11.7355 8.9748 11.7238 8.98827 11.7126 9.00223C11.6967 9.0233 11.6814 9.04477 11.673 9.06997C11.6664 9.09237 11.6635 9.11847 11.6597 9.13973C11.6561 9.16027 11.6539 9.17463 11.6506 9.19517C11.647 9.2193 11.6434 9.24397 11.6402 9.26887L11.8811 8.8234ZM8.27073 6.4563C8.092 6.42073 7.908 6.42073 7.72927 6.4563L7.7359 6.66773C7.6077 6.6972 7.48533 6.7479 7.37383 6.8177L7.22903 6.6635C7.0775 6.76477 6.9474 6.89487 6.84613 7.0464L7.00037 7.1912C6.93053 7.30267 6.87983 7.42507 6.85037 7.55327L6.63893 7.54663C6.6034 7.72537 6.6034 7.90937 6.63893 8.0881L6.85037 8.08147C6.87983 8.20967 6.93053 8.33203 7.00037 8.44353L6.84613 8.58833C6.9474 8.73987 7.0775 8.86997 7.22903 8.97123L7.37383 8.817C7.48533 8.88683 7.6077 8.93753 7.7359 8.967L7.72927 9.17843C7.908 9.21397 8.092 9.21397 8.27073 9.17843L8.2641 8.967C8.3923 8.93753 8.51467 8.88683 8.62617 8.817L8.77097 8.97123C8.9225 8.86997 9.0526 8.73987 9.15387 8.58833L8.99963 8.44353C9.06947 8.33203 9.12017 8.20967 9.14963 8.08147L9.36107 8.0881C9.3966 7.90937 9.3966 7.72537 9.36107 7.54663L9.14963 7.55327C9.12017 7.42507 9.06947 7.30267 8.99963 7.1912L9.15387 7.0464C9.0526 6.89487 8.9225 6.76477 8.77097 6.6635L8.62617 6.8177C8.51467 6.7479 8.3923 6.6972 8.2641 6.66773L8.27073 6.4563ZM7.93987 7.06107V6.9357H8.06013V7.06063C8.19863 7.03467 8.26103 6.92787 8.25927 6.9367C8.23653 7.04397 8.18373 7.1601 8.06013 7.18903V7.44643C8.30747 7.41837 8.4185 7.23073 8.4155 7.24543C8.37693 7.42473 8.2843 7.61973 8.06013 7.65033V7.88433C8.3642 7.85737 8.50057 7.6416 8.49693 7.6583C8.45013 7.86183 8.3368 8.08347 8.06013 8.11277V8.39553C8.44877 8.36737 8.6229 8.08333 8.6183 8.10497C8.5561 8.38383 8.39913 8.6892 8 8.6907C7.59997 8.69193 7.4432 8.3844 7.38387 8.10373C7.38007 8.0835 7.5515 8.3694 7.93987 8.39583V8.1133C7.66127 8.0864 7.54777 7.86267 7.50303 7.65733C7.50003 7.6417 7.63483 7.85977 7.93987 7.88477V7.65093C7.71407 7.62233 7.62137 7.42547 7.5845 7.24457C7.582 7.2308 7.69177 7.42047 7.93987 7.44687V7.18967C7.8153 7.16173 7.76247 7.04443 7.74073 6.93617C7.73927 6.92787 7.80097 7.03587 7.93987 7.06107ZM4.62263 8.0408L4.66737 8.14623C4.6665 8.1321 4.665 8.118 4.66237 8.10403C4.6598 8.09043 4.6564 8.07603 4.64873 8.0643C4.64197 8.0551 4.63197 8.04783 4.62263 8.0408ZM6.1688 5.1034C6.17383 5.10417 6.17887 5.1046 6.18403 5.1051C6.2286 5.10743 6.2732 5.10413 6.3178 5.1037C6.33973 5.10403 6.33957 5.10403 6.3614 5.10517C6.48113 5.1158 6.59867 5.13857 6.7174 5.15647C6.74897 5.16077 6.78043 5.16443 6.81217 5.16743C6.8375 5.1693 6.86277 5.17047 6.88817 5.17077C6.98687 5.1703 7.08557 5.17273 7.18427 5.1712C7.2515 5.16943 7.31887 5.16573 7.38497 5.15247C7.42593 5.14423 7.46633 5.13233 7.50433 5.1148C7.54413 5.09643 7.58643 5.07173 7.614 5.03687C7.63527 5.00997 7.64817 4.97723 7.6568 4.9443C7.67047 4.8922 7.6744 4.83767 7.675 4.784C7.67533 4.75467 7.6745 4.72533 7.67297 4.69603C7.6714 4.6652 7.66883 4.63443 7.66617 4.60367C7.6572 4.51053 7.64533 4.4177 7.63727 4.3245C7.632 4.25127 7.6312 4.17787 7.62717 4.10457C7.62543 4.07997 7.62327 4.05557 7.6205 4.03107C7.61563 3.9966 7.60993 3.96233 7.5987 3.9293C7.5951 3.91873 7.59173 3.9047 7.58427 3.89607C7.57883 3.8906 7.5725 3.88633 7.5661 3.8821C7.55853 3.8775 7.5509 3.8732 7.5431 3.86903C7.5042 3.84967 7.46447 3.83207 7.4258 3.8122C7.3765 3.78557 7.32963 3.75503 7.29087 3.71407C7.25547 3.6767 7.22943 3.63193 7.20467 3.58713C7.17647 3.53617 7.1524 3.48297 7.1341 3.4276C7.11743 3.3772 7.10607 3.32563 7.0961 3.2736L7.0948 3.26247C7.08897 3.263 7.0831 3.26353 7.07723 3.26407L7.06607 3.2651L7.06307 3.26537L7.05527 3.2661L7.0522 3.26633L7.04577 3.26687L7.0426 3.26713L7.02937 3.26807C6.99483 3.26923 6.96027 3.26863 6.9257 3.26887C6.84997 3.2694 6.82877 3.26997 6.753 3.27127L6.72463 3.27197L6.72027 3.2721L6.7172 3.27217L6.6679 3.2736L6.6522 3.2741L6.6456 3.2743L6.64297 3.2744C6.63207 3.27473 6.62117 3.2751 6.61027 3.27547L6.6098 3.2755L6.607 3.2756L6.58283 3.27643L6.5772 3.27667L6.57403 3.27677L6.54313 3.27793L6.53827 3.2781L6.5341 3.27827L6.52613 3.27857L6.50247 3.2795L6.50167 3.27953C6.49 3.28 6.47837 3.28047 6.4667 3.28097C6.41093 3.28323 6.35513 3.28567 6.29933 3.28807C6.1978 3.29083 6.09623 3.28687 5.9947 3.28933C5.95383 3.29077 5.91247 3.2927 5.87153 3.2976C5.86297 3.2986 5.85443 3.29977 5.8459 3.30107L5.8453 3.30113L5.84477 3.30123L5.84123 3.3018L5.83877 3.30217L5.8384 3.30223L5.8377 3.30237L5.83487 3.30283L5.83227 3.30327L5.83157 3.3034L5.83063 3.30357L5.82823 3.304L5.82577 3.30443L5.82473 3.30463L5.8236 3.30483L5.8215 3.30523L5.81927 3.30567L5.81793 3.30593L5.81657 3.3062L5.8128 3.30697L5.81113 3.30733L5.80957 3.30763L5.80803 3.30797L5.80633 3.30833L5.80433 3.3088L5.80257 3.30917L5.8013 3.30947L5.79987 3.3098L5.79753 3.31033L5.7956 3.3108L5.7946 3.31103L5.79347 3.3113L5.79073 3.312L5.78867 3.3125L5.7879 3.3127L5.78703 3.3129L5.78387 3.31373L5.78123 3.31443L5.78067 3.3146L5.7768 3.31567L5.77483 3.3162C5.77263 3.31683 5.77017 3.31753 5.76793 3.3182C5.746 3.32477 5.7242 3.33297 5.70453 3.34487C5.69803 3.3488 5.68917 3.35323 5.68487 3.3599C5.68133 3.36603 5.68013 3.37343 5.67893 3.38033C5.6749 3.4084 5.67663 3.4369 5.6784 3.4651L5.67893 3.47157C5.6806 3.49257 5.68253 3.51357 5.6844 3.53457C5.6866 3.5591 5.68873 3.5836 5.69033 3.6082C5.69067 3.61517 5.69093 3.62217 5.6911 3.62917C5.69337 3.70837 5.68713 3.78767 5.6556 3.86143C5.6409 3.89583 5.6217 3.92837 5.5998 3.95867C5.5748 3.99323 5.54577 4.02417 5.5152 4.0538L5.5109 4.05777L5.50943 4.0591L5.50667 4.06163L5.49903 4.06853L5.49807 4.0694L5.48907 4.0774L5.48027 4.08507L5.4756 4.0891L5.47157 4.09257L5.466 4.09737L5.44703 4.11347C5.4208 4.1357 5.39453 4.15783 5.36937 4.1813C5.3444 4.2056 5.3189 4.23227 5.30517 4.2649C5.2884 4.30487 5.2922 4.35477 5.2964 4.39637C5.29897 4.4221 5.303 4.4477 5.30767 4.47313C5.3115 4.49417 5.3151 4.5154 5.32177 4.53573C5.3304 4.56203 5.34247 4.58707 5.35417 4.6121L5.36087 4.6262L5.6927 4.72617L5.68223 4.72587C5.69827 4.7272 5.69813 4.72717 5.71407 4.72933C5.72933 4.7322 5.72923 4.73217 5.7443 4.7358C5.76753 4.74257 5.78987 4.75073 5.8115 4.76163C5.88297 4.79777 5.9397 4.8531 5.992 4.91303L6.00023 4.92253L6.00837 4.93207L6.01633 4.94153L6.02403 4.95073L6.03063 4.9587C6.0394 4.9693 6.0481 4.97993 6.05683 4.99053L6.07083 5.0075L6.08317 5.0223L6.09077 5.03127L6.09897 5.04087L6.1066 5.04967L6.11373 5.0577C6.12473 5.0696 6.13587 5.08113 6.14787 5.092C6.1514 5.09497 6.1564 5.1006 6.16113 5.10193C6.1637 5.10253 6.16623 5.103 6.1688 5.1034ZM7.61273 0.00926667C7.74103 0.0031 7.87017 0 8 0C8.1363 0 8.27207 0.00343333 8.40673 0.0102L7.61273 0.00926667Z" fill="#2F4A98"/>
</svg>
