<svg width="4" height="4" viewBox="0 0 4 4" fill="none" xmlns="http://www.w3.org/2000/svg">
<path fill-rule="evenodd" clip-rule="evenodd" d="M3.5248 3.59667H2.26063V2.36032C2.27755 2.16106 2.30752 1.97755 2.38104 1.84656C2.42474 1.87108 2.50273 1.97952 2.526 2.18934C2.58303 2.08636 2.65248 1.97091 2.77848 1.89769C2.78697 2.12495 2.77345 2.21142 2.70976 2.36963C2.62035 2.59175 2.3743 2.64346 2.3743 2.64346V3.483H3.41113C3.41113 2.79971 3.42403 2.1163 3.41103 1.43313C3.41081 1.42628 3.41042 1.41945 3.40986 1.41261C3.40672 1.37962 3.39892 1.34732 3.38599 1.31677C3.3542 1.2416 3.29344 1.18033 3.21882 1.14765L3.21872 1.14761C3.24124 1.11311 3.26426 1.08206 3.28704 1.05423C3.32781 1.07496 3.36528 1.10213 3.39766 1.13451C3.44341 1.18026 3.47876 1.23617 3.50026 1.29721C3.5166 1.3436 3.52449 1.39232 3.5248 1.44146V3.59667ZM2.16505 3.59667H0.900879V1.44146C0.901187 1.39232 0.909081 1.3436 0.925422 1.29721C0.946924 1.23617 0.982268 1.18026 1.02802 1.13451C1.0604 1.10213 1.09787 1.07496 1.13865 1.05423C1.16142 1.08206 1.18444 1.11311 1.20696 1.14761L1.20686 1.14765C1.13224 1.18033 1.07148 1.2416 1.03969 1.31677C1.02676 1.34732 1.01897 1.37962 1.01582 1.41261C1.01526 1.41945 1.01487 1.42628 1.01465 1.43313C1.00166 2.1163 1.01455 2.79971 1.01455 3.483H2.05138V2.64346C2.05138 2.64346 1.80533 2.59175 1.71592 2.36963C1.65224 2.21142 1.63871 2.12495 1.6472 1.89769C1.77321 1.97091 1.84265 2.08636 1.89968 2.18934C1.92295 1.97952 2.00095 1.87108 2.04464 1.84656C2.11816 1.97755 2.14813 2.16106 2.16505 2.36032V3.59667ZM2.69058 0.652588C2.68953 0.66293 2.68812 0.673241 2.68631 0.683507C2.68378 0.69789 2.68054 0.712135 2.67664 0.726203C2.64458 0.841999 2.57005 0.940504 2.48919 1.02707C2.47417 1.04314 2.45883 1.05891 2.44335 1.07452C2.42877 1.08921 2.41404 1.10377 2.39933 1.11834C2.42336 1.18888 2.4511 1.25814 2.48223 1.32584C2.49492 1.35344 2.5082 1.38074 2.52198 1.40779C2.56103 1.34738 2.60422 1.28962 2.65093 1.23502C2.68654 1.19341 2.72428 1.15354 2.76405 1.11583C2.73392 1.05862 2.71664 0.995248 2.70564 0.931691C2.68973 0.839702 2.68664 0.745843 2.69058 0.652588ZM1.7351 0.652588C1.73615 0.66293 1.73757 0.673241 1.73937 0.683507C1.7419 0.69789 1.74514 0.712135 1.74904 0.726203C1.78111 0.841999 1.85563 0.940504 1.93649 1.02707C1.95151 1.04314 1.96685 1.05891 1.98233 1.07452C1.99692 1.08921 2.01165 1.10377 2.02636 1.11834C2.00232 1.18888 1.97458 1.25814 1.94345 1.32584C1.93076 1.35344 1.91748 1.38074 1.90371 1.40779C1.86465 1.34738 1.82147 1.28962 1.77475 1.23502C1.73914 1.19341 1.7014 1.15354 1.66163 1.11583C1.69177 1.05862 1.70904 0.995248 1.72004 0.931691C1.73595 0.839702 1.73904 0.745843 1.7351 0.652588Z" fill="#B27D53"/>
<path fill-rule="evenodd" clip-rule="evenodd" d="M3.40758 0.861927C3.20789 1.00583 2.97432 1.32033 2.94679 1.65126C2.92438 1.92081 2.87832 2.03859 2.84392 2.08903C2.85916 1.99814 2.85907 1.87456 2.842 1.77492C2.80384 1.79181 2.7405 1.83073 2.68251 1.88839C2.6753 1.86481 2.61613 1.74368 2.42119 1.7974C2.43057 1.76721 2.44091 1.73736 2.45242 1.70789C2.47994 1.63741 2.51327 1.56921 2.5516 1.50392C2.55186 1.5035 2.55211 1.50308 2.55235 1.50265C2.59361 1.43252 2.64066 1.36576 2.6925 1.30317C2.73658 1.24993 2.78426 1.19955 2.83532 1.15288C2.83685 1.15169 2.83829 1.15038 2.83964 1.14894C2.87683 1.11522 2.9158 1.08345 2.95644 1.05398C3.07023 0.971466 3.19871 0.905662 3.3364 0.874529C3.35995 0.86921 3.38368 0.865068 3.40758 0.861927ZM1.01794 0.861927C1.21763 1.00583 1.45121 1.32033 1.47874 1.65126C1.50115 1.92081 1.54721 2.03859 1.5816 2.08903C1.56636 1.99814 1.56646 1.87456 1.58352 1.77492C1.62169 1.79181 1.68502 1.83073 1.74302 1.88839C1.75022 1.86481 1.8094 1.74368 2.00434 1.7974C1.99496 1.76721 1.98462 1.73736 1.97311 1.70789C1.94558 1.63741 1.91226 1.56921 1.87392 1.50392C1.87367 1.5035 1.87342 1.50308 1.87318 1.50265C1.83191 1.43252 1.78487 1.36576 1.73303 1.30317C1.68895 1.24993 1.64126 1.19955 1.59021 1.15288C1.58868 1.15169 1.58724 1.15038 1.58589 1.14894C1.54869 1.11522 1.50972 1.08345 1.46909 1.05398C1.3553 0.971466 1.22681 0.905662 1.08913 0.874529C1.06558 0.86921 1.04185 0.865068 1.01794 0.861927ZM2.33348 1.82695C2.31162 1.81097 2.27703 1.78225 2.21196 1.78245C2.14689 1.78266 2.11314 1.81153 2.09205 1.82695C2.07581 1.72472 2.00866 1.6021 1.94967 1.48354C1.97616 1.43347 2.05535 1.25936 2.07648 1.19344C2.1326 1.01841 2.18156 0.803847 2.21276 0.688158C2.24275 0.804168 2.29175 1.02612 2.34905 1.19344C2.37148 1.25893 2.44937 1.43347 2.47586 1.48354C2.41687 1.6021 2.34972 1.72472 2.33348 1.82695ZM2.77492 0.778347C2.79002 0.658485 2.92543 0.649641 3.00893 0.677602C3.12891 0.717787 3.1703 0.829869 3.07392 0.89211C3.02741 0.922148 2.97745 0.946653 2.93222 0.978214C2.89423 1.00473 2.85759 1.03314 2.82235 1.06322L2.82179 1.06198C2.78121 0.931514 2.76648 0.845278 2.77492 0.778347ZM1.65061 0.778347C1.63551 0.658485 1.5001 0.649641 1.4166 0.677602C1.29661 0.717787 1.25523 0.829869 1.3516 0.89211C1.39811 0.922148 1.44808 0.946653 1.49331 0.978214C1.5313 1.00473 1.56794 1.03314 1.60317 1.06322L1.60374 1.06198C1.64432 0.931514 1.65904 0.845278 1.65061 0.778347ZM2.30455 0.722413C2.29064 0.62773 2.38974 0.565961 2.46062 0.576328C2.50721 0.583139 2.63364 0.615424 2.5981 0.723867C2.58425 0.766148 2.56363 0.806113 2.53944 0.843402C2.49707 0.908677 2.44395 0.96587 2.38948 1.02108C2.38413 1.02644 2.37877 1.03179 2.3734 1.03714C2.35233 0.966116 2.33495 0.894011 2.32111 0.821232C2.31487 0.788406 2.3094 0.75546 2.30455 0.722413ZM2.12098 0.722413C2.13489 0.62773 2.03579 0.565961 1.96491 0.576328C1.91832 0.583139 1.79189 0.615424 1.82743 0.723867C1.84128 0.766148 1.8619 0.806113 1.88609 0.843402C1.92845 0.908677 1.98157 0.96587 2.03605 1.02108C2.0414 1.02644 2.04676 1.03179 2.05212 1.03714C2.07319 0.966116 2.09057 0.894011 2.10441 0.821232C2.11066 0.788406 2.11613 0.75546 2.12098 0.722413Z" fill="black"/>
</svg>
