<svg width="23" height="22" viewBox="0 0 23 22" fill="none" xmlns="http://www.w3.org/2000/svg">
<g style="mix-blend-mode:multiply" opacity="0.2">
<path d="M7.15173 7.7864V13.9537C11.1032 13.879 15.0547 12.3674 19.0065 7.64936L18.9896 0.591309C15.4099 4.89493 11.5317 7.645 7.15173 7.7864Z" fill="#1F1F48"/>
<path d="M15.5578 19.0327C15.5578 20.4941 14.3658 21.686 12.9043 21.686C11.4429 21.686 10.251 20.4941 10.251 19.0327C10.251 17.5712 11.4429 16.3792 12.9043 16.3792C14.3658 16.3792 15.5578 17.5712 15.5578 19.0327Z" fill="#1F1F48"/>
<path fill-rule="evenodd" clip-rule="evenodd" d="M15.4434 8.32373V14.491C11.0636 14.6324 7.18525 17.3825 3.60552 21.6861L3.58862 14.6281C7.54039 9.91001 11.4919 8.39846 15.4434 8.32373Z" fill="#AFB2AE"/>
</g>
</svg>
