<svg width="24" height="24" viewBox="0 0 24 24" fill="none" xmlns="http://www.w3.org/2000/svg">
<path d="M19 12V17.4444C19 17.857 18.8361 18.2527 18.5444 18.5444C18.2527 18.8361 17.857 19 17.4444 19H6.55556C6.143 19 5.74733 18.8361 5.45561 18.5444C5.16389 18.2527 5 17.857 5 17.4444V12H19ZM15.1111 5C15.3174 5 15.5152 5.08194 15.6611 5.22781C15.8069 5.37367 15.8889 5.5715 15.8889 5.77778V6.55556H17.4444C17.857 6.55556 18.2527 6.71944 18.5444 7.01117C18.8361 7.30289 19 7.69855 19 8.11111V10.4444H5V8.11111C5 7.69855 5.16389 7.30289 5.45561 7.01117C5.74733 6.71944 6.143 6.55556 6.55556 6.55556H8.11111V5.77778C8.11111 5.5715 8.19306 5.37367 8.33892 5.22781C8.48478 5.08194 8.68261 5 8.88889 5C9.09517 5 9.293 5.08194 9.43886 5.22781C9.58472 5.37367 9.66667 5.5715 9.66667 5.77778V6.55556H14.3333V5.77778C14.3333 5.5715 14.4153 5.37367 14.5611 5.22781C14.707 5.08194 14.9048 5 15.1111 5Z" fill="#B3B3C1"/>
</svg>
