<svg width="15" height="16" viewBox="0 0 15 16" fill="none" xmlns="http://www.w3.org/2000/svg">
<path fill-rule="evenodd" clip-rule="evenodd" d="M5.36295 0.00993612C5.50681 0.0278632 5.64574 0.0739507 5.77179 0.145567C5.89784 0.217184 6.00855 0.312928 6.0976 0.427331C6.18664 0.541734 6.25229 0.672557 6.29078 0.812329C6.32927 0.952102 6.33985 1.09809 6.32192 1.24195L6.06286 3.31297H8.98907L9.28272 0.968168C9.31903 0.677626 9.46926 0.413406 9.70038 0.233634C9.9315 0.0538613 10.2246 -0.0267376 10.5151 0.00956799C10.8056 0.0458735 11.0699 0.19611 11.2496 0.427226C11.4294 0.658342 11.51 0.951406 11.4737 1.24195L11.2146 3.31297H12.9537C13.2465 3.31297 13.5273 3.42927 13.7343 3.63631C13.9414 3.84334 14.0577 4.12413 14.0577 4.41692C14.0577 4.70971 13.9414 4.9905 13.7343 5.19753C13.5273 5.40456 13.2465 5.52087 12.9537 5.52087H10.9387L10.5707 8.46475H12.5858C12.8785 8.46475 13.1593 8.58106 13.3664 8.78809C13.5734 8.99512 13.6897 9.27592 13.6897 9.5687C13.6897 9.86149 13.5734 10.1423 13.3664 10.3493C13.1593 10.5563 12.8785 10.6727 12.5858 10.6727H10.2947L10.0018 13.0175C9.96546 13.308 9.81522 13.5722 9.58411 13.752C9.35299 13.9318 9.05993 14.0124 8.76938 13.9761C8.47884 13.9398 8.21462 13.7895 8.03485 13.5584C7.85508 13.3273 7.77448 13.0342 7.81078 12.7437L8.06911 10.6727H5.14363L4.85072 13.0175C4.81441 13.308 4.66417 13.5722 4.43306 13.752C4.20194 13.9318 3.90888 14.0124 3.61834 13.9761C3.32779 13.9398 3.06357 13.7895 2.8838 13.5584C2.70403 13.3273 2.62343 13.0342 2.65974 12.7437L2.91733 10.6727H1.54621C1.25343 10.6727 0.972633 10.5563 0.765601 10.3493C0.55857 10.1423 0.442261 9.86149 0.442261 9.5687C0.442261 9.27592 0.55857 8.99512 0.765601 8.78809C0.972633 8.58106 1.25343 8.46475 1.54621 8.46475H3.19331L3.5613 5.52087H1.9142C1.62141 5.52087 1.34062 5.40456 1.13359 5.19753C0.926554 4.9905 0.810245 4.70971 0.810245 4.41692C0.810245 4.12413 0.926554 3.84334 1.13359 3.63631C1.34062 3.42927 1.62141 3.31297 1.9142 3.31297H3.83729L4.13094 0.968168C4.14878 0.82424 4.1948 0.685238 4.26638 0.559104C4.33796 0.432969 4.43369 0.322174 4.5481 0.23305C4.66251 0.143926 4.79336 0.0782187 4.93318 0.0396833C5.073 0.00114797 5.21903 -0.00946048 5.36295 0.00846411V0.00993612ZM8.34657 8.46475L8.71455 5.52087H5.7876L5.41962 8.46475H8.34657Z" fill="#B3B3C1"/>
</svg>
