<svg width="54" height="63" viewBox="0 0 54 63" fill="none" xmlns="http://www.w3.org/2000/svg">
<g filter="url(#filter0_ii_2170_12062)">
<path d="M50.597 4.77148H11.3417C9.60776 4.77148 8.20215 6.1771 8.20215 7.91101V59.4643C8.20215 61.1982 9.60776 62.6039 11.3417 62.6039H50.597C52.3309 62.6039 53.7365 61.1982 53.7365 59.4643V7.91101C53.7365 6.1771 52.3309 4.77148 50.597 4.77148Z" fill="url(#paint0_linear_2170_12062)"/>
<path d="M50.597 4.77148H11.3417C9.60776 4.77148 8.20215 6.1771 8.20215 7.91101V59.4643C8.20215 61.1982 9.60776 62.6039 11.3417 62.6039H50.597C52.3309 62.6039 53.7365 61.1982 53.7365 59.4643V7.91101C53.7365 6.1771 52.3309 4.77148 50.597 4.77148Z" fill="url(#paint1_linear_2170_12062)"/>
</g>
<g filter="url(#filter1_f_2170_12062)">
<path d="M34.5922 4.77319H11.936C10.3348 4.77319 9.03638 6.17701 9.03638 7.91272V59.4638C9.03638 59.5774 9.04161 59.6896 9.05207 59.8002H42.3647C43.8448 59.8002 45.0468 58.4995 45.0468 56.8984V16.9456C45.0512 16.4036 44.851 15.8799 44.4862 15.479L34.5922 4.77319Z" fill="#91879F"/>
</g>
<g filter="url(#filter2_iiii_2170_12062)">
<path d="M32.0626 0.910657C31.6726 0.523484 31.1455 0.305891 30.596 0.305176H3.0735C1.4701 0.305176 0.169434 1.60584 0.169434 3.207V55.3008C0.169434 56.9064 1.4701 58.2071 3.0735 58.2071H42.737C44.3426 58.2071 45.641 56.9064 45.641 55.3008V15.3503C45.6403 14.8007 45.4227 14.2736 45.0356 13.8836L32.0626 0.910657Z" fill="url(#paint2_linear_2170_12062)"/>
</g>
<g filter="url(#filter3_f_2170_12062)">
<path d="M30.6858 1.16144C30.6858 0.744328 30.8069 0.477468 30.5781 0.432617C30.7956 0.446072 31.1096 0.524561 31.3092 0.603049C31.5626 0.703962 31.2486 0.925972 31.4482 1.11883L31.4662 1.13901L44.4369 14.1098C44.8241 14.4998 45.0417 15.0268 45.0424 15.5764V15.7064C45.0424 15.2243 44.697 14.9372 44.4369 14.9372H33.1727C32.5125 14.9372 31.8794 14.675 31.4126 14.2082C30.9458 13.7414 30.6835 13.1082 30.6835 12.448L30.6858 1.16144Z" fill="#D2C5DF"/>
</g>
<g filter="url(#filter4_ii_2170_12062)">
<path d="M31.2844 0.937721C31.2844 0.518369 30.957 0.354665 30.7283 0.309814C31.231 0.342404 31.705 0.555888 32.0626 0.910811L45.0333 13.8838C45.2264 14.076 45.3796 14.3046 45.4839 14.5563C45.5882 14.808 45.6416 15.0779 45.641 15.3504V15.4805C45.641 14.9983 45.2934 14.7113 45.0356 14.7113H33.7736C33.1134 14.7113 32.4803 14.449 32.0135 13.9822C31.5467 13.5154 31.2844 12.8823 31.2844 12.2221V0.937721Z" fill="url(#paint3_linear_2170_12062)"/>
</g>
<path d="M31.2844 0.937721C31.2844 0.518369 30.957 0.354665 30.7283 0.309814C31.231 0.342404 31.705 0.555888 32.0626 0.910811L45.0333 13.8838C45.2264 14.076 45.3796 14.3046 45.4839 14.5563C45.5882 14.808 45.6416 15.0779 45.641 15.3504V15.4805C45.641 14.9983 45.2934 14.7113 45.0356 14.7113H33.7736C33.1134 14.7113 32.4803 14.449 32.0135 13.9822C31.5467 13.5154 31.2844 12.8823 31.2844 12.2221V0.937721Z" fill="url(#paint4_linear_2170_12062)"/>
<path d="M36.2987 20.9512H9.49611C8.92764 20.9512 8.4668 21.412 8.4668 21.9805C8.4668 22.549 8.92764 23.0098 9.49611 23.0098H36.2987C36.8672 23.0098 37.328 22.549 37.328 21.9805C37.328 21.412 36.8672 20.9512 36.2987 20.9512Z" fill="url(#paint5_linear_2170_12062)"/>
<path d="M36.2987 27.175H9.49611C8.92764 27.175 8.4668 27.6359 8.4668 28.2044C8.4668 28.7728 8.92764 29.2337 9.49611 29.2337H36.2987C36.8672 29.2337 37.328 28.7728 37.328 28.2044C37.328 27.6359 36.8672 27.175 36.2987 27.175Z" fill="url(#paint6_linear_2170_12062)"/>
<path d="M36.2987 33.3962H9.49611C8.92764 33.3962 8.4668 33.8571 8.4668 34.4256C8.4668 34.994 8.92764 35.4549 9.49611 35.4549H36.2987C36.8672 35.4549 37.328 34.994 37.328 34.4256C37.328 33.8571 36.8672 33.3962 36.2987 33.3962Z" fill="url(#paint7_linear_2170_12062)"/>
<path d="M26.0728 39.6196H9.49611C8.92764 39.6196 8.4668 40.0805 8.4668 40.6489C8.4668 41.2174 8.92764 41.6783 9.49611 41.6783H26.0728C26.6413 41.6783 27.1021 41.2174 27.1021 40.6489C27.1021 40.0805 26.6413 39.6196 26.0728 39.6196Z" fill="url(#paint8_linear_2170_12062)"/>
<defs>
<filter id="filter0_ii_2170_12062" x="7.9779" y="4.54723" width="45.9829" height="58.2808" filterUnits="userSpaceOnUse" color-interpolation-filters="sRGB">
<feFlood flood-opacity="0" result="BackgroundImageFix"/>
<feBlend mode="normal" in="SourceGraphic" in2="BackgroundImageFix" result="shape"/>
<feColorMatrix in="SourceAlpha" type="matrix" values="0 0 0 0 0 0 0 0 0 0 0 0 0 0 0 0 0 0 127 0" result="hardAlpha"/>
<feOffset dx="0.224252" dy="-0.224252"/>
<feGaussianBlur stdDeviation="0.112126"/>
<feComposite in2="hardAlpha" operator="arithmetic" k2="-1" k3="1"/>
<feColorMatrix type="matrix" values="0 0 0 0 0.596078 0 0 0 0 0.529412 0 0 0 0 0.67451 0 0 0 1 0"/>
<feBlend mode="normal" in2="shape" result="effect1_innerShadow_2170_12062"/>
<feColorMatrix in="SourceAlpha" type="matrix" values="0 0 0 0 0 0 0 0 0 0 0 0 0 0 0 0 0 0 127 0" result="hardAlpha"/>
<feOffset dx="-0.224252" dy="0.224252"/>
<feGaussianBlur stdDeviation="0.224252"/>
<feComposite in2="hardAlpha" operator="arithmetic" k2="-1" k3="1"/>
<feColorMatrix type="matrix" values="0 0 0 0 0.811765 0 0 0 0 0.8 0 0 0 0 0.827451 0 0 0 1 0"/>
<feBlend mode="normal" in2="effect1_innerShadow_2170_12062" result="effect2_innerShadow_2170_12062"/>
</filter>
<filter id="filter1_f_2170_12062" x="6.79386" y="2.53067" width="40.4955" height="59.5121" filterUnits="userSpaceOnUse" color-interpolation-filters="sRGB">
<feFlood flood-opacity="0" result="BackgroundImageFix"/>
<feBlend mode="normal" in="SourceGraphic" in2="BackgroundImageFix" result="shape"/>
<feGaussianBlur stdDeviation="1.12126" result="effect1_foregroundBlur_2170_12062"/>
</filter>
<filter id="filter2_iiii_2170_12062" x="-0.0548185" y="-0.367581" width="46.3686" height="58.7989" filterUnits="userSpaceOnUse" color-interpolation-filters="sRGB">
<feFlood flood-opacity="0" result="BackgroundImageFix"/>
<feBlend mode="normal" in="SourceGraphic" in2="BackgroundImageFix" result="shape"/>
<feColorMatrix in="SourceAlpha" type="matrix" values="0 0 0 0 0 0 0 0 0 0 0 0 0 0 0 0 0 0 127 0" result="hardAlpha"/>
<feOffset dx="0.672756" dy="-0.672756"/>
<feGaussianBlur stdDeviation="0.672756"/>
<feComposite in2="hardAlpha" operator="arithmetic" k2="-1" k3="1"/>
<feColorMatrix type="matrix" values="0 0 0 0 0.807843 0 0 0 0 0.768627 0 0 0 0 0.85098 0 0 0 1 0"/>
<feBlend mode="normal" in2="shape" result="effect1_innerShadow_2170_12062"/>
<feColorMatrix in="SourceAlpha" type="matrix" values="0 0 0 0 0 0 0 0 0 0 0 0 0 0 0 0 0 0 127 0" result="hardAlpha"/>
<feOffset dx="0.224252" dy="-0.224252"/>
<feGaussianBlur stdDeviation="0.224252"/>
<feComposite in2="hardAlpha" operator="arithmetic" k2="-1" k3="1"/>
<feColorMatrix type="matrix" values="0 0 0 0 0.709804 0 0 0 0 0.690196 0 0 0 0 0.733333 0 0 0 1 0"/>
<feBlend mode="normal" in2="effect1_innerShadow_2170_12062" result="effect2_innerShadow_2170_12062"/>
<feColorMatrix in="SourceAlpha" type="matrix" values="0 0 0 0 0 0 0 0 0 0 0 0 0 0 0 0 0 0 127 0" result="hardAlpha"/>
<feOffset dy="-0.224252"/>
<feGaussianBlur stdDeviation="0.224252"/>
<feComposite in2="hardAlpha" operator="arithmetic" k2="-1" k3="1"/>
<feColorMatrix type="matrix" values="0 0 0 0 0.72549 0 0 0 0 0.65098 0 0 0 0 0.8 0 0 0 1 0"/>
<feBlend mode="normal" in2="effect2_innerShadow_2170_12062" result="effect3_innerShadow_2170_12062"/>
<feColorMatrix in="SourceAlpha" type="matrix" values="0 0 0 0 0 0 0 0 0 0 0 0 0 0 0 0 0 0 127 0" result="hardAlpha"/>
<feOffset dx="-0.336378" dy="0.336378"/>
<feGaussianBlur stdDeviation="0.112126"/>
<feComposite in2="hardAlpha" operator="arithmetic" k2="-1" k3="1"/>
<feColorMatrix type="matrix" values="0 0 0 0 0.952941 0 0 0 0 0.941176 0 0 0 0 0.964706 0 0 0 1 0"/>
<feBlend mode="normal" in2="effect3_innerShadow_2170_12062" result="effect4_innerShadow_2170_12062"/>
</filter>
<filter id="filter3_f_2170_12062" x="29.4569" y="-0.688643" width="16.7068" height="17.5164" filterUnits="userSpaceOnUse" color-interpolation-filters="sRGB">
<feFlood flood-opacity="0" result="BackgroundImageFix"/>
<feBlend mode="normal" in="SourceGraphic" in2="BackgroundImageFix" result="shape"/>
<feGaussianBlur stdDeviation="0.56063" result="effect1_foregroundBlur_2170_12062"/>
</filter>
<filter id="filter4_ii_2170_12062" x="30.7283" y="0.0855624" width="15.137" height="15.3949" filterUnits="userSpaceOnUse" color-interpolation-filters="sRGB">
<feFlood flood-opacity="0" result="BackgroundImageFix"/>
<feBlend mode="normal" in="SourceGraphic" in2="BackgroundImageFix" result="shape"/>
<feColorMatrix in="SourceAlpha" type="matrix" values="0 0 0 0 0 0 0 0 0 0 0 0 0 0 0 0 0 0 127 0" result="hardAlpha"/>
<feOffset dx="0.224252"/>
<feGaussianBlur stdDeviation="0.168189"/>
<feComposite in2="hardAlpha" operator="arithmetic" k2="-1" k3="1"/>
<feColorMatrix type="matrix" values="0 0 0 0 0.631373 0 0 0 0 0.611765 0 0 0 0 0.654902 0 0 0 1 0"/>
<feBlend mode="normal" in2="shape" result="effect1_innerShadow_2170_12062"/>
<feColorMatrix in="SourceAlpha" type="matrix" values="0 0 0 0 0 0 0 0 0 0 0 0 0 0 0 0 0 0 127 0" result="hardAlpha"/>
<feOffset dy="-0.224252"/>
<feGaussianBlur stdDeviation="0.168189"/>
<feComposite in2="hardAlpha" operator="arithmetic" k2="-1" k3="1"/>
<feColorMatrix type="matrix" values="0 0 0 0 0.752941 0 0 0 0 0.67451 0 0 0 0 0.835294 0 0 0 1 0"/>
<feBlend mode="normal" in2="effect1_innerShadow_2170_12062" result="effect2_innerShadow_2170_12062"/>
</filter>
<linearGradient id="paint0_linear_2170_12062" x1="38.7049" y1="49.9381" x2="55.5238" y2="57.9282" gradientUnits="userSpaceOnUse">
<stop stop-color="#AFAAB6"/>
<stop offset="1" stop-color="#B7B0C0"/>
</linearGradient>
<linearGradient id="paint1_linear_2170_12062" x1="11.6534" y1="63.5345" x2="39.6849" y2="45.7334" gradientUnits="userSpaceOnUse">
<stop stop-color="#A79FB2"/>
<stop offset="1" stop-color="#A79FB2" stop-opacity="0"/>
</linearGradient>
<linearGradient id="paint2_linear_2170_12062" x1="22.9064" y1="0.302933" x2="22.9064" y2="58.2071" gradientUnits="userSpaceOnUse">
<stop stop-color="#EBE4F3"/>
<stop offset="1" stop-color="#E4DAF0"/>
</linearGradient>
<linearGradient id="paint3_linear_2170_12062" x1="32.3205" y1="14.1282" x2="37.7989" y2="8.64975" gradientUnits="userSpaceOnUse">
<stop stop-color="#D9D3E1"/>
<stop offset="1" stop-color="#CCC7D1"/>
</linearGradient>
<linearGradient id="paint4_linear_2170_12062" x1="39.0301" y1="7.58007" x2="37.7003" y2="8.87625" gradientUnits="userSpaceOnUse">
<stop offset="0.119" stop-color="#DBDADC"/>
<stop offset="0.577" stop-color="#CBC7D0" stop-opacity="0"/>
</linearGradient>
<linearGradient id="paint5_linear_2170_12062" x1="8.4668" y1="21.9805" x2="37.328" y2="21.9805" gradientUnits="userSpaceOnUse">
<stop stop-color="#9C96A2"/>
<stop offset="1" stop-color="#9A95A1"/>
</linearGradient>
<linearGradient id="paint6_linear_2170_12062" x1="8.4668" y1="28.2044" x2="37.328" y2="28.2044" gradientUnits="userSpaceOnUse">
<stop stop-color="#9C96A2"/>
<stop offset="1" stop-color="#9A95A1"/>
</linearGradient>
<linearGradient id="paint7_linear_2170_12062" x1="8.4668" y1="34.4256" x2="37.328" y2="34.4256" gradientUnits="userSpaceOnUse">
<stop stop-color="#9C96A2"/>
<stop offset="1" stop-color="#9A95A1"/>
</linearGradient>
<linearGradient id="paint8_linear_2170_12062" x1="8.4668" y1="40.6489" x2="27.1021" y2="40.6489" gradientUnits="userSpaceOnUse">
<stop stop-color="#9C96A2"/>
<stop offset="1" stop-color="#9A95A1"/>
</linearGradient>
</defs>
</svg>
