<svg width="24" height="24" viewBox="0 0 24 24" fill="none" xmlns="http://www.w3.org/2000/svg">
<path d="M6.6616 7.5H17.3384C17.7578 7.5 18.101 7.1625 18.101 6.75C18.101 6.3375 17.7578 6 17.3384 6H6.6616C6.24216 6 5.89897 6.3375 5.89897 6.75C5.89897 7.1625 6.24216 7.5 6.6616 7.5ZM18.223 8.85C18.1544 8.505 17.8417 8.25 17.4757 8.25H6.52433C6.15827 8.25 5.84559 8.505 5.77695 8.85L5.01433 12.6C4.92281 13.065 5.28125 13.5 5.7617 13.5H5.89897V18.25C5.89897 18.6625 6.24216 19 6.6616 19H12.7626C13.1821 19 13.5253 18.6625 13.5253 18.25V13.5H16.5758V18.25C16.5758 18.6625 16.919 19 17.3384 19C17.7578 19 18.101 18.6625 18.101 18.25V13.5H18.2383C18.7188 13.5 19.0772 13.065 18.9857 12.6L18.223 8.85ZM12 17.5H7.42423V13.5H12V17.5Z" fill="#B3B3C1"/>
</svg>
