<svg width="20" height="16" viewBox="0 0 20 16" fill="none" xmlns="http://www.w3.org/2000/svg">
<path d="M4.2687 13.478C3.5807 13.478 2.9967 13.314 2.5167 12.986C2.0367 12.666 1.6727 12.234 1.4247 11.69C1.1847 11.154 1.0647 10.57 1.0647 9.93797C1.0647 9.55397 1.1247 9.13397 1.2447 8.67797C1.3727 8.22197 1.5207 7.80597 1.6887 7.42997L2.6847 7.88597C2.5407 8.19797 2.4207 8.54197 2.3247 8.91797C2.2287 9.28597 2.1807 9.62597 2.1807 9.93797C2.1807 10.394 2.2527 10.786 2.3967 11.114C2.5407 11.45 2.7647 11.71 3.0687 11.894C3.3807 12.086 3.7807 12.182 4.2687 12.182H4.8567C5.3927 12.182 5.8047 12.126 6.0927 12.014C6.3807 11.902 6.5807 11.718 6.6927 11.462C6.8127 11.214 6.8727 10.866 6.8727 10.418L6.8607 2.52197H7.9887L8.0007 10.418C8.0007 11.37 7.7487 12.118 7.2447 12.662C6.7407 13.206 5.9447 13.478 4.8567 13.478H4.2687Z" fill="#2E2E38"/>
<path d="M11.3215 10.454C10.7695 10.454 10.3295 10.35 10.0015 10.142C9.68151 9.92597 9.45351 9.62997 9.31751 9.25397C9.18151 8.86997 9.11351 8.40597 9.11351 7.86197L9.10151 2.59397H10.2295L10.2415 7.86197C10.2415 8.25397 10.2655 8.53797 10.3135 8.71397C10.3615 8.88197 10.4575 8.99797 10.6015 9.06197C10.7455 9.12597 10.9855 9.15797 11.3215 9.15797H11.5855L11.6575 9.81797L11.5855 10.454H11.3215Z" fill="#2E2E38"/>
<path d="M10.9877 9.15797H12.5117C12.9357 9.15797 13.2357 9.08597 13.4117 8.94197C13.5877 8.78997 13.6677 8.57797 13.6517 8.30597C13.6357 8.08197 13.5917 7.76597 13.5197 7.35797C13.4557 6.94997 13.3837 6.56197 13.3037 6.19397L14.3957 5.91797C14.4837 6.29397 14.5677 6.71797 14.6477 7.18997C14.7277 7.66197 14.7757 8.04197 14.7917 8.32997C14.7997 8.69797 14.7237 9.04597 14.5637 9.37397C14.4037 9.69397 14.1517 9.95397 13.8077 10.154C13.4717 10.354 13.0517 10.454 12.5477 10.454H10.9877V9.15797ZM10.5437 12.17C10.7597 12.17 10.9237 12.17 11.0357 12.17C11.1477 12.17 11.3157 12.17 11.5397 12.17C11.7717 12.17 12.0037 12.17 12.2357 12.17C12.2357 12.354 12.2357 12.494 12.2357 12.59C12.2357 12.686 12.2357 12.83 12.2357 13.022C12.2357 13.158 12.2357 13.298 12.2357 13.442C11.8437 13.442 11.5557 13.442 11.3717 13.442C11.1877 13.442 10.9117 13.442 10.5437 13.442C10.5437 13.154 10.5437 12.938 10.5437 12.794C10.5437 12.658 10.5437 12.45 10.5437 12.17ZM12.1517 12.17C12.5357 12.17 12.8197 12.17 13.0037 12.17C13.1877 12.17 13.4637 12.17 13.8317 12.17C13.8317 12.458 13.8317 12.67 13.8317 12.806C13.8317 12.95 13.8317 13.162 13.8317 13.442C13.4477 13.442 13.1637 13.442 12.9797 13.442C12.7957 13.442 12.5197 13.442 12.1517 13.442C12.1517 13.298 12.1517 13.158 12.1517 13.022C12.1517 12.83 12.1517 12.686 12.1517 12.59C12.1517 12.494 12.1517 12.354 12.1517 12.17Z" fill="#2E2E38"/>
<path d="M18.9353 6.64997V10.034C18.9353 10.77 18.8073 11.394 18.5513 11.906C18.3033 12.418 17.9353 12.806 17.4473 13.07C16.9673 13.342 16.3753 13.478 15.6713 13.478H14.9153V12.182H15.6713C16.1993 12.182 16.6153 12.11 16.9193 11.966C17.2313 11.83 17.4553 11.606 17.5913 11.294C17.7353 10.982 17.8073 10.562 17.8073 10.034V6.64997H18.9353Z" fill="#2E2E38"/>
</svg>
