<svg width="24" height="24" viewBox="0 0 24 24" fill="none" xmlns="http://www.w3.org/2000/svg">
<path d="M10 18H14" stroke="#393946" stroke-width="1.5" stroke-linecap="round" stroke-linejoin="round"/>
<path fill-rule="evenodd" clip-rule="evenodd" d="M16.9795 3H7.02148C6.46948 3 6.02148 3.448 6.02148 4V6.378C6.02148 6.799 6.15448 7.21 6.40148 7.551L9.62148 12L6.40148 16.449C6.15448 16.79 6.02148 17.201 6.02148 17.622V20C6.02148 20.552 6.46948 21 7.02148 21H16.9785C17.5305 21 17.9785 20.552 17.9785 20V17.658C17.9785 17.214 17.8305 16.783 17.5585 16.432L14.1215 12L17.5595 7.567C17.8315 7.216 17.9795 6.785 17.9795 6.341V4C17.9795 3.448 17.5315 3 16.9795 3Z" stroke="#393946" stroke-width="1.5" stroke-linecap="round" stroke-linejoin="round"/>
</svg>
