<svg xmlns="http://www.w3.org/2000/svg" xmlns:xlink="http://www.w3.org/1999/xlink" width="42" height="42" id="event">
    <defs>
        <linearGradient xlink:href="#a" id="b" x1="949.87" x2="974.39" y1="518.014" y2="544.657" gradientTransform="translate(-1272.559 316.47)scale(1.34562)" gradientUnits="userSpaceOnUse"></linearGradient>
        <linearGradient id="a">
            <stop offset="0" stop-color="#24f7bc"></stop>
            <stop offset="1" stop-color="#24c4fc"></stop>
        </linearGradient>
    </defs>
    <g transform="translate(0 -1010.362)">
        <rect width="100" height="42" y="1010.362" fill="url(#b)" rx="8.876" ry="8.876"></rect>
        <path fill="#fff" d="M13.498 1017.362a.5.5 0 0 0-.492.508v1.492H8.5a.5.5 0 0 0-.5.5v4.5h1v-4h4.006v1.092c-.58.209-1 .761-1 1.408 0 .823.677 1.5 1.5 1.5.822 0 1.5-.677 1.5-1.5 0-.647-.421-1.2-1-1.408v-1.092h15v1.092c-.58.209-1 .761-1 1.408 0 .823.677 1.5 1.5 1.5.822 0 1.5-.677 1.5-1.5 0-.647-.421-1.2-1-1.408v-1.092h4.006v4h1v-4.5a.5.5 0 0 0-.5-.5h-4.506v-1.492a.5.5 0 0 0-.508-.508.5.5 0 0 0-.492.508v1.492h-15v-1.492a.5.5 0 0 0-.508-.508zm-.047 5.01a.5.5 0 0 0 .108 0 .487.487 0 0 1 .447.49c0 .282-.218.5-.5.5a.493.493 0 0 1-.5-.5c0-.262.192-.463.445-.49zm16 0a.5.5 0 0 0 .108 0 .487.487 0 0 1 .447.49c0 .282-.218.5-.5.5a.493.493 0 0 1-.5-.5c0-.262.192-.463.445-.49zm-20.945 2.99a.5.5 0 0 0-.5.5v18a.5.5 0 0 0 .5.5h26a.5.5 0 0 0 .5-.5v-18a.5.5 0 0 0-.5-.5h-26zm.5 1h25v17h-25v-17zm9.5 1a.5.5 0 0 0-.5.5v2a.5.5 0 0 0 .5.5h2a.5.5 0 0 0 .5-.5v-2a.5.5 0 0 0-.5-.5h-2zm4 0a.5.5 0 0 0-.5.5v2a.5.5 0 0 0 .5.5h2a.5.5 0 0 0 .5-.5v-2a.5.5 0 0 0-.5-.5h-2zm4 0a.5.5 0 0 0-.5.5v2a.5.5 0 0 0 .5.5h2a.5.5 0 0 0 .5-.5v-2a.5.5 0 0 0-.5-.5h-2zm4 0a.5.5 0 0 0-.5.5v2a.5.5 0 0 0 .5.5h2a.5.5 0 0 0 .5-.5v-2a.5.5 0 0 0-.5-.5h-2zm-14.014.684a.5.5 0 0 0-.344.148l-.974.965-.313-.309a.5.5 0 1 0-.703.711l.664.657a.5.5 0 0 0 .703 0l1.327-1.313a.5.5 0 0 0-.36-.86zm-5.486.316v1h1v-1h-1zm8 0h1v1h-1v-1zm4 0h1v1h-1v-1zm4 0h1v1h-1v-1zm4 0h1v1h-1v-1zm-20.5 3a.5.5 0 0 0-.5.5v2a.5.5 0 0 0 .5.5h2a.5.5 0 0 0 .5-.5v-2a.5.5 0 0 0-.5-.5h-2zm4 0a.5.5 0 0 0-.5.5v2a.5.5 0 0 0 .5.5h2a.5.5 0 0 0 .5-.5v-2a.5.5 0 0 0-.5-.5h-2zm4 0a.5.5 0 0 0-.5.5v2a.5.5 0 0 0 .5.5h2a.5.5 0 0 0 .5-.5v-2a.5.5 0 0 0-.5-.5h-2zm4 0a.5.5 0 0 0-.5.5v2a.5.5 0 0 0 .5.5h2a.5.5 0 0 0 .5-.5v-2a.5.5 0 0 0-.5-.5h-2zm8 0a.5.5 0 0 0-.5.5v2a.5.5 0 0 0 .5.5h2a.5.5 0 0 0 .5-.5v-2a.5.5 0 0 0-.5-.5h-2zm-2.012.684a.5.5 0 0 0-.344.148l-.976.965-.313-.309a.5.5 0 1 0-.703.711l.664.657a.5.5 0 0 0 .703 0l1.329-1.313a.5.5 0 0 0-.36-.86zm-17.488.316h1v1h-1v-1zm4 0h1v1h-1v-1zm4 0h1v1h-1v-1zm4 0h1v1h-1v-1zm8 0h1v1h-1v-1zm-20.5 3a.5.5 0 0 0-.5.5v2a.5.5 0 0 0 .5.5h2a.5.5 0 0 0 .5-.5v-2a.5.5 0 0 0-.5-.5h-2zm4 0a.5.5 0 0 0-.5.5v2a.5.5 0 0 0 .5.5h2a.5.5 0 0 0 .5-.5v-2a.5.5 0 0 0-.5-.5h-2zm8 0a.5.5 0 0 0-.5.5v2a.5.5 0 0 0 .5.5h2a.5.5 0 0 0 .5-.5v-2a.5.5 0 0 0-.5-.5h-2zm4 0a.5.5 0 0 0-.5.5v2a.5.5 0 0 0 .5.5h2a.5.5 0 0 0 .5-.5v-2a.5.5 0 0 0-.5-.5h-2zm4 0a.5.5 0 0 0-.5.5v2a.5.5 0 0 0 .5.5h2a.5.5 0 0 0 .5-.5v-2a.5.5 0 0 0-.5-.5h-2zm-10.012.682a.5.5 0 0 0-.346.148l-.974.967-.313-.309a.5.5 0 1 0-.703.711l.664.657a.5.5 0 0 0 .703 0l1.327-1.315a.5.5 0 0 0-.358-.86zm-9.488.318h1v1h-1v-1zm4 0h1v1h-1v-1zm8 0h1v1h-1v-1zm4 0h1v1h-1v-1zm4 0h1v1h-1v-1zm-20.5 3a.5.5 0 0 0-.5.5v2a.5.5 0 0 0 .5.5h2a.5.5 0 0 0 .5-.5v-2a.5.5 0 0 0-.5-.5h-2zm4 0a.5.5 0 0 0-.5.5v2a.5.5 0 0 0 .5.5h2a.5.5 0 0 0 .5-.5v-2a.5.5 0 0 0-.5-.5h-2zm-3.5 1h1v1h-1v-1zm4 0h1v1h-1v-1zm4 0v1h1v-1h-1zm4 0v1h1v-1h-1zm4 0v1h1v-1h-1zm4 0v1h1v-1h-1z" color="#000" font-family="sans-serif" font-weight="400" overflow="visible" style="line-height:normal;text-indent:0;text-align:start;text-decoration-line:none;text-decoration-style:solid;text-decoration-color:#000;text-transform:none;block-progression:tb;isolation:auto;mix-blend-mode:normal"></path>
    </g>
</svg>
